<svg xmlns="http://www.w3.org/2000/svg" xmlns:xlink="http://www.w3.org/1999/xlink" contentStyleType="text/css" data-diagram-type="DESCRIPTION" height="1041px" preserveAspectRatio="none" style="width:381px;height:1041px;background:#FFFFFF;" version="1.1" viewBox="0 0 381 1041" width="381px" zoomAndPan="magnify"><?plantuml 1.2026.3?><defs/><g><!--cluster AI???????????--><g class="cluster" data-qualified-name="AI..........." data-source-line="10" id="ent0007"><rect fill="none" height="957" rx="2.5" ry="2.5" style="stroke:#181818;stroke-width:1;" width="188" x="179" y="7"/><text fill="#000000" font-family="sans-serif" font-size="14" font-weight="700" lengthAdjust="spacing" textLength="172.8125" x="186.5938" y="23.5332">AI&#26234;&#33021;&#36816;&#32500;&#19982;&#25925;&#38556;&#35786;&#26029;&#24179;&#21488;</text></g><!--entity UC_Login--><g class="entity" data-qualified-name="AI............UC_Login" data-source-line="11" id="ent0008"><ellipse cx="272.498" cy="520.0017" fill="#F1F1F1" rx="42.598" ry="15.4517" style="stroke:#181818;stroke-width:0.5;"/><text fill="#000000" font-family="sans-serif" font-size="14" lengthAdjust="spacing" textLength="56" x="244.498" y="525.3064">&#30331;&#24405;&#31995;&#32479;</text></g><!--entity UC_User--><g class="entity" data-qualified-name="AI............UC_User" data-source-line="12" id="ent0009"><ellipse cx="272.498" cy="58.0017" fill="#F1F1F1" rx="42.598" ry="15.4517" style="stroke:#181818;stroke-width:0.5;"/><text fill="#000000" font-family="sans-serif" font-size="14" lengthAdjust="spacing" textLength="56" x="244.498" y="63.3064">&#31649;&#29702;&#29992;&#25143;</text></g><!--entity UC_Role--><g class="entity" data-qualified-name="AI............UC_Role" data-source-line="13" id="ent0010"><ellipse cx="272.497" cy="124.0017" fill="#F1F1F1" rx="62.397" ry="15.4517" style="stroke:#181818;stroke-width:0.5;"/><text fill="#000000" font-family="sans-serif" font-size="14" lengthAdjust="spacing" textLength="84" x="230.497" y="129.3064">&#31649;&#29702;&#35282;&#33394;&#26435;&#38480;</text></g><!--entity UC_Device--><g class="entity" data-qualified-name="AI............UC_Device" data-source-line="14" id="ent0011"><ellipse cx="272.497" cy="454.0017" fill="#F1F1F1" rx="62.397" ry="15.4517" style="stroke:#181818;stroke-width:0.5;"/><text fill="#000000" font-family="sans-serif" font-size="14" lengthAdjust="spacing" textLength="84" x="230.497" y="459.3064">&#31649;&#29702;&#35774;&#22791;&#36164;&#20135;</text></g><!--entity UC_Dashboard--><g class="entity" data-qualified-name="AI............UC_Dashboard" data-source-line="15" id="ent0012"><ellipse cx="272.497" cy="256.0017" fill="#F1F1F1" rx="62.397" ry="15.4517" style="stroke:#181818;stroke-width:0.5;"/><text fill="#000000" font-family="sans-serif" font-size="14" lengthAdjust="spacing" textLength="84" x="230.497" y="261.3064">&#26597;&#30475;&#30417;&#25511;&#22823;&#23631;</text></g><!--entity UC_AlarmView--><g class="entity" data-qualified-name="AI............UC_AlarmView" data-source-line="16" id="ent0013"><ellipse cx="272.498" cy="586.0017" fill="#F1F1F1" rx="42.598" ry="15.4517" style="stroke:#181818;stroke-width:0.5;"/><text fill="#000000" font-family="sans-serif" font-size="14" lengthAdjust="spacing" textLength="56" x="244.498" y="591.3064">&#26597;&#30475;&#21578;&#35686;</text></g><!--entity UC_AlarmHandle--><g class="entity" data-qualified-name="AI............UC_AlarmHandle" data-source-line="17" id="ent0014"><ellipse cx="272.498" cy="718.0017" fill="#F1F1F1" rx="42.598" ry="15.4517" style="stroke:#181818;stroke-width:0.5;"/><text fill="#000000" font-family="sans-serif" font-size="14" lengthAdjust="spacing" textLength="56" x="244.498" y="723.3064">&#22788;&#29702;&#21578;&#35686;</text></g><!--entity UC_AlarmToOrder--><g class="entity" data-qualified-name="AI............UC_AlarmToOrder" data-source-line="18" id="ent0015"><ellipse cx="272.4975" cy="322.0017" fill="#F1F1F1" rx="52.4975" ry="15.4517" style="stroke:#181818;stroke-width:0.5;"/><text fill="#000000" font-family="sans-serif" font-size="14" lengthAdjust="spacing" textLength="70" x="237.4975" y="327.3064">&#21578;&#35686;&#36716;&#24037;&#21333;</text></g><!--entity UC_Assign--><g class="entity" data-qualified-name="AI............UC_Assign" data-source-line="19" id="ent0016"><ellipse cx="272.498" cy="388.0017" fill="#F1F1F1" rx="42.598" ry="15.4517" style="stroke:#181818;stroke-width:0.5;"/><text fill="#000000" font-family="sans-serif" font-size="14" lengthAdjust="spacing" textLength="56" x="244.498" y="393.3064">&#25351;&#27966;&#24037;&#21333;</text></g><!--entity UC_OrderHandle--><g class="entity" data-qualified-name="AI............UC_OrderHandle" data-source-line="20" id="ent0017"><ellipse cx="272.498" cy="652.0017" fill="#F1F1F1" rx="42.598" ry="15.4517" style="stroke:#181818;stroke-width:0.5;"/><text fill="#000000" font-family="sans-serif" font-size="14" lengthAdjust="spacing" textLength="56" x="244.498" y="657.3064">&#22788;&#29702;&#24037;&#21333;</text></g><!--entity UC_Log--><g class="entity" data-qualified-name="AI............UC_Log" data-source-line="21" id="ent0018"><ellipse cx="272.498" cy="933.0017" fill="#F1F1F1" rx="42.598" ry="15.4517" style="stroke:#181818;stroke-width:0.5;"/><text fill="#000000" font-family="sans-serif" font-size="14" lengthAdjust="spacing" textLength="56" x="244.498" y="938.3064">&#20998;&#26512;&#26085;&#24535;</text></g><!--entity UC_Diagnose--><g class="entity" data-qualified-name="AI............UC_Diagnose" data-source-line="22" id="ent0019"><ellipse cx="272.5013" cy="867.0017" fill="#F1F1F1" rx="51.9513" ry="15.4517" style="stroke:#181818;stroke-width:0.5;"/><text fill="#000000" font-family="sans-serif" font-size="14" lengthAdjust="spacing" textLength="69.2275" x="237.8875" y="872.3064">AI&#25925;&#38556;&#35786;&#26029;</text></g><!--entity UC_Upload--><g class="entity" data-qualified-name="AI............UC_Upload" data-source-line="23" id="ent0020"><ellipse cx="272.497" cy="190.0017" fill="#F1F1F1" rx="62.397" ry="15.4517" style="stroke:#181818;stroke-width:0.5;"/><text fill="#000000" font-family="sans-serif" font-size="14" lengthAdjust="spacing" textLength="84" x="230.497" y="195.3064">&#19978;&#20256;&#30693;&#35782;&#25991;&#26723;</text></g><!--entity UC_QA--><g class="entity" data-qualified-name="AI............UC_QA" data-source-line="24" id="ent0021"><ellipse cx="272.4975" cy="784.0017" fill="#F1F1F1" rx="52.4975" ry="15.4517" style="stroke:#181818;stroke-width:0.5;"/><text fill="#000000" font-family="sans-serif" font-size="14" lengthAdjust="spacing" textLength="70" x="237.4975" y="789.3064">&#30693;&#35782;&#24211;&#38382;&#31572;</text></g><!--entity Admin--><g class="entity" data-qualified-name="Admin" data-source-line="4" id="ent0002"><ellipse cx="41" cy="113.69" fill="#F1F1F1" rx="8" ry="8" style="stroke:#181818;stroke-width:0.5;"/><path d="M41,121.69 L41,148.69 M28,129.69 L54,129.69 M41,148.69 L28,163.69 M41,148.69 L54,163.69" fill="none" style="stroke:#181818;stroke-width:0.5;"/><text fill="#000000" font-family="sans-serif" font-size="14" lengthAdjust="spacing" textLength="70" x="6" y="179.7232">&#31995;&#32479;&#31649;&#29702;&#21592;</text></g><!--entity Manager--><g class="entity" data-qualified-name="Manager" data-source-line="5" id="ent0003"><ellipse cx="41" cy="338.69" fill="#F1F1F1" rx="8" ry="8" style="stroke:#181818;stroke-width:0.5;"/><path d="M41,346.69 L41,373.69 M28,354.69 L54,354.69 M41,373.69 L28,388.69 M41,373.69 L54,388.69" fill="none" style="stroke:#181818;stroke-width:0.5;"/><text fill="#000000" font-family="sans-serif" font-size="14" lengthAdjust="spacing" textLength="56" x="13" y="404.7232">&#36816;&#32500;&#20027;&#31649;</text></g><!--entity Operator--><g class="entity" data-qualified-name="Operator" data-source-line="6" id="ent0004"><ellipse cx="41" cy="680.69" fill="#F1F1F1" rx="8" ry="8" style="stroke:#181818;stroke-width:0.5;"/><path d="M41,688.69 L41,715.69 M28,696.69 L54,696.69 M41,715.69 L28,730.69 M41,715.69 L54,730.69" fill="none" style="stroke:#181818;stroke-width:0.5;"/><text fill="#000000" font-family="sans-serif" font-size="14" lengthAdjust="spacing" textLength="56" x="13" y="746.7232">&#36816;&#32500;&#20154;&#21592;</text></g><!--entity User--><g class="entity" data-qualified-name="User" data-source-line="7" id="ent0005"><ellipse cx="41" cy="525.69" fill="#F1F1F1" rx="8" ry="8" style="stroke:#181818;stroke-width:0.5;"/><path d="M41,533.69 L41,560.69 M28,541.69 L54,541.69 M41,560.69 L28,575.69 M41,560.69 L54,575.69" fill="none" style="stroke:#181818;stroke-width:0.5;"/><text fill="#000000" font-family="sans-serif" font-size="14" lengthAdjust="spacing" textLength="56" x="13" y="591.7232">&#26222;&#36890;&#29992;&#25143;</text></g><!--entity AI--><g class="entity" data-qualified-name="AI" data-source-line="8" id="ent0006"><ellipse cx="41.0038" cy="958.69" fill="#F1F1F1" rx="8" ry="8" style="stroke:#181818;stroke-width:0.5;"/><path d="M41.0038,966.69 L41.0038,993.69 M28.0038,974.69 L54.0038,974.69 M41.0038,993.69 L28.0038,1008.69 M41.0038,993.69 L54.0038,1008.69" fill="none" style="stroke:#181818;stroke-width:0.5;"/><text fill="#000000" font-family="sans-serif" font-size="14" lengthAdjust="spacing" textLength="41.2275" x="20.39" y="1024.7232">AI&#26381;&#21153;</text></g><!--link Admin to UC_Login--><g class="link" data-entity-1="ent0002" data-entity-2="ent0008" data-link-type="dependency" data-source-line="27" id="lnk22"><path d="M67.58,182.99 C96.37,229.12 141.88,309.23 163,385 C169.1,406.9 156.95,469.12 171,487 C185.12,504.97 203.3741,512.2115 224.4641,515.9915" fill="none" id="Admin-to-UC_Login" style="stroke:#181818;stroke-width:1;"/><polygon fill="#181818" points="230.37,517.05,222.2168,511.525,225.4484,516.1679,220.8055,519.3995,230.37,517.05" style="stroke:#181818;stroke-width:1;"/></g><!--link Admin to UC_User--><g class="link" data-entity-1="ent0002" data-entity-2="ent0009" data-link-type="dependency" data-source-line="28" id="lnk23"><path d="M69.3,105.03 C79.45,93.45 91.96,82 106,75 C145.03,55.53 189.6041,52.8884 224.5141,54.1784" fill="none" id="Admin-to-UC_User" style="stroke:#181818;stroke-width:1;"/><polygon fill="#181818" points="230.51,54.4,221.6638,50.0704,225.5134,54.2154,221.3684,58.0649,230.51,54.4" style="stroke:#181818;stroke-width:1;"/></g><!--link Admin to UC_Role--><g class="link" data-entity-1="ent0002" data-entity-2="ent0010" data-link-type="dependency" data-source-line="29" id="lnk24"><path d="M76.19,117.78 C85.39,112.13 95.67,106.96 106,104 C149.12,91.63 194.9336,99.912 228.9136,109.682" fill="none" id="Admin-to-UC_Role" style="stroke:#181818;stroke-width:1;"/><polygon fill="#181818" points="234.68,111.34,227.1357,105.0088,229.8747,109.9584,224.9251,112.6973,234.68,111.34" style="stroke:#181818;stroke-width:1;"/></g><!--link Admin to UC_Device--><g class="link" data-entity-1="ent0002" data-entity-2="ent0011" data-link-type="dependency" data-source-line="30" id="lnk25"><path d="M76.31,165.3 C110.29,186.75 157.97,217.91 163,227 C173.44,245.87 157.99,403.79 171,421 C181.52,434.91 192.2981,441.4013 208.9581,446.1313" fill="none" id="Admin-to-UC_Device" style="stroke:#181818;stroke-width:1;"/><polygon fill="#181818" points="214.73,447.77,207.1647,441.464,209.9201,446.4044,204.9797,449.1598,214.73,447.77" style="stroke:#181818;stroke-width:1;"/></g><!--link Admin to UC_Upload--><g class="link" data-entity-1="ent0002" data-entity-2="ent0020" data-link-type="dependency" data-source-line="31" id="lnk26"><path d="M76.47,136.06 C101.91,132.07 136.57,130.71 163,145 C168.64,148.04 165.9,153.12 171,157 C185.77,168.22 198.753,174.0742 216.063,179.0442" fill="none" id="Admin-to-UC_Upload" style="stroke:#181818;stroke-width:1;"/><polygon fill="#181818" points="221.83,180.7,214.2834,174.3716,217.0242,179.3202,212.0756,182.061,221.83,180.7" style="stroke:#181818;stroke-width:1;"/></g><!--link Admin to UC_Dashboard--><g class="link" data-entity-1="ent0002" data-entity-2="ent0012" data-link-type="dependency" data-source-line="32" id="lnk27"><path d="M76.23,146.87 C103.65,151.03 141.03,161.19 163,186 C174.15,198.59 159.74,210.49 171,223 C182.8,236.09 194.1103,242.3635 210.8603,247.1435" fill="none" id="Admin-to-UC_Dashboard" style="stroke:#181818;stroke-width:1;"/><polygon fill="#181818" points="216.63,248.79,209.0732,242.4738,211.8219,247.4179,206.8778,250.1667,216.63,248.79" style="stroke:#181818;stroke-width:1;"/></g><!--link Manager to UC_Login--><g class="link" data-entity-1="ent0003" data-entity-2="ent0008" data-link-type="dependency" data-source-line="34" id="lnk28"><path d="M69.45,375.44 C97.7,383.59 140.64,400.52 163,432 C177.3,452.13 155.11,468.09 171,487 C185.65,504.43 203.7929,511.6034 224.6829,515.5234" fill="none" id="Manager-to-UC_Login" style="stroke:#181818;stroke-width:1;"/><polygon fill="#181818" points="230.58,516.63,222.4721,511.0387,225.6658,515.7078,220.9967,518.9015,230.58,516.63" style="stroke:#181818;stroke-width:1;"/></g><!--link Manager to UC_Dashboard--><g class="link" data-entity-1="ent0003" data-entity-2="ent0012" data-link-type="dependency" data-source-line="35" id="lnk29"><path d="M69.34,345.38 C80.32,336.5 93.36,326.71 106,319 C144.97,295.22 188.674,279.5574 223.334,269.1374" fill="none" id="Manager-to-UC_Dashboard" style="stroke:#181818;stroke-width:1;"/><polygon fill="#181818" points="229.08,267.41,219.3094,266.1705,224.2917,268.8495,221.6127,273.8318,229.08,267.41" style="stroke:#181818;stroke-width:1;"/></g><!--link Manager to UC_AlarmView--><g class="link" data-entity-1="ent0003" data-entity-2="ent0013" data-link-type="dependency" data-source-line="36" id="lnk30"><path d="M59.91,408.06 C80.89,449.69 119.46,514.76 171,553 C189.29,566.56 207.6057,573.3297 227.6457,578.1397" fill="none" id="Manager-to-UC_AlarmView" style="stroke:#181818;stroke-width:1;"/><polygon fill="#181818" points="233.48,579.54,225.6621,573.5499,228.6181,578.373,223.795,581.329,233.48,579.54" style="stroke:#181818;stroke-width:1;"/></g><!--link Manager to UC_AlarmToOrder--><g class="link" data-entity-1="ent0003" data-entity-2="ent0015" data-link-type="dependency" data-source-line="37" id="lnk31"><path d="M69.25,360.68 C80.56,357.4 93.85,353.76 106,351 C145.82,341.93 185.6527,335.0409 218.9527,329.8109" fill="none" id="Manager-to-UC_AlarmToOrder" style="stroke:#181818;stroke-width:1;"/><polygon fill="#181818" points="224.88,328.88,215.3684,326.3248,219.9405,329.6558,216.6096,334.228,224.88,328.88" style="stroke:#181818;stroke-width:1;"/></g><!--link Manager to UC_Assign--><g class="link" data-entity-1="ent0003" data-entity-2="ent0016" data-link-type="dependency" data-source-line="38" id="lnk32"><path d="M69.23,371.25 C109.24,374.56 178.2304,380.2758 224.8104,384.1258" fill="none" id="Manager-to-UC_Assign" style="stroke:#181818;stroke-width:1;"/><polygon fill="#181818" points="230.79,384.62,222.1501,379.8922,225.807,384.2081,221.4911,387.8651,230.79,384.62" style="stroke:#181818;stroke-width:1;"/></g><!--link Operator to UC_Login--><g class="link" data-entity-1="ent0004" data-entity-2="ent0008" data-link-type="dependency" data-source-line="40" id="lnk33"><path d="M63.55,671.88 C85.7,635.42 123.6,582.39 171,553 C190.51,540.9 209.1232,534.2501 229.0032,529.0801" fill="none" id="Operator-to-UC_Login" style="stroke:#181818;stroke-width:1;"/><polygon fill="#181818" points="234.81,527.57,225.093,525.964,229.971,528.8284,227.1065,533.7064,234.81,527.57" style="stroke:#181818;stroke-width:1;"/></g><!--link Operator to UC_Device--><g class="link" data-entity-1="ent0004" data-entity-2="ent0011" data-link-type="dependency" data-source-line="41" id="lnk34"><path d="M54.2,671.77 C65.12,639.73 82.97,594.02 106,558 C129.04,521.95 135.06,510.2 171,487 C187.04,476.63 200.8795,470.9281 218.4895,465.7981" fill="none" id="Operator-to-UC_Device" style="stroke:#181818;stroke-width:1;"/><polygon fill="#181818" points="224.25,464.12,214.4904,462.7968,219.4495,465.5184,216.7279,470.4775,224.25,464.12" style="stroke:#181818;stroke-width:1;"/></g><!--link Operator to UC_AlarmView--><g class="link" data-entity-1="ent0004" data-entity-2="ent0013" data-link-type="dependency" data-source-line="42" id="lnk35"><path d="M69.41,689.35 C80.62,680.67 93.8,670.68 106,662 C134.21,641.9 139.82,634.09 171,619 C192.16,608.75 211.5125,602.1541 231.3525,596.4641" fill="none" id="Operator-to-UC_AlarmView" style="stroke:#181818;stroke-width:1;"/><polygon fill="#181818" points="237.12,594.81,227.366,593.4461,232.3138,596.1884,229.5715,601.1361,237.12,594.81" style="stroke:#181818;stroke-width:1;"/></g><!--link Operator to UC_AlarmHandle--><g class="link" data-entity-1="ent0004" data-entity-2="ent0014" data-link-type="dependency" data-source-line="43" id="lnk36"><path d="M69.3,716.21 C80.61,718.13 93.89,720.05 106,721 C148.26,724.28 190.7692,723.1123 224.2992,721.2523" fill="none" id="Operator-to-UC_AlarmHandle" style="stroke:#181818;stroke-width:1;"/><polygon fill="#181818" points="230.29,720.92,221.0823,717.4246,225.2977,721.1969,221.5254,725.4123,230.29,720.92" style="stroke:#181818;stroke-width:1;"/></g><!--link Operator to UC_OrderHandle--><g class="link" data-entity-1="ent0004" data-entity-2="ent0017" data-link-type="dependency" data-source-line="44" id="lnk37"><path d="M69.23,704 C111.02,693.25 185.1388,674.1933 231.0188,662.4033" fill="none" id="Operator-to-UC_OrderHandle" style="stroke:#181818;stroke-width:1;"/><polygon fill="#181818" points="236.83,660.91,227.1177,659.2759,231.9873,662.1544,229.1088,667.0241,236.83,660.91" style="stroke:#181818;stroke-width:1;"/></g><!--link Operator to UC_Log--><g class="link" data-entity-1="ent0004" data-entity-2="ent0018" data-link-type="dependency" data-source-line="45" id="lnk38"><path d="M52.13,750 C61.88,781.77 79.16,826.38 106,858 C139.07,896.95 190.7305,915.2197 228.4905,924.4197" fill="none" id="Operator-to-UC_Log" style="stroke:#181818;stroke-width:1;"/><polygon fill="#181818" points="234.32,925.84,226.5227,919.8232,229.4621,924.6564,224.6289,927.5958,234.32,925.84" style="stroke:#181818;stroke-width:1;"/></g><!--link Operator to UC_Diagnose--><g class="link" data-entity-1="ent0004" data-entity-2="ent0019" data-link-type="dependency" data-source-line="46" id="lnk39"><path d="M55.32,750.05 C65.55,774.42 82.04,804.56 106,823 C139.23,848.56 180.108,858.5527 215.478,863.0527" fill="none" id="Operator-to-UC_Diagnose" style="stroke:#181818;stroke-width:1;"/><polygon fill="#181818" points="221.43,863.81,213.0068,858.7061,216.47,863.179,211.9971,866.6421,221.43,863.81" style="stroke:#181818;stroke-width:1;"/></g><!--link Operator to UC_QA--><g class="link" data-entity-1="ent0004" data-entity-2="ent0021" data-link-type="dependency" data-source-line="47" id="lnk40"><path d="M58.44,750.24 C68.93,769.89 84.62,791.82 106,803 C149.32,825.63 201.9627,812.235 236.5527,799.065" fill="none" id="Operator-to-UC_QA" style="stroke:#181818;stroke-width:1;"/><polygon fill="#181818" points="242.16,796.93,232.3257,796.3942,237.4872,798.7091,235.1723,803.8706,242.16,796.93" style="stroke:#181818;stroke-width:1;"/></g><!--link User to UC_Login--><g class="link" data-entity-1="ent0005" data-entity-2="ent0008" data-link-type="dependency" data-source-line="49" id="lnk41"><path d="M69.23,551.72 C109.84,545.35 180.5125,534.27 226.9125,526.99" fill="none" id="User-to-UC_Login" style="stroke:#181818;stroke-width:1;"/><polygon fill="#181818" points="232.84,526.06,223.3288,523.5033,227.9004,526.835,224.5688,531.4067,232.84,526.06" style="stroke:#181818;stroke-width:1;"/></g><!--link User to UC_QA--><g class="link" data-entity-1="ent0005" data-entity-2="ent0021" data-link-type="dependency" data-source-line="50" id="lnk42"><path d="M55.68,595.29 C72.95,644.53 101.03,723.11 106,728 C137.24,758.74 180.0261,771.6073 216.5261,777.8573" fill="none" id="User-to-UC_QA" style="stroke:#181818;stroke-width:1;"/><polygon fill="#181818" points="222.44,778.87,214.2442,773.4084,217.5117,778.0261,212.894,781.2936,222.44,778.87" style="stroke:#181818;stroke-width:1;"/></g><!--link AI to UC_Log--><g class="link" data-entity-1="ent0006" data-entity-2="ent0018" data-link-type="dependency" data-source-line="52" id="lnk43"><path d="M62.11,997.63 C86.46,1006.85 128.49,1018.76 163,1008 C200.82,996.2 232.6884,970.189 252.2284,951.909" fill="none" id="AI-to-UC_Log" style="stroke:#181818;stroke-width:1;"/><polygon fill="#181818" points="256.61,947.81,247.305,951.0375,252.9587,951.2258,252.7703,956.8796,256.61,947.81" style="stroke:#181818;stroke-width:1;"/></g><!--link AI to UC_Diagnose--><g class="link" data-entity-1="ent0006" data-entity-2="ent0019" data-link-type="dependency" data-source-line="53" id="lnk44"><path d="M62.06,991.87 C89.17,994.5 137.1,994.52 163,967 C183.55,945.15 152,923.2 171,900 C183.68,884.51 197.9368,877.5927 216.8468,873.1827" fill="none" id="AI-to-UC_Diagnose" style="stroke:#181818;stroke-width:1;"/><polygon fill="#181818" points="222.69,871.82,213.0167,869.9686,217.8207,872.9556,214.8337,877.7595,222.69,871.82" style="stroke:#181818;stroke-width:1;"/></g><!--link AI to UC_QA--><g class="link" data-entity-1="ent0006" data-entity-2="ent0021" data-link-type="dependency" data-source-line="54" id="lnk45"><path d="M61.93,958.05 C84.95,924.19 125.55,869.94 171,834 C191.48,817.8 212.5257,807.1776 233.2057,798.5176" fill="none" id="AI-to-UC_QA" style="stroke:#181818;stroke-width:1;"/><polygon fill="#181818" points="238.74,796.2,228.8935,795.9868,234.1281,798.1313,231.9835,803.3659,238.74,796.2" style="stroke:#181818;stroke-width:1;"/></g><!--link UC_AlarmToOrder to UC_AlarmView--><g class="link" data-entity-1="ent0015" data-entity-2="ent0013" data-link-type="dependency" data-source-line="56" id="lnk46"><path d="M225.62,329.42 C207.03,334.24 186.44,342.12 171,355 C140.73,380.22 138.5,394.79 128.83,433 C114.97,487.8 129.51,514.6 171,553 C187.59,568.35 205.5543,575.2977 225.9543,579.6877" fill="none" id="UC_AlarmToOrder-to-UC_AlarmView" style="stroke:#181818;stroke-width:1;stroke-dasharray:7,7;"/><polygon fill="#181818" points="231.82,580.95,223.8629,575.1461,226.9319,579.8981,222.1799,582.9671,231.82,580.95" style="stroke:#181818;stroke-width:1;"/><text fill="#000000" font-family="sans-serif" font-size="13" lengthAdjust="spacing" textLength="55.6563" x="107" y="447.4951">&#171;include&#187;</text></g><!--link UC_OrderHandle to UC_Log--><g class="link" data-entity-1="ent0017" data-entity-2="ent0018" data-link-type="dependency" data-source-line="57" id="lnk47"><path d="M229.96,653.86 C196.34,657.89 151.58,669.49 129.83,702 C104.85,739.35 140.68,866.83 171,900 C186.32,916.75 204.3326,923.8629 225.0926,927.9429" fill="none" id="UC_OrderHandle-to-UC_Log" style="stroke:#181818;stroke-width:1;stroke-dasharray:7,7;"/><polygon fill="#181818" points="230.98,929.1,222.9203,923.4395,226.0739,928.1358,221.3776,931.2893,230.98,929.1" style="stroke:#181818;stroke-width:1;"/><text fill="#000000" font-family="sans-serif" font-size="13" lengthAdjust="spacing" textLength="53.4917" x="108" y="716.4951">&#171;extend&#187;</text></g><!--link UC_Diagnose to UC_QA--><g class="link" data-entity-1="ent0019" data-entity-2="ent0021" data-link-type="dependency" data-source-line="58" id="lnk48"><path d="M272.5,851.38 C272.5,836.64 272.5,820.63 272.5,805.82" fill="none" id="UC_Diagnose-to-UC_QA" style="stroke:#181818;stroke-width:1;stroke-dasharray:7,7;"/><polygon fill="#181818" points="272.5,799.82,268.5,808.82,272.5,804.82,276.5,808.82,272.5,799.82" style="stroke:#181818;stroke-width:1;"/><text fill="#000000" font-family="sans-serif" font-size="13" lengthAdjust="spacing" textLength="53.4917" x="234" y="830.9951">&#171;extend&#187;</text></g><?plantuml-src RPFBRjD058RtynIZxCi3e2gILHP40bKjbsqrs8DhrR4Zs-KYX8JKafH0smIQXfIKK94G5YG5MjIIaFPbCcFdBN367jlZPEdpVtDk_x6E7plGCQ6bgUiEL3GBouvc6i3Uq8m2ib0U5f2yWLHyptckOpYLaQ7g600aEwO5C-xPq1sstFw9MocIwiSCH3QKbBncSC2xhhZ3y_7bq6UOUXSPVZuhfGy6_FLo0Ll8bpX06_t9goFtu3lTkM300pj-BULeSvUKWynI3e2eGwOr1jxMY7UmHskl9qTDxxHC3tlaxndP_vc1Bm24cpQMaUs_S1j3Cge58mMbbjRkcAe_J19YioRxMLfZBSqmNlUzz-OtFTwQD2gSN3NzvSsI_IlIBdb_jiU3BYTluIUQBB2qrN6RRzrFLRhN9Uqk-RKViSXUVsGYIvd5IRNizRvnKDAHbN-euQT9aBItcNipu6raA6Ax0UIDVf2B3jcj2VHzSzbIn3tGToLwVfLYRLjJZJdr1OgbcbD_fqW_LsYzGwxh2OUIY6zxmkTeGnfI3TCMaeqlo-D_NznMnpijqiCIFVaQ-LdGJIGiCw38uCEatdTx1nnSaS1B0DZ1muM5R7mmGeYTXn1XPo14Ghl5Tq4R8XTP3S8_IIoS2iPuIeWlOPx0lKnhWNU0_wDYwNGq72aTZYlFLKBJqrho8EQKdotE3KyBlcLWQeZOUp8o9QHSCddy5QMDGooXk3TuGvmKteIBYveXwviApcQ1E4u8-tKOXfyvs502YbSBaHL98Fu3?></g></svg>