<svg xmlns="http://www.w3.org/2000/svg" xmlns:xlink="http://www.w3.org/1999/xlink" contentStyleType="text/css" data-diagram-type="DESCRIPTION" height="984px" preserveAspectRatio="none" style="width:456px;height:984px;background:#FFFFFF;" version="1.1" viewBox="0 0 456 984" width="456px" zoomAndPan="magnify"><?plantuml 1.2026.3?><defs/><g><!--cluster ICT ???????????--><g class="cluster" data-qualified-name="ICT ..........." data-source-line="18" id="ent0008"><rect fill="none" height="827" rx="2.5" ry="2.5" style="stroke:#181818;stroke-width:1;" width="201" x="241.28" y="7.82"/><text fill="#000000" font-family="sans-serif" font-size="14" font-weight="700" lengthAdjust="spacing" textLength="185.2539" x="249.153" y="24.3532">ICT &#26234;&#33021;&#36816;&#32500;&#19982;&#25925;&#38556;&#35786;&#26029;&#24179;&#21488;</text></g><!--entity UC_AUTH--><g class="entity" data-qualified-name="ICT ............UC_AUTH" data-source-line="19" id="ent0009"><ellipse cx="341.2816" cy="125.8243" fill="#F8FAFC" rx="68.8716" ry="16.1743" style="stroke:#334155;stroke-width:0.5;"/><text fill="#000000" font-family="sans-serif" font-size="14" lengthAdjust="spacing" textLength="98" x="292.2816" y="131.129">&#29992;&#25143;&#19982;&#26435;&#38480;&#31649;&#29702;</text></g><!--entity UC_DEVICE--><g class="entity" data-qualified-name="ICT ............UC_DEVICE" data-source-line="20" id="ent0010"><ellipse cx="341.277" cy="324.8217" fill="#F8FAFC" rx="62.397" ry="15.4517" style="stroke:#334155;stroke-width:0.5;"/><text fill="#000000" font-family="sans-serif" font-size="14" lengthAdjust="spacing" textLength="84" x="299.277" y="330.1264">&#35774;&#22791;&#36164;&#20135;&#31649;&#29702;</text></g><!--entity UC_TARGET--><g class="entity" data-qualified-name="ICT ............UC_TARGET" data-source-line="21" id="ent0011"><ellipse cx="341.277" cy="258.8217" fill="#F8FAFC" rx="62.397" ry="15.4517" style="stroke:#334155;stroke-width:0.5;"/><text fill="#000000" font-family="sans-serif" font-size="14" lengthAdjust="spacing" textLength="84" x="299.277" y="264.1264">&#30417;&#25511;&#30446;&#26631;&#31649;&#29702;</text></g><!--entity UC_DASHBOARD--><g class="entity" data-qualified-name="ICT ............UC_DASHBOARD" data-source-line="22" id="ent0012"><ellipse cx="341.277" cy="522.8217" fill="#F8FAFC" rx="62.397" ry="15.4517" style="stroke:#334155;stroke-width:0.5;"/><text fill="#000000" font-family="sans-serif" font-size="14" lengthAdjust="spacing" textLength="84" x="299.277" y="528.1264">&#36816;&#32500;&#24635;&#35272;&#26597;&#30475;</text></g><!--entity UC_METRIC--><g class="entity" data-qualified-name="ICT ............UC_METRIC" data-source-line="23" id="ent0013"><ellipse cx="341.277" cy="803.8217" fill="#F8FAFC" rx="62.397" ry="15.4517" style="stroke:#334155;stroke-width:0.5;"/><text fill="#000000" font-family="sans-serif" font-size="14" lengthAdjust="spacing" textLength="84" x="299.277" y="809.1264">&#23454;&#26102;&#25351;&#26631;&#26597;&#35810;</text></g><!--entity UC_ALARM--><g class="entity" data-qualified-name="ICT ............UC_ALARM" data-source-line="24" id="ent0014"><ellipse cx="341.277" cy="390.8217" fill="#F8FAFC" rx="62.397" ry="15.4517" style="stroke:#334155;stroke-width:0.5;"/><text fill="#000000" font-family="sans-serif" font-size="14" lengthAdjust="spacing" textLength="84" x="299.277" y="396.1264">&#21578;&#35686;&#20013;&#24515;&#31649;&#29702;</text></g><!--entity UC_ALARM_TICKET--><g class="entity" data-qualified-name="ICT ............UC_ALARM_TICKET" data-source-line="25" id="ent0015"><ellipse cx="341.2775" cy="192.8217" fill="#F8FAFC" rx="52.4975" ry="15.4517" style="stroke:#334155;stroke-width:0.5;"/><text fill="#000000" font-family="sans-serif" font-size="14" lengthAdjust="spacing" textLength="70" x="306.2775" y="198.1264">&#21578;&#35686;&#36716;&#24037;&#21333;</text></g><!--entity UC_TICKET--><g class="entity" data-qualified-name="ICT ............UC_TICKET" data-source-line="26" id="ent0016"><ellipse cx="341.277" cy="456.8217" fill="#F8FAFC" rx="62.397" ry="15.4517" style="stroke:#334155;stroke-width:0.5;"/><text fill="#000000" font-family="sans-serif" font-size="14" lengthAdjust="spacing" textLength="84" x="299.277" y="462.1264">&#24037;&#21333;&#22788;&#29702;&#38381;&#29615;</text></g><!--entity UC_LOG--><g class="entity" data-qualified-name="ICT ............UC_LOG" data-source-line="27" id="ent0017"><ellipse cx="341.278" cy="588.8217" fill="#F8FAFC" rx="42.598" ry="15.4517" style="stroke:#334155;stroke-width:0.5;"/><text fill="#000000" font-family="sans-serif" font-size="14" lengthAdjust="spacing" textLength="56" x="313.278" y="594.1264">&#26085;&#24535;&#20998;&#26512;</text></g><!--entity UC_DIAGNOSIS--><g class="entity" data-qualified-name="ICT ............UC_DIAGNOSIS" data-source-line="28" id="ent0018"><ellipse cx="341.2817" cy="654.8217" fill="#F8FAFC" rx="54.7017" ry="15.4517" style="stroke:#334155;stroke-width:0.5;"/><text fill="#000000" font-family="sans-serif" font-size="14" lengthAdjust="spacing" textLength="73.1172" x="304.7231" y="660.1264">AI &#25925;&#38556;&#35786;&#26029;</text></g><!--entity UC_KNOWLEDGE--><g class="entity" data-qualified-name="ICT ............UC_KNOWLEDGE" data-source-line="29" id="ent0019"><ellipse cx="341.2775" cy="58.8217" fill="#F8FAFC" rx="52.4975" ry="15.4517" style="stroke:#334155;stroke-width:0.5;"/><text fill="#000000" font-family="sans-serif" font-size="14" lengthAdjust="spacing" textLength="70" x="306.2775" y="64.1264">&#30693;&#35782;&#24211;&#32500;&#25252;</text></g><!--entity UC_QA--><g class="entity" data-qualified-name="ICT ............UC_QA" data-source-line="30" id="ent0020"><ellipse cx="341.2775" cy="737.8217" fill="#F8FAFC" rx="52.4975" ry="15.4517" style="stroke:#334155;stroke-width:0.5;"/><text fill="#000000" font-family="sans-serif" font-size="14" lengthAdjust="spacing" textLength="70" x="306.2775" y="743.1264">&#30693;&#35782;&#24211;&#38382;&#31572;</text></g><!--entity Admin--><g class="entity" data-qualified-name="Admin" data-source-line="11" id="ent0002"><ellipse cx="72.14" cy="58.01" fill="#F1F1F1" rx="16" ry="16" style="stroke:#181818;stroke-width:0.5;"/><path d="M72.14,78.01 C76.14,78.01 79.14,78.01 83.14,74.01 C91.14,74.01 99.14,82.01 99.14,90.01 L99.14,94.01 C99.14,98.01 95.14,102.01 91.14,102.01 L53.14,102.01 C49.14,102.01 45.14,98.01 45.14,94.01 L45.14,90.01 C45.14,82.01 53.14,74.01 61.14,74.01 C65.14,78.01 68.14,78.01 72.14,78.01" fill="#F1F1F1" style="stroke:#181818;stroke-width:0.5;"/><text fill="#000000" font-family="sans-serif" font-size="14" lengthAdjust="spacing" textLength="70" x="37.14" y="117.0432">&#31995;&#32479;&#31649;&#29702;&#21592;</text></g><!--entity Manager--><g class="entity" data-qualified-name="Manager" data-source-line="12" id="ent0003"><ellipse cx="72.14" cy="243.01" fill="#F1F1F1" rx="16" ry="16" style="stroke:#181818;stroke-width:0.5;"/><path d="M72.14,263.01 C76.14,263.01 79.14,263.01 83.14,259.01 C91.14,259.01 99.14,267.01 99.14,275.01 L99.14,279.01 C99.14,283.01 95.14,287.01 91.14,287.01 L53.14,287.01 C49.14,287.01 45.14,283.01 45.14,279.01 L45.14,275.01 C45.14,267.01 53.14,259.01 61.14,259.01 C65.14,263.01 68.14,263.01 72.14,263.01" fill="#F1F1F1" style="stroke:#181818;stroke-width:0.5;"/><text fill="#000000" font-family="sans-serif" font-size="14" lengthAdjust="spacing" textLength="56" x="44.14" y="302.0432">&#36816;&#32500;&#20027;&#31649;</text></g><!--entity Operator--><g class="entity" data-qualified-name="Operator" data-source-line="13" id="ent0004"><ellipse cx="72.14" cy="476.01" fill="#F1F1F1" rx="16" ry="16" style="stroke:#181818;stroke-width:0.5;"/><path d="M72.14,496.01 C76.14,496.01 79.14,496.01 83.14,492.01 C91.14,492.01 99.14,500.01 99.14,508.01 L99.14,512.01 C99.14,516.01 95.14,520.01 91.14,520.01 L53.14,520.01 C49.14,520.01 45.14,516.01 45.14,512.01 L45.14,508.01 C45.14,500.01 53.14,492.01 61.14,492.01 C65.14,496.01 68.14,496.01 72.14,496.01" fill="#F1F1F1" style="stroke:#181818;stroke-width:0.5;"/><text fill="#000000" font-family="sans-serif" font-size="14" lengthAdjust="spacing" textLength="56" x="44.14" y="535.0432">&#36816;&#32500;&#20154;&#21592;</text></g><!--entity Viewer--><g class="entity" data-qualified-name="Viewer" data-source-line="14" id="ent0005"><ellipse cx="72.14" cy="625.01" fill="#F1F1F1" rx="16" ry="16" style="stroke:#181818;stroke-width:0.5;"/><path d="M72.14,645.01 C76.14,645.01 79.14,645.01 83.14,641.01 C91.14,641.01 99.14,649.01 99.14,657.01 L99.14,661.01 C99.14,665.01 95.14,669.01 91.14,669.01 L53.14,669.01 C49.14,669.01 45.14,665.01 45.14,661.01 L45.14,657.01 C45.14,649.01 53.14,641.01 61.14,641.01 C65.14,645.01 68.14,645.01 72.14,645.01" fill="#F1F1F1" style="stroke:#181818;stroke-width:0.5;"/><text fill="#000000" font-family="sans-serif" font-size="14" lengthAdjust="spacing" textLength="56" x="44.14" y="684.0432">&#21482;&#35835;&#35775;&#23458;</text></g><!--entity Collector--><g class="entity" data-qualified-name="Collector" data-source-line="15" id="ent0006"><ellipse cx="72.1411" cy="909.01" fill="#F1F1F1" rx="16" ry="16" style="stroke:#181818;stroke-width:0.5;"/><path d="M72.1411,929.01 C76.1411,929.01 79.1411,929.01 83.1411,925.01 C91.1411,925.01 99.1411,933.01 99.1411,941.01 L99.1411,945.01 C99.1411,949.01 95.1411,953.01 91.1411,953.01 L53.1411,953.01 C49.1411,953.01 45.1411,949.01 45.1411,945.01 L45.1411,941.01 C45.1411,933.01 53.1411,925.01 61.1411,925.01 C65.1411,929.01 68.1411,929.01 72.1411,929.01" fill="#F1F1F1" style="stroke:#181818;stroke-width:0.5;"/><text fill="#000000" font-family="sans-serif" font-size="14" lengthAdjust="spacing" textLength="132.2822" x="6" y="968.0432">Prometheus/Exporter</text></g><!--entity AI--><g class="entity" data-qualified-name="AI" data-source-line="16" id="ent0007"><ellipse cx="72.14" cy="795.01" fill="#F1F1F1" rx="16" ry="16" style="stroke:#181818;stroke-width:0.5;"/><path d="M72.14,815.01 C76.14,815.01 79.14,815.01 83.14,811.01 C91.14,811.01 99.14,819.01 99.14,827.01 L99.14,831.01 C99.14,835.01 95.14,839.01 91.14,839.01 L53.14,839.01 C49.14,839.01 45.14,835.01 45.14,831.01 L45.14,827.01 C45.14,819.01 53.14,811.01 61.14,811.01 C65.14,815.01 68.14,815.01 72.14,815.01" fill="#F1F1F1" style="stroke:#181818;stroke-width:0.5;"/><text fill="#000000" font-family="sans-serif" font-size="14" lengthAdjust="spacing" textLength="45.1172" x="49.5814" y="854.0432">AI &#26381;&#21153;</text></g><!--link Admin to UC_AUTH--><g class="link" data-entity-1="ent0002" data-entity-2="ent0009" data-link-type="dependency" data-source-line="33" id="lnk21"><path d="M107.35,63.73 C140.84,49.69 191.61,35.95 225.28,61.82 C236.22,70.22 223.76,81.83 233.28,91.82 C245.73,104.86 257.3863,111.2526 274.5663,116.2226" fill="none" id="Admin-to-UC_AUTH" style="stroke:#475569;stroke-width:1;"/><polygon fill="#475569" points="280.33,117.89,272.7961,111.5465,275.5269,116.5005,270.5729,119.2314,280.33,117.89" style="stroke:#475569;stroke-width:1;"/></g><!--link Admin to UC_DEVICE--><g class="link" data-entity-1="ent0002" data-entity-2="ent0010" data-link-type="dependency" data-source-line="34" id="lnk22"><path d="M107.47,103.9 C143.38,130.11 198.2,176.35 225.28,230.82 C237.46,255.3 215.65,270.92 233.28,291.82 C245.57,306.37 258.3154,313.14 276.5454,317.78" fill="none" id="Admin-to-UC_DEVICE" style="stroke:#475569;stroke-width:1;"/><polygon fill="#475569" points="282.36,319.26,274.6247,313.1636,277.5145,318.0267,272.6514,320.9165,282.36,319.26" style="stroke:#475569;stroke-width:1;"/></g><!--link Admin to UC_TARGET--><g class="link" data-entity-1="ent0002" data-entity-2="ent0011" data-link-type="dependency" data-source-line="35" id="lnk23"><path d="M107.48,84.84 C143.11,90.98 197.45,106.26 225.28,143.82 C247.08,173.24 210.13,197.45 233.28,225.82 C245.33,240.58 258.0135,247.3975 276.2635,252.0175" fill="none" id="Admin-to-UC_TARGET" style="stroke:#475569;stroke-width:1;"/><polygon fill="#475569" points="282.08,253.49,274.3369,247.4036,277.2329,252.263,272.3736,255.159,282.08,253.49" style="stroke:#475569;stroke-width:1;"/></g><!--link Admin to UC_KNOWLEDGE--><g class="link" data-entity-1="ent0002" data-entity-2="ent0019" data-link-type="dependency" data-source-line="36" id="lnk24"><path d="M107.42,52.57 C124.57,40.24 146.33,27.16 168.28,20.82 C219.55,6 275.4266,26.4525 309.2566,42.6225" fill="none" id="Admin-to-UC_KNOWLEDGE" style="stroke:#475569;stroke-width:1;"/><polygon fill="#475569" points="314.67,45.21,308.2749,37.7198,310.1588,43.0538,304.8249,44.9377,314.67,45.21" style="stroke:#475569;stroke-width:1;"/></g><!--link Manager to UC_DASHBOARD--><g class="link" data-entity-1="ent0003" data-entity-2="ent0012" data-link-type="dependency" data-source-line="38" id="lnk25"><path d="M100.57,291.27 C119.34,308.44 144.94,331.42 168.28,350.82 C192.9,371.27 209.98,366.71 225.28,394.82 C235.42,413.42 220,473.31 233.28,489.82 C245.23,504.65 257.8925,511.5013 276.1525,516.1113" fill="none" id="Manager-to-UC_DASHBOARD" style="stroke:#475569;stroke-width:1;"/><polygon fill="#475569" points="281.97,517.58,274.2229,511.4986,277.1221,516.3561,272.2647,519.2553,281.97,517.58" style="stroke:#475569;stroke-width:1;"/></g><!--link Manager to UC_ALARM--><g class="link" data-entity-1="ent0003" data-entity-2="ent0014" data-link-type="dependency" data-source-line="39" id="lnk26"><path d="M100.45,256.21 C134.35,246.21 191.78,235.93 225.28,266.82 C240.21,280.58 220.52,342.03 233.28,357.82 C245.26,372.63 257.9225,379.4713 276.1825,384.0813" fill="none" id="Manager-to-UC_ALARM" style="stroke:#475569;stroke-width:1;"/><polygon fill="#475569" points="282,385.55,274.2529,379.4686,277.1521,384.3261,272.2947,387.2253,282,385.55" style="stroke:#475569;stroke-width:1;"/></g><!--link Manager to UC_ALARM_TICKET--><g class="link" data-entity-1="ent0003" data-entity-2="ent0015" data-link-type="dependency" data-source-line="40" id="lnk27"><path d="M100.6,229.69 C117.68,210.32 141.47,188.32 168.28,177.82 C213.5,160.11 264.6035,169.1625 300.2635,179.4125" fill="none" id="Manager-to-UC_ALARM_TICKET" style="stroke:#475569;stroke-width:1;"/><polygon fill="#475569" points="306.03,181.07,298.4852,174.7394,301.2246,179.6887,296.2752,182.4281,306.03,181.07" style="stroke:#475569;stroke-width:1;"/></g><!--link Manager to UC_TICKET--><g class="link" data-entity-1="ent0003" data-entity-2="ent0016" data-link-type="dependency" data-source-line="41" id="lnk28"><path d="M100.38,264.62 C135.33,264.73 195.03,270.79 225.28,307.82 C241.63,327.82 217.23,403.57 233.28,423.82 C245.12,438.74 257.7516,445.615 276.0216,450.215" fill="none" id="Manager-to-UC_TICKET" style="stroke:#475569;stroke-width:1;"/><polygon fill="#475569" points="281.84,451.68,274.089,445.6036,276.9913,450.4592,272.1357,453.3615,281.84,451.68" style="stroke:#475569;stroke-width:1;"/></g><!--link Operator to UC_DEVICE--><g class="link" data-entity-1="ent0004" data-entity-2="ent0010" data-link-type="dependency" data-source-line="43" id="lnk29"><path d="M100.35,487.34 C139.77,470.17 209.76,437.37 225.28,414.82 C239.79,393.74 216.69,377.29 233.28,357.82 C245.64,343.31 258.3954,336.56 276.6254,331.92" fill="none" id="Operator-to-UC_DEVICE" style="stroke:#475569;stroke-width:1;"/><polygon fill="#475569" points="282.44,330.44,272.7314,328.7835,277.5945,331.6733,274.7047,336.5364,282.44,330.44" style="stroke:#475569;stroke-width:1;"/></g><!--link Operator to UC_TARGET--><g class="link" data-entity-1="ent0004" data-entity-2="ent0011" data-link-type="dependency" data-source-line="44" id="lnk30"><path d="M81.49,459.01 C93.09,413.82 118.51,341.16 168.28,300.82 C199.44,275.56 237.5699,265.8204 273.3099,261.6804" fill="none" id="Operator-to-UC_TARGET" style="stroke:#475569;stroke-width:1;"/><polygon fill="#475569" points="279.27,260.99,269.8695,258.0522,274.3032,261.5653,270.79,265.999,279.27,260.99" style="stroke:#475569;stroke-width:1;"/></g><!--link Operator to UC_ALARM--><g class="link" data-entity-1="ent0004" data-entity-2="ent0014" data-link-type="dependency" data-source-line="45" id="lnk31"><path d="M100.62,498.92 C134.7,497.51 192.32,489.8 225.28,455.82 C235.49,445.29 223.2,434.46 233.28,423.82 C246.45,409.91 259.519,403.3142 277.759,398.6242" fill="none" id="Operator-to-UC_ALARM" style="stroke:#475569;stroke-width:1;"/><polygon fill="#475569" points="283.57,397.13,273.8574,395.4973,278.7275,398.3751,275.8496,403.2452,283.57,397.13" style="stroke:#475569;stroke-width:1;"/></g><!--link Operator to UC_TICKET--><g class="link" data-entity-1="ent0004" data-entity-2="ent0016" data-link-type="dependency" data-source-line="46" id="lnk32"><path d="M100.58,503.98 C131.9,508.64 184.09,512.6 225.28,496.82 C229.69,495.12 229.16,492.12 233.28,489.82 C251.62,479.58 267.73,473.6833 286.94,468.4633" fill="none" id="Operator-to-UC_TICKET" style="stroke:#475569;stroke-width:1;"/><polygon fill="#475569" points="292.73,466.89,282.996,465.39,287.905,468.2011,285.0938,473.11,292.73,466.89" style="stroke:#475569;stroke-width:1;"/></g><!--link Operator to UC_LOG--><g class="link" data-entity-1="ent0004" data-entity-2="ent0017" data-link-type="dependency" data-source-line="47" id="lnk33"><path d="M100.5,508.96 C132.29,520.64 186.37,540.24 233.28,555.82 C258,564.02 280.4146,570.9507 301.6446,577.3407" fill="none" id="Operator-to-UC_LOG" style="stroke:#475569;stroke-width:1;"/><polygon fill="#475569" points="307.39,579.07,299.9248,572.6458,302.6022,577.6289,297.619,580.3063,307.39,579.07" style="stroke:#475569;stroke-width:1;"/></g><!--link Operator to UC_DIAGNOSIS--><g class="link" data-entity-1="ent0004" data-entity-2="ent0018" data-link-type="dependency" data-source-line="48" id="lnk34"><path d="M100.53,524.83 C130.85,552.36 182.21,595.42 233.28,621.82 C253.31,632.17 271.3635,638.3706 291.4535,643.7406" fill="none" id="Operator-to-UC_DIAGNOSIS" style="stroke:#475569;stroke-width:1;"/><polygon fill="#475569" points="297.25,645.29,289.5882,639.1016,292.4196,643.9988,287.5223,646.8303,297.25,645.29" style="stroke:#475569;stroke-width:1;"/></g><!--link Viewer to UC_DASHBOARD--><g class="link" data-entity-1="ent0005" data-entity-2="ent0012" data-link-type="dependency" data-source-line="50" id="lnk35"><path d="M100.51,629.57 C131.63,609.43 184.47,577.05 233.28,555.82 C253.52,547.01 271.0687,541.1706 290.7687,535.5706" fill="none" id="Viewer-to-UC_DASHBOARD" style="stroke:#475569;stroke-width:1;"/><polygon fill="#475569" points="296.54,533.93,286.7893,532.5433,291.7305,535.2972,288.9767,540.2384,296.54,533.93" style="stroke:#475569;stroke-width:1;"/></g><!--link Viewer to UC_QA--><g class="link" data-entity-1="ent0005" data-entity-2="ent0020" data-link-type="dependency" data-source-line="51" id="lnk36"><path d="M100.54,684.28 C117.6,703.86 141.38,726.11 168.28,736.82 C209.34,753.16 254.4628,751.7343 290.2528,746.9543" fill="none" id="Viewer-to-UC_QA" style="stroke:#475569;stroke-width:1;"/><polygon fill="#475569" points="296.2,746.16,286.7497,743.3866,291.244,746.8219,287.8087,751.3162,296.2,746.16" style="stroke:#475569;stroke-width:1;"/></g><!--link Collector to UC_METRIC--><g class="link" data-entity-1="ent0006" data-entity-2="ent0013" data-link-type="dependency" data-source-line="53" id="lnk37"><path d="M138.72,910.4 C166,900.69 197.68,888.35 225.28,874.82 C259.62,857.98 291.9029,837.1804 314.4129,821.8304" fill="none" id="Collector-to-UC_METRIC" style="stroke:#475569;stroke-width:1;"/><polygon fill="#475569" points="319.37,818.45,309.6807,820.2158,315.2391,821.267,314.1879,826.8253,319.37,818.45" style="stroke:#475569;stroke-width:1;"/></g><!--link AI to UC_LOG--><g class="link" data-entity-1="ent0007" data-entity-2="ent0017" data-link-type="dependency" data-source-line="54" id="lnk38"><path d="M99.9,806.05 C139.47,788.08 210.49,753.4 225.28,729.82 C238.07,709.43 218.29,640.64 233.28,621.82 C248.85,602.28 269.8134,594.9099 292.7434,591.5499" fill="none" id="AI-to-UC_LOG" style="stroke:#475569;stroke-width:1;"/><polygon fill="#475569" points="298.68,590.68,289.1952,588.0271,293.7328,591.4049,290.355,595.9426,298.68,590.68" style="stroke:#475569;stroke-width:1;"/></g><!--link AI to UC_DIAGNOSIS--><g class="link" data-entity-1="ent0007" data-entity-2="ent0018" data-link-type="dependency" data-source-line="55" id="lnk39"><path d="M100.12,819.21 C134.78,819.38 194.17,813.91 225.28,777.82 C246.59,753.09 214.28,731.35 233.28,704.82 C248.26,683.89 268.5548,673.2967 291.1748,666.0667" fill="none" id="AI-to-UC_DIAGNOSIS" style="stroke:#475569;stroke-width:1;"/><polygon fill="#475569" points="296.89,664.24,287.0994,663.17,292.1274,665.7623,289.5351,670.7902,296.89,664.24" style="stroke:#475569;stroke-width:1;"/></g><!--link AI to UC_QA--><g class="link" data-entity-1="ent0007" data-entity-2="ent0020" data-link-type="dependency" data-source-line="56" id="lnk40"><path d="M100.09,836.58 C133.61,857.42 190.65,884.23 225.28,852.82 C238.84,840.51 221.71,785 233.28,770.82 C247.05,753.95 263.3674,746.7011 283.9874,742.5611" fill="none" id="AI-to-UC_QA" style="stroke:#475569;stroke-width:1;"/><polygon fill="#475569" points="289.87,741.38,280.2587,739.2299,284.9678,742.3642,281.8335,747.0734,289.87,741.38" style="stroke:#475569;stroke-width:1;"/></g><!--link UC_DASHBOARD to UC_METRIC--><g class="link" data-entity-1="ent0012" data-entity-2="ent0013" data-link-type="dependency" data-source-line="58" id="lnk41"><path d="M284.49,529.45 C266.12,534.17 246.97,542.2 233.28,555.82 C171.42,617.35 176.7,652.3 192.2,705.82 C201.7,738.64 206.11,750.08 233.28,770.82 C249.1,782.89 263.5454,789.0513 282.2354,793.9413" fill="none" id="UC_DASHBOARD-to-UC_METRIC" style="stroke:#475569;stroke-width:1;stroke-dasharray:7,7;"/><polygon fill="#475569" points="288.04,795.46,280.3455,789.3122,283.2028,794.1944,278.3206,797.0517,288.04,795.46" style="stroke:#475569;stroke-width:1;"/><text fill="#000000" font-family="sans-serif" font-size="13" lengthAdjust="spacing" textLength="55.6563" x="169.28" y="702.3151">&#171;include&#187;</text></g><!--link UC_ALARM to UC_METRIC--><g class="link" data-entity-1="ent0014" data-entity-2="ent0013" data-link-type="dependency" data-source-line="59" id="lnk42"><path d="M282.87,396.6 C264.58,401.26 245.91,409.46 233.28,423.82 C179.24,485.24 187.19,660.23 192.2,682.82 C201.55,724.95 200.7,742.51 233.28,770.82 C248.01,783.61 261.7931,789.9301 280.2531,794.7301" fill="none" id="UC_ALARM-to-UC_METRIC" style="stroke:#475569;stroke-width:1;stroke-dasharray:7,7;"/><polygon fill="#475569" points="286.06,796.24,278.3563,790.1038,281.2209,794.9817,276.343,797.8464,286.06,796.24" style="stroke:#475569;stroke-width:1;"/><text fill="#000000" font-family="sans-serif" font-size="13" lengthAdjust="spacing" textLength="55.6563" x="169.28" y="679.3151">&#171;include&#187;</text></g><!--link UC_ALARM_TICKET to UC_ALARM--><g class="link" data-entity-1="ent0015" data-entity-2="ent0014" data-link-type="dependency" data-source-line="60" id="lnk43"><path d="M292.56,199.03 C272.38,203.66 249.87,211.73 233.28,225.82 C198.15,255.64 174.03,290.35 192.2,326.82 C209.15,360.85 243.8254,375.5226 278.3454,382.9826" fill="none" id="UC_ALARM_TICKET-to-UC_ALARM" style="stroke:#475569;stroke-width:1;stroke-dasharray:7,7;"/><polygon fill="#475569" points="284.21,384.25,276.258,378.4392,279.3228,383.1938,274.5682,386.2587,284.21,384.25" style="stroke:#475569;stroke-width:1;"/><text fill="#000000" font-family="sans-serif" font-size="13" lengthAdjust="spacing" textLength="55.6563" x="169.28" y="323.3151">&#171;include&#187;</text></g><!--link UC_TICKET to UC_ALARM_TICKET--><g class="link" data-entity-1="ent0016" data-entity-2="ent0015" data-link-type="dependency" data-source-line="61" id="lnk44"><path d="M287.03,448.89 C268.46,444.05 248.54,436.29 233.28,423.82 C204.33,400.14 202.39,386.07 193.2,349.82 C181.09,302.05 213.35,244.5 233.28,225.82 C249.09,211 265.5138,204.1356 285.7438,199.6256" fill="none" id="UC_TICKET-to-UC_ALARM_TICKET" style="stroke:#475569;stroke-width:1;stroke-dasharray:7,7;"/><polygon fill="#475569" points="291.6,198.32,281.9453,196.3742,286.7198,199.408,283.686,204.1825,291.6,198.32" style="stroke:#475569;stroke-width:1;"/><text fill="#000000" font-family="sans-serif" font-size="13" lengthAdjust="spacing" textLength="53.4917" x="170.28" y="346.3151">&#171;extend&#187;</text></g><!--link UC_DIAGNOSIS to UC_METRIC--><g class="link" data-entity-1="ent0018" data-entity-2="ent0013" data-link-type="dependency" data-source-line="62" id="lnk45"><path d="M288.94,659.61 C255.25,665.73 213.84,679.56 192.2,710.82 C162.58,753.57 232.7239,779.1961 286.7639,792.4961" fill="none" id="UC_DIAGNOSIS-to-UC_METRIC" style="stroke:#475569;stroke-width:1;stroke-dasharray:7,7;"/><polygon fill="#475569" points="292.59,793.93,284.8067,787.8951,287.7349,792.7351,282.8949,795.6633,292.59,793.93" style="stroke:#475569;stroke-width:1;"/><text fill="#000000" font-family="sans-serif" font-size="13" lengthAdjust="spacing" textLength="55.6563" x="169.28" y="725.3151">&#171;include&#187;</text></g><!--link UC_DIAGNOSIS to UC_QA--><g class="link" data-entity-1="ent0018" data-entity-2="ent0020" data-link-type="dependency" data-source-line="63" id="lnk46"><path d="M341.28,670.64 C341.28,685.45 341.28,701.46 341.28,716.2" fill="none" id="UC_DIAGNOSIS-to-UC_QA" style="stroke:#475569;stroke-width:1;stroke-dasharray:7,7;"/><polygon fill="#475569" points="341.28,722.2,345.28,713.2,341.28,717.2,337.28,713.2,341.28,722.2" style="stroke:#475569;stroke-width:1;"/><text fill="#000000" font-family="sans-serif" font-size="13" lengthAdjust="spacing" textLength="53.4917" x="302.78" y="701.8151">&#171;extend&#187;</text></g><!--link UC_QA to UC_KNOWLEDGE--><g class="link" data-entity-1="ent0020" data-entity-2="ent0019" data-link-type="dependency" data-source-line="64" id="lnk47"><path d="M298.64,728.52 C275.72,721.28 249.02,708.82 233.28,687.82 C159.45,589.27 201.35,536.61 192.2,413.82 C181.47,269.94 139.87,201.76 233.28,91.82 C247.31,75.31 263.473,68.1086 283.993,63.8886" fill="none" id="UC_QA-to-UC_KNOWLEDGE" style="stroke:#475569;stroke-width:1;stroke-dasharray:7,7;"/><polygon fill="#475569" points="289.87,62.68,280.2487,60.5749,284.9725,63.6872,281.8602,68.4109,289.87,62.68" style="stroke:#475569;stroke-width:1;"/><text fill="#000000" font-family="sans-serif" font-size="13" lengthAdjust="spacing" textLength="55.6563" x="169.28" y="410.3151">&#171;include&#187;</text></g><?plantuml-src ZPDhJzDG6CVVzrESpDTW3CnR24afPJHS9jl0bwHP3wEXjCjfbs4CYGa8P0gC24u4GGc8CQupGGMtuBuCf-s-XRsl5n9zUVxFx_oVspa2d5E08W745-OLmF48vXLU4WbvWHUBB68NGP7DBx05c5MU2H1OOLOi2300i7b5GawOBKDPMWm6vNcMaygyM01ph2078oKPvbaPWkS404DcZWAIIY97IOA4m9sHXoFa26L59CH1vAfzVVttaabJ9H6IogxO_o2PlF-8M2O8kn2Gq2zQUkjOLp_frJMyyou1M1cGt28lUe3Hhkgj7pTNBPEnenEiQ7Q88l5cqxkTBaB4cY4FmDjVZKRBKDjOFR616HwMk_UV87C6oZmioNVffQA458XioYnOWFc03ya0xN0JLvmgI8OW_Fc214FbWBRVD5QklNgtjBsNdVU7HgEYlQtZtnTu-tl27fytoeI--qNRkBJ83okT_Qep0zjycfebftEZGTXG_-3JTUFdwatpF4mEqpCCHOUC3tQqhNFzGDK-heVP79b9qRcGhrskzg9bd6zensVwuIlVbyoE3gN9p70Gn-gHLlkblLuthKtSQ9nu-0ITop1KYDsf6FNFDrTrt5w9D3TEPYRYg77z3L-UuSsz43UROwYnSD4EXKzNJSzEhQvlDVm6OwnMEyFj6jvOquwg7ZMUJWKHQxE1PVa3OCZKP3hBP4EpjPfUmyqtrjGgfnuxDfb-EauFf-XRsKvDrUkx7Zj5Mk_VVkIWfsVGttP8SRSQqjpjXRHkOiBz6Bw3lxz8m9d-RQ8tlaZCLGdlPqLgZCfkcL7PIHk37U-eR6qebixV1-5yuNYdOTqSDE5_Oqzqtwcvyq2gxgcRfAjPFi4qe3VW11w3WG5Up0ib3WuE4bwZ_yEupRkeSor6nXbFib2uf42HSqY_z7_aZd9JPCpAb7h3pojiynS0?></g></svg>