<svg xmlns="http://www.w3.org/2000/svg" xmlns:xlink="http://www.w3.org/1999/xlink" contentStyleType="text/css" data-diagram-type="CLASS" height="923px" preserveAspectRatio="none" style="width:1089px;height:923px;background:#FFFFFF;" version="1.1" viewBox="0 0 1089 923" width="1089px" zoomAndPan="magnify"><?plantuml 1.2026.3?><defs/><g><!--class User--><g class="entity" data-qualified-name="User" data-source-line="3" id="ent0002"><rect fill="#F1F1F1" height="136.0469" rx="2.5" ry="2.5" style="stroke:#181818;stroke-width:0.5;" width="122.8926" x="87.22" y="33.41"/><ellipse cx="129.8203" cy="49.41" fill="#ADD1B2" rx="11" ry="11" style="stroke:#181818;stroke-width:1;"/><path d="M132.5859,45.285 Q132.7422,45.0663 132.9297,44.9569 Q133.1172,44.8475 133.3359,44.8475 Q133.7109,44.8475 133.9453,45.1131 Q134.1797,45.3631 134.1797,45.9725 L134.1797,47.4256 Q134.1797,48.035 133.9453,48.3006 Q133.7109,48.5663 133.3359,48.5663 Q132.9922,48.5663 132.789,48.3631 Q132.5859,48.1756 132.4765,47.66 Q132.4297,47.3006 132.2422,47.1131 Q131.914,46.7381 131.3047,46.5194 Q130.6953,46.3006 130.0703,46.3006 Q129.3047,46.3006 128.664,46.6288 Q128.039,46.9569 127.539,47.7069 Q127.0547,48.4569 127.0547,49.4881 L127.0547,50.5819 Q127.0547,51.8163 127.9453,52.6444 Q128.8359,53.4569 130.4297,53.4569 Q131.3672,53.4569 132.0234,53.2069 Q132.414,53.0506 132.8359,52.6131 Q133.1015,52.3475 133.2422,52.2694 Q133.3984,52.1913 133.6015,52.1913 Q133.9297,52.1913 134.1797,52.4569 Q134.4453,52.7069 134.4453,53.0506 Q134.4453,53.3944 134.1015,53.8006 Q133.6015,54.3788 132.8047,54.7069 Q131.7265,55.16 130.4297,55.16 Q128.914,55.16 127.7109,54.535 Q126.7265,54.035 126.039,52.9725 Q125.3515,51.8944 125.3515,50.6131 L125.3515,49.4569 Q125.3515,48.1288 125.9609,46.9881 Q126.5859,45.8319 127.6797,45.2225 Q128.7734,44.5975 130.0078,44.5975 Q130.7422,44.5975 131.3828,44.7694 Q132.039,44.9256 132.5859,45.285 Z " fill="#000000"/><text fill="#000000" font-family="sans-serif" font-size="14" lengthAdjust="spacing" textLength="29.5586" x="149.9537" y="55.1385">User</text><line style="stroke:#181818;stroke-width:0.5;" x1="88.22" x2="209.1126" y1="65.41" y2="65.41"/><text fill="#000000" font-family="sans-serif" font-size="14" lengthAdjust="spacing" textLength="54.1064" x="93.22" y="83.9432">+Long id</text><text fill="#000000" font-family="sans-serif" font-size="14" lengthAdjust="spacing" textLength="110.8926" x="93.22" y="101.5526">+String username</text><text fill="#000000" font-family="sans-serif" font-size="14" lengthAdjust="spacing" textLength="108.5547" x="93.22" y="119.162">+String password</text><text fill="#000000" font-family="sans-serif" font-size="14" lengthAdjust="spacing" textLength="109.3271" x="93.22" y="136.7713">+String realName</text><text fill="#000000" font-family="sans-serif" font-size="14" lengthAdjust="spacing" textLength="85.9893" x="93.22" y="154.3807">+String status</text><line style="stroke:#181818;stroke-width:0.5;" x1="88.22" x2="209.1126" y1="161.4569" y2="161.4569"/></g><!--class Role--><g class="entity" data-qualified-name="Role" data-source-line="11" id="ent0003"><rect fill="#F1F1F1" height="100.8281" rx="2.5" ry="2.5" style="stroke:#181818;stroke-width:0.5;" width="121.3271" x="7" y="309.09"/><ellipse cx="49.2404" cy="325.09" fill="#ADD1B2" rx="11" ry="11" style="stroke:#181818;stroke-width:1;"/><path d="M52.006,320.965 Q52.1623,320.7463 52.3498,320.6369 Q52.5373,320.5275 52.756,320.5275 Q53.131,320.5275 53.3654,320.7931 Q53.5998,321.0431 53.5998,321.6525 L53.5998,323.1056 Q53.5998,323.715 53.3654,323.9806 Q53.131,324.2463 52.756,324.2463 Q52.4123,324.2463 52.2091,324.0431 Q52.006,323.8556 51.8966,323.34 Q51.8498,322.9806 51.6623,322.7931 Q51.3341,322.4181 50.7248,322.1994 Q50.1154,321.9806 49.4904,321.9806 Q48.7248,321.9806 48.0841,322.3088 Q47.4591,322.6369 46.9591,323.3869 Q46.4748,324.1369 46.4748,325.1681 L46.4748,326.2619 Q46.4748,327.4963 47.3654,328.3244 Q48.256,329.1369 49.8498,329.1369 Q50.7873,329.1369 51.4435,328.8869 Q51.8341,328.7306 52.256,328.2931 Q52.5216,328.0275 52.6623,327.9494 Q52.8185,327.8713 53.0216,327.8713 Q53.3498,327.8713 53.5998,328.1369 Q53.8654,328.3869 53.8654,328.7306 Q53.8654,329.0744 53.5216,329.4806 Q53.0216,330.0588 52.2248,330.3869 Q51.1466,330.84 49.8498,330.84 Q48.3341,330.84 47.131,330.215 Q46.1466,329.715 45.4591,328.6525 Q44.7716,327.5744 44.7716,326.2931 L44.7716,325.1369 Q44.7716,323.8088 45.381,322.6681 Q46.006,321.5119 47.0998,320.9025 Q48.1935,320.2775 49.4279,320.2775 Q50.1623,320.2775 50.8029,320.4494 Q51.4591,320.6056 52.006,320.965 Z " fill="#000000"/><text fill="#000000" font-family="sans-serif" font-size="14" lengthAdjust="spacing" textLength="28.793" x="69.2938" y="330.8185">Role</text><line style="stroke:#181818;stroke-width:0.5;" x1="8" x2="127.3271" y1="341.09" y2="341.09"/><text fill="#000000" font-family="sans-serif" font-size="14" lengthAdjust="spacing" textLength="54.1064" x="13" y="359.6232">+Long id</text><text fill="#000000" font-family="sans-serif" font-size="14" lengthAdjust="spacing" textLength="105.4512" x="13" y="377.2326">+String roleCode</text><text fill="#000000" font-family="sans-serif" font-size="14" lengthAdjust="spacing" textLength="109.3271" x="13" y="394.842">+String roleName</text><line style="stroke:#181818;stroke-width:0.5;" x1="8" x2="127.3271" y1="401.9181" y2="401.9181"/></g><!--class Device--><g class="entity" data-qualified-name="Device" data-source-line="17" id="ent0004"><rect fill="#F1F1F1" height="188.875" rx="2.5" ry="2.5" style="stroke:#181818;stroke-width:0.5;" width="138.4512" x="564.44" y="7"/><ellipse cx="608.0862" cy="23" fill="#ADD1B2" rx="11" ry="11" style="stroke:#181818;stroke-width:1;"/><path d="M610.8518,18.875 Q611.0081,18.6563 611.1956,18.5469 Q611.3831,18.4375 611.6018,18.4375 Q611.9768,18.4375 612.2112,18.7031 Q612.4456,18.9531 612.4456,19.5625 L612.4456,21.0156 Q612.4456,21.625 612.2112,21.8906 Q611.9768,22.1563 611.6018,22.1563 Q611.2581,22.1563 611.0549,21.9531 Q610.8518,21.7656 610.7424,21.25 Q610.6956,20.8906 610.5081,20.7031 Q610.1799,20.3281 609.5706,20.1094 Q608.9612,19.8906 608.3362,19.8906 Q607.5706,19.8906 606.9299,20.2188 Q606.3049,20.5469 605.8049,21.2969 Q605.3206,22.0469 605.3206,23.0781 L605.3206,24.1719 Q605.3206,25.4063 606.2112,26.2344 Q607.1018,27.0469 608.6956,27.0469 Q609.6331,27.0469 610.2893,26.7969 Q610.6799,26.6406 611.1018,26.2031 Q611.3674,25.9375 611.5081,25.8594 Q611.6643,25.7813 611.8674,25.7813 Q612.1956,25.7813 612.4456,26.0469 Q612.7112,26.2969 612.7112,26.6406 Q612.7112,26.9844 612.3674,27.3906 Q611.8674,27.9688 611.0706,28.2969 Q609.9924,28.75 608.6956,28.75 Q607.1799,28.75 605.9768,28.125 Q604.9924,27.625 604.3049,26.5625 Q603.6174,25.4844 603.6174,24.2031 L603.6174,23.0469 Q603.6174,21.7188 604.2268,20.5781 Q604.8518,19.4219 605.9456,18.8125 Q607.0393,18.1875 608.2737,18.1875 Q609.0081,18.1875 609.6487,18.3594 Q610.3049,18.5156 610.8518,18.875 Z " fill="#000000"/><text fill="#000000" font-family="sans-serif" font-size="14" lengthAdjust="spacing" textLength="42.793" x="628.452" y="28.7285">Device</text><line style="stroke:#181818;stroke-width:0.5;" x1="565.44" x2="701.8912" y1="39" y2="39"/><text fill="#000000" font-family="sans-serif" font-size="14" lengthAdjust="spacing" textLength="54.1064" x="570.44" y="57.5332">+Long id</text><text fill="#000000" font-family="sans-serif" font-size="14" lengthAdjust="spacing" textLength="122.5752" x="570.44" y="75.1426">+String deviceCode</text><text fill="#000000" font-family="sans-serif" font-size="14" lengthAdjust="spacing" textLength="126.4512" x="570.44" y="92.752">+String deviceName</text><text fill="#000000" font-family="sans-serif" font-size="14" lengthAdjust="spacing" textLength="120.2305" x="570.44" y="110.3613">+String deviceType</text><text fill="#000000" font-family="sans-serif" font-size="14" lengthAdjust="spacing" textLength="110.8926" x="570.44" y="127.9707">+String ipAddress</text><text fill="#000000" font-family="sans-serif" font-size="14" lengthAdjust="spacing" textLength="96.8926" x="570.44" y="145.5801">+String location</text><text fill="#000000" font-family="sans-serif" font-size="14" lengthAdjust="spacing" textLength="103.8926" x="570.44" y="163.1895">+String manager</text><text fill="#000000" font-family="sans-serif" font-size="14" lengthAdjust="spacing" textLength="85.9893" x="570.44" y="180.7988">+String status</text><line style="stroke:#181818;stroke-width:0.5;" x1="565.44" x2="701.8912" y1="187.875" y2="187.875"/></g><!--class DeviceMetric--><g class="entity" data-qualified-name="DeviceMetric" data-source-line="28" id="ent0005"><rect fill="#F1F1F1" height="171.2656" rx="2.5" ry="2.5" style="stroke:#181818;stroke-width:0.5;" width="204.582" x="329.37" y="273.87"/><ellipse cx="386.9594" cy="289.87" fill="#ADD1B2" rx="11" ry="11" style="stroke:#181818;stroke-width:1;"/><path d="M389.725,285.745 Q389.8812,285.5263 390.0687,285.4169 Q390.2562,285.3075 390.475,285.3075 Q390.85,285.3075 391.0844,285.5731 Q391.3187,285.8231 391.3187,286.4325 L391.3187,287.8856 Q391.3187,288.495 391.0844,288.7606 Q390.85,289.0263 390.475,289.0263 Q390.1312,289.0263 389.9281,288.8231 Q389.725,288.6356 389.6156,288.12 Q389.5687,287.7606 389.3812,287.5731 Q389.0531,287.1981 388.4437,286.9794 Q387.8344,286.7606 387.2094,286.7606 Q386.4437,286.7606 385.8031,287.0888 Q385.1781,287.4169 384.6781,288.1669 Q384.1937,288.9169 384.1937,289.9481 L384.1937,291.0419 Q384.1937,292.2763 385.0844,293.1044 Q385.975,293.9169 387.5687,293.9169 Q388.5062,293.9169 389.1625,293.6669 Q389.5531,293.5106 389.975,293.0731 Q390.2406,292.8075 390.3812,292.7294 Q390.5375,292.6513 390.7406,292.6513 Q391.0687,292.6513 391.3187,292.9169 Q391.5844,293.1669 391.5844,293.5106 Q391.5844,293.8544 391.2406,294.2606 Q390.7406,294.8388 389.9437,295.1669 Q388.8656,295.62 387.5687,295.62 Q386.0531,295.62 384.85,294.995 Q383.8656,294.495 383.1781,293.4325 Q382.4906,292.3544 382.4906,291.0731 L382.4906,289.9169 Q382.4906,288.5888 383.1,287.4481 Q383.725,286.2919 384.8187,285.6825 Q385.9125,285.0575 387.1469,285.0575 Q387.8812,285.0575 388.5219,285.2294 Q389.1781,285.3856 389.725,285.745 Z " fill="#000000"/><text fill="#000000" font-family="sans-serif" font-size="14" lengthAdjust="spacing" textLength="80.9033" x="407.4594" y="295.5985">DeviceMetric</text><line style="stroke:#181818;stroke-width:0.5;" x1="330.37" x2="532.952" y1="305.87" y2="305.87"/><text fill="#000000" font-family="sans-serif" font-size="14" lengthAdjust="spacing" textLength="54.1064" x="335.37" y="324.4032">+Long id</text><text fill="#000000" font-family="sans-serif" font-size="14" lengthAdjust="spacing" textLength="95.3545" x="335.37" y="342.0126">+Long deviceId</text><text fill="#000000" font-family="sans-serif" font-size="14" lengthAdjust="spacing" textLength="145.9063" x="335.37" y="359.622">+BigDecimal cpuUsage</text><text fill="#000000" font-family="sans-serif" font-size="14" lengthAdjust="spacing" textLength="173.8926" x="335.37" y="377.2313">+BigDecimal memoryUsage</text><text fill="#000000" font-family="sans-serif" font-size="14" lengthAdjust="spacing" textLength="148.2305" x="335.37" y="394.8407">+BigDecimal diskUsage</text><text fill="#000000" font-family="sans-serif" font-size="14" lengthAdjust="spacing" textLength="125.6924" x="335.37" y="412.4501">+String onlineStatus</text><text fill="#000000" font-family="sans-serif" font-size="14" lengthAdjust="spacing" textLength="192.582" x="335.37" y="430.0595">+LocalDateTime collectedTime</text><line style="stroke:#181818;stroke-width:0.5;" x1="330.37" x2="532.952" y1="437.1356" y2="437.1356"/></g><!--class AlarmRecord--><g class="entity" data-qualified-name="AlarmRecord" data-source-line="38" id="ent0006"><rect fill="#F1F1F1" height="153.6563" rx="2.5" ry="2.5" style="stroke:#181818;stroke-width:0.5;" width="129.1133" x="569.11" y="282.68"/><ellipse cx="591.0507" cy="298.68" fill="#ADD1B2" rx="11" ry="11" style="stroke:#181818;stroke-width:1;"/><path d="M593.8163,294.555 Q593.9726,294.3363 594.1601,294.2269 Q594.3476,294.1175 594.5663,294.1175 Q594.9413,294.1175 595.1757,294.3831 Q595.4101,294.6331 595.4101,295.2425 L595.4101,296.6956 Q595.4101,297.305 595.1757,297.5706 Q594.9413,297.8363 594.5663,297.8363 Q594.2226,297.8363 594.0195,297.6331 Q593.8163,297.4456 593.707,296.93 Q593.6601,296.5706 593.4726,296.3831 Q593.1445,296.0081 592.5351,295.7894 Q591.9257,295.5706 591.3007,295.5706 Q590.5351,295.5706 589.8945,295.8988 Q589.2695,296.2269 588.7695,296.9769 Q588.2851,297.7269 588.2851,298.7581 L588.2851,299.8519 Q588.2851,301.0863 589.1757,301.9144 Q590.0663,302.7269 591.6601,302.7269 Q592.5976,302.7269 593.2538,302.4769 Q593.6445,302.3206 594.0663,301.8831 Q594.332,301.6175 594.4726,301.5394 Q594.6288,301.4613 594.832,301.4613 Q595.1601,301.4613 595.4101,301.7269 Q595.6757,301.9769 595.6757,302.3206 Q595.6757,302.6644 595.332,303.0706 Q594.832,303.6488 594.0351,303.9769 Q592.957,304.43 591.6601,304.43 Q590.1445,304.43 588.9413,303.805 Q587.957,303.305 587.2695,302.2425 Q586.582,301.1644 586.582,299.8831 L586.582,298.7269 Q586.582,297.3988 587.1913,296.2581 Q587.8163,295.1019 588.9101,294.4925 Q590.0038,293.8675 591.2382,293.8675 Q591.9726,293.8675 592.6132,294.0394 Q593.2695,294.1956 593.8163,294.555 Z " fill="#000000"/><text fill="#000000" font-family="sans-serif" font-size="14" lengthAdjust="spacing" textLength="81.6895" x="606.5931" y="304.4085">AlarmRecord</text><line style="stroke:#181818;stroke-width:0.5;" x1="570.11" x2="697.2233" y1="314.68" y2="314.68"/><text fill="#000000" font-family="sans-serif" font-size="14" lengthAdjust="spacing" textLength="54.1064" x="575.11" y="333.2132">+Long id</text><text fill="#000000" font-family="sans-serif" font-size="14" lengthAdjust="spacing" textLength="95.3545" x="575.11" y="350.8226">+Long deviceId</text><text fill="#000000" font-family="sans-serif" font-size="14" lengthAdjust="spacing" textLength="110.0928" x="575.11" y="368.432">+String alarmTitle</text><text fill="#000000" font-family="sans-serif" font-size="14" lengthAdjust="spacing" textLength="117.1133" x="575.11" y="386.0413">+String alarmLevel</text><text fill="#000000" font-family="sans-serif" font-size="14" lengthAdjust="spacing" textLength="114.7686" x="575.11" y="403.6507">+String alarmType</text><text fill="#000000" font-family="sans-serif" font-size="14" lengthAdjust="spacing" textLength="85.9893" x="575.11" y="421.2601">+String status</text><line style="stroke:#181818;stroke-width:0.5;" x1="570.11" x2="697.2233" y1="428.3363" y2="428.3363"/></g><!--class WorkOrder--><g class="entity" data-qualified-name="WorkOrder" data-source-line="47" id="ent0007"><rect fill="#F1F1F1" height="171.2656" rx="2.5" ry="2.5" style="stroke:#181818;stroke-width:0.5;" width="122.9268" x="572.2" y="523.14"/><ellipse cx="597.3153" cy="539.14" fill="#ADD1B2" rx="11" ry="11" style="stroke:#181818;stroke-width:1;"/><path d="M600.081,535.015 Q600.2372,534.7963 600.4247,534.6869 Q600.6122,534.5775 600.831,534.5775 Q601.206,534.5775 601.4403,534.8431 Q601.6747,535.0931 601.6747,535.7025 L601.6747,537.1556 Q601.6747,537.765 601.4403,538.0306 Q601.206,538.2963 600.831,538.2963 Q600.4872,538.2963 600.2841,538.0931 Q600.081,537.9056 599.9716,537.39 Q599.9247,537.0306 599.7372,536.8431 Q599.4091,536.4681 598.7997,536.2494 Q598.1903,536.0306 597.5653,536.0306 Q596.7997,536.0306 596.1591,536.3588 Q595.5341,536.6869 595.0341,537.4369 Q594.5497,538.1869 594.5497,539.2181 L594.5497,540.3119 Q594.5497,541.5463 595.4403,542.3744 Q596.331,543.1869 597.9247,543.1869 Q598.8622,543.1869 599.5185,542.9369 Q599.9091,542.7806 600.331,542.3431 Q600.5966,542.0775 600.7372,541.9994 Q600.8935,541.9213 601.0966,541.9213 Q601.4247,541.9213 601.6747,542.1869 Q601.9403,542.4369 601.9403,542.7806 Q601.9403,543.1244 601.5966,543.5306 Q601.0966,544.1088 600.2997,544.4369 Q599.2216,544.89 597.9247,544.89 Q596.4091,544.89 595.206,544.265 Q594.2216,543.765 593.5341,542.7025 Q592.8466,541.6244 592.8466,540.3431 L592.8466,539.1869 Q592.8466,537.8588 593.456,536.7181 Q594.081,535.5619 595.1747,534.9525 Q596.2685,534.3275 597.5028,534.3275 Q598.2372,534.3275 598.8778,534.4994 Q599.5341,534.6556 600.081,535.015 Z " fill="#000000"/><text fill="#000000" font-family="sans-serif" font-size="14" lengthAdjust="spacing" textLength="68.4482" x="613.5632" y="544.8685">WorkOrder</text><line style="stroke:#181818;stroke-width:0.5;" x1="573.2" x2="694.1268" y1="555.14" y2="555.14"/><text fill="#000000" font-family="sans-serif" font-size="14" lengthAdjust="spacing" textLength="54.1064" x="578.2" y="573.6732">+Long id</text><text fill="#000000" font-family="sans-serif" font-size="14" lengthAdjust="spacing" textLength="99.2168" x="578.2" y="591.2826">+String orderNo</text><text fill="#000000" font-family="sans-serif" font-size="14" lengthAdjust="spacing" textLength="89.8926" x="578.2" y="608.892">+Long alarmId</text><text fill="#000000" font-family="sans-serif" font-size="14" lengthAdjust="spacing" textLength="70.4238" x="578.2" y="626.5013">+String title</text><text fill="#000000" font-family="sans-serif" font-size="14" lengthAdjust="spacing" textLength="90.6445" x="578.2" y="644.1107">+String priority</text><text fill="#000000" font-family="sans-serif" font-size="14" lengthAdjust="spacing" textLength="110.9268" x="578.2" y="661.7201">+Long assigneeId</text><text fill="#000000" font-family="sans-serif" font-size="14" lengthAdjust="spacing" textLength="85.9893" x="578.2" y="679.3295">+String status</text><line style="stroke:#181818;stroke-width:0.5;" x1="573.2" x2="694.1268" y1="686.4056" y2="686.4056"/></g><!--class WorkOrderLog--><g class="entity" data-qualified-name="WorkOrderLog" data-source-line="57" id="ent0008"><rect fill="#F1F1F1" height="136.0469" rx="2.5" ry="2.5" style="stroke:#181818;stroke-width:0.5;" width="132.2305" x="567.55" y="772.4"/><ellipse cx="586.3407" cy="788.4" fill="#ADD1B2" rx="11" ry="11" style="stroke:#181818;stroke-width:1;"/><path d="M589.1063,784.275 Q589.2626,784.0563 589.4501,783.9469 Q589.6376,783.8375 589.8563,783.8375 Q590.2313,783.8375 590.4657,784.1031 Q590.7001,784.3531 590.7001,784.9625 L590.7001,786.4156 Q590.7001,787.025 590.4657,787.2906 Q590.2313,787.5563 589.8563,787.5563 Q589.5126,787.5563 589.3095,787.3531 Q589.1063,787.1656 588.997,786.65 Q588.9501,786.2906 588.7626,786.1031 Q588.4345,785.7281 587.8251,785.5094 Q587.2157,785.2906 586.5907,785.2906 Q585.8251,785.2906 585.1845,785.6188 Q584.5595,785.9469 584.0595,786.6969 Q583.5751,787.4469 583.5751,788.4781 L583.5751,789.5719 Q583.5751,790.8063 584.4657,791.6344 Q585.3563,792.4469 586.9501,792.4469 Q587.8876,792.4469 588.5438,792.1969 Q588.9345,792.0406 589.3563,791.6031 Q589.622,791.3375 589.7626,791.2594 Q589.9188,791.1813 590.122,791.1813 Q590.4501,791.1813 590.7001,791.4469 Q590.9657,791.6969 590.9657,792.0406 Q590.9657,792.3844 590.622,792.7906 Q590.122,793.3688 589.3251,793.6969 Q588.247,794.15 586.9501,794.15 Q585.4345,794.15 584.2313,793.525 Q583.247,793.025 582.5595,791.9625 Q581.872,790.8844 581.872,789.6031 L581.872,788.4469 Q581.872,787.1188 582.4813,785.9781 Q583.1063,784.8219 584.2001,784.2125 Q585.2938,783.5875 586.5282,783.5875 Q587.2626,783.5875 587.9032,783.7594 Q588.5595,783.9156 589.1063,784.275 Z " fill="#000000"/><text fill="#000000" font-family="sans-serif" font-size="14" lengthAdjust="spacing" textLength="91.8066" x="601.1831" y="794.1285">WorkOrderLog</text><line style="stroke:#181818;stroke-width:0.5;" x1="568.55" x2="698.7805" y1="804.4" y2="804.4"/><text fill="#000000" font-family="sans-serif" font-size="14" lengthAdjust="spacing" textLength="54.1064" x="573.55" y="822.9332">+Long id</text><text fill="#000000" font-family="sans-serif" font-size="14" lengthAdjust="spacing" textLength="120.2305" x="573.55" y="840.5426">+Long workOrderId</text><text fill="#000000" font-family="sans-serif" font-size="14" lengthAdjust="spacing" textLength="107.0303" x="573.55" y="858.152">+Long operatorId</text><text fill="#000000" font-family="sans-serif" font-size="14" lengthAdjust="spacing" textLength="85.9961" x="573.55" y="875.7613">+String action</text><text fill="#000000" font-family="sans-serif" font-size="14" lengthAdjust="spacing" textLength="94.5615" x="573.55" y="893.3707">+String content</text><line style="stroke:#181818;stroke-width:0.5;" x1="568.55" x2="698.7805" y1="900.4469" y2="900.4469"/></g><!--class LogAnalysisRecord--><g class="entity" data-qualified-name="LogAnalysisRecord" data-source-line="65" id="ent0009"><rect fill="#F1F1F1" height="153.6563" rx="2.5" ry="2.5" style="stroke:#181818;stroke-width:0.5;" width="152.6201" x="733.35" y="282.68"/><ellipse cx="748.35" cy="298.68" fill="#ADD1B2" rx="11" ry="11" style="stroke:#181818;stroke-width:1;"/><path d="M751.1156,294.555 Q751.2719,294.3363 751.4594,294.2269 Q751.6469,294.1175 751.8656,294.1175 Q752.2406,294.1175 752.475,294.3831 Q752.7094,294.6331 752.7094,295.2425 L752.7094,296.6956 Q752.7094,297.305 752.475,297.5706 Q752.2406,297.8363 751.8656,297.8363 Q751.5219,297.8363 751.3188,297.6331 Q751.1156,297.4456 751.0063,296.93 Q750.9594,296.5706 750.7719,296.3831 Q750.4438,296.0081 749.8344,295.7894 Q749.225,295.5706 748.6,295.5706 Q747.8344,295.5706 747.1938,295.8988 Q746.5688,296.2269 746.0688,296.9769 Q745.5844,297.7269 745.5844,298.7581 L745.5844,299.8519 Q745.5844,301.0863 746.475,301.9144 Q747.3656,302.7269 748.9594,302.7269 Q749.8969,302.7269 750.5531,302.4769 Q750.9438,302.3206 751.3656,301.8831 Q751.6313,301.6175 751.7719,301.5394 Q751.9281,301.4613 752.1313,301.4613 Q752.4594,301.4613 752.7094,301.7269 Q752.975,301.9769 752.975,302.3206 Q752.975,302.6644 752.6313,303.0706 Q752.1313,303.6488 751.3344,303.9769 Q750.2563,304.43 748.9594,304.43 Q747.4438,304.43 746.2406,303.805 Q745.2563,303.305 744.5688,302.2425 Q743.8813,301.1644 743.8813,299.8831 L743.8813,298.7269 Q743.8813,297.3988 744.4906,296.2581 Q745.1156,295.1019 746.2094,294.4925 Q747.3031,293.8675 748.5375,293.8675 Q749.2719,293.8675 749.9125,294.0394 Q750.5688,294.1956 751.1156,294.555 Z " fill="#000000"/><text fill="#000000" font-family="sans-serif" font-size="14" lengthAdjust="spacing" textLength="120.6201" x="762.35" y="304.4085">LogAnalysisRecord</text><line style="stroke:#181818;stroke-width:0.5;" x1="734.35" x2="884.9701" y1="314.68" y2="314.68"/><text fill="#000000" font-family="sans-serif" font-size="14" lengthAdjust="spacing" textLength="54.1064" x="739.35" y="333.2132">+Long id</text><text fill="#000000" font-family="sans-serif" font-size="14" lengthAdjust="spacing" textLength="95.3545" x="739.35" y="350.8226">+Long deviceId</text><text fill="#000000" font-family="sans-serif" font-size="14" lengthAdjust="spacing" textLength="103.8789" x="739.35" y="368.432">+String riskLevel</text><text fill="#000000" font-family="sans-serif" font-size="14" lengthAdjust="spacing" textLength="106.2236" x="739.35" y="386.0413">+String faultType</text><text fill="#000000" font-family="sans-serif" font-size="14" lengthAdjust="spacing" textLength="107.7686" x="739.35" y="403.6507">+String keywords</text><text fill="#000000" font-family="sans-serif" font-size="14" lengthAdjust="spacing" textLength="116.3545" x="739.35" y="421.2601">+String suggestion</text><line style="stroke:#181818;stroke-width:0.5;" x1="734.35" x2="884.9701" y1="428.3363" y2="428.3363"/></g><!--class KnowledgeDocument--><g class="entity" data-qualified-name="KnowledgeDocument" data-source-line="74" id="ent0010"><rect fill="#F1F1F1" height="153.6563" rx="2.5" ry="2.5" style="stroke:#181818;stroke-width:0.5;" width="165.082" x="909.12" y="24.61"/><ellipse cx="924.12" cy="40.61" fill="#ADD1B2" rx="11" ry="11" style="stroke:#181818;stroke-width:1;"/><path d="M926.8856,36.485 Q927.0419,36.2663 927.2294,36.1569 Q927.4169,36.0475 927.6356,36.0475 Q928.0106,36.0475 928.245,36.3131 Q928.4794,36.5631 928.4794,37.1725 L928.4794,38.6256 Q928.4794,39.235 928.245,39.5006 Q928.0106,39.7663 927.6356,39.7663 Q927.2919,39.7663 927.0888,39.5631 Q926.8856,39.3756 926.7763,38.86 Q926.7294,38.5006 926.5419,38.3131 Q926.2138,37.9381 925.6044,37.7194 Q924.995,37.5006 924.37,37.5006 Q923.6044,37.5006 922.9638,37.8288 Q922.3388,38.1569 921.8388,38.9069 Q921.3544,39.6569 921.3544,40.6881 L921.3544,41.7819 Q921.3544,43.0163 922.245,43.8444 Q923.1356,44.6569 924.7294,44.6569 Q925.6669,44.6569 926.3231,44.4069 Q926.7138,44.2506 927.1356,43.8131 Q927.4013,43.5475 927.5419,43.4694 Q927.6981,43.3913 927.9013,43.3913 Q928.2294,43.3913 928.4794,43.6569 Q928.745,43.9069 928.745,44.2506 Q928.745,44.5944 928.4013,45.0006 Q927.9013,45.5788 927.1044,45.9069 Q926.0263,46.36 924.7294,46.36 Q923.2138,46.36 922.0106,45.735 Q921.0263,45.235 920.3388,44.1725 Q919.6513,43.0944 919.6513,41.8131 L919.6513,40.6569 Q919.6513,39.3288 920.2606,38.1881 Q920.8856,37.0319 921.9794,36.4225 Q923.0731,35.7975 924.3075,35.7975 Q925.0419,35.7975 925.6825,35.9694 Q926.3388,36.1256 926.8856,36.485 Z " fill="#000000"/><text fill="#000000" font-family="sans-serif" font-size="14" lengthAdjust="spacing" textLength="133.082" x="938.12" y="46.3385">KnowledgeDocument</text><line style="stroke:#181818;stroke-width:0.5;" x1="910.12" x2="1073.202" y1="56.61" y2="56.61"/><text fill="#000000" font-family="sans-serif" font-size="14" lengthAdjust="spacing" textLength="54.1064" x="915.12" y="75.1432">+Long id</text><text fill="#000000" font-family="sans-serif" font-size="14" lengthAdjust="spacing" textLength="103.8789" x="915.12" y="92.7526">+String fileName</text><text fill="#000000" font-family="sans-serif" font-size="14" lengthAdjust="spacing" textLength="97.6582" x="915.12" y="110.362">+String fileType</text><text fill="#000000" font-family="sans-serif" font-size="14" lengthAdjust="spacing" textLength="95.334" x="915.12" y="127.9713">+String filePath</text><text fill="#000000" font-family="sans-serif" font-size="14" lengthAdjust="spacing" textLength="123.3477" x="915.12" y="145.5807">+String parseStatus</text><text fill="#000000" font-family="sans-serif" font-size="14" lengthAdjust="spacing" textLength="130.3682" x="915.12" y="163.1901">+Integer chunkCount</text><line style="stroke:#181818;stroke-width:0.5;" x1="910.12" x2="1073.202" y1="170.2663" y2="170.2663"/></g><!--class KnowledgeChunk--><g class="entity" data-qualified-name="KnowledgeChunk" data-source-line="83" id="ent0011"><rect fill="#F1F1F1" height="136.0469" rx="2.5" ry="2.5" style="stroke:#181818;stroke-width:0.5;" width="141.7441" x="920.79" y="291.48"/><ellipse cx="935.79" cy="307.48" fill="#ADD1B2" rx="11" ry="11" style="stroke:#181818;stroke-width:1;"/><path d="M938.5556,303.355 Q938.7119,303.1363 938.8994,303.0269 Q939.0869,302.9175 939.3056,302.9175 Q939.6806,302.9175 939.915,303.1831 Q940.1494,303.4331 940.1494,304.0425 L940.1494,305.4956 Q940.1494,306.105 939.915,306.3706 Q939.6806,306.6363 939.3056,306.6363 Q938.9619,306.6363 938.7588,306.4331 Q938.5556,306.2456 938.4463,305.73 Q938.3994,305.3706 938.2119,305.1831 Q937.8838,304.8081 937.2744,304.5894 Q936.665,304.3706 936.04,304.3706 Q935.2744,304.3706 934.6338,304.6988 Q934.0088,305.0269 933.5088,305.7769 Q933.0244,306.5269 933.0244,307.5581 L933.0244,308.6519 Q933.0244,309.8863 933.915,310.7144 Q934.8056,311.5269 936.3994,311.5269 Q937.3369,311.5269 937.9931,311.2769 Q938.3838,311.1206 938.8056,310.6831 Q939.0713,310.4175 939.2119,310.3394 Q939.3681,310.2613 939.5713,310.2613 Q939.8994,310.2613 940.1494,310.5269 Q940.415,310.7769 940.415,311.1206 Q940.415,311.4644 940.0713,311.8706 Q939.5713,312.4488 938.7744,312.7769 Q937.6963,313.23 936.3994,313.23 Q934.8838,313.23 933.6806,312.605 Q932.6963,312.105 932.0088,311.0425 Q931.3213,309.9644 931.3213,308.6831 L931.3213,307.5269 Q931.3213,306.1988 931.9306,305.0581 Q932.5556,303.9019 933.6494,303.2925 Q934.7431,302.6675 935.9775,302.6675 Q936.7119,302.6675 937.3525,302.8394 Q938.0088,302.9956 938.5556,303.355 Z " fill="#000000"/><text fill="#000000" font-family="sans-serif" font-size="14" lengthAdjust="spacing" textLength="109.7441" x="949.79" y="313.2085">KnowledgeChunk</text><line style="stroke:#181818;stroke-width:0.5;" x1="921.79" x2="1061.5341" y1="323.48" y2="323.48"/><text fill="#000000" font-family="sans-serif" font-size="14" lengthAdjust="spacing" textLength="54.1064" x="926.79" y="342.0132">+Long id</text><text fill="#000000" font-family="sans-serif" font-size="14" lengthAdjust="spacing" textLength="116.3682" x="926.79" y="359.6226">+Long documentId</text><text fill="#000000" font-family="sans-serif" font-size="14" lengthAdjust="spacing" textLength="127.2578" x="926.79" y="377.232">+Integer chunkIndex</text><text fill="#000000" font-family="sans-serif" font-size="14" lengthAdjust="spacing" textLength="94.5615" x="926.79" y="394.8413">+String content</text><text fill="#000000" font-family="sans-serif" font-size="14" lengthAdjust="spacing" textLength="98.4375" x="926.79" y="412.4507">+String vectorId</text><line style="stroke:#181818;stroke-width:0.5;" x1="921.79" x2="1061.5341" y1="419.5269" y2="419.5269"/></g><!--class AiQaRecord--><g class="entity" data-qualified-name="AiQaRecord" data-source-line="91" id="ent0012"><rect fill="#F1F1F1" height="136.0469" rx="2.5" ry="2.5" style="stroke:#181818;stroke-width:0.5;" width="131.4443" x="162.94" y="291.48"/><ellipse cx="188.3753" cy="307.48" fill="#ADD1B2" rx="11" ry="11" style="stroke:#181818;stroke-width:1;"/><path d="M191.1409,303.355 Q191.2971,303.1363 191.4846,303.0269 Q191.6721,302.9175 191.8909,302.9175 Q192.2659,302.9175 192.5003,303.1831 Q192.7346,303.4331 192.7346,304.0425 L192.7346,305.4956 Q192.7346,306.105 192.5003,306.3706 Q192.2659,306.6363 191.8909,306.6363 Q191.5471,306.6363 191.344,306.4331 Q191.1409,306.2456 191.0315,305.73 Q190.9846,305.3706 190.7971,305.1831 Q190.469,304.8081 189.8596,304.5894 Q189.2503,304.3706 188.6253,304.3706 Q187.8596,304.3706 187.219,304.6988 Q186.594,305.0269 186.094,305.7769 Q185.6096,306.5269 185.6096,307.5581 L185.6096,308.6519 Q185.6096,309.8863 186.5003,310.7144 Q187.3909,311.5269 188.9846,311.5269 Q189.9221,311.5269 190.5784,311.2769 Q190.969,311.1206 191.3909,310.6831 Q191.6565,310.4175 191.7971,310.3394 Q191.9534,310.2613 192.1565,310.2613 Q192.4846,310.2613 192.7346,310.5269 Q193.0003,310.7769 193.0003,311.1206 Q193.0003,311.4644 192.6565,311.8706 Q192.1565,312.4488 191.3596,312.7769 Q190.2815,313.23 188.9846,313.23 Q187.469,313.23 186.2659,312.605 Q185.2815,312.105 184.594,311.0425 Q183.9065,309.9644 183.9065,308.6831 L183.9065,307.5269 Q183.9065,306.1988 184.5159,305.0581 Q185.1409,303.9019 186.2346,303.2925 Q187.3284,302.6675 188.5628,302.6675 Q189.2971,302.6675 189.9378,302.8394 Q190.594,302.9956 191.1409,303.355 Z " fill="#000000"/><text fill="#000000" font-family="sans-serif" font-size="14" lengthAdjust="spacing" textLength="76.2549" x="204.6942" y="313.2085">AiQaRecord</text><line style="stroke:#181818;stroke-width:0.5;" x1="163.94" x2="293.3843" y1="323.48" y2="323.48"/><text fill="#000000" font-family="sans-serif" font-size="14" lengthAdjust="spacing" textLength="54.1064" x="168.94" y="342.0132">+Long id</text><text fill="#000000" font-family="sans-serif" font-size="14" lengthAdjust="spacing" textLength="82.1201" x="168.94" y="359.6226">+Long userId</text><text fill="#000000" font-family="sans-serif" font-size="14" lengthAdjust="spacing" textLength="101.5684" x="168.94" y="377.232">+String question</text><text fill="#000000" font-family="sans-serif" font-size="14" lengthAdjust="spacing" textLength="93.7686" x="168.94" y="394.8413">+String answer</text><text fill="#000000" font-family="sans-serif" font-size="14" lengthAdjust="spacing" textLength="119.4443" x="168.94" y="412.4507">+String sourceRefs</text><line style="stroke:#181818;stroke-width:0.5;" x1="163.94" x2="293.3843" y1="419.5269" y2="419.5269"/></g><!--link User to Role--><g class="link" data-entity-1="ent0002" data-entity-2="ent0003" data-link-type="association" data-source-line="99" id="lnk13"><path codeLine="99" d="M127.38,169.71 C113.6,213.28 95.96,269.06 83.43,308.67" fill="none" id="User-Role" style="stroke:#181818;stroke-width:1;"/><text fill="#000000" font-family="sans-serif" font-size="13" lengthAdjust="spacing" textLength="26" x="109.16" y="240.3651">&#25317;&#26377;</text><text fill="#000000" font-family="sans-serif" font-size="13" lengthAdjust="spacing" textLength="31.7891" x="92.6271" y="191.0893">many</text><text fill="#000000" font-family="sans-serif" font-size="13" lengthAdjust="spacing" textLength="31.7891" x="52.5188" y="298.2829">many</text></g><!--link Device to DeviceMetric--><g class="link" data-entity-1="ent0004" data-entity-2="ent0005" data-link-type="association" data-source-line="100" id="lnk14"><path codeLine="100" d="M564.15,190.56 C542.92,217.47 519.63,246.99 498.58,273.68" fill="none" id="Device-DeviceMetric" style="stroke:#181818;stroke-width:1;"/><text fill="#000000" font-family="sans-serif" font-size="13" lengthAdjust="spacing" textLength="26" x="533.66" y="240.3651">&#20135;&#29983;</text><text fill="#000000" font-family="sans-serif" font-size="13" lengthAdjust="spacing" textLength="7.23" x="549.1765" y="196.9471">1</text><text fill="#000000" font-family="sans-serif" font-size="13" lengthAdjust="spacing" textLength="31.7891" x="472.0327" y="263.1273">many</text></g><!--link Device to AlarmRecord--><g class="link" data-entity-1="ent0004" data-entity-2="ent0006" data-link-type="association" data-source-line="101" id="lnk15"><path codeLine="101" d="M633.66,196.33 C633.66,224.59 633.66,255.25 633.66,282.22" fill="none" id="Device-AlarmRecord" style="stroke:#181818;stroke-width:1;"/><text fill="#000000" font-family="sans-serif" font-size="13" lengthAdjust="spacing" textLength="26" x="634.66" y="240.3651">&#20135;&#29983;</text><text fill="#000000" font-family="sans-serif" font-size="13" lengthAdjust="spacing" textLength="7.23" x="626.411" y="217.3942">1</text><text fill="#000000" font-family="sans-serif" font-size="13" lengthAdjust="spacing" textLength="31.7891" x="601.2669" y="271.8688">many</text></g><!--link AlarmRecord to WorkOrder--><g class="link" data-entity-1="ent0006" data-entity-2="ent0007" data-link-type="association" data-source-line="102" id="lnk16"><path codeLine="102" d="M633.66,436.71 C633.66,463.95 633.66,494.82 633.66,522.76" fill="none" id="AlarmRecord-WorkOrder" style="stroke:#181818;stroke-width:1;"/><text fill="#000000" font-family="sans-serif" font-size="13" lengthAdjust="spacing" textLength="26" x="634.66" y="489.6351">&#36716;&#20026;</text><text fill="#000000" font-family="sans-serif" font-size="13" lengthAdjust="spacing" textLength="7.23" x="626.3579" y="457.8091">1</text><text fill="#000000" font-family="sans-serif" font-size="13" lengthAdjust="spacing" textLength="21.6836" x="611.7867" y="512.191">0..1</text></g><!--link WorkOrder to WorkOrderLog--><g class="link" data-entity-1="ent0007" data-entity-2="ent0008" data-link-type="association" data-source-line="103" id="lnk17"><path codeLine="103" d="M633.66,694.63 C633.66,720.19 633.66,747.87 633.66,772.12" fill="none" id="WorkOrder-WorkOrderLog" style="stroke:#181818;stroke-width:1;"/><text fill="#000000" font-family="sans-serif" font-size="13" lengthAdjust="spacing" textLength="26" x="634.66" y="738.8951">&#21253;&#21547;</text><text fill="#000000" font-family="sans-serif" font-size="13" lengthAdjust="spacing" textLength="7.23" x="626.3794" y="715.9122">1</text><text fill="#000000" font-family="sans-serif" font-size="13" lengthAdjust="spacing" textLength="31.7891" x="601.1017" y="761.7645">many</text></g><!--link Device to LogAnalysisRecord--><g class="link" data-entity-1="ent0004" data-entity-2="ent0009" data-link-type="association" data-source-line="104" id="lnk18"><path codeLine="104" d="M698.2,196.33 C717.63,224.59 738.7,255.25 757.23,282.22" fill="none" id="Device-LogAnalysisRecord" style="stroke:#181818;stroke-width:1;"/><text fill="#000000" font-family="sans-serif" font-size="13" lengthAdjust="spacing" textLength="26" x="727.94" y="240.3651">&#20851;&#32852;</text><text fill="#000000" font-family="sans-serif" font-size="13" lengthAdjust="spacing" textLength="7.23" x="695.6907" y="217.3942">1</text><text fill="#000000" font-family="sans-serif" font-size="13" lengthAdjust="spacing" textLength="31.7891" x="720.0041" y="271.8688">many</text></g><!--link KnowledgeDocument to KnowledgeChunk--><g class="link" data-entity-1="ent0010" data-entity-2="ent0011" data-link-type="association" data-source-line="105" id="lnk19"><path codeLine="105" d="M991.66,178.57 C991.66,214.4 991.66,256.75 991.66,291.36" fill="none" id="KnowledgeDocument-KnowledgeChunk" style="stroke:#181818;stroke-width:1;"/><text fill="#000000" font-family="sans-serif" font-size="13" lengthAdjust="spacing" textLength="26" x="992.66" y="240.3651">&#20999;&#20998;</text><text fill="#000000" font-family="sans-serif" font-size="13" lengthAdjust="spacing" textLength="7.23" x="984.3584" y="199.6628">1</text><text fill="#000000" font-family="sans-serif" font-size="13" lengthAdjust="spacing" textLength="31.7891" x="959.0076" y="280.5462">many</text></g><!--link User to AiQaRecord--><g class="link" data-entity-1="ent0002" data-entity-2="ent0012" data-link-type="association" data-source-line="106" id="lnk20"><path codeLine="106" d="M169.68,169.71 C181.4,207.2 195.93,253.74 207.65,291.23" fill="none" id="User-AiQaRecord" style="stroke:#181818;stroke-width:1;"/><text fill="#000000" font-family="sans-serif" font-size="13" lengthAdjust="spacing" textLength="26" x="192.06" y="240.3651">&#25552;&#38382;</text><text fill="#000000" font-family="sans-serif" font-size="13" lengthAdjust="spacing" textLength="7.23" x="164.498" y="191.0893">1</text><text fill="#000000" font-family="sans-serif" font-size="13" lengthAdjust="spacing" textLength="31.7891" x="172.6996" y="280.4019">many</text></g><?plantuml-src bLI_RnCn5Dxlhx2oebPbpHQI9I8KI58n6z_BrOhFFcnVGa0C38KYaEXGYGM92J60M5XG9VwRffJ_0f_lScSxkI8s-tlFxtt-tWyrfpp34gU8CAnKJsj97-SQXaJm2Nq6w22Ah0KTAP3eUOJGhP7W2Q9nSPmOTtF9ZOtZ51meCs-MGhfU4Z0xzBsKnZfNqOjDah5Wq9P46bjVn110Dc8TO00BIbf3nDOQ12d1W5W9JbUP2zAi5ySIb78m9WZML707IZ772SWRlbcol0V6IhQuscEPVsY1EpGP0A4fPeXa-P4omGCuXLJ8rIvBJDMynYisWZFAOL9oiWa9PWEiOKfJG4Gm1aH3NDmQoZs6PJe6OahwRyPL8boycLBD80H7i02svUch7OhsICZvVHctTw4eZ8UYDjgW7Y4TSCaa5PBgLVD4APfmyB_HIcGaajrQB3SUmmOJ6KYiXVGL8a7lcB7Jm7MJpEJeSSnMYgh_L5-QqeSwpt3ETA3p75R5eBfDhV8a0MMfrKJkSh5a42Sm42HF3SUsCime2wUfW8Ai1VG0wsDlPKZbjENGA676297ZdC_x8dTLgSdq2sEB91NFKXGlsf37y7I7wWsoC2DWQzKC07s8Rwf0iGCz_P_abOHEkRbQ-ej1v9B066QslUoAxPZriUgWlRtDoUx4Bhfw-_dguvkeMd2TswwBjq-wwFBYo-_pJxjTtJckFLrmutwmlszEpT1rqVMlRvS_Bw86yYDxOz55wtSdwxElkqbiDxNnF_bn_V8yscup_sbGUVFkzFNwz5MbdV_Lfc96llTdVpvy_mi0?></g></svg>