<svg xmlns="http://www.w3.org/2000/svg" xmlns:xlink="http://www.w3.org/1999/xlink" contentStyleType="text/css" data-diagram-type="CLASS" height="1421px" preserveAspectRatio="none" style="width:1656px;height:1421px;background:#FFFFFF;" version="1.1" viewBox="0 0 1656 1421" width="1656px" zoomAndPan="magnify"><?plantuml 1.2026.3?><defs/><g><!--cluster ???--><g class="cluster" data-qualified-name="..." data-source-line="5" id="ent0002"><path d="M285.74,14.8 L330.0525,14.8 A3.75,3.75 0 0 1 332.5525,17.3 L339.5525,38.4094 L518.74,38.4094 A2.5,2.5 0 0 1 521.24,40.9094 L521.24,415.62 A2.5,2.5 0 0 1 518.74,418.12 L285.74,418.12 A2.5,2.5 0 0 1 283.24,415.62 L283.24,17.3 A2.5,2.5 0 0 1 285.74,14.8" fill="none" style="stroke:#000000;stroke-width:1.5;"/><line style="stroke:#000000;stroke-width:1.5;" x1="283.24" x2="339.5525" y1="38.4094" y2="38.4094"/><text fill="#000000" font-family="sans-serif" font-size="14" font-weight="700" lengthAdjust="spacing" textLength="43.3125" x="287.24" y="31.3332">&#26435;&#38480;&#22495;</text></g><!--cluster ??????--><g class="cluster" data-qualified-name="......" data-source-line="23" id="ent0005"><path d="M1172.74,6 L1260.365,6 A3.75,3.75 0 0 1 1262.865,8.5 L1269.865,29.6094 L1638.74,29.6094 A2.5,2.5 0 0 1 1641.24,32.1094 L1641.24,665.3 A2.5,2.5 0 0 1 1638.74,667.8 L1172.74,667.8 A2.5,2.5 0 0 1 1170.24,665.3 L1170.24,8.5 A2.5,2.5 0 0 1 1172.74,6" fill="none" style="stroke:#000000;stroke-width:1.5;"/><line style="stroke:#000000;stroke-width:1.5;" x1="1170.24" x2="1269.865" y1="29.6094" y2="29.6094"/><text fill="#000000" font-family="sans-serif" font-size="14" font-weight="700" lengthAdjust="spacing" textLength="86.625" x="1174.24" y="22.5332">&#36164;&#20135;&#19982;&#37319;&#38598;&#22495;</text></g><!--cluster ??????--><g class="cluster" data-qualified-name="......" data-source-line="65" id="ent0010"><path d="M1019.74,691.8 L1107.365,691.8 A3.75,3.75 0 0 1 1109.865,694.3 L1116.865,715.4094 L1246.74,715.4094 A2.5,2.5 0 0 1 1249.24,717.9094 L1249.24,1403.92 A2.5,2.5 0 0 1 1246.74,1406.42 L1019.74,1406.42 A2.5,2.5 0 0 1 1017.24,1403.92 L1017.24,694.3 A2.5,2.5 0 0 1 1019.74,691.8" fill="none" style="stroke:#000000;stroke-width:1.5;"/><line style="stroke:#000000;stroke-width:1.5;" x1="1017.24" x2="1116.865" y1="715.4094" y2="715.4094"/><text fill="#000000" font-family="sans-serif" font-size="14" font-weight="700" lengthAdjust="spacing" textLength="86.625" x="1021.24" y="708.3332">&#21578;&#35686;&#19982;&#24037;&#21333;&#22495;</text></g><!--cluster ?????--><g class="cluster" data-qualified-name="....." data-source-line="100" id="ent0014"><path d="M547.74,238.07 L620.9275,238.07 A3.75,3.75 0 0 1 623.4275,240.57 L630.4275,261.6794 L1093.74,261.6794 A2.5,2.5 0 0 1 1096.24,264.1794 L1096.24,647.69 A2.5,2.5 0 0 1 1093.74,650.19 L547.74,650.19 A2.5,2.5 0 0 1 545.24,647.69 L545.24,240.57 A2.5,2.5 0 0 1 547.74,238.07" fill="none" style="stroke:#000000;stroke-width:1.5;"/><line style="stroke:#000000;stroke-width:1.5;" x1="545.24" x2="630.4275" y1="261.6794" y2="261.6794"/><text fill="#000000" font-family="sans-serif" font-size="14" font-weight="700" lengthAdjust="spacing" textLength="72.1875" x="549.24" y="254.6032">&#26234;&#33021;&#35786;&#26029;&#22495;</text></g><!--class User--><g class="entity" data-qualified-name="....User" data-source-line="6" id="ent0003"><rect fill="#F1F1F1" height="145.6563" rx="2.5" ry="2.5" style="stroke:#181818;stroke-width:0.5;" width="205.3682" x="299.56" y="50.8"/><ellipse cx="383.2148" cy="66.8" fill="#ADD1B2" rx="11" ry="11" style="stroke:#181818;stroke-width:1;"/><path d="M385.9804,62.675 Q386.1367,62.4563 386.3242,62.3469 Q386.5117,62.2375 386.7304,62.2375 Q387.1054,62.2375 387.3398,62.5031 Q387.5742,62.7531 387.5742,63.3625 L387.5742,64.8156 Q387.5742,65.425 387.3398,65.6906 Q387.1054,65.9563 386.7304,65.9563 Q386.3867,65.9563 386.1835,65.7531 Q385.9804,65.5656 385.871,65.05 Q385.8242,64.6906 385.6367,64.5031 Q385.3085,64.1281 384.6992,63.9094 Q384.0898,63.6906 383.4648,63.6906 Q382.6992,63.6906 382.0585,64.0188 Q381.4335,64.3469 380.9335,65.0969 Q380.4492,65.8469 380.4492,66.8781 L380.4492,67.9719 Q380.4492,69.2063 381.3398,70.0344 Q382.2304,70.8469 383.8242,70.8469 Q384.7617,70.8469 385.4179,70.5969 Q385.8085,70.4406 386.2304,70.0031 Q386.496,69.7375 386.6367,69.6594 Q386.7929,69.5813 386.996,69.5813 Q387.3242,69.5813 387.5742,69.8469 Q387.8398,70.0969 387.8398,70.4406 Q387.8398,70.7844 387.496,71.1906 Q386.996,71.7688 386.1992,72.0969 Q385.121,72.55 383.8242,72.55 Q382.3085,72.55 381.1054,71.925 Q380.121,71.425 379.4335,70.3625 Q378.746,69.2844 378.746,68.0031 L378.746,66.8469 Q378.746,65.5188 379.3554,64.3781 Q379.9804,63.2219 381.0742,62.6125 Q382.1679,61.9875 383.4023,61.9875 Q384.1367,61.9875 384.7773,62.1594 Q385.4335,62.3156 385.9804,62.675 Z " fill="#000000"/><text fill="#000000" font-family="sans-serif" font-size="14" lengthAdjust="spacing" textLength="29.5586" x="403.7148" y="72.5285">User</text><line style="stroke:#181818;stroke-width:0.5;" x1="300.56" x2="503.9282" y1="82.8" y2="82.8"/><text fill="#000000" font-family="sans-serif" font-size="14" lengthAdjust="spacing" textLength="54.1064" x="305.56" y="101.3332">+Long id</text><text fill="#000000" font-family="sans-serif" font-size="14" lengthAdjust="spacing" textLength="110.8926" x="305.56" y="118.9426">+String username</text><text fill="#000000" font-family="sans-serif" font-size="14" lengthAdjust="spacing" textLength="109.3271" x="305.56" y="136.552">+String realName</text><text fill="#000000" font-family="sans-serif" font-size="14" lengthAdjust="spacing" textLength="87.5684" x="305.56" y="154.1613">+String phone</text><text fill="#000000" font-family="sans-serif" font-size="14" lengthAdjust="spacing" textLength="85.9893" x="305.56" y="171.7707">+String status</text><text fill="#000000" font-family="sans-serif" font-size="14" lengthAdjust="spacing" textLength="193.3682" x="305.56" y="189.3801">+LocalDateTime lastLoginTime</text></g><!--class Role--><g class="entity" data-qualified-name="....Role" data-source-line="15" id="ent0004"><rect fill="#F1F1F1" height="110.4375" rx="2.5" ry="2.5" style="stroke:#181818;stroke-width:0.5;" width="128.3408" x="327.07" y="291.68"/><ellipse cx="372.5939" cy="307.68" fill="#ADD1B2" rx="11" ry="11" style="stroke:#181818;stroke-width:1;"/><path d="M375.3596,303.555 Q375.5158,303.3363 375.7033,303.2269 Q375.8908,303.1175 376.1096,303.1175 Q376.4846,303.1175 376.7189,303.3831 Q376.9533,303.6331 376.9533,304.2425 L376.9533,305.6956 Q376.9533,306.305 376.7189,306.5706 Q376.4846,306.8363 376.1096,306.8363 Q375.7658,306.8363 375.5627,306.6331 Q375.3596,306.4456 375.2502,305.93 Q375.2033,305.5706 375.0158,305.3831 Q374.6877,305.0081 374.0783,304.7894 Q373.4689,304.5706 372.8439,304.5706 Q372.0783,304.5706 371.4377,304.8988 Q370.8127,305.2269 370.3127,305.9769 Q369.8283,306.7269 369.8283,307.7581 L369.8283,308.8519 Q369.8283,310.0863 370.7189,310.9144 Q371.6096,311.7269 373.2033,311.7269 Q374.1408,311.7269 374.7971,311.4769 Q375.1877,311.3206 375.6096,310.8831 Q375.8752,310.6175 376.0158,310.5394 Q376.1721,310.4613 376.3752,310.4613 Q376.7033,310.4613 376.9533,310.7269 Q377.2189,310.9769 377.2189,311.3206 Q377.2189,311.6644 376.8752,312.0706 Q376.3752,312.6488 375.5783,312.9769 Q374.5002,313.43 373.2033,313.43 Q371.6877,313.43 370.4846,312.805 Q369.5002,312.305 368.8127,311.2425 Q368.1252,310.1644 368.1252,308.8831 L368.1252,307.7269 Q368.1252,306.3988 368.7346,305.2581 Q369.3596,304.1019 370.4533,303.4925 Q371.5471,302.8675 372.7814,302.8675 Q373.5158,302.8675 374.1564,303.0394 Q374.8127,303.1956 375.3596,303.555 Z " fill="#000000"/><text fill="#000000" font-family="sans-serif" font-size="14" lengthAdjust="spacing" textLength="28.793" x="393.0939" y="313.4085">Role</text><line style="stroke:#181818;stroke-width:0.5;" x1="328.07" x2="454.4108" y1="323.68" y2="323.68"/><text fill="#000000" font-family="sans-serif" font-size="14" lengthAdjust="spacing" textLength="54.1064" x="333.07" y="342.2132">+Long id</text><text fill="#000000" font-family="sans-serif" font-size="14" lengthAdjust="spacing" textLength="105.4512" x="333.07" y="359.8226">+String roleCode</text><text fill="#000000" font-family="sans-serif" font-size="14" lengthAdjust="spacing" textLength="109.3271" x="333.07" y="377.432">+String roleName</text><text fill="#000000" font-family="sans-serif" font-size="14" lengthAdjust="spacing" textLength="116.3408" x="333.07" y="395.0413">+String description</text></g><!--class Device--><g class="entity" data-qualified-name=".......Device" data-source-line="24" id="ent0006"><rect fill="#F1F1F1" height="163.2656" rx="2.5" ry="2.5" style="stroke:#181818;stroke-width:0.5;" width="169.5752" x="1193.45" y="42"/><ellipse cx="1252.5911" cy="58" fill="#ADD1B2" rx="11" ry="11" style="stroke:#181818;stroke-width:1;"/><path d="M1255.3567,53.875 Q1255.513,53.6563 1255.7005,53.5469 Q1255.888,53.4375 1256.1067,53.4375 Q1256.4817,53.4375 1256.7161,53.7031 Q1256.9505,53.9531 1256.9505,54.5625 L1256.9505,56.0156 Q1256.9505,56.625 1256.7161,56.8906 Q1256.4817,57.1563 1256.1067,57.1563 Q1255.763,57.1563 1255.5599,56.9531 Q1255.3567,56.7656 1255.2474,56.25 Q1255.2005,55.8906 1255.013,55.7031 Q1254.6849,55.3281 1254.0755,55.1094 Q1253.4661,54.8906 1252.8411,54.8906 Q1252.0755,54.8906 1251.4349,55.2188 Q1250.8099,55.5469 1250.3099,56.2969 Q1249.8255,57.0469 1249.8255,58.0781 L1249.8255,59.1719 Q1249.8255,60.4063 1250.7161,61.2344 Q1251.6067,62.0469 1253.2005,62.0469 Q1254.138,62.0469 1254.7942,61.7969 Q1255.1849,61.6406 1255.6067,61.2031 Q1255.8724,60.9375 1256.013,60.8594 Q1256.1692,60.7813 1256.3724,60.7813 Q1256.7005,60.7813 1256.9505,61.0469 Q1257.2161,61.2969 1257.2161,61.6406 Q1257.2161,61.9844 1256.8724,62.3906 Q1256.3724,62.9688 1255.5755,63.2969 Q1254.4974,63.75 1253.2005,63.75 Q1251.6849,63.75 1250.4817,63.125 Q1249.4974,62.625 1248.8099,61.5625 Q1248.1224,60.4844 1248.1224,59.2031 L1248.1224,58.0469 Q1248.1224,56.7188 1248.7317,55.5781 Q1249.3567,54.4219 1250.4505,53.8125 Q1251.5442,53.1875 1252.7786,53.1875 Q1253.513,53.1875 1254.1536,53.3594 Q1254.8099,53.5156 1255.3567,53.875 Z " fill="#000000"/><text fill="#000000" font-family="sans-serif" font-size="14" lengthAdjust="spacing" textLength="42.793" x="1273.0911" y="63.7285">Device</text><line style="stroke:#181818;stroke-width:0.5;" x1="1194.45" x2="1362.0252" y1="74" y2="74"/><text fill="#000000" font-family="sans-serif" font-size="14" lengthAdjust="spacing" textLength="54.1064" x="1199.45" y="92.5332">+Long id</text><text fill="#000000" font-family="sans-serif" font-size="14" lengthAdjust="spacing" textLength="122.5752" x="1199.45" y="110.1426">+String deviceCode</text><text fill="#000000" font-family="sans-serif" font-size="14" lengthAdjust="spacing" textLength="126.4512" x="1199.45" y="127.752">+String deviceName</text><text fill="#000000" font-family="sans-serif" font-size="14" lengthAdjust="spacing" textLength="157.5752" x="1199.45" y="145.3613">+DeviceType deviceType</text><text fill="#000000" font-family="sans-serif" font-size="14" lengthAdjust="spacing" textLength="110.8926" x="1199.45" y="162.9707">+String ipAddress</text><text fill="#000000" font-family="sans-serif" font-size="14" lengthAdjust="spacing" textLength="96.8926" x="1199.45" y="180.5801">+String location</text><text fill="#000000" font-family="sans-serif" font-size="14" lengthAdjust="spacing" textLength="131.8994" x="1199.45" y="198.1895">+DeviceStatus status</text></g><!--class MonitorTarget--><g class="entity" data-qualified-name=".......MonitorTarget" data-source-line="34" id="ent0007"><rect fill="#F1F1F1" height="163.2656" rx="2.5" ry="2.5" style="stroke:#181818;stroke-width:0.5;" width="199.9336" x="1186.27" y="265.26"/><ellipse cx="1238.4145" cy="281.26" fill="#ADD1B2" rx="11" ry="11" style="stroke:#181818;stroke-width:1;"/><path d="M1241.1802,277.135 Q1241.3364,276.9163 1241.5239,276.8069 Q1241.7114,276.6975 1241.9302,276.6975 Q1242.3052,276.6975 1242.5395,276.9631 Q1242.7739,277.2131 1242.7739,277.8225 L1242.7739,279.2756 Q1242.7739,279.885 1242.5395,280.1506 Q1242.3052,280.4163 1241.9302,280.4163 Q1241.5864,280.4163 1241.3833,280.2131 Q1241.1802,280.0256 1241.0708,279.51 Q1241.0239,279.1506 1240.8364,278.9631 Q1240.5083,278.5881 1239.8989,278.3694 Q1239.2895,278.1506 1238.6645,278.1506 Q1237.8989,278.1506 1237.2583,278.4788 Q1236.6333,278.8069 1236.1333,279.5569 Q1235.6489,280.3069 1235.6489,281.3381 L1235.6489,282.4319 Q1235.6489,283.6663 1236.5395,284.4944 Q1237.4302,285.3069 1239.0239,285.3069 Q1239.9614,285.3069 1240.6177,285.0569 Q1241.0083,284.9006 1241.4302,284.4631 Q1241.6958,284.1975 1241.8364,284.1194 Q1241.9927,284.0413 1242.1958,284.0413 Q1242.5239,284.0413 1242.7739,284.3069 Q1243.0395,284.5569 1243.0395,284.9006 Q1243.0395,285.2444 1242.6958,285.6506 Q1242.1958,286.2288 1241.3989,286.5569 Q1240.3208,287.01 1239.0239,287.01 Q1237.5083,287.01 1236.3052,286.385 Q1235.3208,285.885 1234.6333,284.8225 Q1233.9458,283.7444 1233.9458,282.4631 L1233.9458,281.3069 Q1233.9458,279.9788 1234.5552,278.8381 Q1235.1802,277.6819 1236.2739,277.0725 Q1237.3677,276.4475 1238.602,276.4475 Q1239.3364,276.4475 1239.977,276.6194 Q1240.6333,276.7756 1241.1802,277.135 Z " fill="#000000"/><text fill="#000000" font-family="sans-serif" font-size="14" lengthAdjust="spacing" textLength="87.1445" x="1258.9145" y="286.9885">MonitorTarget</text><line style="stroke:#181818;stroke-width:0.5;" x1="1187.27" x2="1385.2036" y1="297.26" y2="297.26"/><text fill="#000000" font-family="sans-serif" font-size="14" lengthAdjust="spacing" textLength="54.1064" x="1192.27" y="315.7932">+Long id</text><text fill="#000000" font-family="sans-serif" font-size="14" lengthAdjust="spacing" textLength="95.3545" x="1192.27" y="333.4026">+Long deviceId</text><text fill="#000000" font-family="sans-serif" font-size="14" lengthAdjust="spacing" textLength="121.7822" x="1192.27" y="351.012">+String targetName</text><text fill="#000000" font-family="sans-serif" font-size="14" lengthAdjust="spacing" textLength="187.9336" x="1192.27" y="368.6213">+CollectMethod collectMethod</text><text fill="#000000" font-family="sans-serif" font-size="14" lengthAdjust="spacing" textLength="102.3545" x="1192.27" y="386.2307">+String endpoint</text><text fill="#000000" font-family="sans-serif" font-size="14" lengthAdjust="spacing" textLength="145.1406" x="1192.27" y="403.8401">+String prometheusJob</text><text fill="#000000" font-family="sans-serif" font-size="14" lengthAdjust="spacing" textLength="129.5684" x="1192.27" y="421.4495">+TargetStatus status</text></g><!--class MetricRule--><g class="entity" data-qualified-name=".......MetricRule" data-source-line="44" id="ent0008"><rect fill="#F1F1F1" height="163.2656" rx="2.5" ry="2.5" style="stroke:#181818;stroke-width:0.5;" width="188.2646" x="1189.11" y="488.53"/><ellipse cx="1245.5407" cy="504.53" fill="#ADD1B2" rx="11" ry="11" style="stroke:#181818;stroke-width:1;"/><path d="M1248.3063,500.405 Q1248.4625,500.1863 1248.65,500.0769 Q1248.8375,499.9675 1249.0563,499.9675 Q1249.4313,499.9675 1249.6657,500.2331 Q1249.9,500.4831 1249.9,501.0925 L1249.9,502.5456 Q1249.9,503.155 1249.6657,503.4206 Q1249.4313,503.6863 1249.0563,503.6863 Q1248.7125,503.6863 1248.5094,503.4831 Q1248.3063,503.2956 1248.1969,502.78 Q1248.15,502.4206 1247.9625,502.2331 Q1247.6344,501.8581 1247.025,501.6394 Q1246.4157,501.4206 1245.7907,501.4206 Q1245.025,501.4206 1244.3844,501.7488 Q1243.7594,502.0769 1243.2594,502.8269 Q1242.775,503.5769 1242.775,504.6081 L1242.775,505.7019 Q1242.775,506.9363 1243.6657,507.7644 Q1244.5563,508.5769 1246.15,508.5769 Q1247.0875,508.5769 1247.7438,508.3269 Q1248.1344,508.1706 1248.5563,507.7331 Q1248.8219,507.4675 1248.9625,507.3894 Q1249.1188,507.3113 1249.3219,507.3113 Q1249.65,507.3113 1249.9,507.5769 Q1250.1657,507.8269 1250.1657,508.1706 Q1250.1657,508.5144 1249.8219,508.9206 Q1249.3219,509.4988 1248.525,509.8269 Q1247.4469,510.28 1246.15,510.28 Q1244.6344,510.28 1243.4313,509.655 Q1242.4469,509.155 1241.7594,508.0925 Q1241.0719,507.0144 1241.0719,505.7331 L1241.0719,504.5769 Q1241.0719,503.2488 1241.6813,502.1081 Q1242.3063,500.9519 1243.4,500.3425 Q1244.4938,499.7175 1245.7282,499.7175 Q1246.4625,499.7175 1247.1032,499.8894 Q1247.7594,500.0456 1248.3063,500.405 Z " fill="#000000"/><text fill="#000000" font-family="sans-serif" font-size="14" lengthAdjust="spacing" textLength="66.9033" x="1266.0407" y="510.2585">MetricRule</text><line style="stroke:#181818;stroke-width:0.5;" x1="1190.11" x2="1376.3746" y1="520.53" y2="520.53"/><text fill="#000000" font-family="sans-serif" font-size="14" lengthAdjust="spacing" textLength="54.1064" x="1195.11" y="539.0632">+Long id</text><text fill="#000000" font-family="sans-serif" font-size="14" lengthAdjust="spacing" textLength="90.6855" x="1195.11" y="556.6726">+Long targetId</text><text fill="#000000" font-family="sans-serif" font-size="14" lengthAdjust="spacing" textLength="124.0928" x="1195.11" y="574.282">+String metricName</text><text fill="#000000" font-family="sans-serif" font-size="14" lengthAdjust="spacing" textLength="91.4307" x="1195.11" y="591.8913">+String promql</text><text fill="#000000" font-family="sans-serif" font-size="14" lengthAdjust="spacing" textLength="161.4785" x="1195.11" y="609.5007">+String thresholdOperator</text><text fill="#000000" font-family="sans-serif" font-size="14" lengthAdjust="spacing" textLength="176.2646" x="1195.11" y="627.1101">+BigDecimal thresholdValue</text><text fill="#000000" font-family="sans-serif" font-size="14" lengthAdjust="spacing" textLength="150.5684" x="1195.11" y="644.7195">+AlarmLevel alarmLevel</text></g><!--class DeviceMetric--><g class="entity" data-qualified-name=".......DeviceMetric" data-source-line="54" id="ent0009"><rect fill="#F1F1F1" height="163.2656" rx="2.5" ry="2.5" style="stroke:#181818;stroke-width:0.5;" width="204.582" x="1420.95" y="265.26"/><ellipse cx="1478.5394" cy="281.26" fill="#ADD1B2" rx="11" ry="11" style="stroke:#181818;stroke-width:1;"/><path d="M1481.305,277.135 Q1481.4612,276.9163 1481.6487,276.8069 Q1481.8362,276.6975 1482.055,276.6975 Q1482.43,276.6975 1482.6644,276.9631 Q1482.8987,277.2131 1482.8987,277.8225 L1482.8987,279.2756 Q1482.8987,279.885 1482.6644,280.1506 Q1482.43,280.4163 1482.055,280.4163 Q1481.7112,280.4163 1481.5081,280.2131 Q1481.305,280.0256 1481.1956,279.51 Q1481.1487,279.1506 1480.9612,278.9631 Q1480.6331,278.5881 1480.0237,278.3694 Q1479.4144,278.1506 1478.7894,278.1506 Q1478.0237,278.1506 1477.3831,278.4788 Q1476.7581,278.8069 1476.2581,279.5569 Q1475.7737,280.3069 1475.7737,281.3381 L1475.7737,282.4319 Q1475.7737,283.6663 1476.6644,284.4944 Q1477.555,285.3069 1479.1487,285.3069 Q1480.0862,285.3069 1480.7425,285.0569 Q1481.1331,284.9006 1481.555,284.4631 Q1481.8206,284.1975 1481.9612,284.1194 Q1482.1175,284.0413 1482.3206,284.0413 Q1482.6487,284.0413 1482.8987,284.3069 Q1483.1644,284.5569 1483.1644,284.9006 Q1483.1644,285.2444 1482.8206,285.6506 Q1482.3206,286.2288 1481.5237,286.5569 Q1480.4456,287.01 1479.1487,287.01 Q1477.6331,287.01 1476.43,286.385 Q1475.4456,285.885 1474.7581,284.8225 Q1474.0706,283.7444 1474.0706,282.4631 L1474.0706,281.3069 Q1474.0706,279.9788 1474.68,278.8381 Q1475.305,277.6819 1476.3987,277.0725 Q1477.4925,276.4475 1478.7269,276.4475 Q1479.4612,276.4475 1480.1019,276.6194 Q1480.7581,276.7756 1481.305,277.135 Z " fill="#000000"/><text fill="#000000" font-family="sans-serif" font-size="14" lengthAdjust="spacing" textLength="80.9033" x="1499.0394" y="286.9885">DeviceMetric</text><line style="stroke:#181818;stroke-width:0.5;" x1="1421.95" x2="1624.532" y1="297.26" y2="297.26"/><text fill="#000000" font-family="sans-serif" font-size="14" lengthAdjust="spacing" textLength="54.1064" x="1426.95" y="315.7932">+Long id</text><text fill="#000000" font-family="sans-serif" font-size="14" lengthAdjust="spacing" textLength="95.3545" x="1426.95" y="333.4026">+Long deviceId</text><text fill="#000000" font-family="sans-serif" font-size="14" lengthAdjust="spacing" textLength="145.9063" x="1426.95" y="351.012">+BigDecimal cpuUsage</text><text fill="#000000" font-family="sans-serif" font-size="14" lengthAdjust="spacing" textLength="173.8926" x="1426.95" y="368.6213">+BigDecimal memoryUsage</text><text fill="#000000" font-family="sans-serif" font-size="14" lengthAdjust="spacing" textLength="148.2305" x="1426.95" y="386.2307">+BigDecimal diskUsage</text><text fill="#000000" font-family="sans-serif" font-size="14" lengthAdjust="spacing" textLength="125.6924" x="1426.95" y="403.8401">+String onlineStatus</text><text fill="#000000" font-family="sans-serif" font-size="14" lengthAdjust="spacing" textLength="192.582" x="1426.95" y="421.4495">+LocalDateTime collectedTime</text></g><!--class AlarmRecord--><g class="entity" data-qualified-name=".......AlarmRecord" data-source-line="66" id="ent0011"><rect fill="#F1F1F1" height="198.4844" rx="2.5" ry="2.5" style="stroke:#181818;stroke-width:0.5;" width="199.1543" x="1033.66" y="727.8"/><ellipse cx="1088.1424" cy="743.8" fill="#ADD1B2" rx="11" ry="11" style="stroke:#181818;stroke-width:1;"/><path d="M1090.908,739.675 Q1091.0643,739.4563 1091.2518,739.3469 Q1091.4393,739.2375 1091.658,739.2375 Q1092.033,739.2375 1092.2674,739.5031 Q1092.5018,739.7531 1092.5018,740.3625 L1092.5018,741.8156 Q1092.5018,742.425 1092.2674,742.6906 Q1092.033,742.9563 1091.658,742.9563 Q1091.3143,742.9563 1091.1112,742.7531 Q1090.908,742.5656 1090.7987,742.05 Q1090.7518,741.6906 1090.5643,741.5031 Q1090.2362,741.1281 1089.6268,740.9094 Q1089.0174,740.6906 1088.3924,740.6906 Q1087.6268,740.6906 1086.9862,741.0188 Q1086.3612,741.3469 1085.8612,742.0969 Q1085.3768,742.8469 1085.3768,743.8781 L1085.3768,744.9719 Q1085.3768,746.2063 1086.2674,747.0344 Q1087.158,747.8469 1088.7518,747.8469 Q1089.6893,747.8469 1090.3455,747.5969 Q1090.7362,747.4406 1091.158,747.0031 Q1091.4237,746.7375 1091.5643,746.6594 Q1091.7205,746.5813 1091.9237,746.5813 Q1092.2518,746.5813 1092.5018,746.8469 Q1092.7674,747.0969 1092.7674,747.4406 Q1092.7674,747.7844 1092.4237,748.1906 Q1091.9237,748.7688 1091.1268,749.0969 Q1090.0487,749.55 1088.7518,749.55 Q1087.2362,749.55 1086.033,748.925 Q1085.0487,748.425 1084.3612,747.3625 Q1083.6737,746.2844 1083.6737,745.0031 L1083.6737,743.8469 Q1083.6737,742.5188 1084.283,741.3781 Q1084.908,740.2219 1086.0018,739.6125 Q1087.0955,738.9875 1088.3299,738.9875 Q1089.0643,738.9875 1089.7049,739.1594 Q1090.3612,739.3156 1090.908,739.675 Z " fill="#000000"/><text fill="#000000" font-family="sans-serif" font-size="14" lengthAdjust="spacing" textLength="81.6895" x="1108.6424" y="749.5285">AlarmRecord</text><line style="stroke:#181818;stroke-width:0.5;" x1="1034.66" x2="1231.8143" y1="759.8" y2="759.8"/><text fill="#000000" font-family="sans-serif" font-size="14" lengthAdjust="spacing" textLength="54.1064" x="1039.66" y="778.3332">+Long id</text><text fill="#000000" font-family="sans-serif" font-size="14" lengthAdjust="spacing" textLength="95.3545" x="1039.66" y="795.9426">+Long deviceId</text><text fill="#000000" font-family="sans-serif" font-size="14" lengthAdjust="spacing" textLength="78.2305" x="1039.66" y="813.552">+Long ruleId</text><text fill="#000000" font-family="sans-serif" font-size="14" lengthAdjust="spacing" textLength="110.0928" x="1039.66" y="831.1613">+String alarmTitle</text><text fill="#000000" font-family="sans-serif" font-size="14" lengthAdjust="spacing" textLength="150.5684" x="1039.66" y="848.7707">+AlarmLevel alarmLevel</text><text fill="#000000" font-family="sans-serif" font-size="14" lengthAdjust="spacing" textLength="132.6787" x="1039.66" y="866.3801">+String alarmContent</text><text fill="#000000" font-family="sans-serif" font-size="14" lengthAdjust="spacing" textLength="125.665" x="1039.66" y="883.9895">+AlarmStatus status</text><text fill="#000000" font-family="sans-serif" font-size="14" lengthAdjust="spacing" textLength="184.0234" x="1039.66" y="901.5988">+LocalDateTime createdTime</text><text fill="#000000" font-family="sans-serif" font-size="14" lengthAdjust="spacing" textLength="187.1543" x="1039.66" y="919.2082">+LocalDateTime handledTime</text></g><!--class WorkOrder--><g class="entity" data-qualified-name=".......WorkOrder" data-source-line="78" id="ent0012"><rect fill="#F1F1F1" height="198.4844" rx="2.5" ry="2.5" style="stroke:#181818;stroke-width:0.5;" width="196.0234" x="1034.23" y="986.28"/><ellipse cx="1093.7676" cy="1002.28" fill="#ADD1B2" rx="11" ry="11" style="stroke:#181818;stroke-width:1;"/><path d="M1096.5332,998.155 Q1096.6895,997.9363 1096.877,997.8269 Q1097.0645,997.7175 1097.2832,997.7175 Q1097.6582,997.7175 1097.8926,997.9831 Q1098.127,998.2331 1098.127,998.8425 L1098.127,1000.2956 Q1098.127,1000.905 1097.8926,1001.1706 Q1097.6582,1001.4363 1097.2832,1001.4363 Q1096.9395,1001.4363 1096.7363,1001.2331 Q1096.5332,1001.0456 1096.4238,1000.53 Q1096.377,1000.1706 1096.1895,999.9831 Q1095.8613,999.6081 1095.252,999.3894 Q1094.6426,999.1706 1094.0176,999.1706 Q1093.252,999.1706 1092.6113,999.4988 Q1091.9863,999.8269 1091.4863,1000.5769 Q1091.002,1001.3269 1091.002,1002.3581 L1091.002,1003.4519 Q1091.002,1004.6863 1091.8926,1005.5144 Q1092.7832,1006.3269 1094.377,1006.3269 Q1095.3145,1006.3269 1095.9707,1006.0769 Q1096.3613,1005.9206 1096.7832,1005.4831 Q1097.0488,1005.2175 1097.1895,1005.1394 Q1097.3457,1005.0613 1097.5488,1005.0613 Q1097.877,1005.0613 1098.127,1005.3269 Q1098.3926,1005.5769 1098.3926,1005.9206 Q1098.3926,1006.2644 1098.0488,1006.6706 Q1097.5488,1007.2488 1096.752,1007.5769 Q1095.6738,1008.03 1094.377,1008.03 Q1092.8613,1008.03 1091.6582,1007.405 Q1090.6738,1006.905 1089.9863,1005.8425 Q1089.2988,1004.7644 1089.2988,1003.4831 L1089.2988,1002.3269 Q1089.2988,1000.9988 1089.9082,999.8581 Q1090.5332,998.7019 1091.627,998.0925 Q1092.7207,997.4675 1093.9551,997.4675 Q1094.6895,997.4675 1095.3301,997.6394 Q1095.9863,997.7956 1096.5332,998.155 Z " fill="#000000"/><text fill="#000000" font-family="sans-serif" font-size="14" lengthAdjust="spacing" textLength="68.4482" x="1114.2676" y="1008.0085">WorkOrder</text><line style="stroke:#181818;stroke-width:0.5;" x1="1035.23" x2="1229.2534" y1="1018.28" y2="1018.28"/><text fill="#000000" font-family="sans-serif" font-size="14" lengthAdjust="spacing" textLength="54.1064" x="1040.23" y="1036.8132">+Long id</text><text fill="#000000" font-family="sans-serif" font-size="14" lengthAdjust="spacing" textLength="99.2168" x="1040.23" y="1054.4226">+String orderNo</text><text fill="#000000" font-family="sans-serif" font-size="14" lengthAdjust="spacing" textLength="89.8926" x="1040.23" y="1072.032">+Long alarmId</text><text fill="#000000" font-family="sans-serif" font-size="14" lengthAdjust="spacing" textLength="70.4238" x="1040.23" y="1089.6413">+String title</text><text fill="#000000" font-family="sans-serif" font-size="14" lengthAdjust="spacing" textLength="134.9688" x="1040.23" y="1107.2507">+TicketPriority priority</text><text fill="#000000" font-family="sans-serif" font-size="14" lengthAdjust="spacing" textLength="110.9268" x="1040.23" y="1124.8601">+Long assigneeId</text><text fill="#000000" font-family="sans-serif" font-size="14" lengthAdjust="spacing" textLength="126.4443" x="1040.23" y="1142.4695">+TicketStatus status</text><text fill="#000000" font-family="sans-serif" font-size="14" lengthAdjust="spacing" textLength="184.0234" x="1040.23" y="1160.0788">+LocalDateTime createdTime</text><text fill="#000000" font-family="sans-serif" font-size="14" lengthAdjust="spacing" textLength="177.7959" x="1040.23" y="1177.6882">+LocalDateTime closedTime</text></g><!--class WorkOrderLog--><g class="entity" data-qualified-name=".......WorkOrderLog" data-source-line="90" id="ent0013"><rect fill="#F1F1F1" height="145.6563" rx="2.5" ry="2.5" style="stroke:#181818;stroke-width:0.5;" width="196.0234" x="1034.23" y="1244.76"/><ellipse cx="1082.0884" cy="1260.76" fill="#ADD1B2" rx="11" ry="11" style="stroke:#181818;stroke-width:1;"/><path d="M1084.854,1256.635 Q1085.0103,1256.4163 1085.1978,1256.3069 Q1085.3853,1256.1975 1085.604,1256.1975 Q1085.979,1256.1975 1086.2134,1256.4631 Q1086.4478,1256.7131 1086.4478,1257.3225 L1086.4478,1258.7756 Q1086.4478,1259.385 1086.2134,1259.6506 Q1085.979,1259.9163 1085.604,1259.9163 Q1085.2603,1259.9163 1085.0571,1259.7131 Q1084.854,1259.5256 1084.7446,1259.01 Q1084.6978,1258.6506 1084.5103,1258.4631 Q1084.1821,1258.0881 1083.5728,1257.8694 Q1082.9634,1257.6506 1082.3384,1257.6506 Q1081.5728,1257.6506 1080.9321,1257.9788 Q1080.3071,1258.3069 1079.8071,1259.0569 Q1079.3228,1259.8069 1079.3228,1260.8381 L1079.3228,1261.9319 Q1079.3228,1263.1663 1080.2134,1263.9944 Q1081.104,1264.8069 1082.6978,1264.8069 Q1083.6353,1264.8069 1084.2915,1264.5569 Q1084.6821,1264.4006 1085.104,1263.9631 Q1085.3696,1263.6975 1085.5103,1263.6194 Q1085.6665,1263.5413 1085.8696,1263.5413 Q1086.1978,1263.5413 1086.4478,1263.8069 Q1086.7134,1264.0569 1086.7134,1264.4006 Q1086.7134,1264.7444 1086.3696,1265.1506 Q1085.8696,1265.7288 1085.0728,1266.0569 Q1083.9946,1266.51 1082.6978,1266.51 Q1081.1821,1266.51 1079.979,1265.885 Q1078.9946,1265.385 1078.3071,1264.3225 Q1077.6196,1263.2444 1077.6196,1261.9631 L1077.6196,1260.8069 Q1077.6196,1259.4788 1078.229,1258.3381 Q1078.854,1257.1819 1079.9478,1256.5725 Q1081.0415,1255.9475 1082.2759,1255.9475 Q1083.0103,1255.9475 1083.6509,1256.1194 Q1084.3071,1256.2756 1084.854,1256.635 Z " fill="#000000"/><text fill="#000000" font-family="sans-serif" font-size="14" lengthAdjust="spacing" textLength="91.8066" x="1102.5884" y="1266.4885">WorkOrderLog</text><line style="stroke:#181818;stroke-width:0.5;" x1="1035.23" x2="1229.2534" y1="1276.76" y2="1276.76"/><text fill="#000000" font-family="sans-serif" font-size="14" lengthAdjust="spacing" textLength="54.1064" x="1040.23" y="1295.2932">+Long id</text><text fill="#000000" font-family="sans-serif" font-size="14" lengthAdjust="spacing" textLength="120.2305" x="1040.23" y="1312.9026">+Long workOrderId</text><text fill="#000000" font-family="sans-serif" font-size="14" lengthAdjust="spacing" textLength="107.0303" x="1040.23" y="1330.512">+Long operatorId</text><text fill="#000000" font-family="sans-serif" font-size="14" lengthAdjust="spacing" textLength="85.9961" x="1040.23" y="1348.1213">+String action</text><text fill="#000000" font-family="sans-serif" font-size="14" lengthAdjust="spacing" textLength="94.5615" x="1040.23" y="1365.7307">+String content</text><text fill="#000000" font-family="sans-serif" font-size="14" lengthAdjust="spacing" textLength="184.0234" x="1040.23" y="1383.3401">+LocalDateTime createdTime</text></g><!--class LogAnalysisRecord--><g class="entity" data-qualified-name="......LogAnalysisRecord" data-source-line="101" id="ent0015"><rect fill="#F1F1F1" height="145.6563" rx="2.5" ry="2.5" style="stroke:#181818;stroke-width:0.5;" width="152.6201" x="927.93" y="274.07"/><ellipse cx="942.93" cy="290.07" fill="#ADD1B2" rx="11" ry="11" style="stroke:#181818;stroke-width:1;"/><path d="M945.6956,285.945 Q945.8519,285.7263 946.0394,285.6169 Q946.2269,285.5075 946.4456,285.5075 Q946.8206,285.5075 947.055,285.7731 Q947.2894,286.0231 947.2894,286.6325 L947.2894,288.0856 Q947.2894,288.695 947.055,288.9606 Q946.8206,289.2263 946.4456,289.2263 Q946.1019,289.2263 945.8988,289.0231 Q945.6956,288.8356 945.5863,288.32 Q945.5394,287.9606 945.3519,287.7731 Q945.0238,287.3981 944.4144,287.1794 Q943.805,286.9606 943.18,286.9606 Q942.4144,286.9606 941.7738,287.2888 Q941.1488,287.6169 940.6488,288.3669 Q940.1644,289.1169 940.1644,290.1481 L940.1644,291.2419 Q940.1644,292.4763 941.055,293.3044 Q941.9456,294.1169 943.5394,294.1169 Q944.4769,294.1169 945.1331,293.8669 Q945.5238,293.7106 945.9456,293.2731 Q946.2113,293.0075 946.3519,292.9294 Q946.5081,292.8513 946.7113,292.8513 Q947.0394,292.8513 947.2894,293.1169 Q947.555,293.3669 947.555,293.7106 Q947.555,294.0544 947.2113,294.4606 Q946.7113,295.0388 945.9144,295.3669 Q944.8363,295.82 943.5394,295.82 Q942.0238,295.82 940.8206,295.195 Q939.8363,294.695 939.1488,293.6325 Q938.4613,292.5544 938.4613,291.2731 L938.4613,290.1169 Q938.4613,288.7888 939.0706,287.6481 Q939.6956,286.4919 940.7894,285.8825 Q941.8831,285.2575 943.1175,285.2575 Q943.8519,285.2575 944.4925,285.4294 Q945.1488,285.5856 945.6956,285.945 Z " fill="#000000"/><text fill="#000000" font-family="sans-serif" font-size="14" lengthAdjust="spacing" textLength="120.6201" x="956.93" y="295.7985">LogAnalysisRecord</text><line style="stroke:#181818;stroke-width:0.5;" x1="928.93" x2="1079.5501" y1="306.07" y2="306.07"/><text fill="#000000" font-family="sans-serif" font-size="14" lengthAdjust="spacing" textLength="54.1064" x="933.93" y="324.6032">+Long id</text><text fill="#000000" font-family="sans-serif" font-size="14" lengthAdjust="spacing" textLength="95.3545" x="933.93" y="342.2126">+Long deviceId</text><text fill="#000000" font-family="sans-serif" font-size="14" lengthAdjust="spacing" textLength="103.8789" x="933.93" y="359.822">+String riskLevel</text><text fill="#000000" font-family="sans-serif" font-size="14" lengthAdjust="spacing" textLength="106.2236" x="933.93" y="377.4313">+String faultType</text><text fill="#000000" font-family="sans-serif" font-size="14" lengthAdjust="spacing" textLength="107.7686" x="933.93" y="395.0407">+String keywords</text><text fill="#000000" font-family="sans-serif" font-size="14" lengthAdjust="spacing" textLength="116.3545" x="933.93" y="412.6501">+String suggestion</text></g><!--class KnowledgeDocument--><g class="entity" data-qualified-name="......KnowledgeDocument" data-source-line="110" id="ent0016"><rect fill="#F1F1F1" height="145.6563" rx="2.5" ry="2.5" style="stroke:#181818;stroke-width:0.5;" width="165.082" x="727.7" y="274.07"/><ellipse cx="742.7" cy="290.07" fill="#ADD1B2" rx="11" ry="11" style="stroke:#181818;stroke-width:1;"/><path d="M745.4656,285.945 Q745.6219,285.7263 745.8094,285.6169 Q745.9969,285.5075 746.2156,285.5075 Q746.5906,285.5075 746.825,285.7731 Q747.0594,286.0231 747.0594,286.6325 L747.0594,288.0856 Q747.0594,288.695 746.825,288.9606 Q746.5906,289.2263 746.2156,289.2263 Q745.8719,289.2263 745.6688,289.0231 Q745.4656,288.8356 745.3563,288.32 Q745.3094,287.9606 745.1219,287.7731 Q744.7938,287.3981 744.1844,287.1794 Q743.575,286.9606 742.95,286.9606 Q742.1844,286.9606 741.5438,287.2888 Q740.9188,287.6169 740.4188,288.3669 Q739.9344,289.1169 739.9344,290.1481 L739.9344,291.2419 Q739.9344,292.4763 740.825,293.3044 Q741.7156,294.1169 743.3094,294.1169 Q744.2469,294.1169 744.9031,293.8669 Q745.2938,293.7106 745.7156,293.2731 Q745.9813,293.0075 746.1219,292.9294 Q746.2781,292.8513 746.4813,292.8513 Q746.8094,292.8513 747.0594,293.1169 Q747.325,293.3669 747.325,293.7106 Q747.325,294.0544 746.9813,294.4606 Q746.4813,295.0388 745.6844,295.3669 Q744.6063,295.82 743.3094,295.82 Q741.7938,295.82 740.5906,295.195 Q739.6063,294.695 738.9188,293.6325 Q738.2313,292.5544 738.2313,291.2731 L738.2313,290.1169 Q738.2313,288.7888 738.8406,287.6481 Q739.4656,286.4919 740.5594,285.8825 Q741.6531,285.2575 742.8875,285.2575 Q743.6219,285.2575 744.2625,285.4294 Q744.9188,285.5856 745.4656,285.945 Z " fill="#000000"/><text fill="#000000" font-family="sans-serif" font-size="14" lengthAdjust="spacing" textLength="133.082" x="756.7" y="295.7985">KnowledgeDocument</text><line style="stroke:#181818;stroke-width:0.5;" x1="728.7" x2="891.782" y1="306.07" y2="306.07"/><text fill="#000000" font-family="sans-serif" font-size="14" lengthAdjust="spacing" textLength="54.1064" x="733.7" y="324.6032">+Long id</text><text fill="#000000" font-family="sans-serif" font-size="14" lengthAdjust="spacing" textLength="103.8789" x="733.7" y="342.2126">+String fileName</text><text fill="#000000" font-family="sans-serif" font-size="14" lengthAdjust="spacing" textLength="97.6582" x="733.7" y="359.822">+String fileType</text><text fill="#000000" font-family="sans-serif" font-size="14" lengthAdjust="spacing" textLength="95.334" x="733.7" y="377.4313">+String filePath</text><text fill="#000000" font-family="sans-serif" font-size="14" lengthAdjust="spacing" textLength="123.3477" x="733.7" y="395.0407">+String parseStatus</text><text fill="#000000" font-family="sans-serif" font-size="14" lengthAdjust="spacing" textLength="130.3682" x="733.7" y="412.6501">+Integer chunkCount</text></g><!--class KnowledgeChunk--><g class="entity" data-qualified-name="......KnowledgeChunk" data-source-line="119" id="ent0017"><rect fill="#F1F1F1" height="128.0469" rx="2.5" ry="2.5" style="stroke:#181818;stroke-width:0.5;" width="166.458" x="727.01" y="506.14"/><ellipse cx="753.1312" cy="522.14" fill="#ADD1B2" rx="11" ry="11" style="stroke:#181818;stroke-width:1;"/><path d="M755.8969,518.015 Q756.0531,517.7963 756.2406,517.6869 Q756.4281,517.5775 756.6469,517.5775 Q757.0219,517.5775 757.2562,517.8431 Q757.4906,518.0931 757.4906,518.7025 L757.4906,520.1556 Q757.4906,520.765 757.2562,521.0306 Q757.0219,521.2963 756.6469,521.2963 Q756.3031,521.2963 756.1,521.0931 Q755.8969,520.9056 755.7875,520.39 Q755.7406,520.0306 755.5531,519.8431 Q755.225,519.4681 754.6156,519.2494 Q754.0062,519.0306 753.3812,519.0306 Q752.6156,519.0306 751.975,519.3588 Q751.35,519.6869 750.85,520.4369 Q750.3656,521.1869 750.3656,522.2181 L750.3656,523.3119 Q750.3656,524.5463 751.2562,525.3744 Q752.1469,526.1869 753.7406,526.1869 Q754.6781,526.1869 755.3344,525.9369 Q755.725,525.7806 756.1469,525.3431 Q756.4125,525.0775 756.5531,524.9994 Q756.7094,524.9213 756.9125,524.9213 Q757.2406,524.9213 757.4906,525.1869 Q757.7562,525.4369 757.7562,525.7806 Q757.7562,526.1244 757.4125,526.5306 Q756.9125,527.1088 756.1156,527.4369 Q755.0375,527.89 753.7406,527.89 Q752.225,527.89 751.0219,527.265 Q750.0375,526.765 749.35,525.7025 Q748.6625,524.6244 748.6625,523.3431 L748.6625,522.1869 Q748.6625,520.8588 749.2719,519.7181 Q749.8969,518.5619 750.9906,517.9525 Q752.0844,517.3275 753.3187,517.3275 Q754.0531,517.3275 754.6937,517.4994 Q755.35,517.6556 755.8969,518.015 Z " fill="#000000"/><text fill="#000000" font-family="sans-serif" font-size="14" lengthAdjust="spacing" textLength="109.7441" x="769.6026" y="527.8685">KnowledgeChunk</text><line style="stroke:#181818;stroke-width:0.5;" x1="728.01" x2="892.468" y1="538.14" y2="538.14"/><text fill="#000000" font-family="sans-serif" font-size="14" lengthAdjust="spacing" textLength="54.1064" x="733.01" y="556.6732">+Long id</text><text fill="#000000" font-family="sans-serif" font-size="14" lengthAdjust="spacing" textLength="116.3682" x="733.01" y="574.2826">+Long documentId</text><text fill="#000000" font-family="sans-serif" font-size="14" lengthAdjust="spacing" textLength="127.2578" x="733.01" y="591.892">+Integer chunkIndex</text><text fill="#000000" font-family="sans-serif" font-size="14" lengthAdjust="spacing" textLength="154.458" x="733.01" y="609.5013">+String contentSummary</text><text fill="#000000" font-family="sans-serif" font-size="14" lengthAdjust="spacing" textLength="98.4375" x="733.01" y="627.1107">+String vectorId</text></g><!--class AiQaRecord--><g class="entity" data-qualified-name="......AiQaRecord" data-source-line="127" id="ent0018"><rect fill="#F1F1F1" height="128.0469" rx="2.5" ry="2.5" style="stroke:#181818;stroke-width:0.5;" width="131.4443" x="561.52" y="282.87"/><ellipse cx="586.9553" cy="298.87" fill="#ADD1B2" rx="11" ry="11" style="stroke:#181818;stroke-width:1;"/><path d="M589.7209,294.745 Q589.8771,294.5263 590.0646,294.4169 Q590.2521,294.3075 590.4709,294.3075 Q590.8459,294.3075 591.0803,294.5731 Q591.3146,294.8231 591.3146,295.4325 L591.3146,296.8856 Q591.3146,297.495 591.0803,297.7606 Q590.8459,298.0263 590.4709,298.0263 Q590.1271,298.0263 589.924,297.8231 Q589.7209,297.6356 589.6115,297.12 Q589.5646,296.7606 589.3771,296.5731 Q589.049,296.1981 588.4396,295.9794 Q587.8303,295.7606 587.2053,295.7606 Q586.4396,295.7606 585.799,296.0888 Q585.174,296.4169 584.674,297.1669 Q584.1896,297.9169 584.1896,298.9481 L584.1896,300.0419 Q584.1896,301.2763 585.0803,302.1044 Q585.9709,302.9169 587.5646,302.9169 Q588.5021,302.9169 589.1584,302.6669 Q589.549,302.5106 589.9709,302.0731 Q590.2365,301.8075 590.3771,301.7294 Q590.5334,301.6513 590.7365,301.6513 Q591.0646,301.6513 591.3146,301.9169 Q591.5803,302.1669 591.5803,302.5106 Q591.5803,302.8544 591.2365,303.2606 Q590.7365,303.8388 589.9396,304.1669 Q588.8615,304.62 587.5646,304.62 Q586.049,304.62 584.8459,303.995 Q583.8615,303.495 583.174,302.4325 Q582.4865,301.3544 582.4865,300.0731 L582.4865,298.9169 Q582.4865,297.5888 583.0959,296.4481 Q583.7209,295.2919 584.8146,294.6825 Q585.9084,294.0575 587.1428,294.0575 Q587.8771,294.0575 588.5178,294.2294 Q589.174,294.3856 589.7209,294.745 Z " fill="#000000"/><text fill="#000000" font-family="sans-serif" font-size="14" lengthAdjust="spacing" textLength="76.2549" x="603.2742" y="304.5985">AiQaRecord</text><line style="stroke:#181818;stroke-width:0.5;" x1="562.52" x2="691.9643" y1="314.87" y2="314.87"/><text fill="#000000" font-family="sans-serif" font-size="14" lengthAdjust="spacing" textLength="54.1064" x="567.52" y="333.4032">+Long id</text><text fill="#000000" font-family="sans-serif" font-size="14" lengthAdjust="spacing" textLength="82.1201" x="567.52" y="351.0126">+Long userId</text><text fill="#000000" font-family="sans-serif" font-size="14" lengthAdjust="spacing" textLength="101.5684" x="567.52" y="368.622">+String question</text><text fill="#000000" font-family="sans-serif" font-size="14" lengthAdjust="spacing" textLength="93.7686" x="567.52" y="386.2313">+String answer</text><text fill="#000000" font-family="sans-serif" font-size="14" lengthAdjust="spacing" textLength="119.4443" x="567.52" y="403.8407">+String sourceRefs</text></g><!--class DeviceStatus--><g class="entity" data-qualified-name="DeviceStatus" data-source-line="136" id="ent0019"><rect fill="#F1F1F1" height="110.4375" rx="2.5" ry="2.5" style="stroke:#181818;stroke-width:0.5;" width="114.4824" x="7" y="68.41"/><ellipse cx="22" cy="84.41" fill="#EB937F" rx="11" ry="11" style="stroke:#181818;stroke-width:1;"/><path d="M20.8594,85.2069 L20.8594,87.7069 L25.1875,87.7069 L25.1875,86.785 Q25.1875,86.1756 25.4219,85.91 Q25.6719,85.6444 26.0469,85.6444 Q26.4219,85.6444 26.6563,85.91 Q26.8906,86.1756 26.8906,86.785 L26.8906,89.41 L18.8906,89.41 Q18.2656,89.41 18,89.1756 Q17.75,88.9413 17.75,88.5506 Q17.75,88.1756 18.0156,87.9413 Q18.2813,87.7069 18.8906,87.7069 L19.1563,87.7069 L19.1563,81.0506 L18.8906,81.0506 Q18.2656,81.0506 18,80.8163 Q17.75,80.5819 17.75,80.1913 Q17.75,79.8163 18,79.5819 Q18.2656,79.3475 18.8906,79.3475 L26.5156,79.3475 L26.5156,81.9413 Q26.5156,82.5506 26.2813,82.8163 Q26.0625,83.0663 25.6719,83.0663 Q25.2969,83.0663 25.0625,82.8163 Q24.8281,82.5506 24.8281,81.9413 L24.8281,81.0506 L20.8594,81.0506 L20.8594,83.5038 L22.3438,83.5038 Q22.3438,82.8475 22.4688,82.66 Q22.7344,82.2538 23.2031,82.2538 Q23.5781,82.2538 23.8125,82.5194 Q24.0469,82.7694 24.0469,83.3788 L24.0469,85.3475 Q24.0469,85.8944 23.9219,86.0819 Q23.6563,86.4725 23.2031,86.4725 Q22.7344,86.4725 22.4688,86.0663 Q22.3438,85.8788 22.3438,85.2069 L20.8594,85.2069 Z " fill="#000000"/><text fill="#000000" font-family="sans-serif" font-size="14" lengthAdjust="spacing" textLength="82.4824" x="36" y="90.1385">DeviceStatus</text><line style="stroke:#181818;stroke-width:0.5;" x1="8" x2="120.4824" y1="100.41" y2="100.41"/><text fill="#000000" font-family="sans-serif" font-size="14" lengthAdjust="spacing" textLength="52.124" x="13" y="118.9432">ONLINE</text><text fill="#000000" font-family="sans-serif" font-size="14" lengthAdjust="spacing" textLength="59.1172" x="13" y="136.5526">OFFLINE</text><text fill="#000000" font-family="sans-serif" font-size="14" lengthAdjust="spacing" textLength="101.8965" x="13" y="154.162">MAINTENANCE</text><text fill="#000000" font-family="sans-serif" font-size="14" lengthAdjust="spacing" textLength="44.3379" x="13" y="171.7713">FAULT</text></g><!--class AlarmStatus--><g class="entity" data-qualified-name="AlarmStatus" data-source-line="143" id="ent0020"><rect fill="#F1F1F1" height="110.4375" rx="2.5" ry="2.5" style="stroke:#181818;stroke-width:0.5;" width="108.248" x="156.12" y="68.41"/><ellipse cx="171.12" cy="84.41" fill="#EB937F" rx="11" ry="11" style="stroke:#181818;stroke-width:1;"/><path d="M169.9794,85.2069 L169.9794,87.7069 L174.3075,87.7069 L174.3075,86.785 Q174.3075,86.1756 174.5419,85.91 Q174.7919,85.6444 175.1669,85.6444 Q175.5419,85.6444 175.7763,85.91 Q176.0106,86.1756 176.0106,86.785 L176.0106,89.41 L168.0106,89.41 Q167.3856,89.41 167.12,89.1756 Q166.87,88.9413 166.87,88.5506 Q166.87,88.1756 167.1356,87.9413 Q167.4013,87.7069 168.0106,87.7069 L168.2763,87.7069 L168.2763,81.0506 L168.0106,81.0506 Q167.3856,81.0506 167.12,80.8163 Q166.87,80.5819 166.87,80.1913 Q166.87,79.8163 167.12,79.5819 Q167.3856,79.3475 168.0106,79.3475 L175.6356,79.3475 L175.6356,81.9413 Q175.6356,82.5506 175.4013,82.8163 Q175.1825,83.0663 174.7919,83.0663 Q174.4169,83.0663 174.1825,82.8163 Q173.9481,82.5506 173.9481,81.9413 L173.9481,81.0506 L169.9794,81.0506 L169.9794,83.5038 L171.4638,83.5038 Q171.4638,82.8475 171.5888,82.66 Q171.8544,82.2538 172.3231,82.2538 Q172.6981,82.2538 172.9325,82.5194 Q173.1669,82.7694 173.1669,83.3788 L173.1669,85.3475 Q173.1669,85.8944 173.0419,86.0819 Q172.7763,86.4725 172.3231,86.4725 Q171.8544,86.4725 171.5888,86.0663 Q171.4638,85.8788 171.4638,85.2069 L169.9794,85.2069 Z " fill="#000000"/><text fill="#000000" font-family="sans-serif" font-size="14" lengthAdjust="spacing" textLength="76.248" x="185.12" y="90.1385">AlarmStatus</text><line style="stroke:#181818;stroke-width:0.5;" x1="157.12" x2="263.368" y1="100.41" y2="100.41"/><text fill="#000000" font-family="sans-serif" font-size="14" lengthAdjust="spacing" textLength="63.7861" x="162.12" y="118.9432">PENDING</text><text fill="#000000" font-family="sans-serif" font-size="14" lengthAdjust="spacing" textLength="72.3447" x="162.12" y="136.5526">HANDLING</text><text fill="#000000" font-family="sans-serif" font-size="14" lengthAdjust="spacing" textLength="57.5723" x="162.12" y="154.162">CLOSED</text><text fill="#000000" font-family="sans-serif" font-size="14" lengthAdjust="spacing" textLength="65.3379" x="162.12" y="171.7713">IGNORED</text></g><!--class TicketStatus--><g class="entity" data-qualified-name="TicketStatus" data-source-line="150" id="ent0021"><rect fill="#F1F1F1" height="110.4375" rx="2.5" ry="2.5" style="stroke:#181818;stroke-width:0.5;" width="109.0273" x="9.73" y="291.68"/><ellipse cx="24.73" cy="307.68" fill="#EB937F" rx="11" ry="11" style="stroke:#181818;stroke-width:1;"/><path d="M23.5894,308.4769 L23.5894,310.9769 L27.9175,310.9769 L27.9175,310.055 Q27.9175,309.4456 28.1519,309.18 Q28.4019,308.9144 28.7769,308.9144 Q29.1519,308.9144 29.3863,309.18 Q29.6206,309.4456 29.6206,310.055 L29.6206,312.68 L21.6206,312.68 Q20.9956,312.68 20.73,312.4456 Q20.48,312.2113 20.48,311.8206 Q20.48,311.4456 20.7456,311.2113 Q21.0113,310.9769 21.6206,310.9769 L21.8863,310.9769 L21.8863,304.3206 L21.6206,304.3206 Q20.9956,304.3206 20.73,304.0863 Q20.48,303.8519 20.48,303.4613 Q20.48,303.0863 20.73,302.8519 Q20.9956,302.6175 21.6206,302.6175 L29.2456,302.6175 L29.2456,305.2113 Q29.2456,305.8206 29.0113,306.0863 Q28.7925,306.3363 28.4019,306.3363 Q28.0269,306.3363 27.7925,306.0863 Q27.5581,305.8206 27.5581,305.2113 L27.5581,304.3206 L23.5894,304.3206 L23.5894,306.7738 L25.0738,306.7738 Q25.0738,306.1175 25.1988,305.93 Q25.4644,305.5238 25.9331,305.5238 Q26.3081,305.5238 26.5425,305.7894 Q26.7769,306.0394 26.7769,306.6488 L26.7769,308.6175 Q26.7769,309.1644 26.6519,309.3519 Q26.3863,309.7425 25.9331,309.7425 Q25.4644,309.7425 25.1988,309.3363 Q25.0738,309.1488 25.0738,308.4769 L23.5894,308.4769 Z " fill="#000000"/><text fill="#000000" font-family="sans-serif" font-size="14" lengthAdjust="spacing" textLength="77.0273" x="38.73" y="313.4085">TicketStatus</text><line style="stroke:#181818;stroke-width:0.5;" x1="10.73" x2="117.7573" y1="323.68" y2="323.68"/><text fill="#000000" font-family="sans-serif" font-size="14" lengthAdjust="spacing" textLength="63.7861" x="15.73" y="342.2132">PENDING</text><text fill="#000000" font-family="sans-serif" font-size="14" lengthAdjust="spacing" textLength="93.3516" x="15.73" y="359.8226">PROCESSING</text><text fill="#000000" font-family="sans-serif" font-size="14" lengthAdjust="spacing" textLength="90.2139" x="15.73" y="377.432">CONFIRMING</text><text fill="#000000" font-family="sans-serif" font-size="14" lengthAdjust="spacing" textLength="57.5723" x="15.73" y="395.0413">CLOSED</text></g><!--link User to Role--><g class="link" data-entity-1="ent0003" data-entity-2="ent0004" data-link-type="association" data-source-line="157" id="lnk22"><path codeLine="157" d="M391.24,196.74 C391.24,227.51 391.24,262.74 391.24,291.34" fill="none" id="User-Role" style="stroke:#181818;stroke-width:1;"/><text fill="#000000" font-family="sans-serif" font-size="13" lengthAdjust="spacing" textLength="26" x="364.24" y="240.5351">&#20998;&#37197;</text><text fill="#000000" font-family="sans-serif" font-size="13" lengthAdjust="spacing" textLength="19.5127" x="370.3101" y="217.9828">0..*</text><text fill="#000000" font-family="sans-serif" font-size="13" lengthAdjust="spacing" textLength="19.5127" x="371.0556" y="280.7142">0..*</text></g><!--link Device to MonitorTarget--><g class="link" data-entity-1="ent0006" data-entity-2="ent0007" data-link-type="association" data-source-line="158" id="lnk23"><path codeLine="158" d="M1278.24,205.5 C1278.24,224.91 1278.24,245.62 1278.24,265.04" fill="none" id="Device-MonitorTarget" style="stroke:#181818;stroke-width:1;"/><text fill="#000000" font-family="sans-serif" font-size="13" lengthAdjust="spacing" textLength="26" x="1279.24" y="231.7651">&#37197;&#32622;</text><text fill="#000000" font-family="sans-serif" font-size="13" lengthAdjust="spacing" textLength="7.23" x="1270.9493" y="226.7332">1</text><text fill="#000000" font-family="sans-serif" font-size="13" lengthAdjust="spacing" textLength="19.5127" x="1257.6506" y="254.268">0..*</text></g><!--link MonitorTarget to MetricRule--><g class="link" data-entity-1="ent0007" data-entity-2="ent0008" data-link-type="association" data-source-line="159" id="lnk24"><path codeLine="159" d="M1283.24,428.76 C1283.24,448.18 1283.24,468.89 1283.24,488.3" fill="none" id="MonitorTarget-MetricRule" style="stroke:#181818;stroke-width:1;"/><text fill="#000000" font-family="sans-serif" font-size="13" lengthAdjust="spacing" textLength="52" x="1284.24" y="455.0251">&#32465;&#23450;&#35268;&#21017;</text><text fill="#000000" font-family="sans-serif" font-size="13" lengthAdjust="spacing" textLength="7.23" x="1275.6916" y="449.9932">1</text><text fill="#000000" font-family="sans-serif" font-size="13" lengthAdjust="spacing" textLength="19.5127" x="1263.4165" y="477.8074">0..*</text></g><!--link Device to DeviceMetric--><g class="link" data-entity-1="ent0006" data-entity-2="ent0009" data-link-type="association" data-source-line="160" id="lnk25"><path codeLine="160" d="M1363.24,123.42 C1434,123.42 1523.24,123.42 1523.24,123.42 C1523.24,123.42 1523.24,201.17 1523.24,264.95" fill="none" id="Device-DeviceMetric" style="stroke:#181818;stroke-width:1;"/><text fill="#000000" font-family="sans-serif" font-size="13" lengthAdjust="spacing" textLength="52" x="1461.01" y="119.9151">&#20135;&#29983;&#25351;&#26631;</text><text fill="#000000" font-family="sans-serif" font-size="13" lengthAdjust="spacing" textLength="7.23" x="1371.1325" y="120.1993">1</text><text fill="#000000" font-family="sans-serif" font-size="13" lengthAdjust="spacing" textLength="19.5127" x="1503.4166" y="254.4502">0..*</text></g><!--link Device to AlarmRecord--><g class="link" data-entity-1="ent0006" data-entity-2="ent0011" data-link-type="association" data-source-line="161" id="lnk26"><path codeLine="161" d="M1193.16,202.42 C1161.63,202.42 1133.41,202.42 1133.41,202.42 C1133.41,202.42 1133.41,551.03 1133.41,727.37" fill="none" id="Device-AlarmRecord" style="stroke:#181818;stroke-width:1;"/><text fill="#000000" font-family="sans-serif" font-size="13" lengthAdjust="spacing" textLength="52" x="1080.41" y="449.5251">&#20135;&#29983;&#21578;&#35686;</text><text fill="#000000" font-family="sans-serif" font-size="13" lengthAdjust="spacing" textLength="7.23" x="1178.2813" y="223.6603">1</text><text fill="#000000" font-family="sans-serif" font-size="13" lengthAdjust="spacing" textLength="19.5127" x="1113.7439" y="716.9708">0..*</text></g><!--link MetricRule to AlarmRecord--><g class="link" data-entity-1="ent0008" data-entity-2="ent0011" data-link-type="association" data-source-line="162" id="lnk27"><path codeLine="162" d="M1210.96,652.15 C1210.96,676.08 1210.96,702.5 1210.96,727.4" fill="none" id="MetricRule-AlarmRecord" style="stroke:#181818;stroke-width:1;"/><text fill="#000000" font-family="sans-serif" font-size="13" lengthAdjust="spacing" textLength="26" x="1183.96" y="686.2651">&#35302;&#21457;</text><text fill="#000000" font-family="sans-serif" font-size="13" lengthAdjust="spacing" textLength="21.6836" x="1182.8753" y="673.3935">0..1</text><text fill="#000000" font-family="sans-serif" font-size="13" lengthAdjust="spacing" textLength="19.5127" x="1196.9889" y="717.0031">0..*</text></g><!--link AlarmRecord to WorkOrder--><g class="link" data-entity-1="ent0011" data-entity-2="ent0012" data-link-type="association" data-source-line="163" id="lnk28"><path codeLine="163" d="M1132.24,926.6 C1132.24,946.09 1132.24,966.52 1132.24,986.01" fill="none" id="AlarmRecord-WorkOrder" style="stroke:#181818;stroke-width:1;"/><text fill="#000000" font-family="sans-serif" font-size="13" lengthAdjust="spacing" textLength="26" x="1133.24" y="952.8051">&#36716;&#20026;</text><text fill="#000000" font-family="sans-serif" font-size="13" lengthAdjust="spacing" textLength="7.23" x="1124.9319" y="947.6701">1</text><text fill="#000000" font-family="sans-serif" font-size="13" lengthAdjust="spacing" textLength="21.6836" x="1110.4621" y="975.2872">0..1</text></g><!--link WorkOrder to WorkOrderLog--><g class="link" data-entity-1="ent0012" data-entity-2="ent0013" data-link-type="association" data-source-line="164" id="lnk29"><path codeLine="164" d="M1132.24,1184.95 C1132.24,1204.88 1132.24,1225.48 1132.24,1244.32" fill="none" id="WorkOrder-WorkOrderLog" style="stroke:#181818;stroke-width:1;"/><text fill="#000000" font-family="sans-serif" font-size="13" lengthAdjust="spacing" textLength="52" x="1133.24" y="1211.1351">&#22788;&#29702;&#35760;&#24405;</text><text fill="#000000" font-family="sans-serif" font-size="13" lengthAdjust="spacing" textLength="7.23" x="1124.9913" y="1206.3473">1</text><text fill="#000000" font-family="sans-serif" font-size="13" lengthAdjust="spacing" textLength="19.5127" x="1112.3299" y="1233.8326">0..*</text></g><!--link User to WorkOrder--><g class="link" data-entity-1="ent0003" data-entity-2="ent0012" data-link-type="association" data-source-line="165" id="lnk30"><path codeLine="165" d="M471.92,196.71 C471.92,421.16 471.92,1085.42 471.92,1085.42 C471.92,1085.42 849.66,1085.42 1033.74,1085.42" fill="none" id="User-WorkOrder" style="stroke:#181818;stroke-width:1;"/><text fill="#000000" font-family="sans-serif" font-size="13" lengthAdjust="spacing" textLength="26" x="444.92" y="918.4751">&#22788;&#29702;</text><text fill="#000000" font-family="sans-serif" font-size="13" lengthAdjust="spacing" textLength="7.23" x="471.2384" y="217.95">1</text><text fill="#000000" font-family="sans-serif" font-size="13" lengthAdjust="spacing" textLength="19.5127" x="1006.8274" y="1082.333">0..*</text></g><!--link Device to LogAnalysisRecord--><g class="link" data-entity-1="ent0006" data-entity-2="ent0015" data-link-type="association" data-source-line="166" id="lnk31"><path codeLine="166" d="M1193.05,199.42 C1112.61,199.42 1004.24,199.42 1004.24,199.42 C1004.24,199.42 1004.24,236.58 1004.24,273.59" fill="none" id="Device-LogAnalysisRecord" style="stroke:#181818;stroke-width:1;"/><text fill="#000000" font-family="sans-serif" font-size="13" lengthAdjust="spacing" textLength="52" x="1008.56" y="195.9151">&#26085;&#24535;&#20998;&#26512;</text><text fill="#000000" font-family="sans-serif" font-size="13" lengthAdjust="spacing" textLength="7.23" x="1178.1615" y="202.9681">1</text><text fill="#000000" font-family="sans-serif" font-size="13" lengthAdjust="spacing" textLength="19.5127" x="984.3301" y="263.0987">0..*</text></g><!--link KnowledgeDocument to KnowledgeChunk--><g class="link" data-entity-1="ent0016" data-entity-2="ent0017" data-link-type="association" data-source-line="167" id="lnk32"><path codeLine="167" d="M810.24,420 C810.24,447.73 810.24,479.06 810.24,505.91" fill="none" id="KnowledgeDocument-KnowledgeChunk" style="stroke:#181818;stroke-width:1;"/><text fill="#000000" font-family="sans-serif" font-size="13" lengthAdjust="spacing" textLength="52" x="757.24" y="459.4551">&#25991;&#26723;&#20999;&#29255;</text><text fill="#000000" font-family="sans-serif" font-size="13" lengthAdjust="spacing" textLength="7.23" x="802.9173" y="441.2419">1</text><text fill="#000000" font-family="sans-serif" font-size="13" lengthAdjust="spacing" textLength="19.5127" x="790.1713" y="495.0711">1..*</text></g><!--link User to AiQaRecord--><g class="link" data-entity-1="ent0003" data-entity-2="ent0018" data-link-type="association" data-source-line="168" id="lnk33"><path codeLine="168" d="M488.42,196.9 C488.42,240.51 488.42,287.42 488.42,287.42 C488.42,287.42 525.33,287.42 561.08,287.42" fill="none" id="User-AiQaRecord" style="stroke:#181818;stroke-width:1;"/><text fill="#000000" font-family="sans-serif" font-size="13" lengthAdjust="spacing" textLength="52" x="435.42" y="274.9851">&#38382;&#31572;&#21382;&#21490;</text><text fill="#000000" font-family="sans-serif" font-size="13" lengthAdjust="spacing" textLength="7.23" x="489.0523" y="217.9036">1</text><text fill="#000000" font-family="sans-serif" font-size="13" lengthAdjust="spacing" textLength="19.5127" x="533.8325" y="277.5544">0..*</text></g><?plantuml-src fLPFRnj55B_lfnZv26hLNdqpjbCCpZhO3fodko_soBipsvdP18DwQeX3HTj4QXi51051cmi920bH1KLycQpjV0jc_tfdrt6BkCsyUU_Dx_tUdnan8jJ37Bl8Sh0GDIavkUzBQ5cCziWNWEuO8bDn20KvzW0nBeVC618R4BYU72CNbC0MXk5XQuG7W2hJxnzT7ny49oSLzAM1OkzeKm2FjWYztsPqW8WTRthgMhNrrJd5BcX23jWnYq9loAWk4H9BNwI-BUmqi8G-SG6fgsMR3GWDTqhXeP41wZ87LW7YwhpER2W9Iu1i41OddYICHbSyp74n_tFtwkBqwitJwyda-hkz0YaDs2RMIXHsf5724OiNI697_J11ThRKB8XNisqEGcXIHx6LuCwyz28s5wJcE5jdb4Z6-vWFG2w57MrY22qz4XaPBI3NcUE09TUZya5MVgVP0RKzHgZKQu2piEx05n-n-_5936eLU52sLjU_8UtH9WPPGEv6XkKwL1WUE7gCGyNma3bsnmEE5LFnwGTaq02BkDXPQ7oA7J_nLtCmTzkm3Gx2sLB77cScZk1TUS_TQdd-fb3rM3fmmMLylFpC9cAKEqb2P3GS1RqREov99DXPn-NR8JXyF3zxhTeX-EjLyEH5eHqY8hfWCMw_Qv2HYAkS5d8M4TadqdaBnmMBEgCIqbgBR8e5LGvO3Qb5kANZ8QQsasCZ2_OpnaSTRg-UYYnKC5bE8O9PRAr5d7rYZK1kSC8uKSFPInPv1qAG0OMCiDZY_uPfEKoiZ59DuPjpkfDgQMbbIHCLKsij9bOYil9fMuLRhyRfySNyqUNyjyVJbsU5KbHmQnGxOq74Vol8zA5GpLEkiItiEx8qcaSmLWJO-cGM_c008djJCc0VKxQZwca03MRvhWfwLVbiaINFLIWiOGY56rWEzGc7kT1QlQLe7gYAjOO-7TMP7r6-35mzL5X1MO8z9Ktpsw8sVBuilJtVTJ4VQqVRQjOa5PB3KIEVuBUbBVnm59BsmCyOpvKR5Jl0zTmmdrlGXIsHbXHGtqNQyndUsp7RBRCPBjRMajLwhMNscsRDh8UxjTfckv_Pv-TDQBxHD1ijyvvQVLWp6-ruMMztUis6MhJkcPskMgNMMX_hvXlTJhtPwoKEEkPQgxkkULC-elzPvSxjs-zLqArRwIhw95LHiBzt_TKJ8_ckLExcLVG_GHKfnTdbkQ6B2oQBbxYAPdyV1kVVpaztW_tZvJTeZryLgV_KxFd9z9l9zCV9SeFyEvBgno-FaRiwL5vXDZzz7JmxDFB2t2rgjHZWIldorwit5yP2f0FIfg2YyvVTsS7U_FptuF95GlnozKntUPpb8LL5qwDNmJz7Ac7J7mwCyh187ToD71JwLLc_d4n_-ZdOdyo-dYn3bciibUcZyzdPy-3fNl3iZty1?></g></svg>