<svg xmlns="http://www.w3.org/2000/svg" xmlns:xlink="http://www.w3.org/1999/xlink" contentStyleType="text/css" data-diagram-type="SEQUENCE" height="823px" preserveAspectRatio="none" style="width:980px;height:823px;background:#FFFFFF;" version="1.1" viewBox="0 0 980 823" width="980px" zoomAndPan="magnify"><?plantuml 1.2026.3?><defs/><g><g class="participant-lifeline" data-entity-uid="part1" data-qualified-name="Operator" data-source-line="1" id="part1-lifeline"><g><title>....</title><rect fill="#000000" fill-opacity="0.00000" height="657.3828" width="8" x="32" y="82.6094"/><line style="stroke:#181818;stroke-width:0.5;stroke-dasharray:5,5;" x1="36" x2="36" y1="82.6094" y2="739.9922"/></g></g><g class="participant-lifeline" data-entity-uid="part2" data-qualified-name="Frontend" data-source-line="2" id="part2-lifeline"><g><title>Vue ....</title><rect fill="#000000" fill-opacity="0.00000" height="657.3828" width="8" x="134" y="82.6094"/><line style="stroke:#181818;stroke-width:0.5;stroke-dasharray:5,5;" x1="137.6001" x2="137.6001" y1="82.6094" y2="739.9922"/></g></g><g class="participant-lifeline" data-entity-uid="part3" data-qualified-name="AlarmController" data-source-line="3" id="part3-lifeline"><g><title>AlarmController</title><rect fill="#000000" fill-opacity="0.00000" height="657.3828" width="8" x="355.2344" y="82.6094"/><line style="stroke:#181818;stroke-width:0.5;stroke-dasharray:5,5;" x1="358.6104" x2="358.6104" y1="82.6094" y2="739.9922"/></g></g><g class="participant-lifeline" data-entity-uid="part4" data-qualified-name="AlarmService" data-source-line="4" id="part4-lifeline"><g><title>AlarmService</title><rect fill="#000000" fill-opacity="0.00000" height="657.3828" width="8" x="491.2197" y="82.6094"/><line style="stroke:#181818;stroke-width:0.5;stroke-dasharray:5,5;" x1="494.5991" x2="494.5991" y1="82.6094" y2="739.9922"/></g></g><g class="participant-lifeline" data-entity-uid="part5" data-qualified-name="WorkOrderService" data-source-line="5" id="part5-lifeline"><g><title>WorkOrderService</title><rect fill="#000000" fill-opacity="0.00000" height="657.3828" width="8" x="606.4058" y="82.6094"/><line style="stroke:#181818;stroke-width:0.5;stroke-dasharray:5,5;" x1="609.8403" x2="609.8403" y1="82.6094" y2="739.9922"/></g></g><g class="participant-lifeline" data-entity-uid="part6" data-qualified-name="DB" data-source-line="6" id="part6-lifeline"><g><title>MySQL</title><rect fill="#000000" fill-opacity="0.00000" height="657.3828" width="8" x="849.6665" y="82.6094"/><line style="stroke:#181818;stroke-width:0.5;stroke-dasharray:5,5;" x1="853.3286" x2="853.3286" y1="82.6094" y2="739.9922"/></g></g><g class="participant-lifeline" data-entity-uid="part7" data-qualified-name="Notify" data-source-line="7" id="part7-lifeline"><g><title>.....</title><rect fill="#000000" fill-opacity="0.00000" height="657.3828" width="8" x="925.9492" y="82.6094"/><line style="stroke:#181818;stroke-width:0.5;stroke-dasharray:5,5;" x1="929.0044" x2="929.0044" y1="82.6094" y2="739.9922"/></g></g><g class="participant participant-head" data-entity-uid="part1" data-qualified-name="Operator" data-source-line="1" id="part1-head"><text fill="#000000" font-family="sans-serif" font-size="14" lengthAdjust="spacing" textLength="56" x="5" y="79.5332">&#36816;&#32500;&#20154;&#21592;</text><ellipse cx="36" cy="13.5" fill="#E2E2F0" rx="8" ry="8" style="stroke:#181818;stroke-width:0.5;"/><path d="M36,21.5 L36,48.5 M23,29.5 L49,29.5 M36,48.5 L23,63.5 M36,48.5 L49,63.5" fill="none" style="stroke:#181818;stroke-width:0.5;"/></g><g class="participant participant-tail" data-entity-uid="part1" data-qualified-name="Operator" data-source-line="1" id="part1-tail"><text fill="#000000" font-family="sans-serif" font-size="14" lengthAdjust="spacing" textLength="56" x="5" y="753.5254">&#36816;&#32500;&#20154;&#21592;</text><ellipse cx="36" cy="765.1016" fill="#E2E2F0" rx="8" ry="8" style="stroke:#181818;stroke-width:0.5;"/><path d="M36,773.1016 L36,800.1016 M23,781.1016 L49,781.1016 M36,800.1016 L23,815.1016 M36,800.1016 L49,815.1016" fill="none" style="stroke:#181818;stroke-width:0.5;"/></g><g class="participant participant-head" data-entity-uid="part2" data-qualified-name="Frontend" data-source-line="2" id="part2-head"><text fill="#000000" font-family="sans-serif" font-size="14" lengthAdjust="spacing" textLength="84.7998" x="92.6001" y="79.5332">Vue &#21578;&#35686;&#39029;&#38754;</text><path d="M117.5,37 L117.5,61 M117.5,49 L134.5,49" fill="none" style="stroke:#181818;stroke-width:0.5;"/><ellipse cx="146.5" cy="49" fill="#E2E2F0" rx="12" ry="12" style="stroke:#181818;stroke-width:0.5;"/></g><g class="participant participant-tail" data-entity-uid="part2" data-qualified-name="Frontend" data-source-line="2" id="part2-tail"><text fill="#000000" font-family="sans-serif" font-size="14" lengthAdjust="spacing" textLength="84.7998" x="92.6001" y="753.5254">Vue &#21578;&#35686;&#39029;&#38754;</text><path d="M117.5,760.6016 L117.5,784.6016 M117.5,772.6016 L134.5,772.6016" fill="none" style="stroke:#181818;stroke-width:0.5;"/><ellipse cx="146.5" cy="772.6016" fill="#E2E2F0" rx="12" ry="12" style="stroke:#181818;stroke-width:0.5;"/></g><g class="participant participant-head" data-entity-uid="part3" data-qualified-name="AlarmController" data-source-line="3" id="part3-head"><text fill="#000000" font-family="sans-serif" font-size="14" lengthAdjust="spacing" textLength="97.248" x="307.6104" y="79.5332">AlarmController</text><ellipse cx="359.2344" cy="49" fill="#E2E2F0" rx="12" ry="12" style="stroke:#181818;stroke-width:0.5;"/><polygon fill="#181818" points="355.2344,37,361.2344,32,359.2344,37,361.2344,42,355.2344,37" style="stroke:#181818;stroke-width:1;"/></g><g class="participant participant-tail" data-entity-uid="part3" data-qualified-name="AlarmController" data-source-line="3" id="part3-tail"><text fill="#000000" font-family="sans-serif" font-size="14" lengthAdjust="spacing" textLength="97.248" x="307.6104" y="753.5254">AlarmController</text><ellipse cx="359.2344" cy="772.6016" fill="#E2E2F0" rx="12" ry="12" style="stroke:#181818;stroke-width:0.5;"/><polygon fill="#181818" points="355.2344,760.6016,361.2344,755.6016,359.2344,760.6016,361.2344,765.6016,355.2344,760.6016" style="stroke:#181818;stroke-width:1;"/></g><g class="participant participant-head" data-entity-uid="part4" data-qualified-name="AlarmService" data-source-line="4" id="part4-head"><text fill="#000000" font-family="sans-serif" font-size="14" lengthAdjust="spacing" textLength="83.2412" x="450.5991" y="79.5332">AlarmService</text><ellipse cx="495.2197" cy="49" fill="#E2E2F0" rx="12" ry="12" style="stroke:#181818;stroke-width:0.5;"/><polygon fill="#181818" points="491.2197,37,497.2197,32,495.2197,37,497.2197,42,491.2197,37" style="stroke:#181818;stroke-width:1;"/></g><g class="participant participant-tail" data-entity-uid="part4" data-qualified-name="AlarmService" data-source-line="4" id="part4-tail"><text fill="#000000" font-family="sans-serif" font-size="14" lengthAdjust="spacing" textLength="83.2412" x="450.5991" y="753.5254">AlarmService</text><ellipse cx="495.2197" cy="772.6016" fill="#E2E2F0" rx="12" ry="12" style="stroke:#181818;stroke-width:0.5;"/><polygon fill="#181818" points="491.2197,760.6016,497.2197,755.6016,495.2197,760.6016,497.2197,765.6016,491.2197,760.6016" style="stroke:#181818;stroke-width:1;"/></g><g class="participant participant-head" data-entity-uid="part5" data-qualified-name="WorkOrderService" data-source-line="5" id="part5-head"><text fill="#000000" font-family="sans-serif" font-size="14" lengthAdjust="spacing" textLength="115.1309" x="549.8403" y="79.5332">WorkOrderService</text><ellipse cx="610.4058" cy="49" fill="#E2E2F0" rx="12" ry="12" style="stroke:#181818;stroke-width:0.5;"/><polygon fill="#181818" points="606.4058,37,612.4058,32,610.4058,37,612.4058,42,606.4058,37" style="stroke:#181818;stroke-width:1;"/></g><g class="participant participant-tail" data-entity-uid="part5" data-qualified-name="WorkOrderService" data-source-line="5" id="part5-tail"><text fill="#000000" font-family="sans-serif" font-size="14" lengthAdjust="spacing" textLength="115.1309" x="549.8403" y="753.5254">WorkOrderService</text><ellipse cx="610.4058" cy="772.6016" fill="#E2E2F0" rx="12" ry="12" style="stroke:#181818;stroke-width:0.5;"/><polygon fill="#181818" points="606.4058,760.6016,612.4058,755.6016,610.4058,760.6016,612.4058,765.6016,606.4058,760.6016" style="stroke:#181818;stroke-width:1;"/></g><g class="participant participant-head" data-entity-uid="part6" data-qualified-name="DB" data-source-line="6" id="part6-head"><text fill="#000000" font-family="sans-serif" font-size="14" lengthAdjust="spacing" textLength="46.6758" x="827.3286" y="79.5332">MySQL</text><path d="M835.6665,29 C835.6665,19 853.6665,19 853.6665,19 C853.6665,19 871.6665,19 871.6665,29 L871.6665,55 C871.6665,65 853.6665,65 853.6665,65 C853.6665,65 835.6665,65 835.6665,55 L835.6665,29" fill="#E2E2F0" style="stroke:#181818;stroke-width:0.5;"/><path d="M835.6665,29 C835.6665,39 853.6665,39 853.6665,39 C853.6665,39 871.6665,39 871.6665,29" fill="none" style="stroke:#181818;stroke-width:0.5;"/></g><g class="participant participant-tail" data-entity-uid="part6" data-qualified-name="DB" data-source-line="6" id="part6-tail"><text fill="#000000" font-family="sans-serif" font-size="14" lengthAdjust="spacing" textLength="46.6758" x="827.3286" y="753.5254">MySQL</text><path d="M835.6665,766.6016 C835.6665,756.6016 853.6665,756.6016 853.6665,756.6016 C853.6665,756.6016 871.6665,756.6016 871.6665,766.6016 L871.6665,792.6016 C871.6665,802.6016 853.6665,802.6016 853.6665,802.6016 C853.6665,802.6016 835.6665,802.6016 835.6665,792.6016 L835.6665,766.6016" fill="#E2E2F0" style="stroke:#181818;stroke-width:0.5;"/><path d="M835.6665,766.6016 C835.6665,776.6016 853.6665,776.6016 853.6665,776.6016 C853.6665,776.6016 871.6665,776.6016 871.6665,766.6016" fill="none" style="stroke:#181818;stroke-width:0.5;"/></g><g class="participant participant-head" data-entity-uid="part7" data-qualified-name="Notify" data-source-line="7" id="part7-head"><path d="M895.0044,55 L964.894,55 C969.894,55 969.894,68.8047 969.894,68.8047 C969.894,68.8047 969.894,82.6094 964.894,82.6094 L895.0044,82.6094 C890.0044,82.6094 890.0044,68.8047 890.0044,68.8047 C890.0044,68.8047 890.0044,55 895.0044,55" fill="#E2E2F0" style="stroke:#181818;stroke-width:0.5;"/><path d="M964.894,55 C959.894,55 959.894,68.8047 959.894,68.8047 C959.894,82.6094 964.894,82.6094 964.894,82.6094" fill="none" style="stroke:#181818;stroke-width:0.5;"/><text fill="#000000" font-family="sans-serif" font-size="14" lengthAdjust="spacing" textLength="59.8896" x="895.0044" y="74.5332">&#36890;&#30693;/&#24453;&#21150;</text></g><g class="participant participant-tail" data-entity-uid="part7" data-qualified-name="Notify" data-source-line="7" id="part7-tail"><path d="M895.0044,738.9922 L964.894,738.9922 C969.894,738.9922 969.894,752.7969 969.894,752.7969 C969.894,752.7969 969.894,766.6016 964.894,766.6016 L895.0044,766.6016 C890.0044,766.6016 890.0044,752.7969 890.0044,752.7969 C890.0044,752.7969 890.0044,738.9922 895.0044,738.9922" fill="#E2E2F0" style="stroke:#181818;stroke-width:0.5;"/><path d="M964.894,738.9922 C959.894,738.9922 959.894,752.7969 959.894,752.7969 C959.894,766.6016 964.894,766.6016 964.894,766.6016" fill="none" style="stroke:#181818;stroke-width:0.5;"/><text fill="#000000" font-family="sans-serif" font-size="14" lengthAdjust="spacing" textLength="59.8896" x="895.0044" y="758.5254">&#36890;&#30693;/&#24453;&#21150;</text></g><g class="message" data-entity-1="part1" data-entity-2="part2" data-source-line="9" id="msg1"><polygon fill="#181818" points="126,110.9609,136,114.9609,126,118.9609,130,114.9609" style="stroke:#181818;stroke-width:1;"/><line style="stroke:#181818;stroke-width:1;" x1="36" x2="132" y1="114.9609" y2="114.9609"/><text fill="#000000" font-family="sans-serif" font-size="13" lengthAdjust="spacing" textLength="78" x="43" y="110.1045">&#26597;&#30475;&#21578;&#35686;&#35814;&#24773;</text></g><g class="message" data-entity-1="part2" data-entity-2="part3" data-source-line="10" id="msg2"><polygon fill="#181818" points="347.2344,141.3125,357.2344,145.3125,347.2344,149.3125,351.2344,145.3125" style="stroke:#181818;stroke-width:1;"/><line style="stroke:#181818;stroke-width:1;" x1="138" x2="353.2344" y1="145.3125" y2="145.3125"/><text fill="#000000" font-family="sans-serif" font-size="13" lengthAdjust="spacing" textLength="116.3271" x="145" y="140.4561">GET /api/alarms/{id}</text></g><g class="message" data-entity-1="part3" data-entity-2="part4" data-source-line="11" id="msg3"><polygon fill="#181818" points="483.2197,171.6641,493.2197,175.6641,483.2197,179.6641,487.2197,175.6641" style="stroke:#181818;stroke-width:1;"/><line style="stroke:#181818;stroke-width:1;" x1="359.2344" x2="489.2197" y1="175.6641" y2="175.6641"/><text fill="#000000" font-family="sans-serif" font-size="13" lengthAdjust="spacing" textLength="70.0845" x="366.2344" y="170.8076">getDetail(id)</text></g><g class="message" data-entity-1="part4" data-entity-2="part6" data-source-line="12" id="msg4"><polygon fill="#181818" points="841.6665,202.0156,851.6665,206.0156,841.6665,210.0156,845.6665,206.0156" style="stroke:#181818;stroke-width:1;"/><line style="stroke:#181818;stroke-width:1;" x1="495.2197" x2="847.6665" y1="206.0156" y2="206.0156"/><text fill="#000000" font-family="sans-serif" font-size="13" lengthAdjust="spacing" textLength="130" x="502.2197" y="201.1592">&#26597;&#35810;&#21578;&#35686;&#12289;&#35774;&#22791;&#12289;&#35268;&#21017;</text></g><g class="message" data-entity-1="part6" data-entity-2="part4" data-source-line="13" id="msg5"><polygon fill="#181818" points="506.2197,232.3672,496.2197,236.3672,506.2197,240.3672,502.2197,236.3672" style="stroke:#181818;stroke-width:1;"/><line style="stroke:#181818;stroke-width:1;stroke-dasharray:2,2;" x1="500.2197" x2="852.6665" y1="236.3672" y2="236.3672"/><text fill="#000000" font-family="sans-serif" font-size="13" lengthAdjust="spacing" textLength="52" x="512.2197" y="231.5107">&#21578;&#35686;&#35814;&#24773;</text></g><g class="message" data-entity-1="part4" data-entity-2="part3" data-source-line="14" id="msg6"><polygon fill="#181818" points="370.2344,262.7188,360.2344,266.7188,370.2344,270.7188,366.2344,266.7188" style="stroke:#181818;stroke-width:1;"/><line style="stroke:#181818;stroke-width:1;stroke-dasharray:2,2;" x1="364.2344" x2="494.2197" y1="266.7188" y2="266.7188"/><text fill="#000000" font-family="sans-serif" font-size="13" lengthAdjust="spacing" textLength="85.9663" x="376.2344" y="261.8623">AlarmDetailVO</text></g><g class="message" data-entity-1="part3" data-entity-2="part2" data-source-line="15" id="msg7"><polygon fill="#181818" points="149,293.0703,139,297.0703,149,301.0703,145,297.0703" style="stroke:#181818;stroke-width:1;"/><line style="stroke:#181818;stroke-width:1;stroke-dasharray:2,2;" x1="143" x2="358.2344" y1="297.0703" y2="297.0703"/><text fill="#000000" font-family="sans-serif" font-size="13" lengthAdjust="spacing" textLength="78" x="155" y="292.2139">&#36820;&#22238;&#21578;&#35686;&#35814;&#24773;</text></g><g class="message" data-entity-1="part1" data-entity-2="part2" data-source-line="17" id="msg8"><polygon fill="#181818" points="126,323.4219,136,327.4219,126,331.4219,130,327.4219" style="stroke:#181818;stroke-width:1;"/><line style="stroke:#181818;stroke-width:1;" x1="36" x2="132" y1="327.4219" y2="327.4219"/><text fill="#000000" font-family="sans-serif" font-size="13" lengthAdjust="spacing" textLength="73.6582" x="43" y="322.5654">&#28857;&#20987;&#8220;&#36716;&#24037;&#21333;&#8221;</text></g><g class="message" data-entity-1="part2" data-entity-2="part3" data-source-line="18" id="msg9"><polygon fill="#181818" points="347.2344,353.7734,357.2344,357.7734,347.2344,361.7734,351.2344,357.7734" style="stroke:#181818;stroke-width:1;"/><line style="stroke:#181818;stroke-width:1;" x1="138" x2="353.2344" y1="357.7734" y2="357.7734"/><text fill="#000000" font-family="sans-serif" font-size="13" lengthAdjust="spacing" textLength="197.2344" x="145" y="352.917">POST /api/alarms/{id}/work-orders</text></g><g class="message" data-entity-1="part3" data-entity-2="part4" data-source-line="19" id="msg10"><polygon fill="#181818" points="483.2197,384.125,493.2197,388.125,483.2197,392.125,487.2197,388.125" style="stroke:#181818;stroke-width:1;"/><line style="stroke:#181818;stroke-width:1;" x1="359.2344" x2="489.2197" y1="388.125" y2="388.125"/><text fill="#000000" font-family="sans-serif" font-size="13" lengthAdjust="spacing" textLength="111.9854" x="366.2344" y="383.2686">validateTransfer(id)</text></g><g class="message" data-entity-1="part4" data-entity-2="part6" data-source-line="20" id="msg11"><polygon fill="#181818" points="841.6665,414.4766,851.6665,418.4766,841.6665,422.4766,845.6665,418.4766" style="stroke:#181818;stroke-width:1;"/><line style="stroke:#181818;stroke-width:1;" x1="495.2197" x2="847.6665" y1="418.4766" y2="418.4766"/><text fill="#000000" font-family="sans-serif" font-size="13" lengthAdjust="spacing" textLength="78" x="502.2197" y="413.6201">&#26657;&#39564;&#21578;&#35686;&#29366;&#24577;</text></g><g class="message" data-entity-1="part6" data-entity-2="part4" data-source-line="21" id="msg12"><polygon fill="#181818" points="506.2197,444.8281,496.2197,448.8281,506.2197,452.8281,502.2197,448.8281" style="stroke:#181818;stroke-width:1;"/><line style="stroke:#181818;stroke-width:1;stroke-dasharray:2,2;" x1="500.2197" x2="852.6665" y1="448.8281" y2="448.8281"/><text fill="#000000" font-family="sans-serif" font-size="13" lengthAdjust="spacing" textLength="130.019" x="512.2197" y="443.9717">PENDING/HANDLING</text></g><g class="message" data-entity-1="part3" data-entity-2="part5" data-source-line="22" id="msg13"><polygon fill="#181818" points="598.4058,475.1797,608.4058,479.1797,598.4058,483.1797,602.4058,479.1797" style="stroke:#181818;stroke-width:1;"/><line style="stroke:#181818;stroke-width:1;" x1="359.2344" x2="604.4058" y1="479.1797" y2="479.1797"/><text fill="#000000" font-family="sans-serif" font-size="13" lengthAdjust="spacing" textLength="189.2871" x="366.2344" y="474.3232">createFromAlarm(id, assigneeId)</text></g><g class="message" data-entity-1="part5" data-entity-2="part6" data-source-line="23" id="msg14"><polygon fill="#181818" points="841.6665,505.5313,851.6665,509.5313,841.6665,513.5313,845.6665,509.5313" style="stroke:#181818;stroke-width:1;"/><line style="stroke:#181818;stroke-width:1;" x1="610.4058" x2="847.6665" y1="509.5313" y2="509.5313"/><text fill="#000000" font-family="sans-serif" font-size="13" lengthAdjust="spacing" textLength="94.6372" x="617.4058" y="504.6748">&#25554;&#20837; work_order</text></g><g class="message" data-entity-1="part5" data-entity-2="part6" data-source-line="24" id="msg15"><polygon fill="#181818" points="841.6665,535.8828,851.6665,539.8828,841.6665,543.8828,845.6665,539.8828" style="stroke:#181818;stroke-width:1;"/><line style="stroke:#181818;stroke-width:1;" x1="610.4058" x2="847.6665" y1="539.8828" y2="539.8828"/><text fill="#000000" font-family="sans-serif" font-size="13" lengthAdjust="spacing" textLength="119.2153" x="617.4058" y="535.0264">&#25554;&#20837; work_order_log</text></g><g class="message" data-entity-1="part5" data-entity-2="part6" data-source-line="25" id="msg16"><polygon fill="#181818" points="841.6665,566.2344,851.6665,570.2344,841.6665,574.2344,845.6665,570.2344" style="stroke:#181818;stroke-width:1;"/><line style="stroke:#181818;stroke-width:1;" x1="610.4058" x2="847.6665" y1="570.2344" y2="570.2344"/><text fill="#000000" font-family="sans-serif" font-size="13" lengthAdjust="spacing" textLength="219.2607" x="617.4058" y="565.3779">&#26356;&#26032; alarm_record.status=HANDLING</text></g><g class="message" data-entity-1="part5" data-entity-2="part7" data-source-line="26" id="msg17"><polygon fill="#181818" points="917.9492,596.5859,927.9492,600.5859,917.9492,604.5859,921.9492,600.5859" style="stroke:#181818;stroke-width:1;"/><line style="stroke:#181818;stroke-width:1;" x1="610.4058" x2="923.9492" y1="600.5859" y2="600.5859"/><text fill="#000000" font-family="sans-serif" font-size="13" lengthAdjust="spacing" textLength="78" x="617.4058" y="595.7295">&#21457;&#36865;&#24037;&#21333;&#24453;&#21150;</text></g><g class="message" data-entity-1="part7" data-entity-2="part5" data-source-line="27" id="msg18"><polygon fill="#181818" points="621.4058,626.9375,611.4058,630.9375,621.4058,634.9375,617.4058,630.9375" style="stroke:#181818;stroke-width:1;"/><line style="stroke:#181818;stroke-width:1;stroke-dasharray:2,2;" x1="615.4058" x2="928.9492" y1="630.9375" y2="630.9375"/><text fill="#000000" font-family="sans-serif" font-size="13" lengthAdjust="spacing" textLength="52.7617" x="627.4058" y="626.0811">accepted</text></g><g class="message" data-entity-1="part5" data-entity-2="part3" data-source-line="28" id="msg19"><polygon fill="#181818" points="370.2344,657.2891,360.2344,661.2891,370.2344,665.2891,366.2344,661.2891" style="stroke:#181818;stroke-width:1;"/><line style="stroke:#181818;stroke-width:1;stroke-dasharray:2,2;" x1="364.2344" x2="609.4058" y1="661.2891" y2="661.2891"/><text fill="#000000" font-family="sans-serif" font-size="13" lengthAdjust="spacing" textLength="52" x="376.2344" y="656.4326">&#24037;&#21333;&#32534;&#21495;</text></g><g class="message" data-entity-1="part3" data-entity-2="part2" data-source-line="29" id="msg20"><polygon fill="#181818" points="149,687.6406,139,691.6406,149,695.6406,145,691.6406" style="stroke:#181818;stroke-width:1;"/><line style="stroke:#181818;stroke-width:1;stroke-dasharray:2,2;" x1="143" x2="358.2344" y1="691.6406" y2="691.6406"/><text fill="#000000" font-family="sans-serif" font-size="13" lengthAdjust="spacing" textLength="52" x="155" y="686.7842">&#21019;&#24314;&#25104;&#21151;</text></g><g class="message" data-entity-1="part2" data-entity-2="part1" data-source-line="30" id="msg21"><polygon fill="#181818" points="47,717.9922,37,721.9922,47,725.9922,43,721.9922" style="stroke:#181818;stroke-width:1;"/><line style="stroke:#181818;stroke-width:1;stroke-dasharray:2,2;" x1="41" x2="137" y1="721.9922" y2="721.9922"/><text fill="#000000" font-family="sans-serif" font-size="13" lengthAdjust="spacing" textLength="78" x="53" y="717.1357">&#36339;&#36716;&#24037;&#21333;&#35814;&#24773;</text></g><?plantuml-src bLFVJzDG67s_VyLDdpHnzjr44x289BXXHl1nkRINfR6qyxR3BCQaKnUMeHapIjG14-8mCIeceekRml-2tlxuBxpj7OLs1VIfjzztlg_dd7kAPCiWKF0ELjt1tfz-dxPU2H2PC5V21B4Mc3VAke981GfpPGnfg-5zsl6tllaRso7k1Z5q2-iAaDcJ61eKnZH45g_pDmsJ49Me9S1vJ9PK6HyZXuLZs1s3tCqH1PEJq6GHACX2yyZ4KBXLoT-U3a7IEBXNneovuDjlt4vNfFirsjWCUrd3KXSg01nfXPbhaHvu1JgThhk-mXLxkplEung8kWoPqCG69YTceOXAgeY2bYa-K9M780axcXoIPcD5R4dOGgfsGLKkWbYJWQLnJiNRtUPKVjjLx_C-VRSS7Du_eVNNW64oetjZpEDhK-c75SvaBZVAEswET_22jZTZdpZDH_VH3xeyEBJNlLyVQQzBdxqyj3VEiN8cbn_rKhpFRZnZ15Tk_eElIqXJMIJmB46wkO396VQ-tV8_FELYtCPtnwwUOkdCH5QQoawADyUoqZGxfB58nfADoGGp7apnOeXdH2wn_9bgKSTuYf4Q6Oc8DP_JMXS6kWkXxl-05ZIZU0QylUUiVO6XkmM2PJPosRIGLJQlHkBIXla_4wIhsVBjAhzF_a-1OI-JRWAIPLooi9AoDZK2VBNxSuqsU-UbaTRRTD1twgkqqJcHB0QACiaYs_iQ9P17zYy0?></g></svg>