<svg xmlns="http://www.w3.org/2000/svg" xmlns:xlink="http://www.w3.org/1999/xlink" contentStyleType="text/css" data-diagram-type="SEQUENCE" height="793px" preserveAspectRatio="none" style="width:728px;height:793px;background:#FFFFFF;" version="1.1" viewBox="0 0 728 793" width="728px" zoomAndPan="magnify"><?plantuml 1.2026.3?><defs/><g><g class="participant-lifeline" data-entity-uid="part1" data-qualified-name="Operator" data-source-line="1" id="part1-lifeline"><g><title>....</title><rect fill="#000000" fill-opacity="0.00000" height="627.0313" width="8" x="32" y="82.6094"/><line style="stroke:#181818;stroke-width:0.5;stroke-dasharray:5,5;" x1="36" x2="36" y1="82.6094" y2="709.6406"/></g></g><g class="participant-lifeline" data-entity-uid="part2" data-qualified-name="Frontend" data-source-line="2" id="part2-lifeline"><g><title>....</title><rect fill="#000000" fill-opacity="0.00000" height="627.0313" width="8" x="134" y="82.6094"/><line style="stroke:#181818;stroke-width:0.5;stroke-dasharray:5,5;" x1="138" x2="138" y1="82.6094" y2="709.6406"/></g></g><g class="participant-lifeline" data-entity-uid="part3" data-qualified-name="Backend" data-source-line="3" id="part3-lifeline"><g><title>..API</title><rect fill="#000000" fill-opacity="0.00000" height="627.0313" width="8" x="357.418" y="82.6094"/><line style="stroke:#181818;stroke-width:0.5;stroke-dasharray:5,5;" x1="361.1353" x2="361.1353" y1="82.6094" y2="709.6406"/></g></g><g class="participant-lifeline" data-entity-uid="part4" data-qualified-name="AlarmService" data-source-line="4" id="part4-lifeline"><g><title>....</title><rect fill="#000000" fill-opacity="0.00000" height="627.0313" width="8" x="504.9561" y="82.6094"/><line style="stroke:#181818;stroke-width:0.5;stroke-dasharray:5,5;" x1="508.9561" x2="508.9561" y1="82.6094" y2="709.6406"/></g></g><g class="participant-lifeline" data-entity-uid="part5" data-qualified-name="WorkOrderService" data-source-line="5" id="part5-lifeline"><g><title>....</title><rect fill="#000000" fill-opacity="0.00000" height="627.0313" width="8" x="584.9561" y="82.6094"/><line style="stroke:#181818;stroke-width:0.5;stroke-dasharray:5,5;" x1="588.9561" x2="588.9561" y1="82.6094" y2="709.6406"/></g></g><g class="participant-lifeline" data-entity-uid="part6" data-qualified-name="DB" data-source-line="6" id="part6-lifeline"><g><title>MySQL</title><rect fill="#000000" fill-opacity="0.00000" height="627.0313" width="8" x="686.9561" y="82.6094"/><line style="stroke:#181818;stroke-width:0.5;stroke-dasharray:5,5;" x1="690.6182" x2="690.6182" y1="82.6094" y2="709.6406"/></g></g><g class="participant participant-head" data-entity-uid="part1" data-qualified-name="Operator" data-source-line="1" id="part1-head"><text fill="#000000" font-family="sans-serif" font-size="14" lengthAdjust="spacing" textLength="56" x="5" y="79.5332">&#36816;&#32500;&#20154;&#21592;</text><ellipse cx="36" cy="13.5" fill="#E2E2F0" rx="8" ry="8" style="stroke:#181818;stroke-width:0.5;"/><path d="M36,21.5 L36,48.5 M23,29.5 L49,29.5 M36,48.5 L23,63.5 M36,48.5 L49,63.5" fill="none" style="stroke:#181818;stroke-width:0.5;"/></g><g class="participant participant-tail" data-entity-uid="part1" data-qualified-name="Operator" data-source-line="1" id="part1-tail"><text fill="#000000" font-family="sans-serif" font-size="14" lengthAdjust="spacing" textLength="56" x="5" y="723.1738">&#36816;&#32500;&#20154;&#21592;</text><ellipse cx="36" cy="734.75" fill="#E2E2F0" rx="8" ry="8" style="stroke:#181818;stroke-width:0.5;"/><path d="M36,742.75 L36,769.75 M23,750.75 L49,750.75 M36,769.75 L23,784.75 M36,769.75 L49,784.75" fill="none" style="stroke:#181818;stroke-width:0.5;"/></g><g class="participant participant-head" data-entity-uid="part2" data-qualified-name="Frontend" data-source-line="2" id="part2-head"><rect fill="#E2E2F0" height="31.6094" rx="2.5" ry="2.5" style="stroke:#181818;stroke-width:0.5;" width="70" x="103" y="50"/><text fill="#000000" font-family="sans-serif" font-size="14" lengthAdjust="spacing" textLength="56" x="110" y="71.5332">&#21069;&#31471;&#39029;&#38754;</text></g><g class="participant participant-tail" data-entity-uid="part2" data-qualified-name="Frontend" data-source-line="2" id="part2-tail"><rect fill="#E2E2F0" height="31.6094" rx="2.5" ry="2.5" style="stroke:#181818;stroke-width:0.5;" width="70" x="103" y="708.6406"/><text fill="#000000" font-family="sans-serif" font-size="14" lengthAdjust="spacing" textLength="56" x="110" y="730.1738">&#21069;&#31471;&#39029;&#38754;</text></g><g class="participant participant-head" data-entity-uid="part3" data-qualified-name="Backend" data-source-line="3" id="part3-head"><rect fill="#E2E2F0" height="31.6094" rx="2.5" ry="2.5" style="stroke:#181818;stroke-width:0.5;" width="64.5654" x="329.1353" y="50"/><text fill="#000000" font-family="sans-serif" font-size="14" lengthAdjust="spacing" textLength="50.5654" x="336.1353" y="71.5332">&#21518;&#31471;API</text></g><g class="participant participant-tail" data-entity-uid="part3" data-qualified-name="Backend" data-source-line="3" id="part3-tail"><rect fill="#E2E2F0" height="31.6094" rx="2.5" ry="2.5" style="stroke:#181818;stroke-width:0.5;" width="64.5654" x="329.1353" y="708.6406"/><text fill="#000000" font-family="sans-serif" font-size="14" lengthAdjust="spacing" textLength="50.5654" x="336.1353" y="730.1738">&#21518;&#31471;API</text></g><g class="participant participant-head" data-entity-uid="part4" data-qualified-name="AlarmService" data-source-line="4" id="part4-head"><rect fill="#E2E2F0" height="31.6094" rx="2.5" ry="2.5" style="stroke:#181818;stroke-width:0.5;" width="70" x="473.9561" y="50"/><text fill="#000000" font-family="sans-serif" font-size="14" lengthAdjust="spacing" textLength="56" x="480.9561" y="71.5332">&#21578;&#35686;&#26381;&#21153;</text></g><g class="participant participant-tail" data-entity-uid="part4" data-qualified-name="AlarmService" data-source-line="4" id="part4-tail"><rect fill="#E2E2F0" height="31.6094" rx="2.5" ry="2.5" style="stroke:#181818;stroke-width:0.5;" width="70" x="473.9561" y="708.6406"/><text fill="#000000" font-family="sans-serif" font-size="14" lengthAdjust="spacing" textLength="56" x="480.9561" y="730.1738">&#21578;&#35686;&#26381;&#21153;</text></g><g class="participant participant-head" data-entity-uid="part5" data-qualified-name="WorkOrderService" data-source-line="5" id="part5-head"><rect fill="#E2E2F0" height="31.6094" rx="2.5" ry="2.5" style="stroke:#181818;stroke-width:0.5;" width="70" x="553.9561" y="50"/><text fill="#000000" font-family="sans-serif" font-size="14" lengthAdjust="spacing" textLength="56" x="560.9561" y="71.5332">&#24037;&#21333;&#26381;&#21153;</text></g><g class="participant participant-tail" data-entity-uid="part5" data-qualified-name="WorkOrderService" data-source-line="5" id="part5-tail"><rect fill="#E2E2F0" height="31.6094" rx="2.5" ry="2.5" style="stroke:#181818;stroke-width:0.5;" width="70" x="553.9561" y="708.6406"/><text fill="#000000" font-family="sans-serif" font-size="14" lengthAdjust="spacing" textLength="56" x="560.9561" y="730.1738">&#24037;&#21333;&#26381;&#21153;</text></g><g class="participant participant-head" data-entity-uid="part6" data-qualified-name="DB" data-source-line="6" id="part6-head"><text fill="#000000" font-family="sans-serif" font-size="14" lengthAdjust="spacing" textLength="46.6758" x="664.6182" y="79.5332">MySQL</text><path d="M672.9561,29 C672.9561,19 690.9561,19 690.9561,19 C690.9561,19 708.9561,19 708.9561,29 L708.9561,55 C708.9561,65 690.9561,65 690.9561,65 C690.9561,65 672.9561,65 672.9561,55 L672.9561,29" fill="#E2E2F0" style="stroke:#181818;stroke-width:0.5;"/><path d="M672.9561,29 C672.9561,39 690.9561,39 690.9561,39 C690.9561,39 708.9561,39 708.9561,29" fill="none" style="stroke:#181818;stroke-width:0.5;"/></g><g class="participant participant-tail" data-entity-uid="part6" data-qualified-name="DB" data-source-line="6" id="part6-tail"><text fill="#000000" font-family="sans-serif" font-size="14" lengthAdjust="spacing" textLength="46.6758" x="664.6182" y="723.1738">MySQL</text><path d="M672.9561,736.25 C672.9561,726.25 690.9561,726.25 690.9561,726.25 C690.9561,726.25 708.9561,726.25 708.9561,736.25 L708.9561,762.25 C708.9561,772.25 690.9561,772.25 690.9561,772.25 C690.9561,772.25 672.9561,772.25 672.9561,762.25 L672.9561,736.25" fill="#E2E2F0" style="stroke:#181818;stroke-width:0.5;"/><path d="M672.9561,736.25 C672.9561,746.25 690.9561,746.25 690.9561,746.25 C690.9561,746.25 708.9561,746.25 708.9561,736.25" fill="none" style="stroke:#181818;stroke-width:0.5;"/></g><g class="message" data-entity-1="part1" data-entity-2="part2" data-source-line="8" id="msg1"><polygon fill="#181818" points="126,110.9609,136,114.9609,126,118.9609,130,114.9609" style="stroke:#181818;stroke-width:1;"/><line style="stroke:#181818;stroke-width:1;" x1="36" x2="132" y1="114.9609" y2="114.9609"/><text fill="#000000" font-family="sans-serif" font-size="13" lengthAdjust="spacing" textLength="78" x="43" y="110.1045">&#26597;&#30475;&#21578;&#35686;&#35814;&#24773;</text></g><g class="message" data-entity-1="part2" data-entity-2="part3" data-source-line="9" id="msg2"><polygon fill="#181818" points="349.418,141.3125,359.418,145.3125,349.418,149.3125,353.418,145.3125" style="stroke:#181818;stroke-width:1;"/><line style="stroke:#181818;stroke-width:1;" x1="138" x2="355.418" y1="145.3125" y2="145.3125"/><text fill="#000000" font-family="sans-serif" font-size="13" lengthAdjust="spacing" textLength="116.3271" x="145" y="140.4561">GET /api/alarms/{id}</text></g><g class="message" data-entity-1="part3" data-entity-2="part4" data-source-line="10" id="msg3"><polygon fill="#181818" points="496.9561,171.6641,506.9561,175.6641,496.9561,179.6641,500.9561,175.6641" style="stroke:#181818;stroke-width:1;"/><line style="stroke:#181818;stroke-width:1;" x1="361.418" x2="502.9561" y1="175.6641" y2="175.6641"/><text fill="#000000" font-family="sans-serif" font-size="13" lengthAdjust="spacing" textLength="70.7954" x="368.418" y="170.8076">getAlarm(id)</text></g><g class="message" data-entity-1="part4" data-entity-2="part6" data-source-line="11" id="msg4"><polygon fill="#181818" points="678.9561,202.0156,688.9561,206.0156,678.9561,210.0156,682.9561,206.0156" style="stroke:#181818;stroke-width:1;"/><line style="stroke:#181818;stroke-width:1;" x1="508.9561" x2="684.9561" y1="206.0156" y2="206.0156"/><text fill="#000000" font-family="sans-serif" font-size="13" lengthAdjust="spacing" textLength="52" x="515.9561" y="201.1592">&#26597;&#35810;&#21578;&#35686;</text></g><g class="message" data-entity-1="part6" data-entity-2="part4" data-source-line="12" id="msg5"><polygon fill="#181818" points="519.9561,232.3672,509.9561,236.3672,519.9561,240.3672,515.9561,236.3672" style="stroke:#181818;stroke-width:1;"/><line style="stroke:#181818;stroke-width:1;stroke-dasharray:2,2;" x1="513.9561" x2="689.9561" y1="236.3672" y2="236.3672"/><text fill="#000000" font-family="sans-serif" font-size="13" lengthAdjust="spacing" textLength="52" x="525.9561" y="231.5107">&#21578;&#35686;&#25968;&#25454;</text></g><g class="message" data-entity-1="part4" data-entity-2="part3" data-source-line="13" id="msg6"><polygon fill="#181818" points="372.418,262.7188,362.418,266.7188,372.418,270.7188,368.418,266.7188" style="stroke:#181818;stroke-width:1;"/><line style="stroke:#181818;stroke-width:1;stroke-dasharray:2,2;" x1="366.418" x2="507.9561" y1="266.7188" y2="266.7188"/><text fill="#000000" font-family="sans-serif" font-size="13" lengthAdjust="spacing" textLength="52" x="378.418" y="261.8623">&#21578;&#35686;&#35814;&#24773;</text></g><g class="message" data-entity-1="part3" data-entity-2="part2" data-source-line="14" id="msg7"><polygon fill="#181818" points="149,293.0703,139,297.0703,149,301.0703,145,297.0703" style="stroke:#181818;stroke-width:1;"/><line style="stroke:#181818;stroke-width:1;stroke-dasharray:2,2;" x1="143" x2="360.418" y1="297.0703" y2="297.0703"/><text fill="#000000" font-family="sans-serif" font-size="13" lengthAdjust="spacing" textLength="78" x="155" y="292.2139">&#36820;&#22238;&#21578;&#35686;&#35814;&#24773;</text></g><g class="message" data-entity-1="part1" data-entity-2="part2" data-source-line="16" id="msg8"><polygon fill="#181818" points="126,323.4219,136,327.4219,126,331.4219,130,327.4219" style="stroke:#181818;stroke-width:1;"/><line style="stroke:#181818;stroke-width:1;" x1="36" x2="132" y1="327.4219" y2="327.4219"/><text fill="#000000" font-family="sans-serif" font-size="13" lengthAdjust="spacing" textLength="65" x="43" y="322.5654">&#28857;&#20987;&#36716;&#24037;&#21333;</text></g><g class="message" data-entity-1="part2" data-entity-2="part3" data-source-line="17" id="msg9"><polygon fill="#181818" points="349.418,353.7734,359.418,357.7734,349.418,361.7734,353.418,357.7734" style="stroke:#181818;stroke-width:1;"/><line style="stroke:#181818;stroke-width:1;" x1="138" x2="355.418" y1="357.7734" y2="357.7734"/><text fill="#000000" font-family="sans-serif" font-size="13" lengthAdjust="spacing" textLength="199.418" x="145" y="352.917">POST /api/alarms/{id}/create-order</text></g><g class="message" data-entity-1="part3" data-entity-2="part4" data-source-line="18" id="msg10"><polygon fill="#181818" points="496.9561,384.125,506.9561,388.125,496.9561,392.125,500.9561,388.125" style="stroke:#181818;stroke-width:1;"/><line style="stroke:#181818;stroke-width:1;" x1="361.418" x2="502.9561" y1="388.125" y2="388.125"/><text fill="#000000" font-family="sans-serif" font-size="13" lengthAdjust="spacing" textLength="123.5381" x="368.418" y="383.2686">checkAlarmStatus(id)</text></g><g class="message" data-entity-1="part4" data-entity-2="part6" data-source-line="19" id="msg11"><polygon fill="#181818" points="678.9561,414.4766,688.9561,418.4766,678.9561,422.4766,682.9561,418.4766" style="stroke:#181818;stroke-width:1;"/><line style="stroke:#181818;stroke-width:1;" x1="508.9561" x2="684.9561" y1="418.4766" y2="418.4766"/><text fill="#000000" font-family="sans-serif" font-size="13" lengthAdjust="spacing" textLength="78" x="515.9561" y="413.6201">&#26597;&#35810;&#21578;&#35686;&#29366;&#24577;</text></g><g class="message" data-entity-1="part6" data-entity-2="part4" data-source-line="20" id="msg12"><polygon fill="#181818" points="519.9561,444.8281,509.9561,448.8281,519.9561,452.8281,515.9561,448.8281" style="stroke:#181818;stroke-width:1;"/><line style="stroke:#181818;stroke-width:1;stroke-dasharray:2,2;" x1="513.9561" x2="689.9561" y1="448.8281" y2="448.8281"/><text fill="#000000" font-family="sans-serif" font-size="13" lengthAdjust="spacing" textLength="52" x="525.9561" y="443.9717">&#29366;&#24577;&#26377;&#25928;</text></g><g class="message" data-entity-1="part3" data-entity-2="part5" data-source-line="21" id="msg13"><polygon fill="#181818" points="576.9561,475.1797,586.9561,479.1797,576.9561,483.1797,580.9561,479.1797" style="stroke:#181818;stroke-width:1;"/><line style="stroke:#181818;stroke-width:1;" x1="361.418" x2="582.9561" y1="479.1797" y2="479.1797"/><text fill="#000000" font-family="sans-serif" font-size="13" lengthAdjust="spacing" textLength="152.4136" x="368.418" y="474.3232">createFromAlarm(alarmId)</text></g><g class="message" data-entity-1="part5" data-entity-2="part6" data-source-line="22" id="msg14"><polygon fill="#181818" points="678.9561,505.5313,688.9561,509.5313,678.9561,513.5313,682.9561,509.5313" style="stroke:#181818;stroke-width:1;"/><line style="stroke:#181818;stroke-width:1;" x1="588.9561" x2="684.9561" y1="509.5313" y2="509.5313"/><text fill="#000000" font-family="sans-serif" font-size="13" lengthAdjust="spacing" textLength="52" x="595.9561" y="504.6748">&#25554;&#20837;&#24037;&#21333;</text></g><g class="message" data-entity-1="part5" data-entity-2="part6" data-source-line="23" id="msg15"><polygon fill="#181818" points="678.9561,535.8828,688.9561,539.8828,678.9561,543.8828,682.9561,539.8828" style="stroke:#181818;stroke-width:1;"/><line style="stroke:#181818;stroke-width:1;" x1="588.9561" x2="684.9561" y1="539.8828" y2="539.8828"/><text fill="#000000" font-family="sans-serif" font-size="13" lengthAdjust="spacing" textLength="78" x="595.9561" y="535.0264">&#25554;&#20837;&#24037;&#21333;&#26085;&#24535;</text></g><g class="message" data-entity-1="part5" data-entity-2="part6" data-source-line="24" id="msg16"><polygon fill="#181818" points="678.9561,566.2344,688.9561,570.2344,678.9561,574.2344,682.9561,570.2344" style="stroke:#181818;stroke-width:1;"/><line style="stroke:#181818;stroke-width:1;" x1="588.9561" x2="684.9561" y1="570.2344" y2="570.2344"/><text fill="#000000" font-family="sans-serif" font-size="13" lengthAdjust="spacing" textLength="78" x="595.9561" y="565.3779">&#26356;&#26032;&#21578;&#35686;&#29366;&#24577;</text></g><g class="message" data-entity-1="part6" data-entity-2="part5" data-source-line="25" id="msg17"><polygon fill="#181818" points="599.9561,596.5859,589.9561,600.5859,599.9561,604.5859,595.9561,600.5859" style="stroke:#181818;stroke-width:1;"/><line style="stroke:#181818;stroke-width:1;stroke-dasharray:2,2;" x1="593.9561" x2="689.9561" y1="600.5859" y2="600.5859"/><text fill="#000000" font-family="sans-serif" font-size="13" lengthAdjust="spacing" textLength="52" x="605.9561" y="595.7295">&#20445;&#23384;&#25104;&#21151;</text></g><g class="message" data-entity-1="part5" data-entity-2="part3" data-source-line="26" id="msg18"><polygon fill="#181818" points="372.418,626.9375,362.418,630.9375,372.418,634.9375,368.418,630.9375" style="stroke:#181818;stroke-width:1;"/><line style="stroke:#181818;stroke-width:1;stroke-dasharray:2,2;" x1="366.418" x2="587.9561" y1="630.9375" y2="630.9375"/><text fill="#000000" font-family="sans-serif" font-size="13" lengthAdjust="spacing" textLength="39" x="378.418" y="626.0811">&#24037;&#21333;ID</text></g><g class="message" data-entity-1="part3" data-entity-2="part2" data-source-line="27" id="msg19"><polygon fill="#181818" points="149,657.2891,139,661.2891,149,665.2891,145,661.2891" style="stroke:#181818;stroke-width:1;"/><line style="stroke:#181818;stroke-width:1;stroke-dasharray:2,2;" x1="143" x2="360.418" y1="661.2891" y2="661.2891"/><text fill="#000000" font-family="sans-serif" font-size="13" lengthAdjust="spacing" textLength="52" x="155" y="656.4326">&#21019;&#24314;&#25104;&#21151;</text></g><g class="message" data-entity-1="part2" data-entity-2="part1" data-source-line="28" id="msg20"><polygon fill="#181818" points="47,687.6406,37,691.6406,47,695.6406,43,691.6406" style="stroke:#181818;stroke-width:1;"/><line style="stroke:#181818;stroke-width:1;stroke-dasharray:2,2;" x1="41" x2="137" y1="691.6406" y2="691.6406"/><text fill="#000000" font-family="sans-serif" font-size="13" lengthAdjust="spacing" textLength="78" x="53" y="686.7842">&#23637;&#31034;&#24037;&#21333;&#35814;&#24773;</text></g><?plantuml-src ZP9TIm9158RlzrSCUrKNilTT18aLGc5XqFMqEzHYgOnJ417qWQGRbaQce1P5TjE71NsG4luPPtRz5uqxkhdgIhTp7ivvpZi7gYI6WMmrisRZlLMlqrnH1Z01Gd648Iz9SOY9hkfn62L0fkcC-LXhttwqAtSsDeTZKOAYsW2MFUFOp5BGPlnGZGmZESDwVc3b33LkRMfc4-AjCC8xkee6qAygpUJxqDKOZeImXd0Fro21Qp21WBou6rvUiA60Nv9wIm3Vj6CAfW2xgPhbKs5WrHxOSL9ogfpi-d9mVdO5A32kAx0Zbr3sT6rVwfKvsU_CyNL4x9S9NPkKN3NE1lnYibMx4vCb_k8RRj8D9l_ACYy3JLnkBdt7oRserRoafMiNwPM9UVHDJnhMpvD8soEGfL1uE155nGWIv8jrlcHCFEe6KYFYZK2odVXVJARnoGuEFS8IHLPEitogV_BWXNIcsv9yhItnH_O2GMumn3eMvnSqMUtcyI-A5QgqMHZ3bjxPrUkelKO8jveL-bnagImrRaQqT1-3FJuOy3e4cYhHHhtRw-zhEUIS0uVUykPzNRGIr_8B?></g></svg>