<svg xmlns="http://www.w3.org/2000/svg" xmlns:xlink="http://www.w3.org/1999/xlink" contentStyleType="text/css" data-diagram-type="SEQUENCE" height="550px" preserveAspectRatio="none" style="width:765px;height:550px;background:#FFFFFF;" version="1.1" viewBox="0 0 765 550" width="765px" zoomAndPan="magnify"><?plantuml 1.2026.3?><defs/><g><g class="participant-lifeline" data-entity-uid="part1" data-qualified-name="User" data-source-line="1" id="part1-lifeline"><g><title>..</title><rect fill="#000000" fill-opacity="0.00000" height="384.2188" width="8" x="18" y="82.6094"/><line style="stroke:#181818;stroke-width:0.5;stroke-dasharray:5,5;" x1="22" x2="22" y1="82.6094" y2="466.8281"/></g></g><g class="participant-lifeline" data-entity-uid="part2" data-qualified-name="Frontend" data-source-line="2" id="part2-lifeline"><g><title>....</title><rect fill="#000000" fill-opacity="0.00000" height="384.2188" width="8" x="133" y="82.6094"/><line style="stroke:#181818;stroke-width:0.5;stroke-dasharray:5,5;" x1="137" x2="137" y1="82.6094" y2="466.8281"/></g></g><g class="participant-lifeline" data-entity-uid="part3" data-qualified-name="Backend" data-source-line="3" id="part3-lifeline"><g><title>Spring Boot..</title><rect fill="#000000" fill-opacity="0.00000" height="384.2188" width="8" x="306.5762" y="82.6094"/><line style="stroke:#181818;stroke-width:0.5;stroke-dasharray:5,5;" x1="309.9971" x2="309.9971" y1="82.6094" y2="466.8281"/></g></g><g class="participant-lifeline" data-entity-uid="part4" data-qualified-name="AI" data-source-line="4" id="part4-lifeline"><g><title>FastAPI AI..</title><rect fill="#000000" fill-opacity="0.00000" height="384.2188" width="8" x="459.1924" y="82.6094"/><line style="stroke:#181818;stroke-width:0.5;stroke-dasharray:5,5;" x1="462.7373" x2="462.7373" y1="82.6094" y2="466.8281"/></g></g><g class="participant-lifeline" data-entity-uid="part5" data-qualified-name="MySQL" data-source-line="5" id="part5-lifeline"><g><title>MySQL</title><rect fill="#000000" fill-opacity="0.00000" height="384.2188" width="8" x="549.9854" y="82.6094"/><line style="stroke:#181818;stroke-width:0.5;stroke-dasharray:5,5;" x1="553.6475" x2="553.6475" y1="82.6094" y2="466.8281"/></g></g><g class="participant-lifeline" data-entity-uid="part6" data-qualified-name="VectorDB" data-source-line="6" id="part6-lifeline"><g><title>.....</title><rect fill="#000000" fill-opacity="0.00000" height="384.2188" width="8" x="624.3232" y="82.6094"/><line style="stroke:#181818;stroke-width:0.5;stroke-dasharray:5,5;" x1="628.3232" x2="628.3232" y1="82.6094" y2="466.8281"/></g></g><g class="participant-lifeline" data-entity-uid="part7" data-qualified-name="LLM" data-source-line="7" id="part7-lifeline"><g><title>...API</title><rect fill="#000000" fill-opacity="0.00000" height="384.2188" width="8" x="711.606" y="82.6094"/><line style="stroke:#181818;stroke-width:0.5;stroke-dasharray:5,5;" x1="715.3232" x2="715.3232" y1="82.6094" y2="466.8281"/></g></g><g class="participant participant-head" data-entity-uid="part1" data-qualified-name="User" data-source-line="1" id="part1-head"><text fill="#000000" font-family="sans-serif" font-size="14" lengthAdjust="spacing" textLength="28" x="5" y="79.5332">&#29992;&#25143;</text><ellipse cx="22" cy="13.5" fill="#E2E2F0" rx="8" ry="8" style="stroke:#181818;stroke-width:0.5;"/><path d="M22,21.5 L22,48.5 M9,29.5 L35,29.5 M22,48.5 L9,63.5 M22,48.5 L35,63.5" fill="none" style="stroke:#181818;stroke-width:0.5;"/></g><g class="participant participant-tail" data-entity-uid="part1" data-qualified-name="User" data-source-line="1" id="part1-tail"><text fill="#000000" font-family="sans-serif" font-size="14" lengthAdjust="spacing" textLength="28" x="5" y="480.3613">&#29992;&#25143;</text><ellipse cx="22" cy="491.9375" fill="#E2E2F0" rx="8" ry="8" style="stroke:#181818;stroke-width:0.5;"/><path d="M22,499.9375 L22,526.9375 M9,507.9375 L35,507.9375 M22,526.9375 L9,541.9375 M22,526.9375 L35,541.9375" fill="none" style="stroke:#181818;stroke-width:0.5;"/></g><g class="participant participant-head" data-entity-uid="part2" data-qualified-name="Frontend" data-source-line="2" id="part2-head"><rect fill="#E2E2F0" height="31.6094" rx="2.5" ry="2.5" style="stroke:#181818;stroke-width:0.5;" width="70" x="102" y="50"/><text fill="#000000" font-family="sans-serif" font-size="14" lengthAdjust="spacing" textLength="56" x="109" y="71.5332">&#21069;&#31471;&#39029;&#38754;</text></g><g class="participant participant-tail" data-entity-uid="part2" data-qualified-name="Frontend" data-source-line="2" id="part2-tail"><rect fill="#E2E2F0" height="31.6094" rx="2.5" ry="2.5" style="stroke:#181818;stroke-width:0.5;" width="70" x="102" y="465.8281"/><text fill="#000000" font-family="sans-serif" font-size="14" lengthAdjust="spacing" textLength="56" x="109" y="487.3613">&#21069;&#31471;&#39029;&#38754;</text></g><g class="participant participant-head" data-entity-uid="part3" data-qualified-name="Backend" data-source-line="3" id="part3-head"><rect fill="#E2E2F0" height="31.6094" rx="2.5" ry="2.5" style="stroke:#181818;stroke-width:0.5;" width="115.1582" x="252.9971" y="50"/><text fill="#000000" font-family="sans-serif" font-size="14" lengthAdjust="spacing" textLength="101.1582" x="259.9971" y="71.5332">Spring Boot&#21518;&#31471;</text></g><g class="participant participant-tail" data-entity-uid="part3" data-qualified-name="Backend" data-source-line="3" id="part3-tail"><rect fill="#E2E2F0" height="31.6094" rx="2.5" ry="2.5" style="stroke:#181818;stroke-width:0.5;" width="115.1582" x="252.9971" y="465.8281"/><text fill="#000000" font-family="sans-serif" font-size="14" lengthAdjust="spacing" textLength="101.1582" x="259.9971" y="487.3613">Spring Boot&#21518;&#31471;</text></g><g class="participant participant-head" data-entity-uid="part4" data-qualified-name="AI" data-source-line="4" id="part4-head"><rect fill="#E2E2F0" height="31.6094" rx="2.5" ry="2.5" style="stroke:#181818;stroke-width:0.5;" width="108.9102" x="408.7373" y="50"/><text fill="#000000" font-family="sans-serif" font-size="14" lengthAdjust="spacing" textLength="94.9102" x="415.7373" y="71.5332">FastAPI AI&#26381;&#21153;</text></g><g class="participant participant-tail" data-entity-uid="part4" data-qualified-name="AI" data-source-line="4" id="part4-tail"><rect fill="#E2E2F0" height="31.6094" rx="2.5" ry="2.5" style="stroke:#181818;stroke-width:0.5;" width="108.9102" x="408.7373" y="465.8281"/><text fill="#000000" font-family="sans-serif" font-size="14" lengthAdjust="spacing" textLength="94.9102" x="415.7373" y="487.3613">FastAPI AI&#26381;&#21153;</text></g><g class="participant participant-head" data-entity-uid="part5" data-qualified-name="MySQL" data-source-line="5" id="part5-head"><text fill="#000000" font-family="sans-serif" font-size="14" lengthAdjust="spacing" textLength="46.6758" x="527.6475" y="79.5332">MySQL</text><path d="M535.9854,29 C535.9854,19 553.9854,19 553.9854,19 C553.9854,19 571.9854,19 571.9854,29 L571.9854,55 C571.9854,65 553.9854,65 553.9854,65 C553.9854,65 535.9854,65 535.9854,55 L535.9854,29" fill="#E2E2F0" style="stroke:#181818;stroke-width:0.5;"/><path d="M535.9854,29 C535.9854,39 553.9854,39 553.9854,39 C553.9854,39 571.9854,39 571.9854,29" fill="none" style="stroke:#181818;stroke-width:0.5;"/></g><g class="participant participant-tail" data-entity-uid="part5" data-qualified-name="MySQL" data-source-line="5" id="part5-tail"><text fill="#000000" font-family="sans-serif" font-size="14" lengthAdjust="spacing" textLength="46.6758" x="527.6475" y="480.3613">MySQL</text><path d="M535.9854,493.4375 C535.9854,483.4375 553.9854,483.4375 553.9854,483.4375 C553.9854,483.4375 571.9854,483.4375 571.9854,493.4375 L571.9854,519.4375 C571.9854,529.4375 553.9854,529.4375 553.9854,529.4375 C553.9854,529.4375 535.9854,529.4375 535.9854,519.4375 L535.9854,493.4375" fill="#E2E2F0" style="stroke:#181818;stroke-width:0.5;"/><path d="M535.9854,493.4375 C535.9854,503.4375 553.9854,503.4375 553.9854,503.4375 C553.9854,503.4375 571.9854,503.4375 571.9854,493.4375" fill="none" style="stroke:#181818;stroke-width:0.5;"/></g><g class="participant participant-head" data-entity-uid="part6" data-qualified-name="VectorDB" data-source-line="6" id="part6-head"><text fill="#000000" font-family="sans-serif" font-size="14" lengthAdjust="spacing" textLength="70" x="590.3232" y="79.5332">&#21521;&#37327;&#25968;&#25454;&#24211;</text><path d="M610.3232,29 C610.3232,19 628.3232,19 628.3232,19 C628.3232,19 646.3232,19 646.3232,29 L646.3232,55 C646.3232,65 628.3232,65 628.3232,65 C628.3232,65 610.3232,65 610.3232,55 L610.3232,29" fill="#E2E2F0" style="stroke:#181818;stroke-width:0.5;"/><path d="M610.3232,29 C610.3232,39 628.3232,39 628.3232,39 C628.3232,39 646.3232,39 646.3232,29" fill="none" style="stroke:#181818;stroke-width:0.5;"/></g><g class="participant participant-tail" data-entity-uid="part6" data-qualified-name="VectorDB" data-source-line="6" id="part6-tail"><text fill="#000000" font-family="sans-serif" font-size="14" lengthAdjust="spacing" textLength="70" x="590.3232" y="480.3613">&#21521;&#37327;&#25968;&#25454;&#24211;</text><path d="M610.3232,493.4375 C610.3232,483.4375 628.3232,483.4375 628.3232,483.4375 C628.3232,483.4375 646.3232,483.4375 646.3232,493.4375 L646.3232,519.4375 C646.3232,529.4375 628.3232,529.4375 628.3232,529.4375 C628.3232,529.4375 610.3232,529.4375 610.3232,519.4375 L610.3232,493.4375" fill="#E2E2F0" style="stroke:#181818;stroke-width:0.5;"/><path d="M610.3232,493.4375 C610.3232,503.4375 628.3232,503.4375 628.3232,503.4375 C628.3232,503.4375 646.3232,503.4375 646.3232,493.4375" fill="none" style="stroke:#181818;stroke-width:0.5;"/></g><g class="participant participant-head" data-entity-uid="part7" data-qualified-name="LLM" data-source-line="7" id="part7-head"><rect fill="#E2E2F0" height="31.6094" rx="2.5" ry="2.5" style="stroke:#181818;stroke-width:0.5;" width="78.5654" x="676.3232" y="50"/><text fill="#000000" font-family="sans-serif" font-size="14" lengthAdjust="spacing" textLength="64.5654" x="683.3232" y="71.5332">&#22823;&#27169;&#22411;API</text></g><g class="participant participant-tail" data-entity-uid="part7" data-qualified-name="LLM" data-source-line="7" id="part7-tail"><rect fill="#E2E2F0" height="31.6094" rx="2.5" ry="2.5" style="stroke:#181818;stroke-width:0.5;" width="78.5654" x="676.3232" y="465.8281"/><text fill="#000000" font-family="sans-serif" font-size="14" lengthAdjust="spacing" textLength="64.5654" x="683.3232" y="487.3613">&#22823;&#27169;&#22411;API</text></g><g class="message" data-entity-1="part1" data-entity-2="part2" data-source-line="9" id="msg1"><polygon fill="#181818" points="125,110.9609,135,114.9609,125,118.9609,129,114.9609" style="stroke:#181818;stroke-width:1;"/><line style="stroke:#181818;stroke-width:1;" x1="22" x2="131" y1="114.9609" y2="114.9609"/><text fill="#000000" font-family="sans-serif" font-size="13" lengthAdjust="spacing" textLength="52" x="29" y="110.1045">&#36755;&#20837;&#38382;&#39064;</text></g><g class="message" data-entity-1="part2" data-entity-2="part3" data-source-line="10" id="msg2"><polygon fill="#181818" points="298.5762,141.3125,308.5762,145.3125,298.5762,149.3125,302.5762,145.3125" style="stroke:#181818;stroke-width:1;"/><line style="stroke:#181818;stroke-width:1;" x1="137" x2="304.5762" y1="145.3125" y2="145.3125"/><text fill="#000000" font-family="sans-serif" font-size="13" lengthAdjust="spacing" textLength="149.5762" x="144" y="140.4561">POST /api/knowledge/ask</text></g><g class="message" data-entity-1="part3" data-entity-2="part5" data-source-line="11" id="msg3"><polygon fill="#181818" points="541.9854,171.6641,551.9854,175.6641,541.9854,179.6641,545.9854,175.6641" style="stroke:#181818;stroke-width:1;"/><line style="stroke:#181818;stroke-width:1;" x1="310.5762" x2="547.9854" y1="175.6641" y2="175.6641"/><text fill="#000000" font-family="sans-serif" font-size="13" lengthAdjust="spacing" textLength="78" x="317.5762" y="170.8076">&#20445;&#23384;&#38382;&#39064;&#35760;&#24405;</text></g><g class="message" data-entity-1="part3" data-entity-2="part4" data-source-line="12" id="msg4"><polygon fill="#181818" points="451.1924,202.0156,461.1924,206.0156,451.1924,210.0156,455.1924,206.0156" style="stroke:#181818;stroke-width:1;"/><line style="stroke:#181818;stroke-width:1;" x1="310.5762" x2="457.1924" y1="206.0156" y2="206.0156"/><text fill="#000000" font-family="sans-serif" font-size="13" lengthAdjust="spacing" textLength="128.6162" x="317.5762" y="201.1592">POST /knowledge/ask</text></g><g class="message" data-entity-1="part4" data-entity-2="part6" data-source-line="13" id="msg5"><polygon fill="#181818" points="616.3232,232.3672,626.3232,236.3672,616.3232,240.3672,620.3232,236.3672" style="stroke:#181818;stroke-width:1;"/><line style="stroke:#181818;stroke-width:1;" x1="463.1924" x2="622.3232" y1="236.3672" y2="236.3672"/><text fill="#000000" font-family="sans-serif" font-size="13" lengthAdjust="spacing" textLength="65" x="470.1924" y="231.5107">&#30456;&#20284;&#24230;&#26816;&#32034;</text></g><g class="message" data-entity-1="part6" data-entity-2="part4" data-source-line="14" id="msg6"><polygon fill="#181818" points="474.1924,262.7188,464.1924,266.7188,474.1924,270.7188,470.1924,266.7188" style="stroke:#181818;stroke-width:1;"/><line style="stroke:#181818;stroke-width:1;stroke-dasharray:2,2;" x1="468.1924" x2="627.3232" y1="266.7188" y2="266.7188"/><text fill="#000000" font-family="sans-serif" font-size="13" lengthAdjust="spacing" textLength="104" x="480.1924" y="261.8623">&#36820;&#22238;&#30456;&#20851;&#25991;&#26723;&#29255;&#27573;</text></g><g class="message" data-entity-1="part4" data-entity-2="part7" data-source-line="15" id="msg7"><polygon fill="#181818" points="703.606,293.0703,713.606,297.0703,703.606,301.0703,707.606,297.0703" style="stroke:#181818;stroke-width:1;"/><line style="stroke:#181818;stroke-width:1;" x1="463.1924" x2="709.606" y1="297.0703" y2="297.0703"/><text fill="#000000" font-family="sans-serif" font-size="13" lengthAdjust="spacing" textLength="169" x="470.1924" y="292.2139">&#25658;&#24102;&#38382;&#39064;&#21644;&#25991;&#26723;&#29255;&#27573;&#29983;&#25104;&#22238;&#31572;</text></g><g class="message" data-entity-1="part7" data-entity-2="part4" data-source-line="16" id="msg8"><polygon fill="#181818" points="474.1924,323.4219,464.1924,327.4219,474.1924,331.4219,470.1924,327.4219" style="stroke:#181818;stroke-width:1;"/><line style="stroke:#181818;stroke-width:1;stroke-dasharray:2,2;" x1="468.1924" x2="714.606" y1="327.4219" y2="327.4219"/><text fill="#000000" font-family="sans-serif" font-size="13" lengthAdjust="spacing" textLength="52" x="480.1924" y="322.5654">&#36820;&#22238;&#22238;&#31572;</text></g><g class="message" data-entity-1="part4" data-entity-2="part3" data-source-line="17" id="msg9"><polygon fill="#181818" points="321.5762,353.7734,311.5762,357.7734,321.5762,361.7734,317.5762,357.7734" style="stroke:#181818;stroke-width:1;"/><line style="stroke:#181818;stroke-width:1;stroke-dasharray:2,2;" x1="315.5762" x2="462.1924" y1="357.7734" y2="357.7734"/><text fill="#000000" font-family="sans-serif" font-size="13" lengthAdjust="spacing" textLength="91" x="327.5762" y="352.917">&#31572;&#26696;&#21644;&#24341;&#29992;&#26469;&#28304;</text></g><g class="message" data-entity-1="part3" data-entity-2="part5" data-source-line="18" id="msg10"><polygon fill="#181818" points="541.9854,384.125,551.9854,388.125,541.9854,392.125,545.9854,388.125" style="stroke:#181818;stroke-width:1;"/><line style="stroke:#181818;stroke-width:1;" x1="310.5762" x2="547.9854" y1="388.125" y2="388.125"/><text fill="#000000" font-family="sans-serif" font-size="13" lengthAdjust="spacing" textLength="91" x="317.5762" y="383.2686">&#20445;&#23384;&#31572;&#26696;&#21644;&#24341;&#29992;</text></g><g class="message" data-entity-1="part3" data-entity-2="part2" data-source-line="19" id="msg11"><polygon fill="#181818" points="148,414.4766,138,418.4766,148,422.4766,144,418.4766" style="stroke:#181818;stroke-width:1;"/><line style="stroke:#181818;stroke-width:1;stroke-dasharray:2,2;" x1="142" x2="309.5762" y1="418.4766" y2="418.4766"/><text fill="#000000" font-family="sans-serif" font-size="13" lengthAdjust="spacing" textLength="78" x="154" y="413.6201">&#36820;&#22238;&#38382;&#31572;&#32467;&#26524;</text></g><g class="message" data-entity-1="part2" data-entity-2="part1" data-source-line="20" id="msg12"><polygon fill="#181818" points="33,444.8281,23,448.8281,33,452.8281,29,448.8281" style="stroke:#181818;stroke-width:1;"/><line style="stroke:#181818;stroke-width:1;stroke-dasharray:2,2;" x1="27" x2="136" y1="448.8281" y2="448.8281"/><text fill="#000000" font-family="sans-serif" font-size="13" lengthAdjust="spacing" textLength="91" x="39" y="443.9717">&#23637;&#31034;&#31572;&#26696;&#19982;&#26469;&#28304;</text></g><?plantuml-src TTBFIm9150Vm-_uLWtVnxY5GGX2K3Alxf8k8iRliBaItBg9MsfPQWcciln92CqgIpVAVSMRT_wAtisghqMsPzvdll3UpEA6AClAObJxDVtWGLj2XmikSX6KrdKXBM52HXnIAvlEBfO-jHekHa2mAAYyaDrbSajD22WL5KILQ2NOm6yI9p1yQmeeQY8LH84mVYkH2Pp8Gvf9OnSTOuP4dUXRVZx1bzkMg4Et6obtJweWMXyGeCtF4ssFi1hVwxZpHlawQbt0KOv58bEFi-P1tPpq4ygF5TvbakzRzq6hLkFKwc6NpG69xyGFamrBQbn74qnC-cU9zMCbmAm6ODGfqFckGGSr9Mmn7vAlgLe7mEcqp2GfGNaq2oAnFvjCfCNgqVMw-jxXroRkAMSmgfDu4Hx9lz2v7zRPPoD7XU9a5umAYca4cFQSTSdlbTcRbaUOrEs9GuMozbRois6aRbm6BLCz369bMxJ-dqQM6zlzLRF5VkFKAx4ne5BpvMQRD1zTR06KFvqVajMfs32TpFYavX_y0?></g></svg>