<svg xmlns="http://www.w3.org/2000/svg" xmlns:xlink="http://www.w3.org/1999/xlink" contentStyleType="text/css" data-diagram-type="ACTIVITY" height="831px" preserveAspectRatio="none" style="width:366px;height:831px;background:#FFFFFF;" version="1.1" viewBox="0 0 366 831" width="366px" zoomAndPan="magnify"><?plantuml 1.2026.3?><defs/><g><ellipse cx="207.0883" cy="25" fill="#222222" rx="10" ry="10" style="stroke:#222222;stroke-width:1;"/><rect fill="#F1F1F1" height="35.0938" rx="12.5" ry="12.5" style="stroke:#181818;stroke-width:0.5;" width="68" x="173.0883" y="55"/><text fill="#000000" font-family="sans-serif" font-size="12" lengthAdjust="spacing" textLength="48" x="183.0883" y="77.457">&#20135;&#29983;&#21578;&#35686;</text><rect fill="#F1F1F1" height="35.0938" rx="12.5" ry="12.5" style="stroke:#181818;stroke-width:0.5;" width="92" x="161.0883" y="110.0938"/><text fill="#000000" font-family="sans-serif" font-size="12" lengthAdjust="spacing" textLength="72" x="171.0883" y="132.5508">&#26597;&#30475;&#21578;&#35686;&#35814;&#24773;</text><polygon fill="#F1F1F1" points="171.0294,165.1875,243.1471,165.1875,255.1471,177.1875,243.1471,189.1875,171.0294,189.1875,159.0294,177.1875,171.0294,165.1875" style="stroke:#181818;stroke-width:0.5;"/><text fill="#000000" font-family="sans-serif" font-size="11" lengthAdjust="spacing" textLength="72.1177" x="171.0294" y="181.6885">&#26159;&#21542;&#38656;&#35201;&#22788;&#29702;?</text><text fill="#000000" font-family="sans-serif" font-size="11" lengthAdjust="spacing" textLength="11" x="148.0294" y="174.7705">&#26159;</text><text fill="#000000" font-family="sans-serif" font-size="11" lengthAdjust="spacing" textLength="11" x="255.1471" y="174.7705">&#21542;</text><rect fill="#F1F1F1" height="35.0938" rx="12.5" ry="12.5" style="stroke:#181818;stroke-width:0.5;" width="68" x="86.0588" y="199.1875"/><text fill="#000000" font-family="sans-serif" font-size="12" lengthAdjust="spacing" textLength="48" x="96.0588" y="221.6445">&#36716;&#20026;&#24037;&#21333;</text><rect fill="#F1F1F1" height="35.0938" rx="12.5" ry="12.5" style="stroke:#181818;stroke-width:0.5;" width="80" x="80.0588" y="254.2813"/><text fill="#000000" font-family="sans-serif" font-size="12" lengthAdjust="spacing" textLength="60" x="90.0588" y="276.7383">&#25351;&#27966;&#22788;&#29702;&#20154;</text><rect fill="#F1F1F1" height="35.0938" rx="12.5" ry="12.5" style="stroke:#181818;stroke-width:0.5;" width="92" x="74.0588" y="309.375"/><text fill="#000000" font-family="sans-serif" font-size="12" lengthAdjust="spacing" textLength="72" x="84.0588" y="331.832">&#36816;&#32500;&#20154;&#21592;&#25509;&#21333;</text><rect fill="#F1F1F1" height="35.0938" rx="12.5" ry="12.5" style="stroke:#181818;stroke-width:0.5;" width="104" x="68.0588" y="364.4688"/><text fill="#000000" font-family="sans-serif" font-size="12" lengthAdjust="spacing" textLength="84" x="78.0588" y="386.9258">&#26597;&#30475;&#35774;&#22791;&#19982;&#26085;&#24535;</text><rect fill="#F1F1F1" height="35.0938" rx="12.5" ry="12.5" style="stroke:#181818;stroke-width:0.5;" width="103.3379" x="68.3899" y="419.5625"/><text fill="#000000" font-family="sans-serif" font-size="12" lengthAdjust="spacing" textLength="83.3379" x="78.3899" y="442.0195">&#35843;&#29992;AI&#25925;&#38556;&#35786;&#26029;</text><rect fill="#F1F1F1" height="35.0938" rx="12.5" ry="12.5" style="stroke:#181818;stroke-width:0.5;" width="104" x="68.0588" y="474.6563"/><text fill="#000000" font-family="sans-serif" font-size="12" lengthAdjust="spacing" textLength="84" x="78.0588" y="497.1133">&#25191;&#34892;&#25490;&#26597;&#21644;&#22788;&#29702;</text><rect fill="#F1F1F1" height="35.0938" rx="12.5" ry="12.5" style="stroke:#181818;stroke-width:0.5;" width="92" x="74.0588" y="529.75"/><text fill="#000000" font-family="sans-serif" font-size="12" lengthAdjust="spacing" textLength="72" x="84.0588" y="552.207">&#22635;&#20889;&#22788;&#29702;&#35760;&#24405;</text><polygon fill="#F1F1F1" points="84,584.8438,156.1177,584.8438,168.1177,596.8438,156.1177,608.8438,84,608.8438,72,596.8438,84,584.8438" style="stroke:#181818;stroke-width:0.5;"/><text fill="#000000" font-family="sans-serif" font-size="11" lengthAdjust="spacing" textLength="72.1177" x="84" y="601.3447">&#38382;&#39064;&#26159;&#21542;&#35299;&#20915;?</text><text fill="#000000" font-family="sans-serif" font-size="11" lengthAdjust="spacing" textLength="11" x="61" y="594.4268">&#26159;</text><text fill="#000000" font-family="sans-serif" font-size="11" lengthAdjust="spacing" textLength="11" x="168.1177" y="594.4268">&#21542;</text><rect fill="#F1F1F1" height="35.0938" rx="12.5" ry="12.5" style="stroke:#181818;stroke-width:0.5;" width="68" x="28" y="618.8438"/><text fill="#000000" font-family="sans-serif" font-size="12" lengthAdjust="spacing" textLength="48" x="38" y="641.3008">&#20851;&#38381;&#24037;&#21333;</text><rect fill="#F1F1F1" height="35.0938" rx="12.5" ry="12.5" style="stroke:#181818;stroke-width:0.5;" width="92" x="16" y="673.9375"/><text fill="#000000" font-family="sans-serif" font-size="12" lengthAdjust="spacing" textLength="72" x="26" y="696.3945">&#24402;&#26723;&#22788;&#29702;&#32463;&#39564;</text><rect fill="#F1F1F1" height="35.0938" rx="12.5" ry="12.5" style="stroke:#181818;stroke-width:0.5;" width="68" x="144.1177" y="618.8438"/><text fill="#000000" font-family="sans-serif" font-size="12" lengthAdjust="spacing" textLength="48" x="154.1177" y="641.3008">&#21319;&#32423;&#24037;&#21333;</text><polygon fill="#F1F1F1" points="120.0588,715.0313,132.0588,727.0313,120.0588,739.0313,108.0588,727.0313,120.0588,715.0313" style="stroke:#181818;stroke-width:0.5;"/><rect fill="#F1F1F1" height="35.0938" rx="12.5" ry="12.5" style="stroke:#181818;stroke-width:0.5;" width="104" x="242.1177" y="199.1875"/><text fill="#000000" font-family="sans-serif" font-size="12" lengthAdjust="spacing" textLength="84" x="252.1177" y="221.6445">&#24573;&#30053;&#25110;&#20851;&#38381;&#21578;&#35686;</text><polygon fill="#F1F1F1" points="207.0883,745.0313,219.0883,757.0313,207.0883,769.0313,195.0883,757.0313,207.0883,745.0313" style="stroke:#181818;stroke-width:0.5;"/><ellipse cx="207.0883" cy="800.0313" fill="none" rx="11" ry="11" style="stroke:#222222;stroke-width:1;"/><ellipse cx="207.0883" cy="800.0313" fill="#222222" rx="6" ry="6" style="stroke:#222222;stroke-width:1;"/><line style="stroke:#181818;stroke-width:1;" x1="207.0883" x2="207.0883" y1="35" y2="55"/><polygon fill="#181818" points="203.0883,45,207.0883,55,211.0883,45,207.0883,49" style="stroke:#181818;stroke-width:1;"/><line style="stroke:#181818;stroke-width:1;" x1="207.0883" x2="207.0883" y1="90.0938" y2="110.0938"/><polygon fill="#181818" points="203.0883,100.0938,207.0883,110.0938,211.0883,100.0938,207.0883,104.0938" style="stroke:#181818;stroke-width:1;"/><line style="stroke:#181818;stroke-width:1;" x1="120.0588" x2="120.0588" y1="234.2813" y2="254.2813"/><polygon fill="#181818" points="116.0588,244.2813,120.0588,254.2813,124.0588,244.2813,120.0588,248.2813" style="stroke:#181818;stroke-width:1;"/><line style="stroke:#181818;stroke-width:1;" x1="120.0588" x2="120.0588" y1="289.375" y2="309.375"/><polygon fill="#181818" points="116.0588,299.375,120.0588,309.375,124.0588,299.375,120.0588,303.375" style="stroke:#181818;stroke-width:1;"/><line style="stroke:#181818;stroke-width:1;" x1="120.0588" x2="120.0588" y1="344.4688" y2="364.4688"/><polygon fill="#181818" points="116.0588,354.4688,120.0588,364.4688,124.0588,354.4688,120.0588,358.4688" style="stroke:#181818;stroke-width:1;"/><line style="stroke:#181818;stroke-width:1;" x1="120.0588" x2="120.0588" y1="399.5625" y2="419.5625"/><polygon fill="#181818" points="116.0588,409.5625,120.0588,419.5625,124.0588,409.5625,120.0588,413.5625" style="stroke:#181818;stroke-width:1;"/><line style="stroke:#181818;stroke-width:1;" x1="120.0588" x2="120.0588" y1="454.6563" y2="474.6563"/><polygon fill="#181818" points="116.0588,464.6563,120.0588,474.6563,124.0588,464.6563,120.0588,468.6563" style="stroke:#181818;stroke-width:1;"/><line style="stroke:#181818;stroke-width:1;" x1="120.0588" x2="120.0588" y1="509.75" y2="529.75"/><polygon fill="#181818" points="116.0588,519.75,120.0588,529.75,124.0588,519.75,120.0588,523.75" style="stroke:#181818;stroke-width:1;"/><line style="stroke:#181818;stroke-width:1;" x1="62" x2="62" y1="653.9375" y2="673.9375"/><polygon fill="#181818" points="58,663.9375,62,673.9375,66,663.9375,62,667.9375" style="stroke:#181818;stroke-width:1;"/><line style="stroke:#181818;stroke-width:1;" x1="72" x2="62" y1="596.8438" y2="596.8438"/><line style="stroke:#181818;stroke-width:1;" x1="62" x2="62" y1="596.8438" y2="618.8438"/><polygon fill="#181818" points="58,608.8438,62,618.8438,66,608.8438,62,612.8438" style="stroke:#181818;stroke-width:1;"/><line style="stroke:#181818;stroke-width:1;" x1="168.1177" x2="178.1177" y1="596.8438" y2="596.8438"/><line style="stroke:#181818;stroke-width:1;" x1="178.1177" x2="178.1177" y1="596.8438" y2="618.8438"/><polygon fill="#181818" points="174.1177,608.8438,178.1177,618.8438,182.1177,608.8438,178.1177,612.8438" style="stroke:#181818;stroke-width:1;"/><line style="stroke:#181818;stroke-width:1;" x1="62" x2="62" y1="709.0313" y2="727.0313"/><line style="stroke:#181818;stroke-width:1;" x1="62" x2="108.0588" y1="727.0313" y2="727.0313"/><polygon fill="#181818" points="98.0588,723.0313,108.0588,727.0313,98.0588,731.0313,102.0588,727.0313" style="stroke:#181818;stroke-width:1;"/><line style="stroke:#181818;stroke-width:1;" x1="178.1177" x2="178.1177" y1="653.9375" y2="727.0313"/><line style="stroke:#181818;stroke-width:1;" x1="178.1177" x2="132.0588" y1="727.0313" y2="727.0313"/><polygon fill="#181818" points="142.0588,723.0313,132.0588,727.0313,142.0588,731.0313,138.0588,727.0313" style="stroke:#181818;stroke-width:1;"/><line style="stroke:#181818;stroke-width:1;" x1="120.0588" x2="120.0588" y1="564.8438" y2="584.8438"/><polygon fill="#181818" points="116.0588,574.8438,120.0588,584.8438,124.0588,574.8438,120.0588,578.8438" style="stroke:#181818;stroke-width:1;"/><line style="stroke:#181818;stroke-width:1;" x1="159.0294" x2="120.0588" y1="177.1875" y2="177.1875"/><line style="stroke:#181818;stroke-width:1;" x1="120.0588" x2="120.0588" y1="177.1875" y2="199.1875"/><polygon fill="#181818" points="116.0588,189.1875,120.0588,199.1875,124.0588,189.1875,120.0588,193.1875" style="stroke:#181818;stroke-width:1;"/><line style="stroke:#181818;stroke-width:1;" x1="255.1471" x2="294.1177" y1="177.1875" y2="177.1875"/><line style="stroke:#181818;stroke-width:1;" x1="294.1177" x2="294.1177" y1="177.1875" y2="199.1875"/><polygon fill="#181818" points="290.1177,189.1875,294.1177,199.1875,298.1177,189.1875,294.1177,193.1875" style="stroke:#181818;stroke-width:1;"/><line style="stroke:#181818;stroke-width:1;" x1="120.0588" x2="120.0588" y1="739.0313" y2="757.0313"/><line style="stroke:#181818;stroke-width:1;" x1="120.0588" x2="195.0883" y1="757.0313" y2="757.0313"/><polygon fill="#181818" points="185.0883,753.0313,195.0883,757.0313,185.0883,761.0313,189.0883,757.0313" style="stroke:#181818;stroke-width:1;"/><line style="stroke:#181818;stroke-width:1;" x1="294.1177" x2="294.1177" y1="234.2813" y2="757.0313"/><line style="stroke:#181818;stroke-width:1;" x1="294.1177" x2="219.0883" y1="757.0313" y2="757.0313"/><polygon fill="#181818" points="229.0883,753.0313,219.0883,757.0313,229.0883,761.0313,225.0883,757.0313" style="stroke:#181818;stroke-width:1;"/><line style="stroke:#181818;stroke-width:1;" x1="207.0883" x2="207.0883" y1="145.1875" y2="165.1875"/><polygon fill="#181818" points="203.0883,155.1875,207.0883,165.1875,211.0883,155.1875,207.0883,159.1875" style="stroke:#181818;stroke-width:1;"/><line style="stroke:#181818;stroke-width:1;" x1="207.0883" x2="207.0883" y1="769.0313" y2="789.0313"/><polygon fill="#181818" points="203.0883,779.0313,207.0883,789.0313,211.0883,779.0313,207.0883,783.0313" style="stroke:#181818;stroke-width:1;"/><?plantuml-src NP1FJeDW4CNtd89bUmLO69SUmqGQcvXgX0DeAg2L8YMbe25fi096XJPfapOqo6MOxyyj1BuQeijvytxpyaPMJgyLJYYp64_dC1cH918v0Sr3x3-oaImZD5H5hj_ZEyXRWXLH_uP4j_1sXotjgCihvzAWMNKvdXT8_bNkCjY6C7R4Ma26ZZRVp5rcMQEHmiBxJJN1n4DcQsrYILgvzN9d8ZU4mcN0QeYdxySdo57fYq-M8pHB6F8Gay10fbsnO1iifjb0y0dQCnD8keAyoQXRK3UbhnxhGk85QEl_BMfSNLCtQNlKKcwZOC4kulqJ_J3gXNGXItodElKBZdMSnIqe3SxwFUwFIu0Ynqw8xcU7bCFVcLLMBgz-0000?></g></svg>