<svg xmlns="http://www.w3.org/2000/svg" xmlns:xlink="http://www.w3.org/1999/xlink" contentStyleType="text/css" data-diagram-type="DESCRIPTION" height="633px" preserveAspectRatio="none" style="width:1796px;height:633px;background:#FFFFFF;" version="1.1" viewBox="0 0 1796 633" width="1796px" zoomAndPan="magnify"><?plantuml 1.2026.3?><defs/><g><!--cluster ?????--><g class="cluster" data-qualified-name="....." data-source-line="4" id="ent0002"><path d="M8.5,6 L81.6875,6 A3.75,3.75 0 0 1 84.1875,8.5 L91.1875,29.6094 L306.5,29.6094 A2.5,2.5 0 0 1 309,32.1094 L309,190.72 A2.5,2.5 0 0 1 306.5,193.22 L8.5,193.22 A2.5,2.5 0 0 1 6,190.72 L6,8.5 A2.5,2.5 0 0 1 8.5,6" fill="none" style="stroke:#000000;stroke-width:1.5;"/><line style="stroke:#000000;stroke-width:1.5;" x1="6" x2="91.1875" y1="29.6094" y2="29.6094"/><text fill="#000000" font-family="sans-serif" font-size="14" font-weight="700" lengthAdjust="spacing" textLength="72.1875" x="10" y="22.5332">&#21069;&#31471;&#23637;&#31034;&#23618;</text></g><!--cluster Spring Boot ???--><g class="cluster" data-qualified-name="Spring Boot ..." data-source-line="10" id="ent0006"><path d="M527.5,103.61 L655.7988,103.61 A3.75,3.75 0 0 1 658.2988,106.11 L665.2988,127.2194 L1103.5,127.2194 A2.5,2.5 0 0 1 1106,129.7194 L1106,399.44 A2.5,2.5 0 0 1 1103.5,401.94 L527.5,401.94 A2.5,2.5 0 0 1 525,399.44 L525,106.11 A2.5,2.5 0 0 1 527.5,103.61" fill="none" style="stroke:#000000;stroke-width:1.5;"/><line style="stroke:#000000;stroke-width:1.5;" x1="525" x2="665.2988" y1="127.2194" y2="127.2194"/><text fill="#000000" font-family="sans-serif" font-size="14" font-weight="700" lengthAdjust="spacing" textLength="127.2988" x="529" y="120.1432">Spring Boot &#19994;&#21153;&#23618;</text></g><!--cluster ?????--><g class="cluster" data-qualified-name="....." data-source-line="21" id="ent0015"><path d="M487.5,425.94 L560.6875,425.94 A3.75,3.75 0 0 1 563.1875,428.44 L570.1875,449.5494 L990.5,449.5494 A2.5,2.5 0 0 1 993,452.0494 L993,615.66 A2.5,2.5 0 0 1 990.5,618.16 L487.5,618.16 A2.5,2.5 0 0 1 485,615.66 L485,428.44 A2.5,2.5 0 0 1 487.5,425.94" fill="none" style="stroke:#000000;stroke-width:1.5;"/><line style="stroke:#000000;stroke-width:1.5;" x1="485" x2="570.1875" y1="449.5494" y2="449.5494"/><text fill="#000000" font-family="sans-serif" font-size="14" font-weight="700" lengthAdjust="spacing" textLength="72.1875" x="489" y="442.4732">&#30417;&#25511;&#37319;&#38598;&#23618;</text></g><!--cluster AI ???--><g class="cluster" data-qualified-name="AI ..." data-source-line="28" id="ent0020"><path d="M1132.5,312.33 L1194.7021,312.33 A3.75,3.75 0 0 1 1197.2021,314.83 L1204.2021,335.9394 L1686.5,335.9394 A2.5,2.5 0 0 1 1689,338.4394 L1689,513.05 A2.5,2.5 0 0 1 1686.5,515.55 L1132.5,515.55 A2.5,2.5 0 0 1 1130,513.05 L1130,314.83 A2.5,2.5 0 0 1 1132.5,312.33" fill="none" style="stroke:#000000;stroke-width:1.5;"/><line style="stroke:#000000;stroke-width:1.5;" x1="1130" x2="1204.2021" y1="335.9394" y2="335.9394"/><text fill="#000000" font-family="sans-serif" font-size="14" font-weight="700" lengthAdjust="spacing" textLength="61.2021" x="1134" y="328.8632">AI &#26381;&#21153;&#23618;</text></g><!--entity Vue--><g class="entity" data-qualified-name="......Vue" data-source-line="5" id="ent0003"><rect fill="#F1F1F1" height="37.6094" rx="2.5" ry="2.5" style="stroke:#181818;stroke-width:0.5;" width="126.5859" x="166.71" y="42"/><text fill="#000000" font-family="sans-serif" font-size="14" lengthAdjust="spacing" textLength="106.5859" x="176.71" y="66.5332">Vue3 &#36816;&#32500;&#25511;&#21046;&#21488;</text></g><!--entity Element--><g class="entity" data-qualified-name="......Element" data-source-line="6" id="ent0004"><rect fill="#F1F1F1" height="37.6094" rx="2.5" ry="2.5" style="stroke:#181818;stroke-width:0.5;" width="134.3721" x="158.81" y="139.61"/><text fill="#000000" font-family="sans-serif" font-size="14" lengthAdjust="spacing" textLength="114.3721" x="168.81" y="164.1432">Element Plus &#32452;&#20214;</text></g><!--entity ECharts--><g class="entity" data-qualified-name="......ECharts" data-source-line="7" id="ent0005"><rect fill="#F1F1F1" height="37.6094" rx="2.5" ry="2.5" style="stroke:#181818;stroke-width:0.5;" width="102.4619" x="21.77" y="139.61"/><text fill="#000000" font-family="sans-serif" font-size="14" lengthAdjust="spacing" textLength="82.4619" x="31.77" y="164.1432">ECharts &#22270;&#34920;</text></g><!--entity Auth--><g class="entity" data-qualified-name="Spring Boot ....Auth" data-source-line="11" id="ent0007"><rect fill="#F1F1F1" height="37.6094" rx="2.5" ry="2.5" style="stroke:#181818;stroke-width:0.5;" width="104" x="847" y="139.61"/><text fill="#000000" font-family="sans-serif" font-size="14" lengthAdjust="spacing" textLength="84" x="857" y="164.1432">&#35748;&#35777;&#26435;&#38480;&#27169;&#22359;</text></g><!--entity Device--><g class="entity" data-qualified-name="Spring Boot ....Device" data-source-line="12" id="ent0008"><rect fill="#F1F1F1" height="37.6094" rx="2.5" ry="2.5" style="stroke:#181818;stroke-width:0.5;" width="104" x="986" y="139.61"/><text fill="#000000" font-family="sans-serif" font-size="14" lengthAdjust="spacing" textLength="84" x="996" y="164.1432">&#35774;&#22791;&#36164;&#20135;&#27169;&#22359;</text></g><!--entity Target--><g class="entity" data-qualified-name="Spring Boot ....Target" data-source-line="13" id="ent0009"><rect fill="#F1F1F1" height="37.6094" rx="2.5" ry="2.5" style="stroke:#181818;stroke-width:0.5;" width="104" x="541" y="241.72"/><text fill="#000000" font-family="sans-serif" font-size="14" lengthAdjust="spacing" textLength="84" x="551" y="266.2532">&#30417;&#25511;&#30446;&#26631;&#27169;&#22359;</text></g><!--entity MetricAdapter--><g class="entity" data-qualified-name="Spring Boot ....MetricAdapter" data-source-line="14" id="ent0010"><rect fill="#F1F1F1" height="37.6094" rx="2.5" ry="2.5" style="stroke:#181818;stroke-width:0.5;" width="118" x="654" y="348.33"/><text fill="#000000" font-family="sans-serif" font-size="14" lengthAdjust="spacing" textLength="98" x="664" y="372.8632">&#25351;&#26631;&#26597;&#35810;&#36866;&#37197;&#22120;</text></g><!--entity Alarm--><g class="entity" data-qualified-name="Spring Boot ....Alarm" data-source-line="15" id="ent0011"><rect fill="#F1F1F1" height="37.6094" rx="2.5" ry="2.5" style="stroke:#181818;stroke-width:0.5;" width="104" x="823" y="241.72"/><text fill="#000000" font-family="sans-serif" font-size="14" lengthAdjust="spacing" textLength="84" x="833" y="266.2532">&#21578;&#35686;&#20013;&#24515;&#27169;&#22359;</text></g><!--entity Ticket--><g class="entity" data-qualified-name="Spring Boot ....Ticket" data-source-line="16" id="ent0012"><rect fill="#F1F1F1" height="37.6094" rx="2.5" ry="2.5" style="stroke:#181818;stroke-width:0.5;" width="104" x="708" y="139.61"/><text fill="#000000" font-family="sans-serif" font-size="14" lengthAdjust="spacing" textLength="84" x="718" y="164.1432">&#24037;&#21333;&#31649;&#29702;&#27169;&#22359;</text></g><!--entity Knowledge--><g class="entity" data-qualified-name="Spring Boot ....Knowledge" data-source-line="17" id="ent0013"><rect fill="#F1F1F1" height="37.6094" rx="2.5" ry="2.5" style="stroke:#181818;stroke-width:0.5;" width="132" x="541" y="139.61"/><text fill="#000000" font-family="sans-serif" font-size="14" lengthAdjust="spacing" textLength="112" x="551" y="164.1432">&#30693;&#35782;&#24211;&#20803;&#25968;&#25454;&#27169;&#22359;</text></g><!--entity AiClient--><g class="entity" data-qualified-name="Spring Boot ....AiClient" data-source-line="18" id="ent0014"><rect fill="#F1F1F1" height="37.6094" rx="2.5" ry="2.5" style="stroke:#181818;stroke-width:0.5;" width="107.1172" x="680.44" y="241.72"/><text fill="#000000" font-family="sans-serif" font-size="14" lengthAdjust="spacing" textLength="87.1172" x="690.44" y="266.2532">AI &#35786;&#26029;&#23458;&#25143;&#31471;</text></g><!--entity Prometheus--><g class="entity" data-qualified-name="......Prometheus" data-source-line="22" id="ent0016"><rect fill="#F1F1F1" height="37.6094" rx="2.5" ry="2.5" style="stroke:#181818;stroke-width:0.5;" width="95.4824" x="665.26" y="461.94"/><text fill="#000000" font-family="sans-serif" font-size="14" lengthAdjust="spacing" textLength="75.4824" x="675.26" y="486.4732">Prometheus</text></g><!--entity NodeExporter--><g class="entity" data-qualified-name="......NodeExporter" data-source-line="23" id="ent0017"><rect fill="#F1F1F1" height="37.6094" rx="2.5" ry="2.5" style="stroke:#181818;stroke-width:0.5;" width="110.2891" x="500.86" y="564.55"/><text fill="#000000" font-family="sans-serif" font-size="14" lengthAdjust="spacing" textLength="90.2891" x="510.86" y="589.0832">node_exporter</text></g><!--entity Blackbox--><g class="entity" data-qualified-name="......Blackbox" data-source-line="24" id="ent0018"><rect fill="#F1F1F1" height="37.6094" rx="2.5" ry="2.5" style="stroke:#181818;stroke-width:0.5;" width="133.6064" x="646.2" y="564.55"/><text fill="#000000" font-family="sans-serif" font-size="14" lengthAdjust="spacing" textLength="113.6064" x="656.2" y="589.0832">Blackbox Exporter</text></g><!--entity SnmpSim--><g class="entity" data-qualified-name="......SnmpSim" data-source-line="25" id="ent0019"><rect fill="#F1F1F1" height="37.6094" rx="2.5" ry="2.5" style="stroke:#181818;stroke-width:0.5;" width="162.3379" x="814.83" y="564.55"/><text fill="#000000" font-family="sans-serif" font-size="14" lengthAdjust="spacing" textLength="142.3379" x="824.83" y="589.0832">SNMP/&#32593;&#32476;&#35774;&#22791;&#27169;&#25311;&#22120;</text></g><!--entity FastAPI--><g class="entity" data-qualified-name="AI ....FastAPI" data-source-line="29" id="ent0021"><rect fill="#F1F1F1" height="37.6094" rx="2.5" ry="2.5" style="stroke:#181818;stroke-width:0.5;" width="101.6826" x="1286.16" y="348.33"/><text fill="#000000" font-family="sans-serif" font-size="14" lengthAdjust="spacing" textLength="81.6826" x="1296.16" y="372.8632">FastAPI &#26381;&#21153;</text></g><!--entity LogAnalyzer--><g class="entity" data-qualified-name="AI ....LogAnalyzer" data-source-line="30" id="ent0022"><rect fill="#F1F1F1" height="37.6094" rx="2.5" ry="2.5" style="stroke:#181818;stroke-width:0.5;" width="104" x="1146" y="461.94"/><text fill="#000000" font-family="sans-serif" font-size="14" lengthAdjust="spacing" textLength="84" x="1156" y="486.4732">&#26085;&#24535;&#20998;&#26512;&#26381;&#21153;</text></g><!--entity Diagnosis--><g class="entity" data-qualified-name="AI ....Diagnosis" data-source-line="31" id="ent0023"><rect fill="#F1F1F1" height="37.6094" rx="2.5" ry="2.5" style="stroke:#181818;stroke-width:0.5;" width="104" x="1285" y="461.94"/><text fill="#000000" font-family="sans-serif" font-size="14" lengthAdjust="spacing" textLength="84" x="1295" y="486.4732">&#25925;&#38556;&#35786;&#26029;&#26381;&#21153;</text></g><!--entity Rag--><g class="entity" data-qualified-name="AI ....Rag" data-source-line="32" id="ent0024"><rect fill="#F1F1F1" height="37.6094" rx="2.5" ry="2.5" style="stroke:#181818;stroke-width:0.5;" width="110.2275" x="1423.89" y="461.94"/><text fill="#000000" font-family="sans-serif" font-size="14" lengthAdjust="spacing" textLength="90.2275" x="1433.89" y="486.4732">RAG &#26816;&#32034;&#26381;&#21153;</text></g><!--entity Parser--><g class="entity" data-qualified-name="AI ....Parser" data-source-line="33" id="ent0025"><rect fill="#F1F1F1" height="37.6094" rx="2.5" ry="2.5" style="stroke:#181818;stroke-width:0.5;" width="104" x="1569" y="461.94"/><text fill="#000000" font-family="sans-serif" font-size="14" lengthAdjust="spacing" textLength="84" x="1579" y="486.4732">&#25991;&#26723;&#35299;&#26512;&#26381;&#21153;</text></g><!--entity MySQL--><g class="entity" data-qualified-name="MySQL" data-source-line="36" id="ent0026"><path d="M1704.66,353.83 C1704.66,343.83 1737.9979,343.83 1737.9979,343.83 C1737.9979,343.83 1771.3358,343.83 1771.3358,353.83 L1771.3358,380.4394 C1771.3358,390.4394 1737.9979,390.4394 1737.9979,390.4394 C1737.9979,390.4394 1704.66,390.4394 1704.66,380.4394 L1704.66,353.83" fill="#F1F1F1" style="stroke:#181818;stroke-width:0.5;"/><path d="M1704.66,353.83 C1704.66,363.83 1737.9979,363.83 1737.9979,363.83 C1737.9979,363.83 1771.3358,363.83 1771.3358,353.83" fill="none" style="stroke:#181818;stroke-width:0.5;"/><text fill="#000000" font-family="sans-serif" font-size="14" lengthAdjust="spacing" textLength="46.6758" x="1714.66" y="382.3632">MySQL</text></g><!--entity Redis--><g class="entity" data-qualified-name="Redis" data-source-line="37" id="ent0027"><path d="M1175.1,247.22 C1175.1,237.22 1202.9965,237.22 1202.9965,237.22 C1202.9965,237.22 1230.893,237.22 1230.893,247.22 L1230.893,273.8294 C1230.893,283.8294 1202.9965,283.8294 1202.9965,283.8294 C1202.9965,283.8294 1175.1,283.8294 1175.1,273.8294 L1175.1,247.22" fill="#F1F1F1" style="stroke:#181818;stroke-width:0.5;"/><path d="M1175.1,247.22 C1175.1,257.22 1202.9965,257.22 1202.9965,257.22 C1202.9965,257.22 1230.893,257.22 1230.893,247.22" fill="none" style="stroke:#181818;stroke-width:0.5;"/><text fill="#000000" font-family="sans-serif" font-size="14" lengthAdjust="spacing" textLength="35.793" x="1185.1" y="275.7532">Redis</text></g><!--entity VectorDB--><g class="entity" data-qualified-name="VectorDB" data-source-line="38" id="ent0028"><path d="M1508.1,570.05 C1508.1,560.05 1549.9999,560.05 1549.9999,560.05 C1549.9999,560.05 1591.8998,560.05 1591.8998,570.05 L1591.8998,596.6594 C1591.8998,606.6594 1549.9999,606.6594 1549.9999,606.6594 C1549.9999,606.6594 1508.1,606.6594 1508.1,596.6594 L1508.1,570.05" fill="#F1F1F1" style="stroke:#181818;stroke-width:0.5;"/><path d="M1508.1,570.05 C1508.1,580.05 1549.9999,580.05 1549.9999,580.05 C1549.9999,580.05 1591.8998,580.05 1591.8998,570.05" fill="none" style="stroke:#181818;stroke-width:0.5;"/><text fill="#000000" font-family="sans-serif" font-size="14" lengthAdjust="spacing" textLength="63.7998" x="1518.1" y="598.5832">Vector DB</text></g><!--entity LLM--><g class="entity" data-qualified-name="LLM" data-source-line="39" id="ent0029"><path d="M1296.7341,569.7317 C1298.6287,562.7925 1305.2367,562.5547 1309.5365,567.0354 C1313.1447,558.8499 1318.447,558.1488 1324.18,564.9608 C1327.5321,557.8508 1333.5667,558.0248 1337.6281,564.2453 C1342.5515,557.406 1347.5791,557.0542 1352.6266,564.1113 C1357.7005,559.3004 1363.0202,559.7404 1365.1332,567.1433 C1370.2422,560.6447 1374.9591,561.9844 1378.584,568.6587 C1387.3107,569.6158 1390.6806,576.0993 1386.5338,583.8107 C1392.8152,592.1386 1388.7871,597.5706 1379.9215,599.5248 C1377.313,606.9413 1370.0361,609.6792 1364.7645,602.2424 C1362.3122,608.5625 1356.6255,610.2583 1352.36,604.0356 C1349.1876,610.7038 1343.0495,613.3901 1337.6142,606.4961 C1333.2144,613.1839 1328.8378,611.951 1324.9577,605.9765 C1318.9867,612.9254 1313.6913,610.4845 1310.1876,603.3828 C1304.4329,608.8458 1299.4783,607.6094 1297.4267,599.8176 C1288.9902,598.3578 1285.7379,593.0025 1289.9315,585.1073 C1285.0553,577.3642 1287.0036,571.0123 1296.7341,569.7317" fill="#F1F1F1" style="stroke:#181818;stroke-width:0.5;"/><text fill="#000000" font-family="sans-serif" font-size="14" lengthAdjust="spacing" textLength="68.4551" x="1302.77" y="589.0832">&#22823;&#27169;&#22411; API</text></g><!--link Vue to Element--><g class="link" data-entity-1="ent0003" data-entity-2="ent0004" data-link-type="dependency" data-source-line="41" id="lnk30"><path d="M229.95,80.09 C229.95,97.21 229.95,116.07 229.95,133.17" fill="none" id="Vue-to-Element" style="stroke:#181818;stroke-width:1;"/><polygon fill="#181818" points="229.95,139.17,233.95,130.17,229.95,134.17,225.95,130.17,229.95,139.17" style="stroke:#181818;stroke-width:1;"/></g><!--link Vue to ECharts--><g class="link" data-entity-1="ent0003" data-entity-2="ent0005" data-link-type="dependency" data-source-line="42" id="lnk31"><path d="M166.59,61.16 C123.02,61.16 73,61.16 73,61.16 C73,61.16 73,104.86 73,133.2" fill="none" id="Vue-to-ECharts" style="stroke:#181818;stroke-width:1;"/><polygon fill="#181818" points="73,139.2,77,130.2,73,134.2,69,130.2,73,139.2" style="stroke:#181818;stroke-width:1;"/></g><!--link Vue to Auth--><g class="link" data-entity-1="ent0003" data-entity-2="ent0007" data-link-type="dependency" data-source-line="43" id="lnk32"><path d="M293.54,51.16 C460.53,51.16 899,51.16 899,51.16 C899,51.16 899,102.39 899,133.24" fill="none" id="Vue-to-Auth" style="stroke:#181818;stroke-width:1;"/><polygon fill="#181818" points="899,139.24,903,130.24,899,134.24,895,130.24,899,139.24" style="stroke:#181818;stroke-width:1;"/><text fill="#000000" font-family="sans-serif" font-size="13" lengthAdjust="spacing" textLength="34.6709" x="605.31" y="47.6551">REST</text></g><!--link Vue to Device--><g class="link" data-entity-1="ent0003" data-entity-2="ent0008" data-link-type="dependency" data-source-line="44" id="lnk33"><path d="M293.74,47.16 C484.53,47.16 1038,47.16 1038,47.16 C1038,47.16 1038,101.48 1038,133.29" fill="none" id="Vue-to-Device" style="stroke:#181818;stroke-width:1;"/><polygon fill="#181818" points="1038,139.29,1042,130.29,1038,134.29,1034,130.29,1038,139.29" style="stroke:#181818;stroke-width:1;"/><text fill="#000000" font-family="sans-serif" font-size="13" lengthAdjust="spacing" textLength="34.6709" x="676.94" y="43.6551">REST</text></g><!--link Vue to Target--><g class="link" data-entity-1="ent0003" data-entity-2="ent0009" data-link-type="dependency" data-source-line="45" id="lnk34"><path d="M293.49,75.16 C379.09,75.16 520.93,75.16 520.93,75.16 C520.93,75.16 520.93,260.16 520.93,260.16 C520.93,260.16 523.44,260.16 534.62,260.16" fill="none" id="Vue-to-Target" style="stroke:#181818;stroke-width:1;"/><polygon fill="#181818" points="540.62,260.16,531.62,256.16,535.62,260.16,531.62,264.16,540.62,260.16" style="stroke:#181818;stroke-width:1;"/><text fill="#000000" font-family="sans-serif" font-size="13" lengthAdjust="spacing" textLength="34.6709" x="474.55" y="89.6551">REST</text></g><!--link Vue to Alarm--><g class="link" data-entity-1="ent0003" data-entity-2="ent0011" data-link-type="dependency" data-source-line="46" id="lnk35"><path d="M293.74,56.16 C449.91,56.16 839,56.16 839,56.16 C839,56.16 839,184.43 839,235.3" fill="none" id="Vue-to-Alarm" style="stroke:#181818;stroke-width:1;"/><polygon fill="#181818" points="839,241.3,843,232.3,839,236.3,835,232.3,839,241.3" style="stroke:#181818;stroke-width:1;"/><text fill="#000000" font-family="sans-serif" font-size="13" lengthAdjust="spacing" textLength="34.6709" x="623.94" y="70.6551">REST</text></g><!--link Vue to Ticket--><g class="link" data-entity-1="ent0003" data-entity-2="ent0012" data-link-type="dependency" data-source-line="47" id="lnk36"><path d="M293.67,61.16 C434.49,61.16 760,61.16 760,61.16 C760,61.16 760,104.86 760,133.2" fill="none" id="Vue-to-Ticket" style="stroke:#181818;stroke-width:1;"/><polygon fill="#181818" points="760,139.2,764,130.2,760,134.2,756,130.2,760,139.2" style="stroke:#181818;stroke-width:1;"/><text fill="#000000" font-family="sans-serif" font-size="13" lengthAdjust="spacing" textLength="34.6709" x="530.85" y="57.6551">REST</text></g><!--link Vue to Knowledge--><g class="link" data-entity-1="ent0003" data-entity-2="ent0013" data-link-type="dependency" data-source-line="48" id="lnk37"><path d="M293.53,70.16 C400.97,70.16 607,70.16 607,70.16 C607,70.16 607,107.31 607,133.27" fill="none" id="Vue-to-Knowledge" style="stroke:#181818;stroke-width:1;"/><polygon fill="#181818" points="607,139.27,611,130.27,607,134.27,603,130.27,607,139.27" style="stroke:#181818;stroke-width:1;"/><text fill="#000000" font-family="sans-serif" font-size="13" lengthAdjust="spacing" textLength="34.6709" x="449.82" y="66.6551">REST</text></g><!--link Vue to AiClient--><g class="link" data-entity-1="ent0003" data-entity-2="ent0014" data-link-type="dependency" data-source-line="49" id="lnk38"><path d="M293.57,65.16 C420.71,65.16 694.22,65.16 694.22,65.16 C694.22,65.16 694.22,186.28 694.22,235.44" fill="none" id="Vue-to-AiClient" style="stroke:#181818;stroke-width:1;"/><polygon fill="#181818" points="694.22,241.44,698.22,232.44,694.22,236.44,690.22,232.44,694.22,241.44" style="stroke:#181818;stroke-width:1;"/><text fill="#000000" font-family="sans-serif" font-size="13" lengthAdjust="spacing" textLength="34.6709" x="547.04" y="79.6551">REST</text></g><!--link Auth to MySQL--><g class="link" data-entity-1="ent0007" data-entity-2="ent0026" data-link-type="dependency" data-source-line="51" id="lnk39"><path d="M935,177.58 C935,215 935,294.16 935,294.16 C935,294.16 1752.29,294.16 1752.29,294.16 C1752.29,294.16 1752.29,316.31 1752.29,337.64" fill="none" id="Auth-to-MySQL" style="stroke:#181818;stroke-width:1;"/><polygon fill="#181818" points="1752.29,343.64,1756.29,334.64,1752.29,338.64,1748.29,334.64,1752.29,343.64" style="stroke:#181818;stroke-width:1;"/></g><!--link Auth to Redis--><g class="link" data-entity-1="ent0007" data-entity-2="ent0027" data-link-type="dependency" data-source-line="52" id="lnk40"><path d="M943,177.55 C943,207.03 943,260.16 943,260.16 C943,260.16 1101.29,260.16 1168.68,260.16" fill="none" id="Auth-to-Redis" style="stroke:#181818;stroke-width:1;"/><polygon fill="#181818" points="1174.68,260.16,1165.68,256.16,1169.68,260.16,1165.68,264.16,1174.68,260.16" style="stroke:#181818;stroke-width:1;"/></g><!--link Device to MySQL--><g class="link" data-entity-1="ent0008" data-entity-2="ent0026" data-link-type="dependency" data-source-line="53" id="lnk41"><path d="M1090.35,158.16 C1256.61,158.16 1761.81,158.16 1761.81,158.16 C1761.81,158.16 1761.81,282.92 1761.81,337.57" fill="none" id="Device-to-MySQL" style="stroke:#181818;stroke-width:1;"/><polygon fill="#181818" points="1761.81,343.57,1765.81,334.57,1761.81,338.57,1757.81,334.57,1761.81,343.57" style="stroke:#181818;stroke-width:1;"/></g><!--link Target to MySQL--><g class="link" data-entity-1="ent0009" data-entity-2="ent0026" data-link-type="dependency" data-source-line="54" id="lnk42"><path d="M628.07,279.49 C628.07,301.31 628.07,334.16 628.07,334.16 C628.07,334.16 1714.19,334.16 1714.19,334.16 C1714.19,334.16 1714.19,332.24 1714.19,337.52" fill="none" id="Target-to-MySQL" style="stroke:#181818;stroke-width:1;"/><polygon fill="#181818" points="1714.19,343.52,1718.19,334.52,1714.19,338.52,1710.19,334.52,1714.19,343.52" style="stroke:#181818;stroke-width:1;"/></g><!--link Target to MetricAdapter--><g class="link" data-entity-1="ent0009" data-entity-2="ent0010" data-link-type="dependency" data-source-line="55" id="lnk43"><path d="M645.44,267.16 C653.26,267.16 658.75,267.16 658.75,267.16 C658.75,267.16 658.75,312.81 658.75,341.86" fill="none" id="Target-to-MetricAdapter" style="stroke:#181818;stroke-width:1;"/><polygon fill="#181818" points="658.75,347.86,662.75,338.86,658.75,342.86,654.75,338.86,658.75,347.86" style="stroke:#181818;stroke-width:1;"/></g><!--link MetricAdapter to Prometheus--><g class="link" data-entity-1="ent0010" data-entity-2="ent0016" data-link-type="dependency" data-source-line="56" id="lnk44"><path d="M713,386.41 C713,407.43 713,434.85 713,455.76" fill="none" id="MetricAdapter-to-Prometheus" style="stroke:#181818;stroke-width:1;"/><polygon fill="#181818" points="713,461.76,717,452.76,713,456.76,709,452.76,713,461.76" style="stroke:#181818;stroke-width:1;"/><text fill="#000000" font-family="sans-serif" font-size="13" lengthAdjust="spacing" textLength="58.5063" x="654" y="420.5751">HTTP API</text></g><!--link Alarm to MySQL--><g class="link" data-entity-1="ent0011" data-entity-2="ent0026" data-link-type="dependency" data-source-line="57" id="lnk45"><path d="M892.33,279.79 C892.33,291.48 892.33,304.16 892.33,304.16 C892.33,304.16 1742.76,304.16 1742.76,304.16 C1742.76,304.16 1742.76,319.78 1742.76,337.69" fill="none" id="Alarm-to-MySQL" style="stroke:#181818;stroke-width:1;"/><polygon fill="#181818" points="1742.76,343.69,1746.76,334.69,1742.76,338.69,1738.76,334.69,1742.76,343.69" style="stroke:#181818;stroke-width:1;"/></g><!--link Alarm to MetricAdapter--><g class="link" data-entity-1="ent0011" data-entity-2="ent0010" data-link-type="dependency" data-source-line="58" id="lnk46"><path d="M857.67,279.59 C857.67,310.26 857.67,367.16 857.67,367.16 C857.67,367.16 818.21,367.16 778.26,367.16" fill="none" id="Alarm-to-MetricAdapter" style="stroke:#181818;stroke-width:1;"/><polygon fill="#181818" points="772.26,367.16,781.26,371.16,777.26,367.16,781.26,363.16,772.26,367.16" style="stroke:#181818;stroke-width:1;"/></g><!--link Ticket to MySQL--><g class="link" data-entity-1="ent0012" data-entity-2="ent0026" data-link-type="dependency" data-source-line="59" id="lnk47"><path d="M799.78,177.51 C799.78,219.1 799.78,314.16 799.78,314.16 C799.78,314.16 1733.24,314.16 1733.24,314.16 C1733.24,314.16 1733.24,323.33 1733.24,337.44" fill="none" id="Ticket-to-MySQL" style="stroke:#181818;stroke-width:1;"/><polygon fill="#181818" points="1733.24,343.44,1737.24,334.44,1733.24,338.44,1729.24,334.44,1733.24,343.44" style="stroke:#181818;stroke-width:1;"/></g><!--link Ticket to Alarm--><g class="link" data-entity-1="ent0012" data-entity-2="ent0011" data-link-type="dependency" data-source-line="60" id="lnk48"><path d="M812.35,158.16 C822.99,158.16 831,158.16 831,158.16 C831,158.16 831,205.62 831,235.27" fill="none" id="Ticket-to-Alarm" style="stroke:#181818;stroke-width:1;"/><polygon fill="#181818" points="831,241.27,835,232.27,831,236.27,827,232.27,831,241.27" style="stroke:#181818;stroke-width:1;"/></g><!--link Knowledge to MySQL--><g class="link" data-entity-1="ent0013" data-entity-2="ent0026" data-link-type="dependency" data-source-line="61" id="lnk49"><path d="M663.5,177.43 C663.5,220.97 663.5,324.16 663.5,324.16 C663.5,324.16 1723.71,324.16 1723.71,324.16 C1723.71,324.16 1723.71,327.6 1723.71,337.64" fill="none" id="Knowledge-to-MySQL" style="stroke:#181818;stroke-width:1;"/><polygon fill="#181818" points="1723.71,343.64,1727.71,334.64,1723.71,338.64,1719.71,334.64,1723.71,343.64" style="stroke:#181818;stroke-width:1;"/></g><!--link Knowledge to AiClient--><g class="link" data-entity-1="ent0013" data-entity-2="ent0014" data-link-type="dependency" data-source-line="62" id="lnk50"><path d="M668.25,177.33 C668.25,205.24 668.25,254.16 668.25,254.16 C668.25,254.16 667.03,254.16 674,254.16" fill="none" id="Knowledge-to-AiClient" style="stroke:#181818;stroke-width:1;"/><polygon fill="#181818" points="680,254.16,671,250.16,675,254.16,671,258.16,680,254.16" style="stroke:#181818;stroke-width:1;"/></g><!--link AiClient to FastAPI--><g class="link" data-entity-1="ent0014" data-entity-2="ent0021" data-link-type="dependency" data-source-line="63" id="lnk51"><path d="M783.68,279.82 C783.68,308.27 783.68,358.16 783.68,358.16 C783.68,358.16 1142.96,358.16 1279.94,358.16" fill="none" id="AiClient-to-FastAPI" style="stroke:#181818;stroke-width:1;"/><polygon fill="#181818" points="1285.94,358.16,1276.94,354.16,1280.94,358.16,1276.94,362.16,1285.94,358.16" style="stroke:#181818;stroke-width:1;"/><text fill="#000000" font-family="sans-serif" font-size="13" lengthAdjust="spacing" textLength="34.6709" x="960.64" y="354.6551">REST</text></g><!--link Prometheus to NodeExporter--><g class="link" data-entity-1="ent0016" data-entity-2="ent0017" data-link-type="dependency" data-source-line="65" id="lnk52"><path d="M665.11,481.16 C625.62,481.16 576.07,481.16 576.07,481.16 C576.07,481.16 576.07,528.53 576.07,558.13" fill="none" id="Prometheus-to-NodeExporter" style="stroke:#181818;stroke-width:1;"/><polygon fill="#181818" points="576.07,564.13,580.07,555.13,576.07,559.13,572.07,555.13,576.07,564.13" style="stroke:#181818;stroke-width:1;"/><text fill="#000000" font-family="sans-serif" font-size="13" lengthAdjust="spacing" textLength="39.019" x="539.1" y="477.6551">scrape</text></g><!--link Prometheus to Blackbox--><g class="link" data-entity-1="ent0016" data-entity-2="ent0018" data-link-type="dependency" data-source-line="66" id="lnk53"><path d="M713,500.05 C713,518.39 713,539.83 713,558.14" fill="none" id="Prometheus-to-Blackbox" style="stroke:#181818;stroke-width:1;"/><polygon fill="#181818" points="713,564.14,717,555.14,713,559.14,709,555.14,713,564.14" style="stroke:#181818;stroke-width:1;"/><text fill="#000000" font-family="sans-serif" font-size="13" lengthAdjust="spacing" textLength="33.249" x="679" y="528.5851">probe</text></g><!--link Prometheus to SnmpSim--><g class="link" data-entity-1="ent0016" data-entity-2="ent0019" data-link-type="dependency" data-source-line="67" id="lnk54"><path d="M761,481.16 C789.02,481.16 818.92,481.16 818.92,481.16 C818.92,481.16 818.92,528.53 818.92,558.13" fill="none" id="Prometheus-to-SnmpSim" style="stroke:#181818;stroke-width:1;"/><polygon fill="#181818" points="818.92,564.13,822.92,555.13,818.92,559.13,814.92,555.13,818.92,564.13" style="stroke:#181818;stroke-width:1;"/><text fill="#000000" font-family="sans-serif" font-size="13" lengthAdjust="spacing" textLength="90.3208" x="819.92" y="490.1851">scrape/exporter</text></g><!--link FastAPI to LogAnalyzer--><g class="link" data-entity-1="ent0021" data-entity-2="ent0022" data-link-type="dependency" data-source-line="69" id="lnk55"><path d="M1285.9,376.16 C1262.74,376.16 1240.45,376.16 1240.45,376.16 C1240.45,376.16 1240.45,425.37 1240.45,455.56" fill="none" id="FastAPI-to-LogAnalyzer" style="stroke:#181818;stroke-width:1;"/><polygon fill="#181818" points="1240.45,461.56,1244.45,452.56,1240.45,456.56,1236.45,452.56,1240.45,461.56" style="stroke:#181818;stroke-width:1;"/></g><!--link FastAPI to Diagnosis--><g class="link" data-entity-1="ent0021" data-entity-2="ent0023" data-link-type="dependency" data-source-line="70" id="lnk56"><path d="M1337,386.41 C1337,407.43 1337,434.85 1337,455.76" fill="none" id="FastAPI-to-Diagnosis" style="stroke:#181818;stroke-width:1;"/><polygon fill="#181818" points="1337,461.76,1341,452.76,1337,456.76,1333,452.76,1337,461.76" style="stroke:#181818;stroke-width:1;"/></g><!--link FastAPI to Rag--><g class="link" data-entity-1="ent0021" data-entity-2="ent0024" data-link-type="dependency" data-source-line="71" id="lnk57"><path d="M1388.27,373.16 C1428.94,373.16 1479,373.16 1479,373.16 C1479,373.16 1479,424.57 1479,455.51" fill="none" id="FastAPI-to-Rag" style="stroke:#181818;stroke-width:1;"/><polygon fill="#181818" points="1479,461.51,1483,452.51,1479,456.51,1475,452.51,1479,461.51" style="stroke:#181818;stroke-width:1;"/></g><!--link FastAPI to Parser--><g class="link" data-entity-1="ent0021" data-entity-2="ent0025" data-link-type="dependency" data-source-line="72" id="lnk58"><path d="M1388.1,361.16 C1469.87,361.16 1621,361.16 1621,361.16 C1621,361.16 1621,421.73 1621,455.53" fill="none" id="FastAPI-to-Parser" style="stroke:#181818;stroke-width:1;"/><polygon fill="#181818" points="1621,461.53,1625,452.53,1621,456.53,1617,452.53,1621,461.53" style="stroke:#181818;stroke-width:1;"/></g><!--link LogAnalyzer to LLM--><g class="link" data-entity-1="ent0022" data-entity-2="ent0029" data-link-type="dependency" data-source-line="73" id="lnk59"><path d="M1198,500.01 C1198,529.68 1198,583.16 1198,583.16 C1198,583.16 1241.65,583.16 1281.6,583.16" fill="none" id="LogAnalyzer-to-LLM" style="stroke:#181818;stroke-width:1;"/><polygon fill="#181818" points="1287.6,583.16,1278.6,579.16,1282.6,583.16,1278.6,587.16,1287.6,583.16" style="stroke:#181818;stroke-width:1;"/></g><!--link Diagnosis to LLM--><g class="link" data-entity-1="ent0023" data-entity-2="ent0029" data-link-type="dependency" data-source-line="74" id="lnk60"><path d="M1337,500.05 C1337,516.77 1337,535.04 1337,553.07" fill="none" id="Diagnosis-to-LLM" style="stroke:#181818;stroke-width:1;"/><polygon fill="#181818" points="1337,559.07,1341,550.07,1337,554.07,1333,550.07,1337,559.07" style="stroke:#181818;stroke-width:1;"/></g><!--link Rag to VectorDB--><g class="link" data-entity-1="ent0024" data-entity-2="ent0028" data-link-type="dependency" data-source-line="75" id="lnk61"><path d="M1521.11,500.05 C1521.11,517 1521.11,535.71 1521.11,553.82" fill="none" id="Rag-to-VectorDB" style="stroke:#181818;stroke-width:1;"/><polygon fill="#181818" points="1521.11,559.82,1525.11,550.82,1521.11,554.82,1517.11,550.82,1521.11,559.82" style="stroke:#181818;stroke-width:1;"/></g><!--link Rag to LLM--><g class="link" data-entity-1="ent0024" data-entity-2="ent0029" data-link-type="dependency" data-source-line="76" id="lnk62"><path d="M1465.99,500.01 C1465.99,529.68 1465.99,583.16 1465.99,583.16 C1465.99,583.16 1428.88,583.16 1392.5,583.16" fill="none" id="Rag-to-LLM" style="stroke:#181818;stroke-width:1;"/><polygon fill="#181818" points="1386.5,583.16,1395.5,587.16,1391.5,583.16,1395.5,579.16,1386.5,583.16" style="stroke:#181818;stroke-width:1;"/></g><!--link Parser to VectorDB--><g class="link" data-entity-1="ent0025" data-entity-2="ent0028" data-link-type="dependency" data-source-line="77" id="lnk63"><path d="M1580.45,500.05 C1580.45,517 1580.45,535.71 1580.45,553.82" fill="none" id="Parser-to-VectorDB" style="stroke:#181818;stroke-width:1;"/><polygon fill="#181818" points="1580.45,559.82,1584.45,550.82,1580.45,554.82,1576.45,550.82,1580.45,559.82" style="stroke:#181818;stroke-width:1;"/></g><?plantuml-src RLDRJnf167tVNp7ntVZGjpuq0Q6N50m5ualJD2DCOEEokzbTMcdJn7e1gwN5D6WKBqMncZI29bQDfFfdcDtbNtGkUncqR_kTS-QxxNVCMLdLeG5B8AULT4r5gfMnAWe21ifPK2qeI383YIAhoAhe26Y6LTGaIOUvMLX0O0n_gJk_U_YywNHkyFd26FWe0V1wkemU0VUkuVGlx6_7UEKIVpzx0w09247vk89Af1v8AMKJEFsbGV-IqHxE99D5Q5WcmArRjtt2MGv9duJw6TsGrGA8Qfe51jVRUBKTTk5sEsxlixsxEDngs2TjlBl9qaJALf7JjxXJS_yi3MwE1Jg6tiavrgNJMYVTEwsk_RCc2BBGA23Me_srHgdz8xTtC9nV62xNyHPlDOaiGyv5yb2ta46bU7tLFVqrk3x5TujYBmeqIeo_EiBrfjDjEusgM4lEpV9Q3grInJS_yFAYtJopwrr1zbBLtYieNs1jHru0jxTgRvpYxe6zSaL-3oybJoeoNQwuFZxYi5ORjghXubA6La9M4PLDzZ8CAQbgUVGMpUda4f31-2c2n3s0Ag8AIJ-ZpO6ugF9HgiXC9LCJpjzrfx_3_mAPnLxRzxUNKKjwHYwDT4gcidVg8__tAJIjICh7sKiFOZzdymZVRUALghtN41G9hH1HeLBvm7krcyl3xHs-Bq4Las51rKoPJPoEF0FsuRnpSI0eqh30tc_KxFQXUtmuMYK53PCK80FaeGLde4acI5Oohn9Zx3heby2aKLus6SE-16QQU54pG2pAM1x5eb9EqSfvOhuEEzozDK1cPef48Yb9n6HWVFn9uAOWzlpZnzG8u358npFP0EFNVn_b9tyVPSVxGCekzZuQ7EY37DvL-hZ4cg8CNr8GyiruxOMyrzd_WH4JZaIC3--QL7-UpQRe6YK-bT1168_aymOLAeS0jtKuT2WQnG9F1ckWg7_N_ag4FYajserep9m1TNHV57ZmCT0DRUO1xraiU3_XErgI_F9K9hf5n4D_Y2ZrX1XxBX2IyAJaI8C40K8Ui-_Wo7s0aZpJ2FyF?></g></svg>