<svg xmlns="http://www.w3.org/2000/svg" xmlns:xlink="http://www.w3.org/1999/xlink" contentStyleType="text/css" data-diagram-type="DESCRIPTION" height="468px" preserveAspectRatio="none" style="width:1750px;height:468px;background:#FFFFFF;" version="1.1" viewBox="0 0 1750 468" width="1750px" zoomAndPan="magnify"><?plantuml 1.2026.3?><defs/><g><!--cluster ????--><g class="cluster" data-qualified-name="...." data-source-line="1" id="ent0002"><path d="M221.5,6 L280.25,6 A3.75,3.75 0 0 1 282.75,8.5 L289.75,29.6094 L562.5,29.6094 A2.5,2.5 0 0 1 565,32.1094 L565,103.11 A2.5,2.5 0 0 1 562.5,105.61 L221.5,105.61 A2.5,2.5 0 0 1 219,103.11 L219,8.5 A2.5,2.5 0 0 1 221.5,6" fill="none" style="stroke:#000000;stroke-width:1.5;"/><line style="stroke:#000000;stroke-width:1.5;" x1="219" x2="289.75" y1="29.6094" y2="29.6094"/><text fill="#000000" font-family="sans-serif" font-size="14" font-weight="700" lengthAdjust="spacing" textLength="57.75" x="223" y="22.5332">&#21069;&#31471;&#24212;&#29992;</text></g><!--cluster ??????--><g class="cluster" data-qualified-name="......" data-source-line="6" id="ent0005"><path d="M8.5,129.61 L96.125,129.61 A3.75,3.75 0 0 1 98.625,132.11 L105.625,153.2194 L1051.5,153.2194 A2.5,2.5 0 0 1 1054,155.7194 L1054,226.72 A2.5,2.5 0 0 1 1051.5,229.22 L8.5,229.22 A2.5,2.5 0 0 1 6,226.72 L6,132.11 A2.5,2.5 0 0 1 8.5,129.61" fill="none" style="stroke:#000000;stroke-width:1.5;"/><line style="stroke:#000000;stroke-width:1.5;" x1="6" x2="105.625" y1="153.2194" y2="153.2194"/><text fill="#000000" font-family="sans-serif" font-size="14" font-weight="700" lengthAdjust="spacing" textLength="86.625" x="10" y="146.1432">&#21518;&#31471;&#19994;&#21153;&#26381;&#21153;</text></g><!--cluster ?????--><g class="cluster" data-qualified-name="....." data-source-line="15" id="ent0012"><path d="M317.5,253.22 L390.6875,253.22 A3.75,3.75 0 0 1 393.1875,255.72 L400.1875,276.8294 L1028.5,276.8294 A2.5,2.5 0 0 1 1031,279.3294 L1031,350.33 A2.5,2.5 0 0 1 1028.5,352.83 L317.5,352.83 A2.5,2.5 0 0 1 315,350.33 L315,255.72 A2.5,2.5 0 0 1 317.5,253.22" fill="none" style="stroke:#000000;stroke-width:1.5;"/><line style="stroke:#000000;stroke-width:1.5;" x1="315" x2="400.1875" y1="276.8294" y2="276.8294"/><text fill="#000000" font-family="sans-serif" font-size="14" font-weight="700" lengthAdjust="spacing" textLength="72.1875" x="319" y="269.7532">&#30417;&#25511;&#37319;&#38598;&#23618;</text></g><!--cluster AI??--><g class="cluster" data-qualified-name="AI.." data-source-line="22" id="ent0017"><path d="M1057.5,253.22 L1101.375,253.22 A3.75,3.75 0 0 1 1103.875,255.72 L1110.875,276.8294 L1732.5,276.8294 A2.5,2.5 0 0 1 1735,279.3294 L1735,350.33 A2.5,2.5 0 0 1 1732.5,352.83 L1057.5,352.83 A2.5,2.5 0 0 1 1055,350.33 L1055,255.72 A2.5,2.5 0 0 1 1057.5,253.22" fill="none" style="stroke:#000000;stroke-width:1.5;"/><line style="stroke:#000000;stroke-width:1.5;" x1="1055" x2="1110.875" y1="276.8294" y2="276.8294"/><text fill="#000000" font-family="sans-serif" font-size="14" font-weight="700" lengthAdjust="spacing" textLength="42.875" x="1059" y="269.7532">AI&#26381;&#21153;</text></g><!--entity Vue3 Admin--><g class="entity" data-qualified-name=".....Vue3 Admin" data-source-line="2" id="ent0003"><rect fill="#F1F1F1" height="47.6094" rx="2.5" ry="2.5" style="stroke:#181818;stroke-width:0.5;" width="116.2686" x="432.87" y="42"/><rect fill="#F1F1F1" height="10" style="stroke:#181818;stroke-width:0.5;" width="15" x="529.1386" y="47"/><rect fill="#F1F1F1" height="2" style="stroke:#181818;stroke-width:0.5;" width="4" x="527.1386" y="49"/><rect fill="#F1F1F1" height="2" style="stroke:#181818;stroke-width:0.5;" width="4" x="527.1386" y="53"/><text fill="#000000" font-family="sans-serif" font-size="14" lengthAdjust="spacing" textLength="76.2686" x="447.87" y="76.5332">Vue3 Admin</text></g><!--entity ECharts Dashboard--><g class="entity" data-qualified-name=".....ECharts Dashboard" data-source-line="3" id="ent0004"><rect fill="#F1F1F1" height="47.6094" rx="2.5" ry="2.5" style="stroke:#181818;stroke-width:0.5;" width="162.9512" x="234.52" y="42"/><rect fill="#F1F1F1" height="10" style="stroke:#181818;stroke-width:0.5;" width="15" x="377.4712" y="47"/><rect fill="#F1F1F1" height="2" style="stroke:#181818;stroke-width:0.5;" width="4" x="375.4712" y="49"/><rect fill="#F1F1F1" height="2" style="stroke:#181818;stroke-width:0.5;" width="4" x="375.4712" y="53"/><text fill="#000000" font-family="sans-serif" font-size="14" lengthAdjust="spacing" textLength="122.9512" x="249.52" y="76.5332">ECharts Dashboard</text></g><!--entity Auth Module--><g class="entity" data-qualified-name=".......Auth Module" data-source-line="7" id="ent0006"><rect fill="#F1F1F1" height="47.6094" rx="2.5" ry="2.5" style="stroke:#181818;stroke-width:0.5;" width="118.6064" x="189.7" y="165.61"/><rect fill="#F1F1F1" height="10" style="stroke:#181818;stroke-width:0.5;" width="15" x="288.3064" y="170.61"/><rect fill="#F1F1F1" height="2" style="stroke:#181818;stroke-width:0.5;" width="4" x="286.3064" y="172.61"/><rect fill="#F1F1F1" height="2" style="stroke:#181818;stroke-width:0.5;" width="4" x="286.3064" y="176.61"/><text fill="#000000" font-family="sans-serif" font-size="14" lengthAdjust="spacing" textLength="78.6064" x="204.7" y="200.1432">Auth Module</text></g><!--entity Device Module--><g class="entity" data-qualified-name=".......Device Module" data-source-line="8" id="ent0007"><rect fill="#F1F1F1" height="47.6094" rx="2.5" ry="2.5" style="stroke:#181818;stroke-width:0.5;" width="132.5996" x="21.7" y="165.61"/><rect fill="#F1F1F1" height="10" style="stroke:#181818;stroke-width:0.5;" width="15" x="134.2996" y="170.61"/><rect fill="#F1F1F1" height="2" style="stroke:#181818;stroke-width:0.5;" width="4" x="132.2996" y="172.61"/><rect fill="#F1F1F1" height="2" style="stroke:#181818;stroke-width:0.5;" width="4" x="132.2996" y="176.61"/><text fill="#000000" font-family="sans-serif" font-size="14" lengthAdjust="spacing" textLength="92.5996" x="36.7" y="200.1432">Device Module</text></g><!--entity Collector Module--><g class="entity" data-qualified-name=".......Collector Module" data-source-line="9" id="ent0008"><rect fill="#F1F1F1" height="47.6094" rx="2.5" ry="2.5" style="stroke:#181818;stroke-width:0.5;" width="145.0479" x="504.48" y="165.61"/><rect fill="#F1F1F1" height="10" style="stroke:#181818;stroke-width:0.5;" width="15" x="629.5279" y="170.61"/><rect fill="#F1F1F1" height="2" style="stroke:#181818;stroke-width:0.5;" width="4" x="627.5279" y="172.61"/><rect fill="#F1F1F1" height="2" style="stroke:#181818;stroke-width:0.5;" width="4" x="627.5279" y="176.61"/><text fill="#000000" font-family="sans-serif" font-size="14" lengthAdjust="spacing" textLength="105.0479" x="519.48" y="200.1432">Collector Module</text></g><!--entity Alarm Module--><g class="entity" data-qualified-name=".......Alarm Module" data-source-line="10" id="ent0009"><rect fill="#F1F1F1" height="47.6094" rx="2.5" ry="2.5" style="stroke:#181818;stroke-width:0.5;" width="126.3652" x="342.82" y="165.61"/><rect fill="#F1F1F1" height="10" style="stroke:#181818;stroke-width:0.5;" width="15" x="449.1852" y="170.61"/><rect fill="#F1F1F1" height="2" style="stroke:#181818;stroke-width:0.5;" width="4" x="447.1852" y="172.61"/><rect fill="#F1F1F1" height="2" style="stroke:#181818;stroke-width:0.5;" width="4" x="447.1852" y="176.61"/><text fill="#000000" font-family="sans-serif" font-size="14" lengthAdjust="spacing" textLength="86.3652" x="357.82" y="200.1432">Alarm Module</text></g><!--entity WorkOrder Module--><g class="entity" data-qualified-name=".......WorkOrder Module" data-source-line="11" id="ent0010"><rect fill="#F1F1F1" height="47.6094" rx="2.5" ry="2.5" style="stroke:#181818;stroke-width:0.5;" width="158.2549" x="684.87" y="165.61"/><rect fill="#F1F1F1" height="10" style="stroke:#181818;stroke-width:0.5;" width="15" x="823.1249" y="170.61"/><rect fill="#F1F1F1" height="2" style="stroke:#181818;stroke-width:0.5;" width="4" x="821.1249" y="172.61"/><rect fill="#F1F1F1" height="2" style="stroke:#181818;stroke-width:0.5;" width="4" x="821.1249" y="176.61"/><text fill="#000000" font-family="sans-serif" font-size="14" lengthAdjust="spacing" textLength="118.2549" x="699.87" y="200.1432">WorkOrder Module</text></g><!--entity Knowledge Module--><g class="entity" data-qualified-name=".......Knowledge Module" data-source-line="12" id="ent0011"><rect fill="#F1F1F1" height="47.6094" rx="2.5" ry="2.5" style="stroke:#181818;stroke-width:0.5;" width="159.082" x="878.46" y="165.61"/><rect fill="#F1F1F1" height="10" style="stroke:#181818;stroke-width:0.5;" width="15" x="1017.542" y="170.61"/><rect fill="#F1F1F1" height="2" style="stroke:#181818;stroke-width:0.5;" width="4" x="1015.542" y="172.61"/><rect fill="#F1F1F1" height="2" style="stroke:#181818;stroke-width:0.5;" width="4" x="1015.542" y="176.61"/><text fill="#000000" font-family="sans-serif" font-size="14" lengthAdjust="spacing" textLength="119.082" x="893.46" y="200.1432">Knowledge Module</text></g><!--entity Prometheus Adapter--><g class="entity" data-qualified-name="......Prometheus Adapter" data-source-line="16" id="ent0013"><rect fill="#F1F1F1" height="47.6094" rx="2.5" ry="2.5" style="stroke:#181818;stroke-width:0.5;" width="168.4063" x="661.8" y="289.22"/><rect fill="#F1F1F1" height="10" style="stroke:#181818;stroke-width:0.5;" width="15" x="810.2063" y="294.22"/><rect fill="#F1F1F1" height="2" style="stroke:#181818;stroke-width:0.5;" width="4" x="808.2063" y="296.22"/><rect fill="#F1F1F1" height="2" style="stroke:#181818;stroke-width:0.5;" width="4" x="808.2063" y="300.22"/><text fill="#000000" font-family="sans-serif" font-size="14" lengthAdjust="spacing" textLength="128.4063" x="676.8" y="323.7532">Prometheus Adapter</text></g><!--entity Blackbox Adapter--><g class="entity" data-qualified-name="......Blackbox Adapter" data-source-line="17" id="ent0014"><rect fill="#F1F1F1" height="47.6094" rx="2.5" ry="2.5" style="stroke:#181818;stroke-width:0.5;" width="149.7305" x="865.13" y="289.22"/><rect fill="#F1F1F1" height="10" style="stroke:#181818;stroke-width:0.5;" width="15" x="994.8605" y="294.22"/><rect fill="#F1F1F1" height="2" style="stroke:#181818;stroke-width:0.5;" width="4" x="992.8605" y="296.22"/><rect fill="#F1F1F1" height="2" style="stroke:#181818;stroke-width:0.5;" width="4" x="992.8605" y="300.22"/><text fill="#000000" font-family="sans-serif" font-size="14" lengthAdjust="spacing" textLength="109.7305" x="880.13" y="323.7532">Blackbox Adapter</text></g><!--entity SNMP Adapter--><g class="entity" data-qualified-name="......SNMP Adapter" data-source-line="18" id="ent0015"><rect fill="#F1F1F1" height="47.6094" rx="2.5" ry="2.5" style="stroke:#181818;stroke-width:0.5;" width="133.3721" x="331.31" y="289.22"/><rect fill="#F1F1F1" height="10" style="stroke:#181818;stroke-width:0.5;" width="15" x="444.6821" y="294.22"/><rect fill="#F1F1F1" height="2" style="stroke:#181818;stroke-width:0.5;" width="4" x="442.6821" y="296.22"/><rect fill="#F1F1F1" height="2" style="stroke:#181818;stroke-width:0.5;" width="4" x="442.6821" y="300.22"/><text fill="#000000" font-family="sans-serif" font-size="14" lengthAdjust="spacing" textLength="93.3721" x="346.31" y="323.7532">SNMP Adapter</text></g><!--entity Fault Injection--><g class="entity" data-qualified-name="......Fault Injection" data-source-line="19" id="ent0016"><rect fill="#F1F1F1" height="47.6094" rx="2.5" ry="2.5" style="stroke:#181818;stroke-width:0.5;" width="127.1582" x="499.42" y="289.22"/><rect fill="#F1F1F1" height="10" style="stroke:#181818;stroke-width:0.5;" width="15" x="606.5782" y="294.22"/><rect fill="#F1F1F1" height="2" style="stroke:#181818;stroke-width:0.5;" width="4" x="604.5782" y="296.22"/><rect fill="#F1F1F1" height="2" style="stroke:#181818;stroke-width:0.5;" width="4" x="604.5782" y="300.22"/><text fill="#000000" font-family="sans-serif" font-size="14" lengthAdjust="spacing" textLength="87.1582" x="514.42" y="323.7532">Fault Injection</text></g><!--entity Log Analyzer--><g class="entity" data-qualified-name="AI...Log Analyzer" data-source-line="23" id="ent0018"><rect fill="#F1F1F1" height="47.6094" rx="2.5" ry="2.5" style="stroke:#181818;stroke-width:0.5;" width="121.7168" x="1071.14" y="289.22"/><rect fill="#F1F1F1" height="10" style="stroke:#181818;stroke-width:0.5;" width="15" x="1172.8568" y="294.22"/><rect fill="#F1F1F1" height="2" style="stroke:#181818;stroke-width:0.5;" width="4" x="1170.8568" y="296.22"/><rect fill="#F1F1F1" height="2" style="stroke:#181818;stroke-width:0.5;" width="4" x="1170.8568" y="300.22"/><text fill="#000000" font-family="sans-serif" font-size="14" lengthAdjust="spacing" textLength="81.7168" x="1086.14" y="323.7532">Log Analyzer</text></g><!--entity Diagnosis Service--><g class="entity" data-qualified-name="AI...Diagnosis Service" data-source-line="24" id="ent0019"><rect fill="#F1F1F1" height="47.6094" rx="2.5" ry="2.5" style="stroke:#181818;stroke-width:0.5;" width="152.0479" x="1227.98" y="289.22"/><rect fill="#F1F1F1" height="10" style="stroke:#181818;stroke-width:0.5;" width="15" x="1360.0279" y="294.22"/><rect fill="#F1F1F1" height="2" style="stroke:#181818;stroke-width:0.5;" width="4" x="1358.0279" y="296.22"/><rect fill="#F1F1F1" height="2" style="stroke:#181818;stroke-width:0.5;" width="4" x="1358.0279" y="300.22"/><text fill="#000000" font-family="sans-serif" font-size="14" lengthAdjust="spacing" textLength="112.0479" x="1242.98" y="323.7532">Diagnosis Service</text></g><!--entity RAG Service--><g class="entity" data-qualified-name="AI...RAG Service" data-source-line="25" id="ent0020"><rect fill="#F1F1F1" height="47.6094" rx="2.5" ry="2.5" style="stroke:#181818;stroke-width:0.5;" width="120.9102" x="1414.54" y="289.22"/><rect fill="#F1F1F1" height="10" style="stroke:#181818;stroke-width:0.5;" width="15" x="1515.4502" y="294.22"/><rect fill="#F1F1F1" height="2" style="stroke:#181818;stroke-width:0.5;" width="4" x="1513.4502" y="296.22"/><rect fill="#F1F1F1" height="2" style="stroke:#181818;stroke-width:0.5;" width="4" x="1513.4502" y="300.22"/><text fill="#000000" font-family="sans-serif" font-size="14" lengthAdjust="spacing" textLength="80.9102" x="1429.54" y="323.7532">RAG Service</text></g><!--entity Document Parser--><g class="entity" data-qualified-name="AI...Document Parser" data-source-line="26" id="ent0021"><rect fill="#F1F1F1" height="47.6094" rx="2.5" ry="2.5" style="stroke:#181818;stroke-width:0.5;" width="148.9307" x="1570.53" y="289.22"/><rect fill="#F1F1F1" height="10" style="stroke:#181818;stroke-width:0.5;" width="15" x="1699.4607" y="294.22"/><rect fill="#F1F1F1" height="2" style="stroke:#181818;stroke-width:0.5;" width="4" x="1697.4607" y="296.22"/><rect fill="#F1F1F1" height="2" style="stroke:#181818;stroke-width:0.5;" width="4" x="1697.4607" y="300.22"/><text fill="#000000" font-family="sans-serif" font-size="14" lengthAdjust="spacing" textLength="108.9307" x="1585.53" y="323.7532">Document Parser</text></g><!--entity MySQL--><g class="entity" data-qualified-name="MySQL" data-source-line="29" id="ent0022"><path d="M229.66,299.72 C229.66,289.72 262.9979,289.72 262.9979,289.72 C262.9979,289.72 296.3358,289.72 296.3358,299.72 L296.3358,326.3294 C296.3358,336.3294 262.9979,336.3294 262.9979,336.3294 C262.9979,336.3294 229.66,336.3294 229.66,326.3294 L229.66,299.72" fill="#F1F1F1" style="stroke:#181818;stroke-width:0.5;"/><path d="M229.66,299.72 C229.66,309.72 262.9979,309.72 262.9979,309.72 C262.9979,309.72 296.3358,309.72 296.3358,299.72" fill="none" style="stroke:#181818;stroke-width:0.5;"/><text fill="#000000" font-family="sans-serif" font-size="14" lengthAdjust="spacing" textLength="46.6758" x="239.66" y="328.2532">MySQL</text></g><!--entity Redis--><g class="entity" data-qualified-name="Redis" data-source-line="30" id="ent0023"><path d="M139.1,299.72 C139.1,289.72 166.9965,289.72 166.9965,289.72 C166.9965,289.72 194.893,289.72 194.893,299.72 L194.893,326.3294 C194.893,336.3294 166.9965,336.3294 166.9965,336.3294 C166.9965,336.3294 139.1,336.3294 139.1,326.3294 L139.1,299.72" fill="#F1F1F1" style="stroke:#181818;stroke-width:0.5;"/><path d="M139.1,299.72 C139.1,309.72 166.9965,309.72 166.9965,309.72 C166.9965,309.72 194.893,309.72 194.893,299.72" fill="none" style="stroke:#181818;stroke-width:0.5;"/><text fill="#000000" font-family="sans-serif" font-size="14" lengthAdjust="spacing" textLength="35.793" x="149.1" y="328.2532">Redis</text></g><!--entity VectorDB--><g class="entity" data-qualified-name="VectorDB" data-source-line="31" id="ent0024"><path d="M1518.1,407.33 C1518.1,397.33 1559.9999,397.33 1559.9999,397.33 C1559.9999,397.33 1601.8998,397.33 1601.8998,407.33 L1601.8998,433.9394 C1601.8998,443.9394 1559.9999,443.9394 1559.9999,443.9394 C1559.9999,443.9394 1518.1,443.9394 1518.1,433.9394 L1518.1,407.33" fill="#F1F1F1" style="stroke:#181818;stroke-width:0.5;"/><path d="M1518.1,407.33 C1518.1,417.33 1559.9999,417.33 1559.9999,417.33 C1559.9999,417.33 1601.8998,417.33 1601.8998,407.33" fill="none" style="stroke:#181818;stroke-width:0.5;"/><text fill="#000000" font-family="sans-serif" font-size="14" lengthAdjust="spacing" textLength="63.7998" x="1528.1" y="435.8632">Vector DB</text></g><!--entity Prometheus--><g class="entity" data-qualified-name="Prometheus" data-source-line="32" id="ent0025"><path d="M698.26,407.33 C698.26,397.33 746.0012,397.33 746.0012,397.33 C746.0012,397.33 793.7424,397.33 793.7424,407.33 L793.7424,433.9394 C793.7424,443.9394 746.0012,443.9394 746.0012,443.9394 C746.0012,443.9394 698.26,443.9394 698.26,433.9394 L698.26,407.33" fill="#F1F1F1" style="stroke:#181818;stroke-width:0.5;"/><path d="M698.26,407.33 C698.26,417.33 746.0012,417.33 746.0012,417.33 C746.0012,417.33 793.7424,417.33 793.7424,407.33" fill="none" style="stroke:#181818;stroke-width:0.5;"/><text fill="#000000" font-family="sans-serif" font-size="14" lengthAdjust="spacing" textLength="75.4824" x="708.26" y="435.8632">Prometheus</text></g><!--entity LLM--><g class="entity" data-qualified-name="LLM" data-source-line="33" id="ent0026"><path d="M1270.4852,405.8616 C1273.1198,400.7363 1278.3904,399.047 1282.2618,404.4822 C1284.3927,397.657 1289.5014,396.8124 1293.7919,402.4906 C1296.3969,396.6776 1301.0676,396.9756 1304.49,401.6574 C1308.3018,396.6913 1312.8003,397.9358 1315.367,403.0067 C1319.3188,397.6638 1325.1991,396.6792 1328.5369,403.6627 C1332.9974,400.0676 1337.7959,399.913 1339.3594,406.6865 C1350.1164,406.4525 1353.3011,412.0347 1348.3571,421.4013 C1352.4296,430.0383 1348.7658,438.5559 1338.1635,438.3851 C1334.1239,442.6173 1330.8368,442.331 1327.5674,437.486 C1324.8399,442.6211 1320.3058,442.7936 1316.9739,438.1401 C1314.6112,445.169 1309.163,445.099 1304.5451,440.564 C1300.6345,445.1105 1295.8474,445.7087 1292.7881,439.6227 C1288.0152,444.422 1284.1893,443.0347 1281.5895,437.3103 C1278.8012,443.1777 1273.3499,443.5501 1270.2479,437.6116 C1260.8606,436.7646 1258.9276,429.1245 1263.8265,422.2901 C1257.9233,413.4457 1261.0803,408.5014 1270.4852,405.8616" fill="#F1F1F1" style="stroke:#181818;stroke-width:0.5;"/><text fill="#000000" font-family="sans-serif" font-size="14" lengthAdjust="spacing" textLength="53.6895" x="1277.16" y="426.3632">LLM API</text></g><!--link Vue3 Admin to Auth Module--><g class="link" data-entity-1="ent0003" data-entity-2="ent0006" data-link-type="dependency" data-source-line="35" id="lnk27"><path d="M460.82,89.88 C447.49,98.85 431.18,108.24 415,113.61 C376.88,126.26 361.91,105.79 325,121.61 C302.56,131.23 286.1438,145.6857 272.1138,160.9257" fill="none" id="Vue3 Admin-to-Auth Module" style="stroke:#181818;stroke-width:1;"/><polygon fill="#181818" points="268.05,165.34,277.0885,161.4278,271.4365,161.6615,271.2028,156.0094,268.05,165.34" style="stroke:#181818;stroke-width:1;"/></g><!--link Vue3 Admin to Device Module--><g class="link" data-entity-1="ent0003" data-entity-2="ent0007" data-link-type="dependency" data-source-line="36" id="lnk28"><path d="M461.33,90.07 C447.95,99.2 431.47,108.65 415,113.61 C363.26,129.19 222.71,102.96 172,121.61 C147.52,130.62 128.9557,145.5306 113.2957,161.0206" fill="none" id="Vue3 Admin-to-Device Module" style="stroke:#181818;stroke-width:1;"/><polygon fill="#181818" points="109.03,165.24,118.2415,161.7547,112.5848,161.7238,112.6156,156.067,109.03,165.24" style="stroke:#181818;stroke-width:1;"/></g><!--link Vue3 Admin to Collector Module--><g class="link" data-entity-1="ent0003" data-entity-2="ent0008" data-link-type="dependency" data-source-line="37" id="lnk29"><path d="M507.38,89.97 C522.68,111.61 541.936,138.831 557.216,160.441" fill="none" id="Vue3 Admin-to-Collector Module" style="stroke:#181818;stroke-width:1;"/><polygon fill="#181818" points="560.68,165.34,558.75,155.6821,557.7933,161.2575,552.218,160.3008,560.68,165.34" style="stroke:#181818;stroke-width:1;"/></g><!--link Vue3 Admin to Alarm Module--><g class="link" data-entity-1="ent0003" data-entity-2="ent0009" data-link-type="dependency" data-source-line="38" id="lnk30"><path d="M474.81,89.97 C459.69,111.61 440.6666,138.8117 425.5666,160.4217" fill="none" id="Vue3 Admin-to-Alarm Module" style="stroke:#181818;stroke-width:1;"/><polygon fill="#181818" points="422.13,165.34,430.5638,160.2537,424.9939,161.2414,424.0061,155.6715,422.13,165.34" style="stroke:#181818;stroke-width:1;"/></g><!--link Vue3 Admin to WorkOrder Module--><g class="link" data-entity-1="ent0003" data-entity-2="ent0010" data-link-type="dependency" data-source-line="39" id="lnk31"><path d="M549.34,80.24 C584.44,89.47 629.44,103.35 667,121.61 C691.46,133.5 711.9023,147.4405 730.5023,161.5705" fill="none" id="Vue3 Admin-to-WorkOrder Module" style="stroke:#181818;stroke-width:1;"/><polygon fill="#181818" points="735.28,165.2,730.5331,156.5706,731.2986,162.1754,725.6937,162.9409,735.28,165.2" style="stroke:#181818;stroke-width:1;"/></g><!--link Vue3 Admin to Knowledge Module--><g class="link" data-entity-1="ent0003" data-entity-2="ent0011" data-link-type="dependency" data-source-line="40" id="lnk32"><path d="M549.5,67.38 C624.25,69.9 756.47,80.46 861,121.61 C887.07,131.87 908.3369,146.5267 926.8269,161.4167" fill="none" id="Vue3 Admin-to-Knowledge Module" style="stroke:#181818;stroke-width:1;"/><polygon fill="#181818" points="931.5,165.18,926.9992,156.4197,927.6057,162.044,921.9815,162.6505,931.5,165.18" style="stroke:#181818;stroke-width:1;"/></g><!--link ECharts Dashboard to Device Module--><g class="link" data-entity-1="ent0004" data-entity-2="ent0007" data-link-type="dependency" data-source-line="41" id="lnk33"><path d="M241.87,90.06 C218.8,98.59 193.73,109.23 172,121.61 C150.63,133.79 133.4746,147.218 117.5046,161.198" fill="none" id="ECharts Dashboard-to-Device Module" style="stroke:#181818;stroke-width:1;"/><polygon fill="#181818" points="112.99,165.15,122.3966,162.2317,116.7522,161.8566,117.1272,156.2122,112.99,165.15" style="stroke:#181818;stroke-width:1;"/></g><!--link ECharts Dashboard to Alarm Module--><g class="link" data-entity-1="ent0004" data-entity-2="ent0009" data-link-type="dependency" data-source-line="42" id="lnk34"><path d="M333.14,89.97 C349.15,111.61 369.3611,138.9068 385.3511,160.5168" fill="none" id="ECharts Dashboard-to-Alarm Module" style="stroke:#181818;stroke-width:1;"/><polygon fill="#181818" points="388.92,165.34,386.7822,155.726,385.946,161.3207,380.3512,160.4844,388.92,165.34" style="stroke:#181818;stroke-width:1;"/></g><!--link Auth Module to MySQL--><g class="link" data-entity-1="ent0006" data-entity-2="ent0022" data-link-type="dependency" data-source-line="44" id="lnk35"><path d="M251.67,213.58 C254.17,235.35 257.2132,261.7894 259.7032,283.3994" fill="none" id="Auth Module-to-MySQL" style="stroke:#181818;stroke-width:1;"/><polygon fill="#181818" points="260.39,289.36,263.3335,279.9613,259.8177,284.3929,255.3861,280.877,260.39,289.36" style="stroke:#181818;stroke-width:1;"/></g><!--link Auth Module to Redis--><g class="link" data-entity-1="ent0006" data-entity-2="ent0023" data-link-type="dependency" data-source-line="45" id="lnk36"><path d="M233.33,213.61 C226.74,223.37 219,234.85 212,245.22 C202.07,259.95 194.2712,271.5231 185.5512,284.4731" fill="none" id="Auth Module-to-Redis" style="stroke:#181818;stroke-width:1;"/><polygon fill="#181818" points="182.2,289.45,190.5448,284.2188,184.9927,285.3026,183.9089,279.7505,182.2,289.45" style="stroke:#181818;stroke-width:1;"/></g><!--link Device Module to MySQL--><g class="link" data-entity-1="ent0007" data-entity-2="ent0022" data-link-type="dependency" data-source-line="46" id="lnk37"><path d="M123.62,213.49 C138.14,222.03 155.39,231.11 172,237.22 C189.01,243.49 196.62,235.62 212,245.22 C229.08,255.88 239.5142,269.2964 248.3142,284.1664" fill="none" id="Device Module-to-MySQL" style="stroke:#181818;stroke-width:1;"/><polygon fill="#181818" points="251.37,289.33,250.2287,279.5475,248.8235,285.027,243.344,283.6218,251.37,289.33" style="stroke:#181818;stroke-width:1;"/></g><!--link Collector Module to MySQL--><g class="link" data-entity-1="ent0008" data-entity-2="ent0022" data-link-type="dependency" data-source-line="47" id="lnk38"><path d="M541.26,213.56 C525.3,222.66 505.88,232.14 487,237.22 C450.05,247.17 348.98,227.62 315,245.22 C296.6,254.75 285.6588,268.836 276.8788,284.256" fill="none" id="Collector Module-to-MySQL" style="stroke:#181818;stroke-width:1;"/><polygon fill="#181818" points="273.91,289.47,281.8392,283.6282,276.384,285.125,274.8872,279.6697,273.91,289.47" style="stroke:#181818;stroke-width:1;"/></g><!--link Collector Module to Prometheus Adapter--><g class="link" data-entity-1="ent0008" data-entity-2="ent0013" data-link-type="dependency" data-source-line="48" id="lnk39"><path d="M609.19,213.58 C639.16,235.15 678.7499,263.6354 708.7799,285.2454" fill="none" id="Collector Module-to-Prometheus Adapter" style="stroke:#181818;stroke-width:1;"/><polygon fill="#181818" points="713.65,288.75,708.6812,280.2464,709.5916,285.8295,704.0085,286.7398,713.65,288.75" style="stroke:#181818;stroke-width:1;"/></g><!--link Collector Module to Blackbox Adapter--><g class="link" data-entity-1="ent0008" data-entity-2="ent0014" data-link-type="dependency" data-source-line="49" id="lnk40"><path d="M612.74,213.58 C628.69,222.69 648.12,232.16 667,237.22 C705.89,247.64 809.99,231.94 848,245.22 C874.09,254.34 894.6792,269.4697 912.0392,284.9297" fill="none" id="Collector Module-to-Blackbox Adapter" style="stroke:#181818;stroke-width:1;"/><polygon fill="#181818" points="916.52,288.92,912.4591,279.9473,912.786,285.5947,907.1386,285.9216,916.52,288.92" style="stroke:#181818;stroke-width:1;"/></g><!--link Collector Module to SNMP Adapter--><g class="link" data-entity-1="ent0008" data-entity-2="ent0015" data-link-type="dependency" data-source-line="50" id="lnk41"><path d="M533.61,213.65 C517.12,222.95 498.37,234.08 482,245.22 C462.13,258.74 445.5628,271.7631 429.4528,285.1631" fill="none" id="Collector Module-to-SNMP Adapter" style="stroke:#181818;stroke-width:1;"/><polygon fill="#181818" points="424.84,289,434.3172,286.3199,428.684,285.8026,429.2013,280.1694,424.84,289" style="stroke:#181818;stroke-width:1;"/></g><!--link Collector Module to Fault Injection--><g class="link" data-entity-1="ent0008" data-entity-2="ent0016" data-link-type="dependency" data-source-line="51" id="lnk42"><path d="M574.33,213.58 C571.84,235.22 568.8241,261.3791 566.3441,282.9891" fill="none" id="Collector Module-to-Fault Injection" style="stroke:#181818;stroke-width:1;"/><polygon fill="#181818" points="565.66,288.95,570.66,280.4647,566.2301,283.9826,562.7122,279.5526,565.66,288.95" style="stroke:#181818;stroke-width:1;"/></g><!--link Alarm Module to MySQL--><g class="link" data-entity-1="ent0009" data-entity-2="ent0022" data-link-type="dependency" data-source-line="52" id="lnk43"><path d="M365.84,213.69 C343.6,226.74 319.55,241.18 315,245.22 C300.49,258.1 290.536,270.5274 280.986,284.3174" fill="none" id="Alarm Module-to-MySQL" style="stroke:#181818;stroke-width:1;"/><polygon fill="#181818" points="277.57,289.25,285.9824,284.1284,280.4167,285.1395,279.4056,279.5737,277.57,289.25" style="stroke:#181818;stroke-width:1;"/></g><!--link WorkOrder Module to MySQL--><g class="link" data-entity-1="ent0010" data-entity-2="ent0022" data-link-type="dependency" data-source-line="53" id="lnk44"><path d="M725.78,213.53 C708.47,222.75 687.36,232.32 667,237.22 C628.96,246.37 349.95,227.64 315,245.22 C296.49,254.53 285.5425,268.6267 276.7925,284.1067" fill="none" id="WorkOrder Module-to-MySQL" style="stroke:#181818;stroke-width:1;"/><polygon fill="#181818" points="273.84,289.33,281.7509,283.4633,276.3004,284.9772,274.7865,279.5267,273.84,289.33" style="stroke:#181818;stroke-width:1;"/></g><!--link Knowledge Module to MySQL--><g class="link" data-entity-1="ent0011" data-entity-2="ent0022" data-link-type="dependency" data-source-line="54" id="lnk45"><path d="M919.8,213.61 C902.49,222.84 881.38,232.4 861,237.22 C831.48,244.2 342.16,231.7 315,245.22 C296.45,254.46 285.507,268.5636 276.767,284.0636" fill="none" id="Knowledge Module-to-MySQL" style="stroke:#181818;stroke-width:1;"/><polygon fill="#181818" points="273.82,289.29,281.7248,283.4151,276.2758,284.9347,274.7563,279.4857,273.82,289.29" style="stroke:#181818;stroke-width:1;"/></g><!--link Knowledge Module to RAG Service--><g class="link" data-entity-1="ent0011" data-entity-2="ent0020" data-link-type="dependency" data-source-line="55" id="lnk46"><path d="M1037.76,194.78 C1146.62,201.69 1335.33,217.29 1398,245.22 C1420.31,255.16 1436.8131,269.4447 1451.0931,284.5147" fill="none" id="Knowledge Module-to-RAG Service" style="stroke:#181818;stroke-width:1;"/><polygon fill="#181818" points="1455.22,288.87,1451.9331,279.5858,1451.7809,285.2406,1446.1261,285.0884,1455.22,288.87" style="stroke:#181818;stroke-width:1;"/></g><!--link Alarm Module to Log Analyzer--><g class="link" data-entity-1="ent0009" data-entity-2="ent0018" data-link-type="dependency" data-source-line="56" id="lnk47"><path d="M437.41,213.59 C451.77,222.82 469.47,232.38 487,237.22 C545.27,253.31 973.24,227.38 1031,245.22 C1059.32,253.97 1082.4361,269.563 1101.6561,285.203" fill="none" id="Alarm Module-to-Log Analyzer" style="stroke:#181818;stroke-width:1;"/><polygon fill="#181818" points="1106.31,288.99,1101.8539,280.2069,1102.4318,285.8342,1096.8045,286.4121,1106.31,288.99" style="stroke:#181818;stroke-width:1;"/></g><!--link WorkOrder Module to Diagnosis Service--><g class="link" data-entity-1="ent0010" data-entity-2="ent0019" data-link-type="dependency" data-source-line="57" id="lnk48"><path d="M802.22,213.53 C819.53,222.75 840.64,232.32 861,237.22 C898.71,246.3 1173.19,233.01 1210,245.22 C1236.6,254.05 1257.7045,269.249 1275.4645,284.789" fill="none" id="WorkOrder Module-to-Diagnosis Service" style="stroke:#181818;stroke-width:1;"/><polygon fill="#181818" points="1279.98,288.74,1275.8408,279.8032,1276.2171,285.4475,1270.5728,285.8238,1279.98,288.74" style="stroke:#181818;stroke-width:1;"/></g><!--link Log Analyzer to LLM--><g class="link" data-entity-1="ent0018" data-entity-2="ent0026" data-link-type="dependency" data-source-line="59" id="lnk49"><path d="M1169.75,337.2 C1198.32,354.75 1232.307,375.6104 1260.937,393.1904" fill="none" id="Log Analyzer-to-LLM" style="stroke:#181818;stroke-width:1;"/><polygon fill="#181818" points="1266.05,396.33,1260.4735,388.2119,1261.7892,393.7137,1256.2874,395.0293,1266.05,396.33" style="stroke:#181818;stroke-width:1;"/></g><!--link Diagnosis Service to LLM--><g class="link" data-entity-1="ent0019" data-entity-2="ent0026" data-link-type="dependency" data-source-line="60" id="lnk50"><path d="M1304,337.2 C1304,354.81 1304,372.92 1304,390.51" fill="none" id="Diagnosis Service-to-LLM" style="stroke:#181818;stroke-width:1;"/><polygon fill="#181818" points="1304,396.51,1308,387.51,1304,391.51,1300,387.51,1304,396.51" style="stroke:#181818;stroke-width:1;"/></g><!--link RAG Service to VectorDB--><g class="link" data-entity-1="ent0020" data-entity-2="ent0024" data-link-type="dependency" data-source-line="61" id="lnk51"><path d="M1493.65,337.2 C1507.92,354.93 1523.7396,374.5746 1537.9196,392.2046" fill="none" id="RAG Service-to-VectorDB" style="stroke:#181818;stroke-width:1;"/><polygon fill="#181818" points="1541.68,396.88,1539.1562,387.36,1538.5463,392.9839,1532.9224,392.3739,1541.68,396.88" style="stroke:#181818;stroke-width:1;"/></g><!--link RAG Service to LLM--><g class="link" data-entity-1="ent0020" data-entity-2="ent0026" data-link-type="dependency" data-source-line="62" id="lnk52"><path d="M1437.47,337.2 C1409.06,354.75 1375.3051,375.5976 1346.8351,393.1776" fill="none" id="RAG Service-to-LLM" style="stroke:#181818;stroke-width:1;"/><polygon fill="#181818" points="1341.73,396.33,1351.4893,395.0049,1345.9843,393.703,1347.2861,388.198,1341.73,396.33" style="stroke:#181818;stroke-width:1;"/></g><!--link Document Parser to VectorDB--><g class="link" data-entity-1="ent0021" data-entity-2="ent0024" data-link-type="dependency" data-source-line="63" id="lnk53"><path d="M1626.35,337.2 C1612.08,354.93 1596.2604,374.5746 1582.0804,392.2046" fill="none" id="Document Parser-to-VectorDB" style="stroke:#181818;stroke-width:1;"/><polygon fill="#181818" points="1578.32,396.88,1587.0776,392.3739,1581.4537,392.9839,1580.8438,387.36,1578.32,396.88" style="stroke:#181818;stroke-width:1;"/></g><!--link Prometheus Adapter to Prometheus--><g class="link" data-entity-1="ent0013" data-entity-2="ent0025" data-link-type="dependency" data-source-line="64" id="lnk54"><path d="M746,337.2 C746,354.93 746,373.25 746,390.88" fill="none" id="Prometheus Adapter-to-Prometheus" style="stroke:#181818;stroke-width:1;"/><polygon fill="#181818" points="746,396.88,750,387.88,746,391.88,742,387.88,746,396.88" style="stroke:#181818;stroke-width:1;"/></g><!--link Blackbox Adapter to Prometheus--><g class="link" data-entity-1="ent0014" data-entity-2="ent0025" data-link-type="dependency" data-source-line="65" id="lnk55"><path d="M897.43,337.2 C864.86,354.93 825.4492,376.3802 793.0792,394.0102" fill="none" id="Blackbox Adapter-to-Prometheus" style="stroke:#181818;stroke-width:1;"/><polygon fill="#181818" points="787.81,396.88,797.627,396.0881,792.201,394.4885,793.8006,389.0625,787.81,396.88" style="stroke:#181818;stroke-width:1;"/></g><!--link SNMP Adapter to Prometheus--><g class="link" data-entity-1="ent0015" data-entity-2="ent0025" data-link-type="dependency" data-source-line="66" id="lnk56"><path d="M434.1,337.16 C448.54,345.6 465.62,354.59 482,360.83 C554.85,388.56 638.2977,404.1609 692.1377,412.3209" fill="none" id="SNMP Adapter-to-Prometheus" style="stroke:#181818;stroke-width:1;"/><polygon fill="#181818" points="698.07,413.22,689.771,407.9165,693.1265,412.4708,688.5722,415.8262,698.07,413.22" style="stroke:#181818;stroke-width:1;"/></g><?plantuml-src XLE_Jy905DxlhxYmCxcR5Ag628gGu60OZlP2AqUFtBKg6XS7YIOGJPZ4nKaJ1-Dc_7i4mdzXUoNqhjU6fRdtlk_zw7ll6o2hXxeO5kOFu-Ndr_ntkfn-5E0DWF2i5U0TQDXzrsj7vbxPGSpdq4JSwL34x3Qu1M2mIV0q2HFy_RpC7zyMh-FmkqvZ1Bu3QzGE21PvJ7pXMbZsb2aXsF8favq6GQmlEqufwnqp6okiGuzU4cntatnoJylPysBolXgDLhFx-VVTkg4wettiEpZWuT-XWO-PI5KYOLY7NYdEvb6jhZZsKK1yMF7EmuPTwgdrZ8hovrNQXOQ7oF1w7MowgEjHxdBOn2oQWl0sZ0F5DgaLzB7dmpfYF8eCIzZ8Hnt4mngrOVEaMe28G_6Ia0QsNIuGyPAGLZnTioJGs39B4Y4PYM0a9h083MnOg5PhqAXN11g-0P2l0nQBkwazwt1gxJf1luAC6ifHwBX-8pf7FvcCqyxkEO-djWMKKGX6l2hT7oygLKUEq8Qo7SoyxpokVlHvJ5K9UInD7kfivEwrNScWjgJjeAgZZBefFUOqa2LIe8OANgI236w2oUq8xqPtEXGdI-a-5PInLi6GnAglKsCeQqoX_m00?></g></svg>