<svg xmlns="http://www.w3.org/2000/svg" xmlns:xlink="http://www.w3.org/1999/xlink" contentStyleType="text/css" data-diagram-type="DESCRIPTION" height="741px" preserveAspectRatio="none" style="width:1606px;height:741px;background:#FFFFFF;" version="1.1" viewBox="0 0 1606 741" width="1606px" zoomAndPan="magnify"><?plantuml 1.2026.3?><defs/><g><!--cluster ?????--><g class="cluster" data-qualified-name="....." data-source-line="1" id="ent0002"><polygon fill="none" points="16,16,26,6,186,6,186,211.63,176,221.63,16,221.63,16,16" style="stroke:#181818;stroke-width:1;"/><line style="stroke:#181818;stroke-width:1;" x1="176" x2="186" y1="16" y2="6"/><line style="stroke:#181818;stroke-width:1;" x1="16" x2="176" y1="16" y2="16"/><line style="stroke:#181818;stroke-width:1;" x1="176" x2="176" y1="16" y2="221.63"/><text fill="#000000" font-family="sans-serif" font-size="14" font-weight="700" lengthAdjust="spacing" textLength="72.1875" x="60.9063" y="33.5332">&#29992;&#25143;&#27983;&#35272;&#22120;</text></g><!--cluster ?????--><g class="cluster" data-qualified-name="....." data-source-line="5" id="ent0004"><polygon fill="none" points="218,113.72,228,103.72,558,103.72,558,534.57,548,544.57,218,544.57,218,113.72" style="stroke:#181818;stroke-width:1;"/><line style="stroke:#181818;stroke-width:1;" x1="548" x2="558" y1="113.72" y2="103.72"/><line style="stroke:#181818;stroke-width:1;" x1="218" x2="548" y1="113.72" y2="113.72"/><line style="stroke:#181818;stroke-width:1;" x1="548" x2="548" y1="113.72" y2="544.57"/><text fill="#000000" font-family="sans-serif" font-size="14" font-weight="700" lengthAdjust="spacing" textLength="72.1875" x="347.9063" y="131.2532">&#24212;&#29992;&#26381;&#21153;&#22120;</text></g><!--cluster ?????--><g class="cluster" data-qualified-name="....." data-source-line="12" id="ent0009"><polygon fill="none" points="1211,432.85,1221,422.85,1581,422.85,1581,534.07,1571,544.07,1211,544.07,1211,432.85" style="stroke:#181818;stroke-width:1;"/><line style="stroke:#181818;stroke-width:1;" x1="1571" x2="1581" y1="432.85" y2="422.85"/><line style="stroke:#181818;stroke-width:1;" x1="1211" x2="1571" y1="432.85" y2="432.85"/><line style="stroke:#181818;stroke-width:1;" x1="1571" x2="1571" y1="432.85" y2="544.07"/><text fill="#000000" font-family="sans-serif" font-size="14" font-weight="700" lengthAdjust="spacing" textLength="72.1875" x="1355.9063" y="450.3832">&#25968;&#25454;&#26381;&#21153;&#22120;</text></g><!--cluster ????????--><g class="cluster" data-qualified-name="........" data-source-line="18" id="ent0013"><polygon fill="none" points="420,604.57,430,594.57,1210,594.57,1210,706.79,1200,716.79,420,716.79,420,604.57" style="stroke:#181818;stroke-width:1;"/><line style="stroke:#181818;stroke-width:1;" x1="1200" x2="1210" y1="604.57" y2="594.57"/><line style="stroke:#181818;stroke-width:1;" x1="420" x2="1200" y1="604.57" y2="604.57"/><line style="stroke:#181818;stroke-width:1;" x1="1200" x2="1200" y1="604.57" y2="716.79"/><text fill="#000000" font-family="sans-serif" font-size="14" font-weight="700" lengthAdjust="spacing" textLength="115.5" x="753.25" y="622.1032">&#34394;&#25311;&#35774;&#22791;&#23454;&#39564;&#29615;&#22659;</text></g><!--cluster ?????--><g class="cluster" data-qualified-name="....." data-source-line="25" id="ent0018"><path d="M592.2471,444.3895 C597.0321,438.6062 602.5281,438.7653 606.2057,445.6132 C610.1401,437.6566 614.7895,436.5903 620.8099,443.574 C624.6139,436.902 630.3561,436.0928 635.2735,442.3261 C638.3346,433.8396 645.6584,433.1967 650.4039,440.7357 C655.2019,435.3852 659.1202,435.6864 663.3136,441.4387 C668.3561,435.0445 673.2832,434.2732 678.4629,441.2835 C681.4209,433.7558 686.7763,433.3609 691.9719,438.9851 C696.46,431.5764 702.6329,432.8701 706.0047,440.0581 C711.2466,433.6133 718.0304,433.6897 721.9745,441.511 C725.2063,435.8194 730.9686,435.7127 734.2881,441.4163 C739.783,433.5802 745.3872,433.2913 750.1409,442.1214 C755.542,435.8675 760.5283,435.0433 765.2159,442.8845 C769.3542,436.723 775.3013,438.097 778.3883,444.0295 C784.6494,437.2078 789.5753,438.5774 794.388,445.6923 C801.5128,448.3223 802.1379,454.4331 796.6796,459.1981 C804.609,462.2121 805.4828,468.6831 798.4725,473.5619 C806.5979,475.3289 808.6256,481.4181 802.2179,487.1817 C808.0322,492.5946 806.6267,497.3559 799.7567,500.4086 C805.6798,507.4201 804.0971,512.0411 795.7408,515.1672 C802.5504,520.3193 800.7014,524.4415 794.609,528.4982 C790.4238,537.2453 783.394,536.3954 778.2916,529.452 C773.893,534.6657 769.0752,535.5282 765.6346,528.4643 C761.6822,535.2006 755.3965,536.8013 750.646,529.3048 C745.5176,536.1773 740.4307,537.2805 734.6712,530.0181 C731.3471,535.9275 726.0457,536.7491 722.1896,530.5672 C717.7921,537.9929 710.4562,537.8383 706.4542,530.1553 C703.6249,536.1877 696.9577,536.8783 693.0118,531.4669 C687.363,537.6046 682.5763,538.6179 677.898,530.4422 C673.5441,538.1543 666.4462,538.4354 662.3064,530.2324 C658.185,536.2829 654.0516,536.4102 649.328,530.9089 C644.1828,538.0553 636.3962,536.6241 633.5599,528.5214 C628.8975,535.549 624.6563,535.7372 619.5763,528.9439 C615.1603,535.0071 609.6083,536.0916 604.8866,529.2931 C601.3587,536.6573 596.2702,535.237 591.7868,530.3116 C582.986,526.203 582.7186,521.1214 590.1121,515.2161 C581.4204,512.7731 581.5502,505.8066 586.8163,500.2831 C580.197,498.2188 578.9702,492.6232 583.6697,487.7232 C576.9599,481.8888 580.6077,475.7692 587.408,473.4809 C581.8612,469.7655 582.0539,463.1649 588.2508,460.1944 C582.6543,453.4775 584.3166,447.686 592.2471,444.3895" fill="none" style="stroke:#181818;stroke-width:1;"/><text fill="#000000" font-family="sans-serif" font-size="14" font-weight="700" lengthAdjust="spacing" textLength="72.1875" x="654.9063" y="463.6932">&#22823;&#27169;&#22411;&#26381;&#21153;</text></g><!--entity Vue3 ????--><g class="entity" data-qualified-name="......Vue3 ...." data-source-line="2" id="ent0003"><rect fill="#F1F1F1" height="40.6094" rx="2.5" ry="2.5" style="stroke:#181818;stroke-width:0.5;" width="122.5859" x="39.71" y="157.02"/><polygon fill="#F1F1F1" points="145.2959,162.02,145.2959,176.02,157.2959,176.02,157.2959,168.02,151.2959,162.02,145.2959,162.02" style="stroke:#181818;stroke-width:0.5;"/><line style="stroke:#181818;stroke-width:0.5;" x1="151.2959" x2="151.2959" y1="162.02" y2="168.02"/><line style="stroke:#181818;stroke-width:0.5;" x1="157.2959" x2="151.2959" y1="168.02" y2="168.02"/><text fill="#000000" font-family="sans-serif" font-size="14" lengthAdjust="spacing" textLength="92.5859" x="49.71" y="184.5532">Vue3 &#21069;&#31471;&#39029;&#38754;</text></g><!--entity Spring Boot Backend\n:8080--><g class="entity" data-qualified-name="......Spring Boot Backend.n.8080" data-source-line="6" id="ent0005"><rect fill="#F1F1F1" height="65.2188" rx="2.5" ry="2.5" style="stroke:#181818;stroke-width:0.5;" width="171.5303" x="370.23" y="144.72"/><rect fill="#F1F1F1" height="10" style="stroke:#181818;stroke-width:0.5;" width="15" x="521.7603" y="149.72"/><rect fill="#F1F1F1" height="2" style="stroke:#181818;stroke-width:0.5;" width="4" x="519.7603" y="151.72"/><rect fill="#F1F1F1" height="2" style="stroke:#181818;stroke-width:0.5;" width="4" x="519.7603" y="155.72"/><text fill="#000000" font-family="sans-serif" font-size="14" lengthAdjust="spacing" textLength="131.5303" x="385.23" y="179.2532">Spring Boot Backend</text><text fill="#000000" font-family="sans-serif" font-size="14" lengthAdjust="spacing" textLength="35.0342" x="385.23" y="196.8626">:8080</text></g><!--entity FastAPI AI Service\n:8000--><g class="entity" data-qualified-name="......FastAPI AI Service.n.8000" data-source-line="7" id="ent0006"><rect fill="#F1F1F1" height="65.2188" rx="2.5" ry="2.5" style="stroke:#181818;stroke-width:0.5;" width="157.4824" x="384.26" y="293.63"/><rect fill="#F1F1F1" height="10" style="stroke:#181818;stroke-width:0.5;" width="15" x="521.7424" y="298.63"/><rect fill="#F1F1F1" height="2" style="stroke:#181818;stroke-width:0.5;" width="4" x="519.7424" y="300.63"/><rect fill="#F1F1F1" height="2" style="stroke:#181818;stroke-width:0.5;" width="4" x="519.7424" y="304.63"/><text fill="#000000" font-family="sans-serif" font-size="14" lengthAdjust="spacing" textLength="117.4824" x="399.26" y="328.1632">FastAPI AI Service</text><text fill="#000000" font-family="sans-serif" font-size="14" lengthAdjust="spacing" textLength="35.0342" x="399.26" y="345.7726">:8000</text></g><!--entity Prometheus\n:9090--><g class="entity" data-qualified-name="......Prometheus.n.9090" data-source-line="8" id="ent0007"><rect fill="#F1F1F1" height="65.2188" rx="2.5" ry="2.5" style="stroke:#181818;stroke-width:0.5;" width="115.4824" x="234.26" y="293.63"/><rect fill="#F1F1F1" height="10" style="stroke:#181818;stroke-width:0.5;" width="15" x="329.7424" y="298.63"/><rect fill="#F1F1F1" height="2" style="stroke:#181818;stroke-width:0.5;" width="4" x="327.7424" y="300.63"/><rect fill="#F1F1F1" height="2" style="stroke:#181818;stroke-width:0.5;" width="4" x="327.7424" y="304.63"/><text fill="#000000" font-family="sans-serif" font-size="14" lengthAdjust="spacing" textLength="75.4824" x="249.26" y="328.1632">Prometheus</text><text fill="#000000" font-family="sans-serif" font-size="14" lengthAdjust="spacing" textLength="35.0342" x="249.26" y="345.7726">:9090</text></g><!--entity Blackbox Exporter\n:9115--><g class="entity" data-qualified-name="......Blackbox Exporter.n.9115" data-source-line="9" id="ent0008"><rect fill="#F1F1F1" height="65.2188" rx="2.5" ry="2.5" style="stroke:#181818;stroke-width:0.5;" width="153.6064" x="311.2" y="463.35"/><rect fill="#F1F1F1" height="10" style="stroke:#181818;stroke-width:0.5;" width="15" x="444.8064" y="468.35"/><rect fill="#F1F1F1" height="2" style="stroke:#181818;stroke-width:0.5;" width="4" x="442.8064" y="470.35"/><rect fill="#F1F1F1" height="2" style="stroke:#181818;stroke-width:0.5;" width="4" x="442.8064" y="474.35"/><text fill="#000000" font-family="sans-serif" font-size="14" lengthAdjust="spacing" textLength="113.6064" x="326.2" y="497.8832">Blackbox Exporter</text><text fill="#000000" font-family="sans-serif" font-size="14" lengthAdjust="spacing" textLength="35.0342" x="326.2" y="515.4926">:9115</text></g><!--entity MySQL\n:3306--><g class="entity" data-qualified-name="......MySQL.n.3306" data-source-line="13" id="ent0010"><path d="M1407.66,473.85 C1407.66,463.85 1440.9979,463.85 1440.9979,463.85 C1440.9979,463.85 1474.3358,463.85 1474.3358,473.85 L1474.3358,518.0687 C1474.3358,528.0687 1440.9979,528.0687 1440.9979,528.0687 C1440.9979,528.0687 1407.66,528.0687 1407.66,518.0687 L1407.66,473.85" fill="#F1F1F1" style="stroke:#181818;stroke-width:0.5;"/><path d="M1407.66,473.85 C1407.66,483.85 1440.9979,483.85 1440.9979,483.85 C1440.9979,483.85 1474.3358,483.85 1474.3358,473.85" fill="none" style="stroke:#181818;stroke-width:0.5;"/><text fill="#000000" font-family="sans-serif" font-size="14" lengthAdjust="spacing" textLength="46.6758" x="1417.66" y="502.3832">MySQL</text><text fill="#000000" font-family="sans-serif" font-size="14" lengthAdjust="spacing" textLength="35.0342" x="1417.66" y="519.9926">:3306</text></g><!--entity Redis\n:6379--><g class="entity" data-qualified-name="......Redis.n.6379" data-source-line="14" id="ent0011"><path d="M1509.1,473.85 C1509.1,463.85 1536.9965,463.85 1536.9965,463.85 C1536.9965,463.85 1564.893,463.85 1564.893,473.85 L1564.893,518.0687 C1564.893,528.0687 1536.9965,528.0687 1536.9965,528.0687 C1536.9965,528.0687 1509.1,528.0687 1509.1,518.0687 L1509.1,473.85" fill="#F1F1F1" style="stroke:#181818;stroke-width:0.5;"/><path d="M1509.1,473.85 C1509.1,483.85 1536.9965,483.85 1536.9965,483.85 C1536.9965,483.85 1564.893,483.85 1564.893,473.85" fill="none" style="stroke:#181818;stroke-width:0.5;"/><text fill="#000000" font-family="sans-serif" font-size="14" lengthAdjust="spacing" textLength="35.793" x="1519.1" y="502.3832">Redis</text><text fill="#000000" font-family="sans-serif" font-size="14" lengthAdjust="spacing" textLength="35.0342" x="1519.1" y="519.9926">:6379</text></g><!--entity Chroma / Vector DB--><g class="entity" data-qualified-name="......Chroma . Vector DB" data-source-line="15" id="ent0012"><path d="M1227.37,482.66 C1227.37,472.66 1300.0009,472.66 1300.0009,472.66 C1300.0009,472.66 1372.6317,472.66 1372.6317,482.66 L1372.6317,509.2694 C1372.6317,519.2694 1300.0009,519.2694 1300.0009,519.2694 C1300.0009,519.2694 1227.37,519.2694 1227.37,509.2694 L1227.37,482.66" fill="#F1F1F1" style="stroke:#181818;stroke-width:0.5;"/><path d="M1227.37,482.66 C1227.37,492.66 1300.0009,492.66 1300.0009,492.66 C1300.0009,492.66 1372.6317,492.66 1372.6317,482.66" fill="none" style="stroke:#181818;stroke-width:0.5;"/><text fill="#000000" font-family="sans-serif" font-size="14" lengthAdjust="spacing" textLength="125.2617" x="1237.37" y="511.1932">Chroma / Vector DB</text></g><!--entity Linux VM\nnode_exporter :9100--><g class="entity" data-qualified-name=".........Linux VM.nnode_exporter .9100" data-source-line="19" id="ent0014"><rect fill="#F1F1F1" height="65.2188" rx="2.5" ry="2.5" style="stroke:#181818;stroke-width:0.5;" width="169.2129" x="619.39" y="635.57"/><rect fill="#F1F1F1" height="10" style="stroke:#181818;stroke-width:0.5;" width="15" x="768.6029" y="640.57"/><rect fill="#F1F1F1" height="2" style="stroke:#181818;stroke-width:0.5;" width="4" x="766.6029" y="642.57"/><rect fill="#F1F1F1" height="2" style="stroke:#181818;stroke-width:0.5;" width="4" x="766.6029" y="646.57"/><text fill="#000000" font-family="sans-serif" font-size="14" lengthAdjust="spacing" textLength="58.3584" x="634.39" y="670.1032">Linux VM</text><text fill="#000000" font-family="sans-serif" font-size="14" lengthAdjust="spacing" textLength="129.2129" x="634.39" y="687.7126">node_exporter :9100</text></g><!--entity Windows VM\nwindows_exporter :9182--><g class="entity" data-qualified-name=".........Windows VM.nwindows_exporter .9182" data-source-line="20" id="ent0015"><rect fill="#F1F1F1" height="65.2188" rx="2.5" ry="2.5" style="stroke:#181818;stroke-width:0.5;" width="191.7578" x="823.12" y="635.57"/><rect fill="#F1F1F1" height="10" style="stroke:#181818;stroke-width:0.5;" width="15" x="994.8778" y="640.57"/><rect fill="#F1F1F1" height="2" style="stroke:#181818;stroke-width:0.5;" width="4" x="992.8778" y="642.57"/><rect fill="#F1F1F1" height="2" style="stroke:#181818;stroke-width:0.5;" width="4" x="992.8778" y="646.57"/><text fill="#000000" font-family="sans-serif" font-size="14" lengthAdjust="spacing" textLength="81.6826" x="838.12" y="670.1032">Windows VM</text><text fill="#000000" font-family="sans-serif" font-size="14" lengthAdjust="spacing" textLength="151.7578" x="838.12" y="687.7126">windows_exporter :9182</text></g><!--entity Web/App Service\nHTTP/TCP--><g class="entity" data-qualified-name=".........Web.App Service.nHTTP.TCP" data-source-line="21" id="ent0016"><rect fill="#F1F1F1" height="65.2188" rx="2.5" ry="2.5" style="stroke:#181818;stroke-width:0.5;" width="148.1582" x="435.92" y="635.57"/><rect fill="#F1F1F1" height="10" style="stroke:#181818;stroke-width:0.5;" width="15" x="564.0782" y="640.57"/><rect fill="#F1F1F1" height="2" style="stroke:#181818;stroke-width:0.5;" width="4" x="562.0782" y="642.57"/><rect fill="#F1F1F1" height="2" style="stroke:#181818;stroke-width:0.5;" width="4" x="562.0782" y="646.57"/><text fill="#000000" font-family="sans-serif" font-size="14" lengthAdjust="spacing" textLength="108.1582" x="450.92" y="670.1032">Web/App Service</text><text fill="#000000" font-family="sans-serif" font-size="14" lengthAdjust="spacing" textLength="68.4414" x="450.92" y="687.7126">HTTP/TCP</text></g><!--entity SNMP Simulator\n:161--><g class="entity" data-qualified-name=".........SNMP Simulator.n.161" data-source-line="22" id="ent0017"><rect fill="#F1F1F1" height="65.2188" rx="2.5" ry="2.5" style="stroke:#181818;stroke-width:0.5;" width="143.4688" x="1050.27" y="635.57"/><rect fill="#F1F1F1" height="10" style="stroke:#181818;stroke-width:0.5;" width="15" x="1173.7388" y="640.57"/><rect fill="#F1F1F1" height="2" style="stroke:#181818;stroke-width:0.5;" width="4" x="1171.7388" y="642.57"/><rect fill="#F1F1F1" height="2" style="stroke:#181818;stroke-width:0.5;" width="4" x="1171.7388" y="646.57"/><text fill="#000000" font-family="sans-serif" font-size="14" lengthAdjust="spacing" textLength="103.4688" x="1065.27" y="670.1032">SNMP Simulator</text><text fill="#000000" font-family="sans-serif" font-size="14" lengthAdjust="spacing" textLength="27.248" x="1065.27" y="687.7126">:161</text></g><!--entity OpenAI-compatible API--><g class="entity" data-qualified-name="......OpenAI-compatible API" data-source-line="26" id="ent0019"><rect fill="#F1F1F1" height="47.6094" rx="2.5" ry="2.5" style="stroke:#181818;stroke-width:0.5;" width="186.2959" x="597.85" y="472.16"/><rect fill="#F1F1F1" height="10" style="stroke:#181818;stroke-width:0.5;" width="15" x="764.1459" y="477.16"/><rect fill="#F1F1F1" height="2" style="stroke:#181818;stroke-width:0.5;" width="4" x="762.1459" y="479.16"/><rect fill="#F1F1F1" height="2" style="stroke:#181818;stroke-width:0.5;" width="4" x="762.1459" y="483.16"/><text fill="#000000" font-family="sans-serif" font-size="14" lengthAdjust="spacing" textLength="146.2959" x="612.85" y="506.6932">OpenAI-compatible API</text></g><!--link ????? to Spring Boot Backend\n:8080--><g class="link" data-entity-1="ent0002" data-entity-2="ent0005" data-link-type="dependency" data-source-line="29" id="lnk20"><path d="M186.0247,57.7401 C186.3075,57.8644 186.5914,57.9891 186.8765,58.1143 C191.4371,60.1176 196.2847,62.247 201.3754,64.4831 C211.5568,68.9554 222.7103,73.8547 234.4838,79.0262 C281.5775,99.7125 333.0964,122.3424 377.4864,141.8374" fill="none" id="&#29992;&#25143;&#27983;&#35272;&#22120;-to-Spring Boot Backend\n:8080" style="stroke:#181818;stroke-width:1;"/><polygon fill="#181818" points="382.98,144.25,376.3481,136.9687,378.402,142.2395,373.1312,144.2934,382.98,144.25" style="stroke:#181818;stroke-width:1;"/><text fill="#000000" font-family="sans-serif" font-size="13" lengthAdjust="spacing" textLength="118.4473" x="246.59" y="84.2151">HTTPS/HTTP REST</text></g><!--link ????? to Vue3 ????--><g class="link" data-entity-1="ent0002" data-entity-2="ent0003" data-link-type="dependency" data-source-line="30" id="lnk21"><path d="M144.87,40.11 C142.93,46.15 120.8196,114.799 109.1496,151.029" fill="none" id="&#29992;&#25143;&#27983;&#35272;&#22120;-to-Vue3 &#21069;&#31471;&#39029;&#38754;" style="stroke:#181818;stroke-width:1;"/><polygon fill="#181818" points="107.31,156.74,113.8767,149.3998,108.843,151.9808,106.262,146.9471,107.31,156.74" style="stroke:#181818;stroke-width:1;"/><text fill="#000000" font-family="sans-serif" font-size="13" lengthAdjust="spacing" textLength="52" x="135.37" y="84.2151">&#35775;&#38382;&#39029;&#38754;</text></g><!--link Spring Boot Backend\n:8080 to MySQL\n:3306--><g class="link" data-entity-1="ent0005" data-entity-2="ent0010" data-link-type="dependency" data-source-line="31" id="lnk22"><path d="M542.08,179.56 C717.96,186.17 1124.31,222.77 1390,414.85 C1406.84,427.02 1416.7412,441.2663 1425.2212,458.0263" fill="none" id="Spring Boot Backend\n:8080-to-MySQL\n:3306" style="stroke:#181818;stroke-width:1;"/><polygon fill="#181818" points="1427.93,463.38,1427.4359,453.5435,1425.6727,458.9186,1420.2976,457.1553,1427.93,463.38" style="stroke:#181818;stroke-width:1;"/><text fill="#000000" font-family="sans-serif" font-size="13" lengthAdjust="spacing" textLength="33.9473" x="1293.35" y="331.7351">JDBC</text></g><!--link Spring Boot Backend\n:8080 to Redis\n:6379--><g class="link" data-entity-1="ent0005" data-entity-2="ent0011" data-link-type="dependency" data-source-line="32" id="lnk23"><path d="M542.14,183.41 C734.66,195.77 1193.97,231.04 1335,293.63 C1415.58,329.39 1434.37,348.15 1492,414.85 C1504.51,429.34 1512.4912,442.4762 1520.3012,458.0562" fill="none" id="Spring Boot Backend\n:8080-to-Redis\n:6379" style="stroke:#181818;stroke-width:1;"/><polygon fill="#181818" points="1522.99,463.42,1522.5327,453.5818,1520.7493,458.9502,1515.3809,457.1668,1522.99,463.42" style="stroke:#181818;stroke-width:1;"/><text fill="#000000" font-family="sans-serif" font-size="13" lengthAdjust="spacing" textLength="37.5781" x="1440.31" y="331.7351">Cache</text></g><!--link Spring Boot Backend\n:8080 to FastAPI AI Service\n:8000--><g class="link" data-entity-1="ent0005" data-entity-2="ent0006" data-link-type="dependency" data-source-line="33" id="lnk24"><path d="M457.52,210.21 C458.69,234.77 460.015,262.5768 461.185,287.1768" fill="none" id="Spring Boot Backend\n:8080-to-FastAPI AI Service\n:8000" style="stroke:#181818;stroke-width:1;"/><polygon fill="#181818" points="461.47,293.17,465.0379,283.9901,461.2325,288.1756,457.047,284.3702,461.47,293.17" style="stroke:#181818;stroke-width:1;"/><text fill="#000000" font-family="sans-serif" font-size="13" lengthAdjust="spacing" textLength="34.6709" x="460.92" y="260.1251">REST</text></g><!--link Spring Boot Backend\n:8080 to Prometheus\n:9090--><g class="link" data-entity-1="ent0005" data-entity-2="ent0007" data-link-type="dependency" data-source-line="34" id="lnk25"><path d="M420.41,210.21 C393,234.77 359.7397,264.5673 332.2697,289.1673" fill="none" id="Spring Boot Backend\n:8080-to-Prometheus\n:9090" style="stroke:#181818;stroke-width:1;"/><polygon fill="#181818" points="327.8,293.17,337.173,290.1457,331.5248,289.8344,331.8361,284.1861,327.8,293.17" style="stroke:#181818;stroke-width:1;"/><text fill="#000000" font-family="sans-serif" font-size="13" lengthAdjust="spacing" textLength="58.5063" x="379.92" y="260.1251">HTTP API</text></g><!--link Prometheus\n:9090 to Linux VM\nnode_exporter :9100--><g class="link" data-entity-1="ent0007" data-entity-2="ent0014" data-link-type="dependency" data-source-line="35" id="lnk26"><path d="M350.01,353.48 C355.68,355.5 361.41,357.34 367,358.85 C460.67,384.15 735.94,341.98 800,414.85 C840.41,460.83 820.91,495.05 800,552.57 C788.3,584.77 767.4459,610.0615 745.8159,631.0515" fill="none" id="Prometheus\n:9090-to-Linux VM\nnode_exporter :9100" style="stroke:#181818;stroke-width:1;"/><polygon fill="#181818" points="741.51,635.23,750.7544,631.8329,745.0982,631.7479,745.1832,626.0917,741.51,635.23" style="stroke:#181818;stroke-width:1;"/><text fill="#000000" font-family="sans-serif" font-size="13" lengthAdjust="spacing" textLength="39.019" x="824.55" y="501.4551">scrape</text></g><!--link Prometheus\n:9090 to Windows VM\nwindows_exporter :9182--><g class="link" data-entity-1="ent0007" data-entity-2="ent0015" data-link-type="dependency" data-source-line="36" id="lnk27"><path d="M349.92,353.84 C355.61,355.79 361.36,357.51 367,358.85 C477.05,385.08 799.92,328.49 873,414.85 C926.5,478.08 926.994,576.6472 923.014,629.0972" fill="none" id="Prometheus\n:9090-to-Windows VM\nwindows_exporter :9182" style="stroke:#181818;stroke-width:1;"/><polygon fill="#181818" points="922.56,635.08,927.2295,626.4085,922.9383,630.0943,919.2524,625.8031,922.56,635.08" style="stroke:#181818;stroke-width:1;"/><text fill="#000000" font-family="sans-serif" font-size="13" lengthAdjust="spacing" textLength="39.019" x="923.17" y="501.4551">scrape</text></g><!--link Prometheus\n:9090 to Blackbox Exporter\n:9115--><g class="link" data-entity-1="ent0007" data-entity-2="ent0008" data-link-type="dependency" data-source-line="37" id="lnk28"><path d="M310.28,359.18 C327.31,388.93 349.579,427.8429 366.639,457.6429" fill="none" id="Prometheus\n:9090-to-Blackbox Exporter\n:9115" style="stroke:#181818;stroke-width:1;"/><polygon fill="#181818" points="369.62,462.85,368.6199,453.052,367.1359,458.5108,361.6771,457.0267,369.62,462.85" style="stroke:#181818;stroke-width:1;"/><text fill="#000000" font-family="sans-serif" font-size="13" lengthAdjust="spacing" textLength="33.249" x="338.12" y="403.3451">probe</text></g><!--link Blackbox Exporter\n:9115 to Web/App Service\nHTTP/TCP--><g class="link" data-entity-1="ent0008" data-entity-2="ent0016" data-link-type="dependency" data-source-line="38" id="lnk29"><path d="M410.95,528.98 C432.76,559.41 461.8848,600.0431 483.6648,630.4331" fill="none" id="Blackbox Exporter\n:9115-to-Web/App Service\nHTTP/TCP" style="stroke:#181818;stroke-width:1;"/><polygon fill="#181818" points="487.16,635.31,485.1685,625.6646,484.2474,631.2459,478.666,630.3248,487.16,635.31" style="stroke:#181818;stroke-width:1;"/><text fill="#000000" font-family="sans-serif" font-size="13" lengthAdjust="spacing" textLength="99.6646" x="446.34" y="575.0651">HTTP/TCP/ICMP</text></g><!--link Prometheus\n:9090 to SNMP Simulator\n:161--><g class="link" data-entity-1="ent0007" data-entity-2="ent0017" data-link-type="dependency" data-source-line="39" id="lnk30"><path d="M349.91,353.9 C355.6,355.83 361.36,357.54 367,358.85 C498.28,389.43 863.64,333.35 971,414.85 C1047.24,472.73 1090.8115,575.5291 1109.7415,629.4191" fill="none" id="Prometheus\n:9090-to-SNMP Simulator\n:161" style="stroke:#181818;stroke-width:1;"/><polygon fill="#181818" points="1111.73,635.08,1112.5212,625.263,1110.0729,630.3626,1104.9733,627.9143,1111.73,635.08" style="stroke:#181818;stroke-width:1;"/><text fill="#000000" font-family="sans-serif" font-size="13" lengthAdjust="spacing" textLength="114.8608" x="1075.94" y="501.4551">SNMP exporter&#21487;&#36873;</text></g><!--link FastAPI AI Service\n:8000 to Chroma / Vector DB--><g class="link" data-entity-1="ent0006" data-entity-2="ent0012" data-link-type="dependency" data-source-line="40" id="lnk31"><path d="M542.17,331.15 C707.24,340.2 1082.57,365.64 1200,414.85 C1231.18,427.92 1256.353,449.4617 1275.103,468.2617" fill="none" id="FastAPI AI Service\n:8000-to-Chroma / Vector DB" style="stroke:#181818;stroke-width:1;"/><polygon fill="#181818" points="1279.34,472.51,1275.8167,463.3129,1275.8092,468.9698,1270.1523,468.9622,1279.34,472.51" style="stroke:#181818;stroke-width:1;"/><text fill="#000000" font-family="sans-serif" font-size="13" lengthAdjust="spacing" textLength="52" x="1169.17" y="403.3451">&#21521;&#37327;&#26816;&#32034;</text></g><!--link FastAPI AI Service\n:8000 to OpenAI-compatible API--><g class="link" data-entity-1="ent0006" data-entity-2="ent0019" data-link-type="dependency" data-source-line="41" id="lnk32"><path d="M506.42,359.18 C551.13,392.07 614.8665,438.9651 654.6365,468.2151" fill="none" id="FastAPI AI Service\n:8000-to-OpenAI-compatible API" style="stroke:#181818;stroke-width:1;"/><polygon fill="#181818" points="659.47,471.77,654.5897,463.2153,655.4421,468.8076,649.8498,469.6599,659.47,471.77" style="stroke:#181818;stroke-width:1;"/><text fill="#000000" font-family="sans-serif" font-size="13" lengthAdjust="spacing" textLength="52" x="571.16" y="403.3451">&#27169;&#22411;&#35843;&#29992;</text></g><?plantuml-src ZPHHRz9G5CVV-obE-au0YGXxC04s8sPeNGbxMM8kxLKQuTwc58Sn9alsiCt9q6J6pEWCk6H44zY3YuaF-cbQwBVmj4LTAMMyaD9pVlzxphd_KyPL2kBuU63l_x0lkvFpVUja8C8B0O0OflQOA2Q8bHPDWNNG6NyRERrBvrDV55uA0lDGw-UnIt_iMAzw_r25DtJEA4DMrWsDFO4yvoRaYVAKCdMBhMGIcOGOJBn3ccPEAaAk238rdcaAzV8IitcImHlKhD5M4-FPH7Osdg_ZALNUXhMspWsJ6cvQCddpIitskmkxCvofMIKcgP8cXalFvOVhIALIYRGOY6nGLNEFJQTkPOEHGWtB8X272bLCRi1g_ifvavCFzk7doV2NTRPd3K-Thw_7HoEhlniQrhh6McsebBQO2pwYqmu06mZDOLDZAjzkUjdR_dC0oDoO1MWrdjFr_zEzMovByN91cicJxvSaaBL6gqwm4-mscKvwpIXrtbBnni_ExK7FEZtq1nXgue5EMQuOSzyGKwlMAU2rUW9XdyLYjnTQ15R0hLAEkx-miIQNeqJ27aLsClpjl1_w_uM5vtWQWOj7_Dvglh045d05OWMYrEWINBJZKSJlzLgDy3PCH-OENPWNzh35HaE9fc8GdKOBBE6-9LGYTnLPtU1LHADJ_3eYJJsTW_iSBnPAKdGLSmsFkFV-RrDMT-Ji70YBBiqJc_CXG2dhpLjdhsj_sHb_xr-lCN-3KCRVkyd5Bkx07m00?></g></svg>