<svg xmlns="http://www.w3.org/2000/svg" xmlns:xlink="http://www.w3.org/1999/xlink" contentStyleType="text/css" data-diagram-type="DESCRIPTION" height="728px" preserveAspectRatio="none" style="width:1212px;height:728px;background:#FFFFFF;" version="1.1" viewBox="0 0 1212 728" width="1212px" zoomAndPan="magnify"><?plantuml 1.2026.3?><defs/><g><!--cluster Windows--><g class="cluster" data-qualified-name="Windows" data-source-line="3" id="ent0002"><polygon fill="none" points="248,16,258,6,1037,6,1037,565.55,1027,575.55,248,575.55,248,16" style="stroke:#181818;stroke-width:1;"/><line style="stroke:#181818;stroke-width:1;" x1="1027" x2="1037" y1="16" y2="6"/><line style="stroke:#181818;stroke-width:1;" x1="248" x2="1027" y1="16" y2="16"/><line style="stroke:#181818;stroke-width:1;" x1="1027" x2="1027" y1="16" y2="575.55"/><text fill="#000000" font-family="sans-serif" font-size="14" font-weight="700" lengthAdjust="spacing" textLength="123.0742" x="576.9629" y="33.5332">Windows &#24320;&#21457;&#20027;&#26426;</text></g><!--cluster ???--><g class="cluster" data-qualified-name="Windows...." data-source-line="4" id="ent0003"><polygon fill="none" points="272,171.61,282,161.61,462,161.61,462,266.83,452,276.83,272,276.83,272,171.61" style="stroke:#181818;stroke-width:1;"/><line style="stroke:#181818;stroke-width:1;" x1="452" x2="462" y1="171.61" y2="161.61"/><line style="stroke:#181818;stroke-width:1;" x1="272" x2="452" y1="171.61" y2="171.61"/><line style="stroke:#181818;stroke-width:1;" x1="452" x2="452" y1="171.61" y2="276.83"/><text fill="#000000" font-family="sans-serif" font-size="14" font-weight="700" lengthAdjust="spacing" textLength="43.3125" x="341.3438" y="189.1432">&#27983;&#35272;&#22120;</text></g><!--cluster Spring Boot ??--><g class="cluster" data-qualified-name="Windows.Spring Boot .." data-source-line="8" id="ent0005"><polygon fill="none" points="757,310.83,767,300.83,945,300.83,945,395.44,935,405.44,757,405.44,757,310.83" style="stroke:#181818;stroke-width:1;"/><line style="stroke:#181818;stroke-width:1;" x1="935" x2="945" y1="310.83" y2="300.83"/><line style="stroke:#181818;stroke-width:1;" x1="757" x2="935" y1="310.83" y2="310.83"/><line style="stroke:#181818;stroke-width:1;" x1="935" x2="935" y1="310.83" y2="405.44"/><text fill="#000000" font-family="sans-serif" font-size="14" font-weight="700" lengthAdjust="spacing" textLength="112.8613" x="790.5693" y="328.3632">Spring Boot &#36827;&#31243;</text></g><!--cluster FastAPI ??--><g class="cluster" data-qualified-name="Windows.FastAPI .." data-source-line="12" id="ent0007"><polygon fill="none" points="804,456.94,814,446.94,974,446.94,974,541.55,964,551.55,804,551.55,804,456.94" style="stroke:#181818;stroke-width:1;"/><line style="stroke:#181818;stroke-width:1;" x1="964" x2="974" y1="456.94" y2="446.94"/><line style="stroke:#181818;stroke-width:1;" x1="804" x2="964" y1="456.94" y2="456.94"/><line style="stroke:#181818;stroke-width:1;" x1="964" x2="964" y1="456.94" y2="551.55"/><text fill="#000000" font-family="sans-serif" font-size="14" font-weight="700" lengthAdjust="spacing" textLength="84.8887" x="842.5557" y="474.4732">FastAPI &#36827;&#31243;</text></g><!--cluster Docker Desktop--><g class="cluster" data-qualified-name="Windows.Docker Desktop" data-source-line="16" id="ent0009"><polygon fill="none" points="486,65,496,55,963,55,963,261.53,953,271.53,486,271.53,486,65" style="stroke:#181818;stroke-width:1;"/><line style="stroke:#181818;stroke-width:1;" x1="953" x2="963" y1="65" y2="55"/><line style="stroke:#181818;stroke-width:1;" x1="486" x2="953" y1="65" y2="65"/><line style="stroke:#181818;stroke-width:1;" x1="953" x2="953" y1="65" y2="271.53"/><text fill="#000000" font-family="sans-serif" font-size="14" font-weight="700" lengthAdjust="spacing" textLength="106.5928" x="667.2036" y="82.5332">Docker Desktop</text></g><!--cluster WSL--><g class="cluster" data-qualified-name="WSL" data-source-line="24" id="ent0014"><polygon fill="none" points="16,439.44,26,429.44,224,429.44,224,693.66,214,703.66,16,703.66,16,439.44" style="stroke:#181818;stroke-width:1;"/><line style="stroke:#181818;stroke-width:1;" x1="214" x2="224" y1="439.44" y2="429.44"/><line style="stroke:#181818;stroke-width:1;" x1="16" x2="214" y1="439.44" y2="439.44"/><line style="stroke:#181818;stroke-width:1;" x1="214" x2="214" y1="439.44" y2="703.66"/><text fill="#000000" font-family="sans-serif" font-size="14" font-weight="700" lengthAdjust="spacing" textLength="131.4551" x="50.2725" y="456.9732">WSL2 Ubuntu-24.04</text><text fill="#000000" font-family="sans-serif" font-size="14" font-weight="700" lengthAdjust="spacing" textLength="102.8604" x="64.5698" y="474.5826">&#30495;&#23454; Linux &#33410;&#28857;</text></g><!--cluster DataLayer--><g class="cluster" data-qualified-name="DataLayer" data-source-line="29" id="ent0017"><polygon fill="none" points="690,609.55,700,599.55,947,599.55,947,693.16,937,703.16,690,703.16,690,609.55" style="stroke:#181818;stroke-width:1;"/><line style="stroke:#181818;stroke-width:1;" x1="937" x2="947" y1="609.55" y2="599.55"/><line style="stroke:#181818;stroke-width:1;" x1="690" x2="937" y1="609.55" y2="609.55"/><line style="stroke:#181818;stroke-width:1;" x1="937" x2="937" y1="609.55" y2="703.16"/><text fill="#000000" font-family="sans-serif" font-size="14" font-weight="700" lengthAdjust="spacing" textLength="115.5" x="756.75" y="627.0832">&#21518;&#32493;&#21487;&#25193;&#23637;&#25968;&#25454;&#23618;</text></g><!--cluster LLM--><g class="cluster" data-qualified-name="LLM" data-source-line="34" id="ent0020"><path d="M981.2471,612.2795 C986.0321,606.4962 991.5281,606.6553 995.2057,613.5032 C999.1401,605.5466 1003.7895,604.4803 1009.8099,611.464 C1013.6139,604.792 1019.3561,603.9828 1024.2735,610.2161 C1027.3346,601.7296 1034.6584,601.0867 1039.4039,608.6257 C1044.2019,603.2752 1048.1202,603.5764 1052.3136,609.3287 C1057.3561,602.9345 1062.2832,602.1632 1067.4629,609.1735 C1070.4209,601.6458 1075.7763,601.2509 1080.9719,606.8751 C1085.46,599.4664 1091.6329,600.7601 1095.0047,607.9481 C1100.2466,601.5033 1107.0304,601.5797 1110.9745,609.401 C1114.2063,603.7094 1119.9686,603.6027 1123.2881,609.3063 C1128.783,601.4702 1134.3872,601.1813 1139.1409,610.0114 C1144.542,603.7575 1149.5283,602.9333 1154.2159,610.7745 C1158.3542,604.613 1164.3013,605.987 1167.3883,611.9195 C1173.6494,605.0978 1178.5753,606.4674 1183.388,613.5823 C1190.5128,616.2123 1191.1379,622.3231 1185.6796,627.0881 C1193.609,630.1021 1194.4828,636.5731 1187.4725,641.4519 C1195.5979,643.2189 1197.6256,649.3081 1191.2179,655.0717 C1197.0322,660.4846 1195.6267,665.2459 1188.7567,668.2986 C1194.6798,675.3101 1193.0971,679.9311 1184.7408,683.0572 C1191.5504,688.2093 1189.7014,692.3315 1183.609,696.3882 C1179.4238,705.1353 1172.394,704.2854 1167.2916,697.342 C1162.893,702.5557 1158.0752,703.4182 1154.6346,696.3543 C1150.6822,703.0906 1144.3965,704.6913 1139.646,697.1948 C1134.5176,704.0673 1129.4307,705.1705 1123.6712,697.9081 C1120.3471,703.8175 1115.0457,704.6391 1111.1896,698.4572 C1106.7921,705.8829 1099.4562,705.7283 1095.4542,698.0453 C1092.6249,704.0777 1085.9577,704.7683 1082.0118,699.3569 C1076.363,705.4946 1071.5763,706.5079 1066.898,698.3322 C1062.5441,706.0443 1055.4462,706.3254 1051.3064,698.1224 C1047.185,704.1729 1043.0516,704.3002 1038.328,698.7989 C1033.1828,705.9453 1025.3962,704.5141 1022.5599,696.4114 C1017.8975,703.439 1013.6563,703.6272 1008.5763,696.8339 C1004.1603,702.8971 998.6083,703.9816 993.8866,697.1831 C990.3587,704.5473 985.2702,703.127 980.7868,698.2016 C971.986,694.093 971.7186,689.0114 979.1121,683.1061 C970.4204,680.6631 970.5502,673.6966 975.8163,668.1731 C969.197,666.1088 967.9702,660.5132 972.6697,655.6132 C965.9599,649.7788 969.6077,643.6592 976.408,641.3709 C970.8612,637.6555 971.0539,631.0549 977.2508,628.0844 C971.6543,621.3675 973.3166,615.576 981.2471,612.2795" fill="none" style="stroke:#181818;stroke-width:1;"/><text fill="#000000" font-family="sans-serif" font-size="14" font-weight="700" lengthAdjust="spacing" textLength="72.1875" x="1043.9063" y="631.5832">&#22823;&#27169;&#22411;&#26381;&#21153;</text></g><!--entity Vue--><g class="entity" data-qualified-name="Windows.....Vue" data-source-line="5" id="ent0004"><rect fill="#F1F1F1" height="58.2188" rx="2.5" ry="2.5" style="stroke:#181818;stroke-width:0.5;" width="158.4404" x="287.78" y="202.61"/><polygon fill="#F1F1F1" points="429.2204,207.61,429.2204,221.61,441.2204,221.61,441.2204,213.61,435.2204,207.61,429.2204,207.61" style="stroke:#181818;stroke-width:0.5;"/><line style="stroke:#181818;stroke-width:0.5;" x1="435.2204" x2="435.2204" y1="207.61" y2="213.61"/><line style="stroke:#181818;stroke-width:0.5;" x1="441.2204" x2="435.2204" y1="213.61" y2="213.61"/><text fill="#000000" font-family="sans-serif" font-size="14" lengthAdjust="spacing" textLength="64.5859" x="297.78" y="230.1432">Vue3 &#21069;&#31471;</text><text fill="#000000" font-family="sans-serif" font-size="14" lengthAdjust="spacing" textLength="128.4404" x="297.78" y="247.7526">http://127.0.0.1:5173</text></g><!--entity Backend--><g class="entity" data-qualified-name="Windows.Spring Boot ...Backend" data-source-line="9" id="ent0006"><rect fill="#F1F1F1" height="47.6094" rx="2.5" ry="2.5" style="stroke:#181818;stroke-width:0.5;" width="131.8545" x="785.07" y="341.83"/><rect fill="#F1F1F1" height="10" style="stroke:#181818;stroke-width:0.5;" width="15" x="896.9245" y="346.83"/><rect fill="#F1F1F1" height="2" style="stroke:#181818;stroke-width:0.5;" width="4" x="894.9245" y="348.83"/><rect fill="#F1F1F1" height="2" style="stroke:#181818;stroke-width:0.5;" width="4" x="894.9245" y="352.83"/><text fill="#000000" font-family="sans-serif" font-size="14" lengthAdjust="spacing" textLength="91.8545" x="800.07" y="376.3632">backend :8080</text></g><!--entity AiService--><g class="entity" data-qualified-name="Windows.FastAPI ...AiService" data-source-line="13" id="ent0008"><rect fill="#F1F1F1" height="47.6094" rx="2.5" ry="2.5" style="stroke:#181818;stroke-width:0.5;" width="138.8271" x="819.59" y="487.94"/><rect fill="#F1F1F1" height="10" style="stroke:#181818;stroke-width:0.5;" width="15" x="938.4171" y="492.94"/><rect fill="#F1F1F1" height="2" style="stroke:#181818;stroke-width:0.5;" width="4" x="936.4171" y="494.94"/><rect fill="#F1F1F1" height="2" style="stroke:#181818;stroke-width:0.5;" width="4" x="936.4171" y="498.94"/><text fill="#000000" font-family="sans-serif" font-size="14" lengthAdjust="spacing" textLength="98.8271" x="834.59" y="522.4732">ai-service :8000</text></g><!--entity Redis--><g class="entity" data-qualified-name="Windows.Docker Desktop.Redis" data-source-line="17" id="ent0010"><path d="M852.64,106 C852.64,96 899.9984,96 899.9984,96 C899.9984,96 947.3568,96 947.3568,106 L947.3568,132.6094 C947.3568,142.6094 899.9984,142.6094 899.9984,142.6094 C899.9984,142.6094 852.64,142.6094 852.64,132.6094 L852.64,106" fill="#F1F1F1" style="stroke:#181818;stroke-width:0.5;"/><path d="M852.64,106 C852.64,116 899.9984,116 899.9984,116 C899.9984,116 947.3568,116 947.3568,106" fill="none" style="stroke:#181818;stroke-width:0.5;"/><text fill="#000000" font-family="sans-serif" font-size="14" lengthAdjust="spacing" textLength="74.7168" x="862.64" y="134.5332">Redis :6379</text></g><!--entity DockerProm--><g class="entity" data-qualified-name="Windows.Docker Desktop.DockerProm" data-source-line="18" id="ent0011"><path d="M634.68,106 C634.68,96 726.0003,96 726.0003,96 C726.0003,96 817.3206,96 817.3206,106 L817.3206,132.6094 C817.3206,142.6094 726.0003,142.6094 726.0003,142.6094 C726.0003,142.6094 634.68,142.6094 634.68,132.6094 L634.68,106" fill="#F1F1F1" style="stroke:#181818;stroke-width:0.5;"/><path d="M634.68,106 C634.68,116 726.0003,116 726.0003,116 C726.0003,116 817.3206,116 817.3206,106" fill="none" style="stroke:#181818;stroke-width:0.5;"/><text fill="#000000" font-family="sans-serif" font-size="14" lengthAdjust="spacing" textLength="162.6406" x="644.68" y="134.5332">Docker Prometheus :9090</text></g><!--entity Blackbox--><g class="entity" data-qualified-name="Windows.Docker Desktop.Blackbox" data-source-line="19" id="ent0012"><rect fill="#F1F1F1" height="47.6094" rx="2.5" ry="2.5" style="stroke:#181818;stroke-width:0.5;" width="192.5303" x="754.73" y="207.92"/><rect fill="#F1F1F1" height="10" style="stroke:#181818;stroke-width:0.5;" width="15" x="927.2603" y="212.92"/><rect fill="#F1F1F1" height="2" style="stroke:#181818;stroke-width:0.5;" width="4" x="925.2603" y="214.92"/><rect fill="#F1F1F1" height="2" style="stroke:#181818;stroke-width:0.5;" width="4" x="925.2603" y="218.92"/><text fill="#000000" font-family="sans-serif" font-size="14" lengthAdjust="spacing" textLength="152.5303" x="769.73" y="242.4532">Blackbox Exporter :9115</text></g><!--entity DockerNode--><g class="entity" data-qualified-name="Windows.Docker Desktop.DockerNode" data-source-line="20" id="ent0013"><rect fill="#F1F1F1" height="47.6094" rx="2.5" ry="2.5" style="stroke:#181818;stroke-width:0.5;" width="217.4473" x="502.28" y="207.92"/><rect fill="#F1F1F1" height="10" style="stroke:#181818;stroke-width:0.5;" width="15" x="699.7273" y="212.92"/><rect fill="#F1F1F1" height="2" style="stroke:#181818;stroke-width:0.5;" width="4" x="697.7273" y="214.92"/><rect fill="#F1F1F1" height="2" style="stroke:#181818;stroke-width:0.5;" width="4" x="697.7273" y="218.92"/><text fill="#000000" font-family="sans-serif" font-size="14" lengthAdjust="spacing" textLength="177.4473" x="517.28" y="242.4532">Docker node_exporter :9100</text></g><!--entity WslNode--><g class="entity" data-qualified-name="WSL.WslNode" data-source-line="25" id="ent0015"><rect fill="#F1F1F1" height="47.6094" rx="2.5" ry="2.5" style="stroke:#181818;stroke-width:0.5;" width="176.999" x="31.5" y="640.05"/><rect fill="#F1F1F1" height="10" style="stroke:#181818;stroke-width:0.5;" width="15" x="188.499" y="645.05"/><rect fill="#F1F1F1" height="2" style="stroke:#181818;stroke-width:0.5;" width="4" x="186.499" y="647.05"/><rect fill="#F1F1F1" height="2" style="stroke:#181818;stroke-width:0.5;" width="4" x="186.499" y="651.05"/><text fill="#000000" font-family="sans-serif" font-size="14" lengthAdjust="spacing" textLength="136.999" x="46.5" y="674.5832">node_exporter :19100</text></g><!--entity WslProm--><g class="entity" data-qualified-name="WSL.WslProm" data-source-line="26" id="ent0016"><path d="M31.79,498.44 C31.79,488.44 120,488.44 120,488.44 C120,488.44 208.2099,488.44 208.2099,498.44 L208.2099,525.0494 C208.2099,535.0494 120,535.0494 120,535.0494 C120,535.0494 31.79,535.0494 31.79,525.0494 L31.79,498.44" fill="#F1F1F1" style="stroke:#181818;stroke-width:0.5;"/><path d="M31.79,498.44 C31.79,508.44 120,508.44 120,508.44 C120,508.44 208.2099,508.44 208.2099,498.44" fill="none" style="stroke:#181818;stroke-width:0.5;"/><text fill="#000000" font-family="sans-serif" font-size="14" lengthAdjust="spacing" textLength="156.4199" x="41.79" y="526.9732">WSL Prometheus :19090</text></g><!--entity MySQL--><g class="entity" data-qualified-name="DataLayer.MySQL" data-source-line="30" id="ent0018"><path d="M706.2,650.55 C706.2,640.55 758.9998,640.55 758.9998,640.55 C758.9998,640.55 811.7996,640.55 811.7996,650.55 L811.7996,677.1594 C811.7996,687.1594 758.9998,687.1594 758.9998,687.1594 C758.9998,687.1594 706.2,687.1594 706.2,677.1594 L706.2,650.55" fill="#F1F1F1" style="stroke:#181818;stroke-width:0.5;"/><path d="M706.2,650.55 C706.2,660.55 758.9998,660.55 758.9998,660.55 C758.9998,660.55 811.7996,660.55 811.7996,650.55" fill="none" style="stroke:#181818;stroke-width:0.5;"/><text fill="#000000" font-family="sans-serif" font-size="14" lengthAdjust="spacing" textLength="85.5996" x="716.2" y="679.0832">MySQL :3306</text></g><!--entity VectorDB--><g class="entity" data-qualified-name="DataLayer.VectorDB" data-source-line="31" id="ent0019"><path d="M847.1,650.55 C847.1,640.55 888.9999,640.55 888.9999,640.55 C888.9999,640.55 930.8998,640.55 930.8998,650.55 L930.8998,677.1594 C930.8998,687.1594 888.9999,687.1594 888.9999,687.1594 C888.9999,687.1594 847.1,687.1594 847.1,677.1594 L847.1,650.55" fill="#F1F1F1" style="stroke:#181818;stroke-width:0.5;"/><path d="M847.1,650.55 C847.1,660.55 888.9999,660.55 888.9999,660.55 C888.9999,660.55 930.8998,660.55 930.8998,650.55" fill="none" style="stroke:#181818;stroke-width:0.5;"/><text fill="#000000" font-family="sans-serif" font-size="14" lengthAdjust="spacing" textLength="63.7998" x="857.1" y="679.0832">Vector DB</text></g><!--entity LLMAPI--><g class="entity" data-qualified-name="LLM.LLMAPI" data-source-line="35" id="ent0021"><rect fill="#F1F1F1" height="47.6094" rx="2.5" ry="2.5" style="stroke:#181818;stroke-width:0.5;" width="186.2959" x="986.85" y="640.05"/><rect fill="#F1F1F1" height="10" style="stroke:#181818;stroke-width:0.5;" width="15" x="1153.1459" y="645.05"/><rect fill="#F1F1F1" height="2" style="stroke:#181818;stroke-width:0.5;" width="4" x="1151.1459" y="647.05"/><rect fill="#F1F1F1" height="2" style="stroke:#181818;stroke-width:0.5;" width="4" x="1151.1459" y="651.05"/><text fill="#000000" font-family="sans-serif" font-size="14" lengthAdjust="spacing" textLength="146.2959" x="1001.85" y="674.5832">OpenAI-compatible API</text></g><!--link Vue to Backend--><g class="link" data-entity-1="ent0004" data-entity-2="ent0006" data-link-type="dependency" data-source-line="38" id="lnk22"><path d="M367,261.13 C367,302.71 367,373.66 367,373.66 C367,373.66 646.16,373.66 778.72,373.66" fill="none" id="Vue-to-Backend" style="stroke:#181818;stroke-width:1;"/><polygon fill="#181818" points="784.72,373.66,775.72,369.66,779.72,373.66,775.72,377.66,784.72,373.66" style="stroke:#181818;stroke-width:1;"/><text fill="#000000" font-family="sans-serif" font-size="13" lengthAdjust="spacing" textLength="72.2236" x="446.59" y="370.1551">HTTP REST</text></g><!--link Backend to Redis--><g class="link" data-entity-1="ent0006" data-entity-2="ent0010" data-link-type="dependency" data-source-line="39" id="lnk23"><path d="M917.25,365.66 C936.71,365.66 952.89,365.66 952.89,365.66 C952.89,365.66 952.89,119.66 952.89,119.66 C952.89,119.66 956.87,119.66 953.62,119.66" fill="none" id="Backend-to-Redis" style="stroke:#181818;stroke-width:1;"/><polygon fill="#181818" points="947.62,119.66,956.62,123.66,952.62,119.66,956.62,115.66,947.62,119.66" style="stroke:#181818;stroke-width:1;"/><text fill="#000000" font-family="sans-serif" font-size="13" lengthAdjust="spacing" textLength="37.5781" x="914.89" y="272.3451">Cache</text></g><!--link Backend to DockerProm--><g class="link" data-entity-1="ent0006" data-entity-2="ent0011" data-link-type="dependency" data-source-line="40" id="lnk24"><path d="M784.82,357.66 C759.79,357.66 737.23,357.66 737.23,357.66 C737.23,357.66 737.23,209.32 737.23,149.03" fill="none" id="Backend-to-DockerProm" style="stroke:#181818;stroke-width:1;"/><polygon fill="#181818" points="737.23,143.03,733.23,152.03,737.23,148.03,741.23,152.03,737.23,143.03" style="stroke:#181818;stroke-width:1;"/><text fill="#000000" font-family="sans-serif" font-size="13" lengthAdjust="spacing" textLength="94.6563" x="642.23" y="270.6351">Prometheus API</text></g><!--link Backend to WslProm--><g class="link" data-entity-1="ent0006" data-entity-2="ent0016" data-link-type="dependency" data-source-line="41" id="lnk25"><path d="M793.98,389.75 C793.98,431.22 793.98,511.66 793.98,511.66 C793.98,511.66 397.31,511.66 214.46,511.66" fill="none" id="Backend-to-WslProm" style="stroke:#181818;stroke-width:1;"/><polygon fill="#181818" points="208.46,511.66,217.46,515.66,213.46,511.66,217.46,507.66,208.46,511.66" style="stroke:#181818;stroke-width:1;"/><text fill="#000000" font-family="sans-serif" font-size="13" lengthAdjust="spacing" textLength="94.6563" x="467.17" y="508.1551">Prometheus API</text></g><!--link Backend to AiService--><g class="link" data-entity-1="ent0006" data-entity-2="ent0008" data-link-type="dependency" data-source-line="42" id="lnk26"><path d="M868.26,389.76 C868.26,416.84 868.26,454.5 868.26,481.58" fill="none" id="Backend-to-AiService" style="stroke:#181818;stroke-width:1;"/><polygon fill="#181818" points="868.26,487.58,872.26,478.58,868.26,482.58,864.26,478.58,868.26,487.58" style="stroke:#181818;stroke-width:1;"/><text fill="#000000" font-family="sans-serif" font-size="13" lengthAdjust="spacing" textLength="34.6709" x="833.26" y="435.1651">REST</text></g><!--link Backend to MySQL--><g class="link" data-entity-1="ent0006" data-entity-2="ent0018" data-link-type="dependency" data-source-line="43" id="lnk27"><path d="M802.89,389.79 C802.89,445.95 802.89,578.75 802.89,634.31" fill="none" id="Backend-to-MySQL" style="stroke:#181818;stroke-width:1;"/><polygon fill="#181818" points="802.89,640.31,806.89,631.31,802.89,635.31,798.89,631.31,802.89,640.31" style="stroke:#181818;stroke-width:1;"/><text fill="#000000" font-family="sans-serif" font-size="13" lengthAdjust="spacing" textLength="33.9473" x="768.89" y="511.5451">JDBC</text></g><!--link AiService to VectorDB--><g class="link" data-entity-1="ent0008" data-entity-2="ent0019" data-link-type="dependency" data-source-line="44" id="lnk28"><path d="M889,535.85 C889,564.5 889,605.99 889,634.37" fill="none" id="AiService-to-VectorDB" style="stroke:#181818;stroke-width:1;"/><polygon fill="#181818" points="889,640.37,893,631.37,889,635.37,885,631.37,889,640.37" style="stroke:#181818;stroke-width:1;"/><text fill="#000000" font-family="sans-serif" font-size="13" lengthAdjust="spacing" textLength="52" x="836" y="584.6051">&#21521;&#37327;&#26816;&#32034;</text></g><!--link AiService to LLMAPI--><g class="link" data-entity-1="ent0008" data-entity-2="ent0021" data-link-type="dependency" data-source-line="45" id="lnk29"><path d="M944.66,535.82 C944.66,578.65 944.66,663.66 944.66,663.66 C944.66,663.66 957.1,663.66 980.37,663.66" fill="none" id="AiService-to-LLMAPI" style="stroke:#181818;stroke-width:1;"/><polygon fill="#181818" points="986.37,663.66,977.37,659.66,981.37,663.66,977.37,667.66,986.37,663.66" style="stroke:#181818;stroke-width:1;"/><text fill="#000000" font-family="sans-serif" font-size="13" lengthAdjust="spacing" textLength="42.6118" x="901.66" y="635.0851">HTTPS</text></g><!--link DockerProm to DockerNode--><g class="link" data-entity-1="ent0011" data-entity-2="ent0013" data-link-type="dependency" data-source-line="47" id="lnk30"><path d="M677.2,142.87 C677.2,161.93 677.2,182.65 677.2,201.8" fill="none" id="DockerProm-to-DockerNode" style="stroke:#181818;stroke-width:1;"/><polygon fill="#181818" points="677.2,207.8,681.2,198.8,677.2,202.8,673.2,198.8,677.2,207.8" style="stroke:#181818;stroke-width:1;"/><text fill="#000000" font-family="sans-serif" font-size="13" lengthAdjust="spacing" textLength="39.019" x="637.2" y="171.8351">scrape</text></g><!--link DockerProm to Blackbox--><g class="link" data-entity-1="ent0011" data-entity-2="ent0012" data-link-type="dependency" data-source-line="48" id="lnk31"><path d="M796.46,142.87 C796.46,161.93 796.46,182.65 796.46,201.8" fill="none" id="DockerProm-to-Blackbox" style="stroke:#181818;stroke-width:1;"/><polygon fill="#181818" points="796.46,207.8,800.46,198.8,796.46,202.8,792.46,198.8,796.46,207.8" style="stroke:#181818;stroke-width:1;"/><text fill="#000000" font-family="sans-serif" font-size="13" lengthAdjust="spacing" textLength="33.249" x="762.46" y="171.8351">probe</text></g><!--link Blackbox to Backend--><g class="link" data-entity-1="ent0012" data-entity-2="ent0006" data-link-type="dependency" data-source-line="49" id="lnk32"><path d="M851,255.97 C851,280.24 851,311.36 851,335.57" fill="none" id="Blackbox-to-Backend" style="stroke:#181818;stroke-width:1;"/><polygon fill="#181818" points="851,341.57,855,332.57,851,336.57,847,332.57,851,341.57" style="stroke:#181818;stroke-width:1;"/><text fill="#000000" font-family="sans-serif" font-size="13" lengthAdjust="spacing" textLength="63.5527" x="787" y="295.2651">HTTP &#25506;&#27979;</text></g><!--link Blackbox to Vue--><g class="link" data-entity-1="ent0012" data-entity-2="ent0004" data-link-type="dependency" data-source-line="50" id="lnk33"><path d="M775.6,207.7 C775.6,191.35 775.6,172.66 775.6,172.66 C775.6,172.66 367,172.66 367,172.66 C367,172.66 367,181.43 367,196.19" fill="none" id="Blackbox-to-Vue" style="stroke:#181818;stroke-width:1;"/><polygon fill="#181818" points="367,202.19,371,193.19,367,197.19,363,193.19,367,202.19" style="stroke:#181818;stroke-width:1;"/><text fill="#000000" font-family="sans-serif" font-size="13" lengthAdjust="spacing" textLength="63.5527" x="510.05" y="169.1551">HTTP &#25506;&#27979;</text></g><!--link WslProm to WslNode--><g class="link" data-entity-1="ent0016" data-entity-2="ent0015" data-link-type="dependency" data-source-line="52" id="lnk34"><path d="M120,535.51 C120,563.92 120,605.2 120,633.75" fill="none" id="WslProm-to-WslNode" style="stroke:#181818;stroke-width:1;"/><polygon fill="#181818" points="120,639.75,124,630.75,120,634.75,116,630.75,120,639.75" style="stroke:#181818;stroke-width:1;"/><text fill="#000000" font-family="sans-serif" font-size="13" lengthAdjust="spacing" textLength="39.019" x="80" y="584.1251">scrape</text></g><?plantuml-src VL9TJnD157tVNt7Jzy9k2vJkWqbBCM8M1HRXXSHCjwFTj9tPx4uLGaW8BmfDAJpmO6mme0arHf144XKJ_uoxhV_2sS_khX_PbvrxpfnpxvbhDNHY81EreAaJpBOC3DHaTIe8XDOmPDPrKgFFBR2_xzgzuvzVRft-jmmW2q9WMm3mgSvDRtJnqduro7X506Go_GdI66JMsZWFzdvt-E5gWzGPC-J9IIbNc13v9ydJKY7lQN8QlxWZH9AgOUhaAPGfPJ3wyNeuw8JQ6cqPb632nQj8Qs1I0tbMd1KzdR9VIMhTHHOhBItyMmVfMGkRptGDkrAYBrNILR-M5AjGxc121LiDHerGh8OOgYABuokufbiWp-GBHK_6EwSuWSQIILkOrN6RyujYqRVrCHTATrbkyk6gT1FcDmt-Kbn0BahIj3ztWANl14vkwuznx9eODtl0KM_8dUZjLIK7ZwfjmjhPtDI4EBL1XlqtzkKfA3ffRyBeO6-uzzNV1bNnCeYPfjoao6xTQWPUuopS-_4Wf2W9plPYYBgoZmw7jn_jtfMp_zw-Fd5EFZdTI_jwpn-5AofeYnjk9_GNjzHb1UHyNfpnUDuvmLZ36gFyHSl-9dgdIjcrrPgqNUE-xowSmPbzsd7wNVlWpACfoc9wx8S69gM5h5j1JAysCV2b2ydyrrNaUmxPx9rmJq66UwkhIx0ohwuAOSt5Wos2EQJLSG8PxmU7Oy6v1d5UaDx_IT6ESzeVFGJ9mVrAUKuOCrqe38cZzj7nhnSzv-tkyFDvYkMF7Soe2aAizV4axa9mYgMPoC1fIhJoCXWchV8ami9VGdGEpvsRJfBYvfs4XJ2O8AI4_sy0?></g></svg>