<svg xmlns="http://www.w3.org/2000/svg" xmlns:xlink="http://www.w3.org/1999/xlink" contentStyleType="text/css" data-diagram-type="SEQUENCE" height="563px" preserveAspectRatio="none" style="width:1027px;height:563px;background:#FFFFFF;" version="1.1" viewBox="0 0 1027 563" width="1027px" zoomAndPan="magnify"><?plantuml 1.2026.3?><defs/><g><g class="participant-lifeline" data-entity-uid="part1" data-qualified-name="Operator" data-source-line="1" id="part1-lifeline"><g><title>....</title><rect fill="#000000" fill-opacity="0.00000" height="397.2188" width="8" x="32" y="82.6094"/><line style="stroke:#181818;stroke-width:0.5;stroke-dasharray:5,5;" x1="36" x2="36" y1="82.6094" y2="479.8281"/></g></g><g class="participant-lifeline" data-entity-uid="part2" data-qualified-name="Frontend" data-source-line="2" id="part2-lifeline"><g><title>....</title><rect fill="#000000" fill-opacity="0.00000" height="397.2188" width="8" x="160" y="82.6094"/><line style="stroke:#181818;stroke-width:0.5;stroke-dasharray:5,5;" x1="164" x2="164" y1="82.6094" y2="479.8281"/></g></g><g class="participant-lifeline" data-entity-uid="part3" data-qualified-name="Backend" data-source-line="3" id="part3-lifeline"><g><title>Spring Boot..</title><rect fill="#000000" fill-opacity="0.00000" height="397.2188" width="8" x="381.2471" y="82.6094"/><line style="stroke:#181818;stroke-width:0.5;stroke-dasharray:5,5;" x1="384.668" x2="384.668" y1="82.6094" y2="479.8281"/></g></g><g class="participant-lifeline" data-entity-uid="part4" data-qualified-name="Collector" data-source-line="4" id="part4-lifeline"><g><title>.....</title><rect fill="#000000" fill-opacity="0.00000" height="397.2188" width="8" x="536.7324" y="82.6094"/><line style="stroke:#181818;stroke-width:0.5;stroke-dasharray:5,5;" x1="540.7324" x2="540.7324" y1="82.6094" y2="479.8281"/></g></g><g class="participant-lifeline" data-entity-uid="part5" data-qualified-name="Prometheus" data-source-line="5" id="part5-lifeline"><g><title>Prometheus</title><rect fill="#000000" fill-opacity="0.00000" height="397.2188" width="8" x="730.9067" y="82.6094"/><line style="stroke:#181818;stroke-width:0.5;stroke-dasharray:5,5;" x1="734.1655" x2="734.1655" y1="82.6094" y2="479.8281"/></g></g><g class="participant-lifeline" data-entity-uid="part6" data-qualified-name="Exporter" data-source-line="6" id="part6-lifeline"><g><title>node_exporter</title><rect fill="#000000" fill-opacity="0.00000" height="397.2188" width="8" x="897.1895" y="82.6094"/><line style="stroke:#181818;stroke-width:0.5;stroke-dasharray:5,5;" x1="901.0449" x2="901.0449" y1="82.6094" y2="479.8281"/></g></g><g class="participant-lifeline" data-entity-uid="part7" data-qualified-name="DB" data-source-line="7" id="part7-lifeline"><g><title>MySQL</title><rect fill="#000000" fill-opacity="0.00000" height="397.2188" width="8" x="985.6719" y="82.6094"/><line style="stroke:#181818;stroke-width:0.5;stroke-dasharray:5,5;" x1="989.334" x2="989.334" y1="82.6094" y2="479.8281"/></g></g><g class="participant participant-head" data-entity-uid="part1" data-qualified-name="Operator" data-source-line="1" id="part1-head"><text fill="#000000" font-family="sans-serif" font-size="14" lengthAdjust="spacing" textLength="56" x="5" y="79.5332">&#36816;&#32500;&#20154;&#21592;</text><ellipse cx="36" cy="13.5" fill="#E2E2F0" rx="8" ry="8" style="stroke:#181818;stroke-width:0.5;"/><path d="M36,21.5 L36,48.5 M23,29.5 L49,29.5 M36,48.5 L23,63.5 M36,48.5 L49,63.5" fill="none" style="stroke:#181818;stroke-width:0.5;"/></g><g class="participant participant-tail" data-entity-uid="part1" data-qualified-name="Operator" data-source-line="1" id="part1-tail"><text fill="#000000" font-family="sans-serif" font-size="14" lengthAdjust="spacing" textLength="56" x="5" y="493.3613">&#36816;&#32500;&#20154;&#21592;</text><ellipse cx="36" cy="504.9375" fill="#E2E2F0" rx="8" ry="8" style="stroke:#181818;stroke-width:0.5;"/><path d="M36,512.9375 L36,539.9375 M23,520.9375 L49,520.9375 M36,539.9375 L23,554.9375 M36,539.9375 L49,554.9375" fill="none" style="stroke:#181818;stroke-width:0.5;"/></g><g class="participant participant-head" data-entity-uid="part2" data-qualified-name="Frontend" data-source-line="2" id="part2-head"><rect fill="#E2E2F0" height="31.6094" rx="2.5" ry="2.5" style="stroke:#181818;stroke-width:0.5;" width="70" x="129" y="50"/><text fill="#000000" font-family="sans-serif" font-size="14" lengthAdjust="spacing" textLength="56" x="136" y="71.5332">&#21069;&#31471;&#39029;&#38754;</text></g><g class="participant participant-tail" data-entity-uid="part2" data-qualified-name="Frontend" data-source-line="2" id="part2-tail"><rect fill="#E2E2F0" height="31.6094" rx="2.5" ry="2.5" style="stroke:#181818;stroke-width:0.5;" width="70" x="129" y="478.8281"/><text fill="#000000" font-family="sans-serif" font-size="14" lengthAdjust="spacing" textLength="56" x="136" y="500.3613">&#21069;&#31471;&#39029;&#38754;</text></g><g class="participant participant-head" data-entity-uid="part3" data-qualified-name="Backend" data-source-line="3" id="part3-head"><rect fill="#E2E2F0" height="31.6094" rx="2.5" ry="2.5" style="stroke:#181818;stroke-width:0.5;" width="115.1582" x="327.668" y="50"/><text fill="#000000" font-family="sans-serif" font-size="14" lengthAdjust="spacing" textLength="101.1582" x="334.668" y="71.5332">Spring Boot&#21518;&#31471;</text></g><g class="participant participant-tail" data-entity-uid="part3" data-qualified-name="Backend" data-source-line="3" id="part3-tail"><rect fill="#E2E2F0" height="31.6094" rx="2.5" ry="2.5" style="stroke:#181818;stroke-width:0.5;" width="115.1582" x="327.668" y="478.8281"/><text fill="#000000" font-family="sans-serif" font-size="14" lengthAdjust="spacing" textLength="101.1582" x="334.668" y="500.3613">Spring Boot&#21518;&#31471;</text></g><g class="participant participant-head" data-entity-uid="part4" data-qualified-name="Collector" data-source-line="4" id="part4-head"><rect fill="#E2E2F0" height="31.6094" rx="2.5" ry="2.5" style="stroke:#181818;stroke-width:0.5;" width="84" x="498.7324" y="50"/><text fill="#000000" font-family="sans-serif" font-size="14" lengthAdjust="spacing" textLength="70" x="505.7324" y="71.5332">&#37319;&#38598;&#36866;&#37197;&#22120;</text></g><g class="participant participant-tail" data-entity-uid="part4" data-qualified-name="Collector" data-source-line="4" id="part4-tail"><rect fill="#E2E2F0" height="31.6094" rx="2.5" ry="2.5" style="stroke:#181818;stroke-width:0.5;" width="84" x="498.7324" y="478.8281"/><text fill="#000000" font-family="sans-serif" font-size="14" lengthAdjust="spacing" textLength="70" x="505.7324" y="500.3613">&#37319;&#38598;&#36866;&#37197;&#22120;</text></g><g class="participant participant-head" data-entity-uid="part5" data-qualified-name="Prometheus" data-source-line="5" id="part5-head"><text fill="#000000" font-family="sans-serif" font-size="14" lengthAdjust="spacing" textLength="75.4824" x="694.1655" y="79.5332">Prometheus</text><path d="M716.9067,29 C716.9067,19 734.9067,19 734.9067,19 C734.9067,19 752.9067,19 752.9067,29 L752.9067,55 C752.9067,65 734.9067,65 734.9067,65 C734.9067,65 716.9067,65 716.9067,55 L716.9067,29" fill="#E2E2F0" style="stroke:#181818;stroke-width:0.5;"/><path d="M716.9067,29 C716.9067,39 734.9067,39 734.9067,39 C734.9067,39 752.9067,39 752.9067,29" fill="none" style="stroke:#181818;stroke-width:0.5;"/></g><g class="participant participant-tail" data-entity-uid="part5" data-qualified-name="Prometheus" data-source-line="5" id="part5-tail"><text fill="#000000" font-family="sans-serif" font-size="14" lengthAdjust="spacing" textLength="75.4824" x="694.1655" y="493.3613">Prometheus</text><path d="M716.9067,506.4375 C716.9067,496.4375 734.9067,496.4375 734.9067,496.4375 C734.9067,496.4375 752.9067,496.4375 752.9067,506.4375 L752.9067,532.4375 C752.9067,542.4375 734.9067,542.4375 734.9067,542.4375 C734.9067,542.4375 716.9067,542.4375 716.9067,532.4375 L716.9067,506.4375" fill="#E2E2F0" style="stroke:#181818;stroke-width:0.5;"/><path d="M716.9067,506.4375 C716.9067,516.4375 734.9067,516.4375 734.9067,516.4375 C734.9067,516.4375 752.9067,516.4375 752.9067,506.4375" fill="none" style="stroke:#181818;stroke-width:0.5;"/></g><g class="participant participant-head" data-entity-uid="part6" data-qualified-name="Exporter" data-source-line="6" id="part6-head"><rect fill="#E2E2F0" height="31.6094" rx="2.5" ry="2.5" style="stroke:#181818;stroke-width:0.5;" width="104.2891" x="849.0449" y="50"/><text fill="#000000" font-family="sans-serif" font-size="14" lengthAdjust="spacing" textLength="90.2891" x="856.0449" y="71.5332">node_exporter</text></g><g class="participant participant-tail" data-entity-uid="part6" data-qualified-name="Exporter" data-source-line="6" id="part6-tail"><rect fill="#E2E2F0" height="31.6094" rx="2.5" ry="2.5" style="stroke:#181818;stroke-width:0.5;" width="104.2891" x="849.0449" y="478.8281"/><text fill="#000000" font-family="sans-serif" font-size="14" lengthAdjust="spacing" textLength="90.2891" x="856.0449" y="500.3613">node_exporter</text></g><g class="participant participant-head" data-entity-uid="part7" data-qualified-name="DB" data-source-line="7" id="part7-head"><text fill="#000000" font-family="sans-serif" font-size="14" lengthAdjust="spacing" textLength="46.6758" x="963.334" y="79.5332">MySQL</text><path d="M971.6719,29 C971.6719,19 989.6719,19 989.6719,19 C989.6719,19 1007.6719,19 1007.6719,29 L1007.6719,55 C1007.6719,65 989.6719,65 989.6719,65 C989.6719,65 971.6719,65 971.6719,55 L971.6719,29" fill="#E2E2F0" style="stroke:#181818;stroke-width:0.5;"/><path d="M971.6719,29 C971.6719,39 989.6719,39 989.6719,39 C989.6719,39 1007.6719,39 1007.6719,29" fill="none" style="stroke:#181818;stroke-width:0.5;"/></g><g class="participant participant-tail" data-entity-uid="part7" data-qualified-name="DB" data-source-line="7" id="part7-tail"><text fill="#000000" font-family="sans-serif" font-size="14" lengthAdjust="spacing" textLength="46.6758" x="963.334" y="493.3613">MySQL</text><path d="M971.6719,506.4375 C971.6719,496.4375 989.6719,496.4375 989.6719,496.4375 C989.6719,496.4375 1007.6719,496.4375 1007.6719,506.4375 L1007.6719,532.4375 C1007.6719,542.4375 989.6719,542.4375 989.6719,542.4375 C989.6719,542.4375 971.6719,542.4375 971.6719,532.4375 L971.6719,506.4375" fill="#E2E2F0" style="stroke:#181818;stroke-width:0.5;"/><path d="M971.6719,506.4375 C971.6719,516.4375 989.6719,516.4375 989.6719,516.4375 C989.6719,516.4375 1007.6719,516.4375 1007.6719,506.4375" fill="none" style="stroke:#181818;stroke-width:0.5;"/></g><g class="message" data-entity-1="part1" data-entity-2="part2" data-source-line="9" id="msg1"><polygon fill="#181818" points="152,110.9609,162,114.9609,152,118.9609,156,114.9609" style="stroke:#181818;stroke-width:1;"/><line style="stroke:#181818;stroke-width:1;" x1="36" x2="158" y1="114.9609" y2="114.9609"/><text fill="#000000" font-family="sans-serif" font-size="13" lengthAdjust="spacing" textLength="78" x="43" y="110.1045">&#25171;&#24320;&#30417;&#25511;&#22823;&#23631;</text></g><g class="message" data-entity-1="part2" data-entity-2="part3" data-source-line="10" id="msg2"><polygon fill="#181818" points="373.2471,141.3125,383.2471,145.3125,373.2471,149.3125,377.2471,145.3125" style="stroke:#181818;stroke-width:1;"/><line style="stroke:#181818;stroke-width:1;" x1="164" x2="379.2471" y1="145.3125" y2="145.3125"/><text fill="#000000" font-family="sans-serif" font-size="13" lengthAdjust="spacing" textLength="197.2471" x="171" y="140.4561">GET /api/dashboard/latest-metrics</text></g><g class="message" data-entity-1="part3" data-entity-2="part4" data-source-line="11" id="msg3"><polygon fill="#181818" points="528.7324,171.6641,538.7324,175.6641,528.7324,179.6641,532.7324,175.6641" style="stroke:#181818;stroke-width:1;"/><line style="stroke:#181818;stroke-width:1;" x1="385.2471" x2="534.7324" y1="175.6641" y2="175.6641"/><text fill="#000000" font-family="sans-serif" font-size="13" lengthAdjust="spacing" textLength="131.4854" x="392.2471" y="170.8076">queryMetrics(deviceId)</text></g><g class="message" data-entity-1="part4" data-entity-2="part5" data-source-line="12" id="msg4"><polygon fill="#181818" points="722.9067,202.0156,732.9067,206.0156,722.9067,210.0156,726.9067,206.0156" style="stroke:#181818;stroke-width:1;"/><line style="stroke:#181818;stroke-width:1;" x1="540.7324" x2="728.9067" y1="206.0156" y2="206.0156"/><text fill="#000000" font-family="sans-serif" font-size="13" lengthAdjust="spacing" textLength="170.1743" x="547.7324" y="201.1592">/api/v1/query?query=PromQL</text></g><g class="message" data-entity-1="part5" data-entity-2="part6" data-source-line="13" id="msg5"><polygon fill="#181818" points="889.1895,232.3672,899.1895,236.3672,889.1895,240.3672,893.1895,236.3672" style="stroke:#181818;stroke-width:1;"/><line style="stroke:#181818;stroke-width:1;" x1="734.9067" x2="895.1895" y1="236.3672" y2="236.3672"/><text fill="#000000" font-family="sans-serif" font-size="13" lengthAdjust="spacing" textLength="84.519" x="741.9067" y="231.5107">scrape metrics</text></g><g class="message" data-entity-1="part6" data-entity-2="part5" data-source-line="14" id="msg6"><polygon fill="#181818" points="745.9067,262.7188,735.9067,266.7188,745.9067,270.7188,741.9067,266.7188" style="stroke:#181818;stroke-width:1;"/><line style="stroke:#181818;stroke-width:1;stroke-dasharray:2,2;" x1="739.9067" x2="900.1895" y1="266.7188" y2="266.7188"/><text fill="#000000" font-family="sans-serif" font-size="13" lengthAdjust="spacing" textLength="142.2827" x="751.9067" y="261.8623">CPU/&#20869;&#23384;/&#30913;&#30424;/&#32593;&#32476;&#25351;&#26631;</text></g><g class="message" data-entity-1="part5" data-entity-2="part4" data-source-line="15" id="msg7"><polygon fill="#181818" points="551.7324,293.0703,541.7324,297.0703,551.7324,301.0703,547.7324,297.0703" style="stroke:#181818;stroke-width:1;"/><line style="stroke:#181818;stroke-width:1;stroke-dasharray:2,2;" x1="545.7324" x2="733.9067" y1="297.0703" y2="297.0703"/><text fill="#000000" font-family="sans-serif" font-size="13" lengthAdjust="spacing" textLength="78" x="557.7324" y="292.2139">&#25351;&#26631;&#26597;&#35810;&#32467;&#26524;</text></g><g class="message" data-entity-1="part4" data-entity-2="part4" data-source-line="16" id="msg8"><line style="stroke:#181818;stroke-width:1;" x1="540.7324" x2="582.7324" y1="327.4219" y2="327.4219"/><line style="stroke:#181818;stroke-width:1;" x1="582.7324" x2="582.7324" y1="327.4219" y2="340.4219"/><line style="stroke:#181818;stroke-width:1;" x1="541.7324" x2="582.7324" y1="340.4219" y2="340.4219"/><polygon fill="#181818" points="551.7324,336.4219,541.7324,340.4219,551.7324,344.4219,547.7324,340.4219" style="stroke:#181818;stroke-width:1;"/><text fill="#000000" font-family="sans-serif" font-size="13" lengthAdjust="spacing" textLength="104" x="547.7324" y="322.5654">&#32479;&#19968;&#25351;&#26631;&#26684;&#24335;&#36716;&#25442;</text></g><g class="message" data-entity-1="part4" data-entity-2="part3" data-source-line="17" id="msg9"><polygon fill="#181818" points="396.2471,366.7734,386.2471,370.7734,396.2471,374.7734,392.2471,370.7734" style="stroke:#181818;stroke-width:1;"/><line style="stroke:#181818;stroke-width:1;stroke-dasharray:2,2;" x1="390.2471" x2="539.7324" y1="370.7734" y2="370.7734"/><text fill="#000000" font-family="sans-serif" font-size="13" lengthAdjust="spacing" textLength="78" x="402.2471" y="365.917">&#36820;&#22238;&#35774;&#22791;&#25351;&#26631;</text></g><g class="message" data-entity-1="part3" data-entity-2="part7" data-source-line="18" id="msg10"><polygon fill="#181818" points="977.6719,397.125,987.6719,401.125,977.6719,405.125,981.6719,401.125" style="stroke:#181818;stroke-width:1;"/><line style="stroke:#181818;stroke-width:1;" x1="385.2471" x2="983.6719" y1="401.125" y2="401.125"/><text fill="#000000" font-family="sans-serif" font-size="13" lengthAdjust="spacing" textLength="78" x="392.2471" y="396.2686">&#20445;&#23384;&#26368;&#26032;&#25351;&#26631;</text></g><g class="message" data-entity-1="part3" data-entity-2="part2" data-source-line="19" id="msg11"><polygon fill="#181818" points="175,427.4766,165,431.4766,175,435.4766,171,431.4766" style="stroke:#181818;stroke-width:1;"/><line style="stroke:#181818;stroke-width:1;stroke-dasharray:2,2;" x1="169" x2="384.2471" y1="431.4766" y2="431.4766"/><text fill="#000000" font-family="sans-serif" font-size="13" lengthAdjust="spacing" textLength="78" x="181" y="426.6201">&#36820;&#22238;&#22823;&#23631;&#25968;&#25454;</text></g><g class="message" data-entity-1="part2" data-entity-2="part1" data-source-line="20" id="msg12"><polygon fill="#181818" points="47,457.8281,37,461.8281,47,465.8281,43,461.8281" style="stroke:#181818;stroke-width:1;"/><line style="stroke:#181818;stroke-width:1;stroke-dasharray:2,2;" x1="41" x2="163" y1="461.8281" y2="461.8281"/><text fill="#000000" font-family="sans-serif" font-size="13" lengthAdjust="spacing" textLength="104" x="53" y="456.9717">&#23637;&#31034;&#30495;&#23454;&#37319;&#38598;&#25351;&#26631;</text></g><?plantuml-src PP9FIoCn6CRlyob2Jxk7CknLS1UgxhAWgBYU9Sw4xR1rCcQYhBUwe8DWrU8VbFvpQqL1hGeAIrktNwP9Phw5CTDEP-eb8Ro_vytpv0qqA2OWvNSFHFkfrsgnucaAG1VCEeX0MT8SIAXbM0wqAKYndOAukG_-FWULkiA-4cnJP9j9RC4XblqJP32cx61FAXIRWSQlTsZWUK5fEyZ_2ROAxEnQWHCubqDllZGJKhWCNGHISmIl89f5Qwv2XiTaEnkRQ0dzTZ2XY2Xogd-8zPhPM9YVLiN9ZAODaeBqvoWE60Dyvv1ryg9Kv7jNh7757lUrg2h9VXW9Vflw0NJeMBe9tUmoXiJKSv0YbwQbGs8PhZPWfIoA9eMhQuXip8JC1nEjMmRwRdxKXeZaXpcbGDso_abNmYzg7Ny3vgUr62TLWynIune4EWWCh4ILz6ZpYRb5dMrliRjJNLniYfBSNegYNUQx7Z_t4XUCv0W9Nhlqx-kYVSYhvMI6E2lQjTw_V5zntc6TVV_bbXVgSKNYTVtk4IjL_UP_rl3wLcBFEPcHIAzRaQvvESzF7aQHv4p3Pk4q-V43BpHZCvLez1N607iy5esMADTOinh-qR3rAm00?></g></svg>