<svg xmlns="http://www.w3.org/2000/svg" xmlns:xlink="http://www.w3.org/1999/xlink" contentStyleType="text/css" data-diagram-type="DESCRIPTION" height="418px" preserveAspectRatio="none" style="width:652px;height:418px;background:#FFFFFF;" version="1.1" viewBox="0 0 652 418" width="652px" zoomAndPan="magnify"><?plantuml 1.2026.3?><defs/><g><!--cluster ICT ????????--><g class="cluster" data-qualified-name="ICT ........" data-source-line="6" id="ent0003"><rect fill="none" height="397" rx="2.5" ry="2.5" style="stroke:#181818;stroke-width:1;" width="511.39" x="126.89" y="7"/><text fill="#000000" font-family="sans-serif" font-size="14" font-weight="700" lengthAdjust="spacing" textLength="141.9414" x="311.6143" y="23.5332">ICT &#26234;&#33021;&#36816;&#32500;&#24179;&#21488;&#21407;&#22411;</text></g><!--entity Login--><g class="entity" data-qualified-name="ICT .........Login" data-source-line="7" id="ent0004"><ellipse cx="185.4885" cy="238.0017" fill="#F1F1F1" rx="32.6985" ry="15.4517" style="stroke:#181818;stroke-width:0.5;"/><text fill="#000000" font-family="sans-serif" font-size="14" lengthAdjust="spacing" textLength="42" x="164.4885" y="243.3064">&#30331;&#24405;&#39029;</text></g><!--entity Overview--><g class="entity" data-qualified-name="ICT .........Overview" data-source-line="8" id="ent0005"><ellipse cx="429.088" cy="251.0017" fill="#F1F1F1" rx="42.598" ry="15.4517" style="stroke:#181818;stroke-width:0.5;"/><text fill="#000000" font-family="sans-serif" font-size="14" lengthAdjust="spacing" textLength="56" x="401.088" y="256.3064">&#36816;&#32500;&#24635;&#35272;</text></g><!--entity Asset--><g class="entity" data-qualified-name="ICT .........Asset" data-source-line="9" id="ent0006"><ellipse cx="579.678" cy="373.0017" fill="#F1F1F1" rx="42.598" ry="15.4517" style="stroke:#181818;stroke-width:0.5;"/><text fill="#000000" font-family="sans-serif" font-size="14" lengthAdjust="spacing" textLength="56" x="551.678" y="378.3064">&#35774;&#22791;&#36164;&#20135;</text></g><!--entity Target--><g class="entity" data-qualified-name="ICT .........Target" data-source-line="10" id="ent0007"><ellipse cx="185.488" cy="304.0017" fill="#F1F1F1" rx="42.598" ry="15.4517" style="stroke:#181818;stroke-width:0.5;"/><text fill="#000000" font-family="sans-serif" font-size="14" lengthAdjust="spacing" textLength="56" x="157.488" y="309.3064">&#30417;&#25511;&#30446;&#26631;</text></g><!--entity Alarm--><g class="entity" data-qualified-name="ICT .........Alarm" data-source-line="11" id="ent0008"><ellipse cx="579.678" cy="307.0017" fill="#F1F1F1" rx="42.598" ry="15.4517" style="stroke:#181818;stroke-width:0.5;"/><text fill="#000000" font-family="sans-serif" font-size="14" lengthAdjust="spacing" textLength="56" x="551.678" y="312.3064">&#21578;&#35686;&#20013;&#24515;</text></g><!--entity Ticket--><g class="entity" data-qualified-name="ICT .........Ticket" data-source-line="12" id="ent0009"><ellipse cx="579.678" cy="224.0017" fill="#F1F1F1" rx="42.598" ry="15.4517" style="stroke:#181818;stroke-width:0.5;"/><text fill="#000000" font-family="sans-serif" font-size="14" lengthAdjust="spacing" textLength="56" x="551.678" y="229.3064">&#24037;&#21333;&#31649;&#29702;</text></g><!--entity Diagnosis--><g class="entity" data-qualified-name="ICT .........Diagnosis" data-source-line="13" id="ent0010"><ellipse cx="579.6827" cy="141.0017" fill="#F1F1F1" rx="34.9027" ry="15.4517" style="stroke:#181818;stroke-width:0.5;"/><text fill="#000000" font-family="sans-serif" font-size="14" lengthAdjust="spacing" textLength="45.1172" x="557.1241" y="146.3064">AI &#35786;&#26029;</text></g><!--entity Knowledge--><g class="entity" data-qualified-name="ICT .........Knowledge" data-source-line="14" id="ent0011"><ellipse cx="579.6785" cy="58.0017" fill="#F1F1F1" rx="32.6985" ry="15.4517" style="stroke:#181818;stroke-width:0.5;"/><text fill="#000000" font-family="sans-serif" font-size="14" lengthAdjust="spacing" textLength="42" x="558.6785" y="63.3064">&#30693;&#35782;&#24211;</text></g><!--entity Operator--><g class="entity" data-qualified-name="Operator" data-source-line="4" id="ent0002"><ellipse cx="42.9448" cy="207.7" fill="#F1F1F1" rx="8" ry="8" style="stroke:#181818;stroke-width:0.5;"/><path d="M42.9448,215.7 L42.9448,242.7 M29.9448,223.7 L55.9448,223.7 M42.9448,242.7 L29.9448,257.7 M42.9448,242.7 L55.9448,257.7" fill="none" style="stroke:#181818;stroke-width:0.5;"/><text fill="#000000" font-family="sans-serif" font-size="14" lengthAdjust="spacing" textLength="73.8896" x="6" y="273.7332">&#25105;/&#36816;&#32500;&#20154;&#21592;</text></g><!--link Operator to Login--><g class="link" data-entity-1="ent0002" data-entity-2="ent0004" data-link-type="dependency" data-source-line="17" id="lnk12"><path d="M80.14,238 C102.59,238 125.15,238 146.72,238" fill="none" id="Operator-to-Login" style="stroke:#181818;stroke-width:1;"/><polygon fill="#181818" points="152.72,238,143.72,234,147.72,238,143.72,242,152.72,238" style="stroke:#181818;stroke-width:1;"/></g><!--link Login to Overview--><g class="link" data-entity-1="ent0004" data-entity-2="ent0005" data-link-type="dependency" data-source-line="18" id="lnk13"><path d="M218.57,238.63 C251.95,239.42 305.72,241.03 352.09,244 C363.59,244.74 370.0756,245.2264 381.5156,246.2864" fill="none" id="Login-to-Overview" style="stroke:#181818;stroke-width:1;"/><polygon fill="#181818" points="387.49,246.84,378.8974,242.0267,382.5113,246.3787,378.1593,249.9926,387.49,246.84" style="stroke:#181818;stroke-width:1;"/></g><!--link Overview to Asset--><g class="link" data-entity-1="ent0005" data-entity-2="ent0006" data-link-type="dependency" data-source-line="19" id="lnk14"><path d="M447.03,265.3 C468.05,282.99 505.02,313.95 537.09,340 C544.81,346.28 548.7118,349.4107 556.0918,355.2407" fill="none" id="Overview-to-Asset" style="stroke:#181818;stroke-width:1;"/><polygon fill="#181818" points="560.8,358.96,556.2173,350.2423,556.8765,355.8606,551.2582,356.5198,560.8,358.96" style="stroke:#181818;stroke-width:1;"/></g><!--link Overview to Target--><g class="link" data-entity-1="ent0005" data-entity-2="ent0007" data-link-type="dependency" data-source-line="20" id="lnk15"><path d="M410.29,265.35 C395.63,276.25 373.79,290.45 352.09,297 C310.9,309.44 267.3407,310.0637 233.2307,308.1637" fill="none" id="Overview-to-Target" style="stroke:#181818;stroke-width:1;"/><polygon fill="#181818" points="227.24,307.83,236.0036,312.3244,232.2323,308.1081,236.4485,304.3367,227.24,307.83" style="stroke:#181818;stroke-width:1;"/></g><!--link Target to Overview--><g class="link" data-entity-1="ent0007" data-entity-2="ent0005" data-link-type="dependency" data-source-line="29" id="lnk23"><path d="M223.74,296.82 C257.37,290.23 308.16,280 352.09,270 C365.74,266.89 374.9031,264.681 387.9131,261.391" fill="none" id="Target-to-Overview" style="stroke:#181818;stroke-width:1;stroke-dasharray:7,7;"/><polygon fill="#181818" points="393.73,259.92,384.024,258.2486,388.8826,261.1458,385.9853,266.0044,393.73,259.92" style="stroke:#181818;stroke-width:1;"/><text fill="#000000" font-family="sans-serif" font-size="13" lengthAdjust="spacing" textLength="92.46" x="259.09" y="266.4951">&#171;&#37319;&#38598;&#29366;&#24577;&#27719;&#24635;&#187;</text></g><!--link Overview to Alarm--><g class="link" data-entity-1="ent0005" data-entity-2="ent0008" data-link-type="dependency" data-source-line="21" id="lnk16"><path d="M459.44,262.06 C485.41,271.85 517.495,283.9452 543.515,293.7452" fill="none" id="Overview-to-Alarm" style="stroke:#181818;stroke-width:1;"/><polygon fill="#181818" points="549.13,295.86,542.1174,288.9445,544.4509,294.0977,539.2977,296.4311,549.13,295.86" style="stroke:#181818;stroke-width:1;"/></g><!--link Overview to Ticket--><g class="link" data-entity-1="ent0005" data-entity-2="ent0009" data-link-type="dependency" data-source-line="22" id="lnk17"><path d="M467.58,244.19 C490.02,240.11 512.5564,236.0115 535.0364,231.9315" fill="none" id="Overview-to-Ticket" style="stroke:#181818;stroke-width:1;"/><polygon fill="#181818" points="540.94,230.86,531.3704,228.5315,536.0204,231.7529,532.799,236.4029,540.94,230.86" style="stroke:#181818;stroke-width:1;"/></g><!--link Overview to Diagnosis--><g class="link" data-entity-1="ent0005" data-entity-2="ent0010" data-link-type="dependency" data-source-line="23" id="lnk18"><path d="M448.91,237.07 C477.8,215.68 527.8877,178.6001 556.1177,157.7001" fill="none" id="Overview-to-Diagnosis" style="stroke:#181818;stroke-width:1;"/><polygon fill="#181818" points="560.94,154.13,551.3265,156.2704,556.9215,157.1051,556.0867,162.7,560.94,154.13" style="stroke:#181818;stroke-width:1;"/></g><!--link Overview to Knowledge--><g class="link" data-entity-1="ent0005" data-entity-2="ent0011" data-link-type="dependency" data-source-line="24" id="lnk19"><path d="M441.08,235.78 C460.19,209.43 500.97,153.76 537.09,108 C546.74,95.77 554.1904,86.767 562.5904,76.857" fill="none" id="Overview-to-Knowledge" style="stroke:#181818;stroke-width:1;"/><polygon fill="#181818" points="566.47,72.28,557.5993,76.5591,563.237,76.0942,563.7019,81.7319,566.47,72.28" style="stroke:#181818;stroke-width:1;"/></g><!--link Alarm to Ticket--><g class="link" data-entity-1="ent0008" data-entity-2="ent0009" data-link-type="dependency" data-source-line="26" id="lnk20"><path d="M579.68,291.39 C579.68,276.64 579.68,260.64 579.68,245.82" fill="none" id="Alarm-to-Ticket" style="stroke:#181818;stroke-width:1;stroke-dasharray:7,7;"/><polygon fill="#181818" points="579.68,239.82,575.68,248.82,579.68,244.82,583.68,248.82,579.68,239.82" style="stroke:#181818;stroke-width:1;"/><text fill="#000000" font-family="sans-serif" font-size="13" lengthAdjust="spacing" textLength="79.46" x="528.18" y="270.9951">&#171;&#21578;&#35686;&#36716;&#24037;&#21333;&#187;</text></g><!--link Ticket to Diagnosis--><g class="link" data-entity-1="ent0009" data-entity-2="ent0010" data-link-type="dependency" data-source-line="27" id="lnk21"><path d="M579.68,208.39 C579.68,193.64 579.68,177.64 579.68,162.82" fill="none" id="Ticket-to-Diagnosis" style="stroke:#181818;stroke-width:1;stroke-dasharray:7,7;"/><polygon fill="#181818" points="579.68,156.82,575.68,165.82,579.68,161.82,583.68,165.82,579.68,156.82" style="stroke:#181818;stroke-width:1;"/><text fill="#000000" font-family="sans-serif" font-size="13" lengthAdjust="spacing" textLength="66.46" x="534.68" y="187.9951">&#171;&#36741;&#21161;&#20998;&#26512;&#187;</text></g><!--link Diagnosis to Knowledge--><g class="link" data-entity-1="ent0010" data-entity-2="ent0011" data-link-type="dependency" data-source-line="28" id="lnk22"><path d="M579.68,125.39 C579.68,110.64 579.68,94.64 579.68,79.82" fill="none" id="Diagnosis-to-Knowledge" style="stroke:#181818;stroke-width:1;stroke-dasharray:7,7;"/><polygon fill="#181818" points="579.68,73.82,575.68,82.82,579.68,78.82,583.68,82.82,579.68,73.82" style="stroke:#181818;stroke-width:1;"/><text fill="#000000" font-family="sans-serif" font-size="13" lengthAdjust="spacing" textLength="66.46" x="534.68" y="104.9951">&#171;&#26816;&#32034;&#30693;&#35782;&#187;</text></g><!--link Asset to Target--><g class="link" data-entity-1="ent0006" data-entity-2="ent0007" data-link-type="dependency" data-source-line="30" id="lnk24"><path d="M540.67,366.44 C480.62,356.07 360.16,335.18 258.09,317 C247.02,315.03 240.8929,313.9352 229.9129,311.9352" fill="none" id="Asset-to-Target" style="stroke:#181818;stroke-width:1;stroke-dasharray:7,7;"/><polygon fill="#181818" points="224.01,310.86,232.1475,316.4081,228.9291,311.756,233.5811,308.5376,224.01,310.86" style="stroke:#181818;stroke-width:1;"/><text fill="#000000" font-family="sans-serif" font-size="13" lengthAdjust="spacing" textLength="92.46" x="383.09" y="335.9351">&#171;&#32465;&#23450;&#30417;&#25511;&#30446;&#26631;&#187;</text></g><?plantuml-src LP9TI-D058RlvrSSUc_tNYGWwusiu8N-WI7Eng4nAKbKH8GkQbEwg0sBYrgetnR1LiMFtKsf_fdEPFelDfdfrzo4oNcVyyuvBsEJxm44BdZKMWrWXNh43AZh8Bz0dIBsy1eKiLd05baAjcm2cOmTooO8OJDmFSZnIlH5VDQIpcilZbbqaWFimsAHU3YL4HerG6x-wpBmqrZiTXNF_hsmeoTsUCuQFtEmZG3MVM9YFqMJqmxh7lSltwJRWcjHPr9M_RpK4SsAkc-3U1kKR6fG-uFTXE9jhnSt9JJh-oJGRgb7_B2PrDly8fJ4ClOi7M5HLRJkUdzRx7DNcTZOMzE8FxViu3XfNoQriZAXPa4tcPq7yLZblrjIdwFOSboV-jeevxVYiSpYNnBvvhYRDbcn2Df1Q9WbJ4qPWoZaL_wF5XyUP5LjgfK6g-cOt4N7rF1QRJomLXuFYQGHv8VjC0qpCoevqNrG0Ha66eZv2KT9YezzLhrdbJ9lr59iBEOdBf4aloubhrSggynGxfHXey4ogX-6_NevgRxpqW_-7ARF96Lb9794rPI1IITYxRF9Ls0O_m40?></g></svg>