<svg xmlns="http://www.w3.org/2000/svg" xmlns:xlink="http://www.w3.org/1999/xlink" contentStyleType="text/css" data-diagram-type="ACTIVITY" height="700px" preserveAspectRatio="none" style="width:281px;height:700px;background:#FFFFFF;" version="1.1" viewBox="0 0 281 700" width="281px" zoomAndPan="magnify"><?plantuml 1.2026.3?><defs/><g><ellipse cx="127" cy="25" fill="#222222" rx="10" ry="10" style="stroke:#222222;stroke-width:1;"/><rect fill="#F1F1F1" height="35.0938" rx="12.5" ry="12.5" style="stroke:#181818;stroke-width:0.5;" width="92" x="81" y="55"/><text fill="#000000" font-family="sans-serif" font-size="12" lengthAdjust="spacing" textLength="72" x="91" y="77.457">&#30331;&#35760;&#35774;&#22791;&#36164;&#20135;</text><rect fill="#F1F1F1" height="35.0938" rx="12.5" ry="12.5" style="stroke:#181818;stroke-width:0.5;" width="92" x="81" y="110.0938"/><text fill="#000000" font-family="sans-serif" font-size="12" lengthAdjust="spacing" textLength="72" x="91" y="132.5508">&#37197;&#32622;&#30417;&#25511;&#30446;&#26631;</text><rect fill="#F1F1F1" height="35.0938" rx="12.5" ry="12.5" style="stroke:#181818;stroke-width:0.5;" width="160.0332" x="46.9834" y="165.1875"/><text fill="#000000" font-family="sans-serif" font-size="12" lengthAdjust="spacing" textLength="140.0332" x="56.9834" y="187.6445">Prometheus &#21152;&#36733;&#37319;&#38598;&#37197;&#32622;</text><rect fill="#F1F1F1" height="35.0938" rx="12.5" ry="12.5" style="stroke:#181818;stroke-width:0.5;" width="178.7129" x="37.6436" y="264.2813"/><text fill="#000000" font-family="sans-serif" font-size="12" lengthAdjust="spacing" textLength="158.7129" x="47.6436" y="286.7383">&#37319;&#38598; Exporter / Blackbox &#25351;&#26631;</text><rect fill="#F1F1F1" height="35.0938" rx="12.5" ry="12.5" style="stroke:#181818;stroke-width:0.5;" width="92" x="81" y="319.375"/><text fill="#000000" font-family="sans-serif" font-size="12" lengthAdjust="spacing" textLength="72" x="91" y="341.832">&#20445;&#23384;&#26102;&#24207;&#25351;&#26631;</text><rect fill="#F1F1F1" height="35.0938" rx="12.5" ry="12.5" style="stroke:#181818;stroke-width:0.5;" width="158.709" x="47.6455" y="374.4688"/><text fill="#000000" font-family="sans-serif" font-size="12" lengthAdjust="spacing" textLength="138.709" x="57.6455" y="396.9258">&#21518;&#31471;&#35843;&#29992; Prometheus API</text><polygon fill="#F1F1F1" points="90.9412,440.1094,163.0588,440.1094,175.0588,452.1094,163.0588,464.1094,90.9412,464.1094,78.9412,452.1094,90.9412,440.1094" style="stroke:#181818;stroke-width:0.5;"/><text fill="#000000" font-family="sans-serif" font-size="11" lengthAdjust="spacing" textLength="72.1177" x="90.9412" y="456.6104">&#25351;&#26631;&#36229;&#36807;&#38408;&#20540;?</text><text fill="#000000" font-family="sans-serif" font-size="11" lengthAdjust="spacing" textLength="11" x="67.9412" y="449.6924">&#26159;</text><text fill="#000000" font-family="sans-serif" font-size="11" lengthAdjust="spacing" textLength="11" x="175.0588" y="449.6924">&#21542;</text><rect fill="#F1F1F1" height="35.0938" rx="12.5" ry="12.5" style="stroke:#181818;stroke-width:0.5;" width="92" x="22" y="474.1094"/><text fill="#000000" font-family="sans-serif" font-size="12" lengthAdjust="spacing" textLength="72" x="32" y="496.5664">&#29983;&#25104;&#21578;&#35686;&#35760;&#24405;</text><rect fill="#F1F1F1" height="35.0938" rx="12.5" ry="12.5" style="stroke:#181818;stroke-width:0.5;" width="104" x="16" y="529.2031"/><text fill="#000000" font-family="sans-serif" font-size="12" lengthAdjust="spacing" textLength="84" x="26" y="551.6602">&#25512;&#36865;&#21040;&#21578;&#35686;&#20013;&#24515;</text><rect fill="#F1F1F1" height="35.0938" rx="12.5" ry="12.5" style="stroke:#181818;stroke-width:0.5;" width="92" x="140" y="474.1094"/><text fill="#000000" font-family="sans-serif" font-size="12" lengthAdjust="spacing" textLength="72" x="150" y="496.5664">&#26356;&#26032;&#24635;&#35272;&#29366;&#24577;</text><polygon fill="#F1F1F1" points="127,570.2969,139,582.2969,127,594.2969,115,582.2969,127,570.2969" style="stroke:#181818;stroke-width:0.5;"/><polygon fill="#F1F1F1" points="127,220.2813,139,232.2813,127,244.2813,115,232.2813,127,220.2813" style="stroke:#181818;stroke-width:0.5;"/><polygon fill="#F1F1F1" points="90.9412,614.2969,163.0588,614.2969,175.0588,626.2969,163.0588,638.2969,90.9412,638.2969,78.9412,626.2969,90.9412,614.2969" style="stroke:#181818;stroke-width:0.5;"/><text fill="#000000" font-family="sans-serif" font-size="11" lengthAdjust="spacing" textLength="72.1177" x="90.9412" y="630.7979">&#31995;&#32479;&#25345;&#32493;&#36816;&#34892;?</text><text fill="#000000" font-family="sans-serif" font-size="11" lengthAdjust="spacing" textLength="11" x="175.0588" y="623.8799">&#26159;</text><ellipse cx="127" cy="669.2969" fill="none" rx="11" ry="11" style="stroke:#222222;stroke-width:1;"/><ellipse cx="127" cy="669.2969" fill="#222222" rx="6" ry="6" style="stroke:#222222;stroke-width:1;"/><line style="stroke:#181818;stroke-width:1;" x1="127" x2="127" y1="35" y2="55"/><polygon fill="#181818" points="123,45,127,55,131,45,127,49" style="stroke:#181818;stroke-width:1;"/><line style="stroke:#181818;stroke-width:1;" x1="127" x2="127" y1="90.0938" y2="110.0938"/><polygon fill="#181818" points="123,100.0938,127,110.0938,131,100.0938,127,104.0938" style="stroke:#181818;stroke-width:1;"/><line style="stroke:#181818;stroke-width:1;" x1="127" x2="127" y1="145.1875" y2="165.1875"/><polygon fill="#181818" points="123,155.1875,127,165.1875,131,155.1875,127,159.1875" style="stroke:#181818;stroke-width:1;"/><line style="stroke:#181818;stroke-width:1;" x1="127" x2="127" y1="299.375" y2="319.375"/><polygon fill="#181818" points="123,309.375,127,319.375,131,309.375,127,313.375" style="stroke:#181818;stroke-width:1;"/><line style="stroke:#181818;stroke-width:1;" x1="127" x2="127" y1="354.4688" y2="374.4688"/><polygon fill="#181818" points="123,364.4688,127,374.4688,131,364.4688,127,368.4688" style="stroke:#181818;stroke-width:1;"/><line style="stroke:#181818;stroke-width:1;" x1="68" x2="68" y1="509.2031" y2="529.2031"/><polygon fill="#181818" points="64,519.2031,68,529.2031,72,519.2031,68,523.2031" style="stroke:#181818;stroke-width:1;"/><line style="stroke:#181818;stroke-width:1;" x1="78.9412" x2="68" y1="452.1094" y2="452.1094"/><line style="stroke:#181818;stroke-width:1;" x1="68" x2="68" y1="452.1094" y2="474.1094"/><polygon fill="#181818" points="64,464.1094,68,474.1094,72,464.1094,68,468.1094" style="stroke:#181818;stroke-width:1;"/><line style="stroke:#181818;stroke-width:1;" x1="175.0588" x2="186" y1="452.1094" y2="452.1094"/><line style="stroke:#181818;stroke-width:1;" x1="186" x2="186" y1="452.1094" y2="474.1094"/><polygon fill="#181818" points="182,464.1094,186,474.1094,190,464.1094,186,468.1094" style="stroke:#181818;stroke-width:1;"/><line style="stroke:#181818;stroke-width:1;" x1="68" x2="68" y1="564.2969" y2="582.2969"/><line style="stroke:#181818;stroke-width:1;" x1="68" x2="115" y1="582.2969" y2="582.2969"/><polygon fill="#181818" points="105,578.2969,115,582.2969,105,586.2969,109,582.2969" style="stroke:#181818;stroke-width:1;"/><line style="stroke:#181818;stroke-width:1;" x1="186" x2="186" y1="509.2031" y2="582.2969"/><line style="stroke:#181818;stroke-width:1;" x1="186" x2="139" y1="582.2969" y2="582.2969"/><polygon fill="#181818" points="149,578.2969,139,582.2969,149,586.2969,145,582.2969" style="stroke:#181818;stroke-width:1;"/><line style="stroke:#181818;stroke-width:1;" x1="127" x2="127" y1="409.5625" y2="440.1094"/><polygon fill="#181818" points="123,430.1094,127,440.1094,131,430.1094,127,434.1094" style="stroke:#181818;stroke-width:1;"/><line style="stroke:#181818;stroke-width:1;" x1="127" x2="127" y1="244.2813" y2="264.2813"/><polygon fill="#181818" points="123,254.2813,127,264.2813,131,254.2813,127,258.2813" style="stroke:#181818;stroke-width:1;"/><line style="stroke:#181818;stroke-width:1;" x1="175.0588" x2="246" y1="626.2969" y2="626.2969"/><polygon fill="#181818" points="242,429.5625,246,419.5625,250,429.5625,246,425.5625" style="stroke:#181818;stroke-width:1;"/><line style="stroke:#181818;stroke-width:1;" x1="246" x2="246" y1="232.2813" y2="626.2969"/><line style="stroke:#181818;stroke-width:1;" x1="246" x2="139" y1="232.2813" y2="232.2813"/><polygon fill="#181818" points="149,228.2813,139,232.2813,149,236.2813,145,232.2813" style="stroke:#181818;stroke-width:1;"/><line style="stroke:#181818;stroke-width:1;" x1="127" x2="127" y1="594.2969" y2="614.2969"/><polygon fill="#181818" points="123,604.2969,127,614.2969,131,604.2969,127,608.2969" style="stroke:#181818;stroke-width:1;"/><line style="stroke:#181818;stroke-width:1;" x1="127" x2="127" y1="200.2813" y2="220.2813"/><polygon fill="#181818" points="123,210.2813,127,220.2813,131,210.2813,127,214.2813" style="stroke:#181818;stroke-width:1;"/><line style="stroke:#181818;stroke-width:1;" x1="127" x2="127" y1="638.2969" y2="658.2969"/><polygon fill="#181818" points="123,648.2969,127,658.2969,131,648.2969,127,652.2969" style="stroke:#181818;stroke-width:1;"/><?plantuml-src JO_DJeDG44RtFCKisvNxTc4qSU6khr3rDYLY8O2nIqYj4898awernBGcfcrYe2GgCKNaPRW_l8MtfOjkltFccnbDRwkwqA0lAOjY5ltXTujztnRhHLDebCDxcaKq615lGOE8p2mUjbJv2kbTTAq1TcOioqhBAeExocqAAb9GMnS06bKE9tr5LdMamW4SI-tpopEv3yIrjcNSAl9N74x8SuBN3tinzZtwiMBnW8wNiBVog7MwuM87QfNDaY7BhN9YO-Fti0xSwd4qMTMvnNleU4fi7uyS5ixvWpXxR5Q0UClICB4TLwpu2N4-s30aQGXgs9_l6aZmHPvYOgHiOLCd8OQvjNeNOcVtBDnqHOdFqC-KfbFYcZGDMUwpDvSV96gxSpHTLlu1?></g></svg>