<svg xmlns="http://www.w3.org/2000/svg" xmlns:xlink="http://www.w3.org/1999/xlink" contentStyleType="text/css" data-diagram-type="ACTIVITY" height="711px" preserveAspectRatio="none" style="width:282px;height:711px;background:#FFFFFF;" version="1.1" viewBox="0 0 282 711" width="282px" zoomAndPan="magnify"><?plantuml 1.2026.3?><defs/><g><ellipse cx="140.5015" cy="25" fill="#222222" rx="10" ry="10" style="stroke:#222222;stroke-width:1;"/><rect fill="#F1F1F1" height="35.0938" rx="12.5" ry="12.5" style="stroke:#181818;stroke-width:0.5;" width="152" x="64.5015" y="55"/><text fill="#000000" font-family="sans-serif" font-size="12" lengthAdjust="spacing" textLength="132" x="74.5015" y="77.457">&#36873;&#25321;&#21578;&#35686;&#25110;&#36755;&#20837;&#25925;&#38556;&#29616;&#35937;</text><rect fill="#F1F1F1" height="35.0938" rx="12.5" ry="12.5" style="stroke:#181818;stroke-width:0.5;" width="116" x="82.5015" y="110.0938"/><text fill="#000000" font-family="sans-serif" font-size="12" lengthAdjust="spacing" textLength="96" x="92.5015" y="132.5508">&#35835;&#21462;&#35774;&#22791;&#36164;&#20135;&#20449;&#24687;</text><rect fill="#F1F1F1" height="35.0938" rx="12.5" ry="12.5" style="stroke:#181818;stroke-width:0.5;" width="175.3672" x="52.8179" y="165.1875"/><text fill="#000000" font-family="sans-serif" font-size="12" lengthAdjust="spacing" textLength="155.3672" x="62.8179" y="187.6445">&#26597;&#35810; Prometheus &#25351;&#26631;&#19978;&#19979;&#25991;</text><rect fill="#F1F1F1" height="35.0938" rx="12.5" ry="12.5" style="stroke:#181818;stroke-width:0.5;" width="152" x="64.5015" y="220.2813"/><text fill="#000000" font-family="sans-serif" font-size="12" lengthAdjust="spacing" textLength="132" x="74.5015" y="242.7383">&#35835;&#21462;&#21382;&#21490;&#24037;&#21333;&#19982;&#22788;&#29702;&#35760;&#24405;</text><rect fill="#F1F1F1" height="35.0938" rx="12.5" ry="12.5" style="stroke:#181818;stroke-width:0.5;" width="128" x="76.5015" y="275.375"/><text fill="#000000" font-family="sans-serif" font-size="12" lengthAdjust="spacing" textLength="108" x="86.5015" y="297.832">&#26816;&#32034;&#30693;&#35782;&#24211;&#30456;&#20851;&#29255;&#27573;</text><rect fill="#F1F1F1" height="35.0938" rx="12.5" ry="12.5" style="stroke:#181818;stroke-width:0.5;" width="110.0117" x="85.4956" y="330.4688"/><text fill="#000000" font-family="sans-serif" font-size="12" lengthAdjust="spacing" textLength="90.0117" x="95.4956" y="352.9258">&#32452;&#35013;&#35786;&#26029; Prompt</text><rect fill="#F1F1F1" height="35.0938" rx="12.5" ry="12.5" style="stroke:#181818;stroke-width:0.5;" width="132.0195" x="74.4917" y="385.5625"/><text fill="#000000" font-family="sans-serif" font-size="12" lengthAdjust="spacing" textLength="112.0195" x="84.4917" y="408.0195">&#35843;&#29992; FastAPI AI &#26381;&#21153;</text><rect fill="#F1F1F1" height="35.0938" rx="12.5" ry="12.5" style="stroke:#181818;stroke-width:0.5;" width="102.6758" x="89.1636" y="440.6563"/><text fill="#000000" font-family="sans-serif" font-size="12" lengthAdjust="spacing" textLength="82.6758" x="99.1636" y="463.1133">&#35843;&#29992;&#22823;&#27169;&#22411; API</text><rect fill="#F1F1F1" height="35.0938" rx="12.5" ry="12.5" style="stroke:#181818;stroke-width:0.5;" width="212" x="34.5015" y="495.75"/><text fill="#000000" font-family="sans-serif" font-size="12" lengthAdjust="spacing" textLength="192" x="44.5015" y="518.207">&#29983;&#25104;&#21487;&#33021;&#21407;&#22240;&#12289;&#25490;&#26597;&#27493;&#39588;&#12289;&#22788;&#32622;&#24314;&#35758;</text><polygon fill="#F1F1F1" points="109.9426,550.8438,171.0603,550.8438,183.0603,562.8438,171.0603,574.8438,109.9426,574.8438,97.9426,562.8438,109.9426,550.8438" style="stroke:#181818;stroke-width:0.5;"/><text fill="#000000" font-family="sans-serif" font-size="11" lengthAdjust="spacing" textLength="61.1177" x="109.9426" y="567.3447">&#38656;&#35201;&#36716;&#24037;&#21333;?</text><text fill="#000000" font-family="sans-serif" font-size="11" lengthAdjust="spacing" textLength="11" x="86.9426" y="560.4268">&#26159;</text><text fill="#000000" font-family="sans-serif" font-size="11" lengthAdjust="spacing" textLength="11" x="183.0603" y="560.4268">&#21542;</text><rect fill="#F1F1F1" height="35.0938" rx="12.5" ry="12.5" style="stroke:#181818;stroke-width:0.5;" width="116" x="16" y="584.8438"/><text fill="#000000" font-family="sans-serif" font-size="12" lengthAdjust="spacing" textLength="96" x="26" y="607.3008">&#20889;&#20837;&#24037;&#21333;&#22788;&#29702;&#24314;&#35758;</text><rect fill="#F1F1F1" height="35.0938" rx="12.5" ry="12.5" style="stroke:#181818;stroke-width:0.5;" width="110.0059" x="152" y="584.8438"/><text fill="#000000" font-family="sans-serif" font-size="12" lengthAdjust="spacing" textLength="90.0059" x="162" y="607.3008">&#20445;&#23384; AI &#35786;&#26029;&#35760;&#24405;</text><polygon fill="#F1F1F1" points="140.5015,625.9375,152.5015,637.9375,140.5015,649.9375,128.5015,637.9375,140.5015,625.9375" style="stroke:#181818;stroke-width:0.5;"/><ellipse cx="140.5015" cy="680.9375" fill="none" rx="11" ry="11" style="stroke:#222222;stroke-width:1;"/><ellipse cx="140.5015" cy="680.9375" fill="#222222" rx="6" ry="6" style="stroke:#222222;stroke-width:1;"/><line style="stroke:#181818;stroke-width:1;" x1="140.5015" x2="140.5015" y1="35" y2="55"/><polygon fill="#181818" points="136.5015,45,140.5015,55,144.5015,45,140.5015,49" style="stroke:#181818;stroke-width:1;"/><line style="stroke:#181818;stroke-width:1;" x1="140.5015" x2="140.5015" y1="90.0938" y2="110.0938"/><polygon fill="#181818" points="136.5015,100.0938,140.5015,110.0938,144.5015,100.0938,140.5015,104.0938" style="stroke:#181818;stroke-width:1;"/><line style="stroke:#181818;stroke-width:1;" x1="140.5015" x2="140.5015" y1="145.1875" y2="165.1875"/><polygon fill="#181818" points="136.5015,155.1875,140.5015,165.1875,144.5015,155.1875,140.5015,159.1875" style="stroke:#181818;stroke-width:1;"/><line style="stroke:#181818;stroke-width:1;" x1="140.5015" x2="140.5015" y1="200.2813" y2="220.2813"/><polygon fill="#181818" points="136.5015,210.2813,140.5015,220.2813,144.5015,210.2813,140.5015,214.2813" style="stroke:#181818;stroke-width:1;"/><line style="stroke:#181818;stroke-width:1;" x1="140.5015" x2="140.5015" y1="255.375" y2="275.375"/><polygon fill="#181818" points="136.5015,265.375,140.5015,275.375,144.5015,265.375,140.5015,269.375" style="stroke:#181818;stroke-width:1;"/><line style="stroke:#181818;stroke-width:1;" x1="140.5015" x2="140.5015" y1="310.4688" y2="330.4688"/><polygon fill="#181818" points="136.5015,320.4688,140.5015,330.4688,144.5015,320.4688,140.5015,324.4688" style="stroke:#181818;stroke-width:1;"/><line style="stroke:#181818;stroke-width:1;" x1="140.5015" x2="140.5015" y1="365.5625" y2="385.5625"/><polygon fill="#181818" points="136.5015,375.5625,140.5015,385.5625,144.5015,375.5625,140.5015,379.5625" style="stroke:#181818;stroke-width:1;"/><line style="stroke:#181818;stroke-width:1;" x1="140.5015" x2="140.5015" y1="420.6563" y2="440.6563"/><polygon fill="#181818" points="136.5015,430.6563,140.5015,440.6563,144.5015,430.6563,140.5015,434.6563" style="stroke:#181818;stroke-width:1;"/><line style="stroke:#181818;stroke-width:1;" x1="140.5015" x2="140.5015" y1="475.75" y2="495.75"/><polygon fill="#181818" points="136.5015,485.75,140.5015,495.75,144.5015,485.75,140.5015,489.75" style="stroke:#181818;stroke-width:1;"/><line style="stroke:#181818;stroke-width:1;" x1="97.9426" x2="74" y1="562.8438" y2="562.8438"/><line style="stroke:#181818;stroke-width:1;" x1="74" x2="74" y1="562.8438" y2="584.8438"/><polygon fill="#181818" points="70,574.8438,74,584.8438,78,574.8438,74,578.8438" style="stroke:#181818;stroke-width:1;"/><line style="stroke:#181818;stroke-width:1;" x1="183.0603" x2="207.0029" y1="562.8438" y2="562.8438"/><line style="stroke:#181818;stroke-width:1;" x1="207.0029" x2="207.0029" y1="562.8438" y2="584.8438"/><polygon fill="#181818" points="203.0029,574.8438,207.0029,584.8438,211.0029,574.8438,207.0029,578.8438" style="stroke:#181818;stroke-width:1;"/><line style="stroke:#181818;stroke-width:1;" x1="74" x2="74" y1="619.9375" y2="637.9375"/><line style="stroke:#181818;stroke-width:1;" x1="74" x2="128.5015" y1="637.9375" y2="637.9375"/><polygon fill="#181818" points="118.5015,633.9375,128.5015,637.9375,118.5015,641.9375,122.5015,637.9375" style="stroke:#181818;stroke-width:1;"/><line style="stroke:#181818;stroke-width:1;" x1="207.0029" x2="207.0029" y1="619.9375" y2="637.9375"/><line style="stroke:#181818;stroke-width:1;" x1="207.0029" x2="152.5015" y1="637.9375" y2="637.9375"/><polygon fill="#181818" points="162.5015,633.9375,152.5015,637.9375,162.5015,641.9375,158.5015,637.9375" style="stroke:#181818;stroke-width:1;"/><line style="stroke:#181818;stroke-width:1;" x1="140.5015" x2="140.5015" y1="530.8438" y2="550.8438"/><polygon fill="#181818" points="136.5015,540.8438,140.5015,550.8438,144.5015,540.8438,140.5015,544.8438" style="stroke:#181818;stroke-width:1;"/><line style="stroke:#181818;stroke-width:1;" x1="140.5015" x2="140.5015" y1="649.9375" y2="669.9375"/><polygon fill="#181818" points="136.5015,659.9375,140.5015,669.9375,144.5015,659.9375,140.5015,663.9375" style="stroke:#181818;stroke-width:1;"/><?plantuml-src FP3DRe9054RtFCKizHLqqRXfuivNC2cc9gqQeNkC2eeLRLLYgwsYeBOfO7zCYGPzc79dXhSeI7GvENE_-vtByTaopoHyeObRR_0WKtE16ohTzw1ku47TVnuJPKq_jIIJeFOEEYgrzg1BT5FpjalleE6A7I0yCQWzGvboyPRbhzax3k5x2Kybpv4zfuLLwJmEYWYTB_Wre3tm70Nq6kcAr5g3EmXpvWBvcP4mJOHjZumSg7-JfeIjJK39haRdTMhBM3MFkqfycBkkaluANMOvFfL9erGQuN4RPEsCG5_YbGQlBHJmCAO_mOqkT6nQTK6Pm6Zw9rImyXX8ODFmt_NW6VPoBTXjgMKbcNmEnVonG1SLwdv4tI_YA10je1WUsd46eGI8Jy798XXPdQRP6uv5CUWkZl-ymmkOmx1c979oPmjN-Hp3ySNIFm00?></g></svg>