<svg xmlns="http://www.w3.org/2000/svg" xmlns:xlink="http://www.w3.org/1999/xlink" contentStyleType="text/css" data-diagram-type="CLASS" height="746px" preserveAspectRatio="none" style="width:993px;height:746px;background:#FFFFFF;" version="1.1" viewBox="0 0 993 746" width="993px" zoomAndPan="magnify"><?plantuml 1.2026.3?><defs/><g><!--class user--><g class="entity" data-qualified-name="user" data-source-line="4" id="ent0002"><rect fill="#F1F1F1" height="114.0469" rx="2.5" ry="2.5" style="stroke:#181818;stroke-width:0.5;" width="136.5029" x="84" y="233.87"/><text fill="#000000" font-family="sans-serif" font-size="14" lengthAdjust="spacing" textLength="56.0205" x="124.2412" y="253.4032">sys_user</text><line style="stroke:#181818;stroke-width:0.5;" x1="85" x2="219.5029" y1="261.4794" y2="261.4794"/><g data-visibility-modifier="IE_MANDATORY"><ellipse cx="95" cy="275.7841" fill="#000000" rx="3" ry="3" style="stroke:#000000;stroke-width:1;"/></g><text fill="#000000" font-family="sans-serif" font-size="14" lengthAdjust="spacing" textLength="56.0342" x="104" y="280.0126">id : bigint</text><line style="stroke:#181818;stroke-width:1;" x1="85" x2="219.5029" y1="287.0888" y2="287.0888"/><text fill="#000000" font-family="sans-serif" font-size="14" lengthAdjust="spacing" textLength="120.6064" x="90" y="305.622">username : varchar</text><text fill="#000000" font-family="sans-serif" font-size="14" lengthAdjust="spacing" textLength="124.5029" x="90" y="323.2313">real_name : varchar</text><text fill="#000000" font-family="sans-serif" font-size="14" lengthAdjust="spacing" textLength="95.7031" x="90" y="340.8407">status : varchar</text></g><!--class role--><g class="entity" data-qualified-name="role" data-source-line="12" id="ent0003"><rect fill="#F1F1F1" height="96.4375" rx="2.5" ry="2.5" style="stroke:#181818;stroke-width:0.5;" width="136.5029" x="7" y="443.14"/><text fill="#000000" font-family="sans-serif" font-size="14" lengthAdjust="spacing" textLength="52.1309" x="49.186" y="462.6732">sys_role</text><line style="stroke:#181818;stroke-width:0.5;" x1="8" x2="142.5029" y1="470.7494" y2="470.7494"/><g data-visibility-modifier="IE_MANDATORY"><ellipse cx="18" cy="485.0541" fill="#000000" rx="3" ry="3" style="stroke:#000000;stroke-width:1;"/></g><text fill="#000000" font-family="sans-serif" font-size="14" lengthAdjust="spacing" textLength="56.0342" x="27" y="489.2826">id : bigint</text><line style="stroke:#181818;stroke-width:1;" x1="8" x2="142.5029" y1="496.3588" y2="496.3588"/><text fill="#000000" font-family="sans-serif" font-size="14" lengthAdjust="spacing" textLength="119.8408" x="13" y="514.892">role_code : varchar</text><text fill="#000000" font-family="sans-serif" font-size="14" lengthAdjust="spacing" textLength="124.5029" x="13" y="532.5013">role_name : varchar</text></g><!--class device--><g class="entity" data-qualified-name="device" data-source-line="19" id="ent0004"><rect fill="#F1F1F1" height="149.2656" rx="2.5" ry="2.5" style="stroke:#181818;stroke-width:0.5;" width="153.627" x="452.44" y="7"/><text fill="#000000" font-family="sans-serif" font-size="14" lengthAdjust="spacing" textLength="62.2549" x="498.126" y="26.5332">ict_device</text><line style="stroke:#181818;stroke-width:0.5;" x1="453.44" x2="605.067" y1="34.6094" y2="34.6094"/><g data-visibility-modifier="IE_MANDATORY"><ellipse cx="463.44" cy="48.9141" fill="#000000" rx="3" ry="3" style="stroke:#000000;stroke-width:1;"/></g><text fill="#000000" font-family="sans-serif" font-size="14" lengthAdjust="spacing" textLength="56.0342" x="472.44" y="53.1426">id : bigint</text><line style="stroke:#181818;stroke-width:1;" x1="453.44" x2="605.067" y1="60.2188" y2="60.2188"/><text fill="#000000" font-family="sans-serif" font-size="14" lengthAdjust="spacing" textLength="136.9648" x="458.44" y="78.752">device_code : varchar</text><text fill="#000000" font-family="sans-serif" font-size="14" lengthAdjust="spacing" textLength="141.627" x="458.44" y="96.3613">device_name : varchar</text><text fill="#000000" font-family="sans-serif" font-size="14" lengthAdjust="spacing" textLength="133.0684" x="458.44" y="113.9707">device_type : varchar</text><text fill="#000000" font-family="sans-serif" font-size="14" lengthAdjust="spacing" textLength="126.8408" x="458.44" y="131.5801">ip_address : varchar</text><text fill="#000000" font-family="sans-serif" font-size="14" lengthAdjust="spacing" textLength="95.7031" x="458.44" y="149.1895">status : varchar</text></g><!--class target--><g class="entity" data-qualified-name="target" data-source-line="29" id="ent0005"><rect fill="#F1F1F1" height="149.2656" rx="2.5" ry="2.5" style="stroke:#181818;stroke-width:0.5;" width="164.5166" x="634.99" y="216.26"/><text fill="#000000" font-family="sans-serif" font-size="14" lengthAdjust="spacing" textLength="90.2686" x="672.114" y="235.7932">monitor_target</text><line style="stroke:#181818;stroke-width:0.5;" x1="635.99" x2="798.5066" y1="243.8694" y2="243.8694"/><g data-visibility-modifier="IE_MANDATORY"><ellipse cx="645.99" cy="258.1741" fill="#000000" rx="3" ry="3" style="stroke:#000000;stroke-width:1;"/></g><text fill="#000000" font-family="sans-serif" font-size="14" lengthAdjust="spacing" textLength="56.0342" x="654.99" y="262.4026">id : bigint</text><line style="stroke:#181818;stroke-width:1;" x1="635.99" x2="798.5066" y1="269.4788" y2="269.4788"/><text fill="#000000" font-family="sans-serif" font-size="14" lengthAdjust="spacing" textLength="104.2891" x="640.99" y="288.012">device_id : bigint</text><text fill="#000000" font-family="sans-serif" font-size="14" lengthAdjust="spacing" textLength="136.958" x="640.99" y="305.6213">target_name : varchar</text><text fill="#000000" font-family="sans-serif" font-size="14" lengthAdjust="spacing" textLength="112.0684" x="640.99" y="323.2307">endpoint : varchar</text><text fill="#000000" font-family="sans-serif" font-size="14" lengthAdjust="spacing" textLength="152.5166" x="640.99" y="340.8401">collect_method : varchar</text><text fill="#000000" font-family="sans-serif" font-size="14" lengthAdjust="spacing" textLength="95.7031" x="640.99" y="358.4495">status : varchar</text></g><!--class rule--><g class="entity" data-qualified-name="rule" data-source-line="39" id="ent0006"><rect fill="#F1F1F1" height="131.6563" rx="2.5" ry="2.5" style="stroke:#181818;stroke-width:0.5;" width="170.7578" x="631.87" y="425.53"/><text fill="#000000" font-family="sans-serif" font-size="14" lengthAdjust="spacing" textLength="69.2412" x="682.6283" y="445.0632">metric_rule</text><line style="stroke:#181818;stroke-width:0.5;" x1="632.87" x2="801.6278" y1="453.1394" y2="453.1394"/><g data-visibility-modifier="IE_MANDATORY"><ellipse cx="642.87" cy="467.4441" fill="#000000" rx="3" ry="3" style="stroke:#000000;stroke-width:1;"/></g><text fill="#000000" font-family="sans-serif" font-size="14" lengthAdjust="spacing" textLength="56.0342" x="651.87" y="471.6726">id : bigint</text><line style="stroke:#181818;stroke-width:1;" x1="632.87" x2="801.6278" y1="478.7488" y2="478.7488"/><text fill="#000000" font-family="sans-serif" font-size="14" lengthAdjust="spacing" textLength="99.6201" x="637.87" y="497.282">target_id : bigint</text><text fill="#000000" font-family="sans-serif" font-size="14" lengthAdjust="spacing" textLength="139.2686" x="637.87" y="514.8913">metric_name : varchar</text><text fill="#000000" font-family="sans-serif" font-size="14" lengthAdjust="spacing" textLength="77.0273" x="637.87" y="532.5007">promql : text</text><text fill="#000000" font-family="sans-serif" font-size="14" lengthAdjust="spacing" textLength="158.7578" x="637.87" y="550.1101">threshold_value : decimal</text></g><!--class metric--><g class="entity" data-qualified-name="metric" data-source-line="48" id="ent0007"><rect fill="#F1F1F1" height="149.2656" rx="2.5" ry="2.5" style="stroke:#181818;stroke-width:0.5;" width="168.3994" x="255.05" y="216.26"/><text fill="#000000" font-family="sans-serif" font-size="14" lengthAdjust="spacing" textLength="86.3652" x="296.0671" y="235.7932">device_metric</text><line style="stroke:#181818;stroke-width:0.5;" x1="256.05" x2="422.4494" y1="243.8694" y2="243.8694"/><g data-visibility-modifier="IE_MANDATORY"><ellipse cx="266.05" cy="258.1741" fill="#000000" rx="3" ry="3" style="stroke:#000000;stroke-width:1;"/></g><text fill="#000000" font-family="sans-serif" font-size="14" lengthAdjust="spacing" textLength="56.0342" x="275.05" y="262.4026">id : bigint</text><line style="stroke:#181818;stroke-width:1;" x1="256.05" x2="422.4494" y1="269.4788" y2="269.4788"/><text fill="#000000" font-family="sans-serif" font-size="14" lengthAdjust="spacing" textLength="104.2891" x="261.05" y="288.012">device_id : bigint</text><text fill="#000000" font-family="sans-serif" font-size="14" lengthAdjust="spacing" textLength="128.4131" x="261.05" y="305.6213">cpu_usage : decimal</text><text fill="#000000" font-family="sans-serif" font-size="14" lengthAdjust="spacing" textLength="156.3994" x="261.05" y="323.2307">memory_usage : decimal</text><text fill="#000000" font-family="sans-serif" font-size="14" lengthAdjust="spacing" textLength="130.7373" x="261.05" y="340.8401">disk_usage : decimal</text><text fill="#000000" font-family="sans-serif" font-size="14" lengthAdjust="spacing" textLength="154.8545" x="261.05" y="358.4495">collected_time : datetime</text></g><!--class alarm--><g class="entity" data-qualified-name="alarm" data-source-line="58" id="ent0008"><rect fill="#F1F1F1" height="131.6563" rx="2.5" ry="2.5" style="stroke:#181818;stroke-width:0.5;" width="141.9375" x="458.28" y="225.07"/><text fill="#000000" font-family="sans-serif" font-size="14" lengthAdjust="spacing" textLength="82.4756" x="488.011" y="244.6032">alarm_record</text><line style="stroke:#181818;stroke-width:0.5;" x1="459.28" x2="599.2175" y1="252.6794" y2="252.6794"/><g data-visibility-modifier="IE_MANDATORY"><ellipse cx="469.28" cy="266.9841" fill="#000000" rx="3" ry="3" style="stroke:#000000;stroke-width:1;"/></g><text fill="#000000" font-family="sans-serif" font-size="14" lengthAdjust="spacing" textLength="56.0342" x="478.28" y="271.2126">id : bigint</text><line style="stroke:#181818;stroke-width:1;" x1="459.28" x2="599.2175" y1="278.2888" y2="278.2888"/><text fill="#000000" font-family="sans-serif" font-size="14" lengthAdjust="spacing" textLength="104.2891" x="464.28" y="296.822">device_id : bigint</text><text fill="#000000" font-family="sans-serif" font-size="14" lengthAdjust="spacing" textLength="122.9307" x="464.28" y="314.4313">alarm_title : varchar</text><text fill="#000000" font-family="sans-serif" font-size="14" lengthAdjust="spacing" textLength="129.9375" x="464.28" y="332.0407">alarm_level : varchar</text><text fill="#000000" font-family="sans-serif" font-size="14" lengthAdjust="spacing" textLength="95.7031" x="464.28" y="349.6501">status : varchar</text></g><!--class ticket--><g class="entity" data-qualified-name="ticket" data-source-line="67" id="ent0009"><rect fill="#F1F1F1" height="131.6563" rx="2.5" ry="2.5" style="stroke:#181818;stroke-width:0.5;" width="131.8613" x="390.32" y="425.53"/><text fill="#000000" font-family="sans-serif" font-size="14" lengthAdjust="spacing" textLength="70.0273" x="421.237" y="445.0632">work_order</text><line style="stroke:#181818;stroke-width:0.5;" x1="391.32" x2="521.1813" y1="453.1394" y2="453.1394"/><g data-visibility-modifier="IE_MANDATORY"><ellipse cx="401.32" cy="467.4441" fill="#000000" rx="3" ry="3" style="stroke:#000000;stroke-width:1;"/></g><text fill="#000000" font-family="sans-serif" font-size="14" lengthAdjust="spacing" textLength="56.0342" x="410.32" y="471.6726">id : bigint</text><line style="stroke:#181818;stroke-width:1;" x1="391.32" x2="521.1813" y1="478.7488" y2="478.7488"/><text fill="#000000" font-family="sans-serif" font-size="14" lengthAdjust="spacing" textLength="98.8271" x="396.32" y="497.282">alarm_id : bigint</text><text fill="#000000" font-family="sans-serif" font-size="14" lengthAdjust="spacing" textLength="114.3926" x="396.32" y="514.8913">order_no : varchar</text><text fill="#000000" font-family="sans-serif" font-size="14" lengthAdjust="spacing" textLength="119.8613" x="396.32" y="532.5007">assignee_id : bigint</text><text fill="#000000" font-family="sans-serif" font-size="14" lengthAdjust="spacing" textLength="95.7031" x="396.32" y="550.1101">status : varchar</text></g><!--class ticket_log--><g class="entity" data-qualified-name="ticket_log" data-source-line="76" id="ent0010"><rect fill="#F1F1F1" height="114.0469" rx="2.5" ry="2.5" style="stroke:#181818;stroke-width:0.5;" width="145.8477" x="383.33" y="617.18"/><text fill="#000000" font-family="sans-serif" font-size="14" lengthAdjust="spacing" textLength="96.4961" x="408.0058" y="636.7132">work_order_log</text><line style="stroke:#181818;stroke-width:0.5;" x1="384.33" x2="528.1777" y1="644.7894" y2="644.7894"/><g data-visibility-modifier="IE_MANDATORY"><ellipse cx="394.33" cy="659.0941" fill="#000000" rx="3" ry="3" style="stroke:#000000;stroke-width:1;"/></g><text fill="#000000" font-family="sans-serif" font-size="14" lengthAdjust="spacing" textLength="56.0342" x="403.33" y="663.3226">id : bigint</text><line style="stroke:#181818;stroke-width:1;" x1="384.33" x2="528.1777" y1="670.3988" y2="670.3988"/><text fill="#000000" font-family="sans-serif" font-size="14" lengthAdjust="spacing" textLength="133.8477" x="389.33" y="688.932">work_order_id : bigint</text><text fill="#000000" font-family="sans-serif" font-size="14" lengthAdjust="spacing" textLength="115.9648" x="389.33" y="706.5413">operator_id : bigint</text><text fill="#000000" font-family="sans-serif" font-size="14" lengthAdjust="spacing" textLength="95.71" x="389.33" y="724.1507">action : varchar</text></g><!--class doc--><g class="entity" data-qualified-name="doc" data-source-line="84" id="ent0011"><rect fill="#F1F1F1" height="96.4375" rx="2.5" ry="2.5" style="stroke:#181818;stroke-width:0.5;" width="150.5098" x="828" y="33.41"/><text fill="#000000" font-family="sans-serif" font-size="14" lengthAdjust="spacing" textLength="136.2061" x="835.1519" y="52.9432">knowledge_document</text><line style="stroke:#181818;stroke-width:0.5;" x1="829" x2="977.5098" y1="61.0194" y2="61.0194"/><g data-visibility-modifier="IE_MANDATORY"><ellipse cx="839" cy="75.3241" fill="#000000" rx="3" ry="3" style="stroke:#000000;stroke-width:1;"/></g><text fill="#000000" font-family="sans-serif" font-size="14" lengthAdjust="spacing" textLength="56.0342" x="848" y="79.5526">id : bigint</text><line style="stroke:#181818;stroke-width:1;" x1="829" x2="977.5098" y1="86.6287" y2="86.6287"/><text fill="#000000" font-family="sans-serif" font-size="14" lengthAdjust="spacing" textLength="119.0547" x="834" y="105.162">file_name : varchar</text><text fill="#000000" font-family="sans-serif" font-size="14" lengthAdjust="spacing" textLength="138.5098" x="834" y="122.7713">parse_status : varchar</text></g><!--class chunk--><g class="entity" data-qualified-name="chunk" data-source-line="91" id="ent0012"><rect fill="#F1F1F1" height="114.0469" rx="2.5" ry="2.5" style="stroke:#181818;stroke-width:0.5;" width="137.3027" x="834.6" y="233.87"/><text fill="#000000" font-family="sans-serif" font-size="14" lengthAdjust="spacing" textLength="112.082" x="847.2104" y="253.4032">knowledge_chunk</text><line style="stroke:#181818;stroke-width:0.5;" x1="835.6" x2="970.9027" y1="261.4794" y2="261.4794"/><g data-visibility-modifier="IE_MANDATORY"><ellipse cx="845.6" cy="275.7841" fill="#000000" rx="3" ry="3" style="stroke:#000000;stroke-width:1;"/></g><text fill="#000000" font-family="sans-serif" font-size="14" lengthAdjust="spacing" textLength="56.0342" x="854.6" y="280.0126">id : bigint</text><line style="stroke:#181818;stroke-width:1;" x1="835.6" x2="970.9027" y1="287.0888" y2="287.0888"/><text fill="#000000" font-family="sans-serif" font-size="14" lengthAdjust="spacing" textLength="125.3027" x="840.6" y="305.622">document_id : bigint</text><text fill="#000000" font-family="sans-serif" font-size="14" lengthAdjust="spacing" textLength="105.0684" x="840.6" y="323.2313">chunk_index : int</text><text fill="#000000" font-family="sans-serif" font-size="14" lengthAdjust="spacing" textLength="115.1582" x="840.6" y="340.8407">vector_id : varchar</text></g><!--class qa--><g class="entity" data-qualified-name="qa" data-source-line="99" id="ent0013"><rect fill="#F1F1F1" height="114.0469" rx="2.5" ry="2.5" style="stroke:#181818;stroke-width:0.5;" width="103.0547" x="178.72" y="434.33"/><text fill="#000000" font-family="sans-serif" font-size="14" lengthAdjust="spacing" textLength="81.7236" x="189.3855" y="453.8632">ai_qa_record</text><line style="stroke:#181818;stroke-width:0.5;" x1="179.72" x2="280.7747" y1="461.9394" y2="461.9394"/><g data-visibility-modifier="IE_MANDATORY"><ellipse cx="189.72" cy="476.2441" fill="#000000" rx="3" ry="3" style="stroke:#000000;stroke-width:1;"/></g><text fill="#000000" font-family="sans-serif" font-size="14" lengthAdjust="spacing" textLength="56.0342" x="198.72" y="480.4726">id : bigint</text><line style="stroke:#181818;stroke-width:1;" x1="179.72" x2="280.7747" y1="487.5488" y2="487.5488"/><text fill="#000000" font-family="sans-serif" font-size="14" lengthAdjust="spacing" textLength="91.0547" x="184.72" y="506.082">user_id : bigint</text><text fill="#000000" font-family="sans-serif" font-size="14" lengthAdjust="spacing" textLength="87.165" x="184.72" y="523.6913">question : text</text><text fill="#000000" font-family="sans-serif" font-size="14" lengthAdjust="spacing" textLength="79.3652" x="184.72" y="541.3007">answer : text</text></g><!--link user to role--><g class="link" data-entity-1="ent0002" data-entity-2="ent0003" data-link-type="crowfoot" data-source-line="107" id="lnk14"><path codeLine="107" d="M113.75,366.34 C113.75,396.19 113.75,396.27 113.75,424.72" fill="none" id="user-role" style="stroke:#181818;stroke-width:1;"/><line style="stroke:#181818;stroke-width:1;" x1="113.75" x2="107.75" y1="356.34" y2="348.34"/><line style="stroke:#181818;stroke-width:1;" x1="113.75" x2="119.75" y1="356.34" y2="348.34"/><line style="stroke:#181818;stroke-width:1;" x1="113.75" x2="113.75" y1="356.34" y2="348.34"/><ellipse cx="113.75" cy="362.34" fill="none" rx="4" ry="4" style="stroke:#181818;stroke-width:1;"/><line style="stroke:#181818;stroke-width:1;" x1="113.75" x2="119.75" y1="434.72" y2="442.72"/><line style="stroke:#181818;stroke-width:1;" x1="113.75" x2="107.75" y1="434.72" y2="442.72"/><line style="stroke:#181818;stroke-width:1;" x1="113.75" x2="113.75" y1="434.72" y2="442.72"/><ellipse cx="113.75" cy="428.72" fill="none" rx="4" ry="4" style="stroke:#181818;stroke-width:1;"/><text fill="#000000" font-family="sans-serif" font-size="13" lengthAdjust="spacing" textLength="52" x="60.75" y="392.0251">&#29992;&#25143;&#35282;&#33394;</text></g><!--link device to target--><g class="link" data-entity-1="ent0004" data-entity-2="ent0005" data-link-type="crowfoot" data-source-line="108" id="lnk15"><path codeLine="108" d="M564.74,164.46 C564.74,198.04 564.74,222.23 564.74,222.23 C564.74,222.23 580.81,222.23 616.74,222.23" fill="none" id="device-target" style="stroke:#181818;stroke-width:1;"/><line style="stroke:#181818;stroke-width:1;" x1="560.74" x2="568.74" y1="160.46" y2="160.46"/><line style="stroke:#181818;stroke-width:1;" x1="560.74" x2="568.74" y1="163.46" y2="163.46"/><line style="stroke:#181818;stroke-width:1;" x1="564.74" x2="564.74" y1="164.46" y2="156.46"/><line style="stroke:#181818;stroke-width:1;" x1="626.74" x2="634.74" y1="222.23" y2="216.23"/><line style="stroke:#181818;stroke-width:1;" x1="626.74" x2="634.74" y1="222.23" y2="228.23"/><line style="stroke:#181818;stroke-width:1;" x1="626.74" x2="634.74" y1="222.23" y2="222.23"/><ellipse cx="620.74" cy="222.23" fill="none" rx="4" ry="4" style="stroke:#181818;stroke-width:1;"/><text fill="#000000" font-family="sans-serif" font-size="13" lengthAdjust="spacing" textLength="26" x="539.85" y="218.7251">&#37197;&#32622;</text></g><!--link target to rule--><g class="link" data-entity-1="ent0005" data-entity-2="ent0006" data-link-type="crowfoot" data-source-line="109" id="lnk16"><path codeLine="109" d="M717.25,373.82 C717.25,393.28 717.25,388.11 717.25,407.09" fill="none" id="target-rule" style="stroke:#181818;stroke-width:1;"/><line style="stroke:#181818;stroke-width:1;" x1="713.25" x2="721.25" y1="369.82" y2="369.82"/><line style="stroke:#181818;stroke-width:1;" x1="713.25" x2="721.25" y1="372.82" y2="372.82"/><line style="stroke:#181818;stroke-width:1;" x1="717.25" x2="717.25" y1="373.82" y2="365.82"/><line style="stroke:#181818;stroke-width:1;" x1="717.25" x2="723.25" y1="417.09" y2="425.09"/><line style="stroke:#181818;stroke-width:1;" x1="717.25" x2="711.25" y1="417.09" y2="425.09"/><line style="stroke:#181818;stroke-width:1;" x1="717.25" x2="717.25" y1="417.09" y2="425.09"/><ellipse cx="717.25" cy="411.09" fill="none" rx="4" ry="4" style="stroke:#181818;stroke-width:1;"/><text fill="#000000" font-family="sans-serif" font-size="13" lengthAdjust="spacing" textLength="26" x="690.25" y="391.9551">&#35268;&#21017;</text></g><!--link device to metric--><g class="link" data-entity-1="ent0004" data-entity-2="ent0007" data-link-type="crowfoot" data-source-line="110" id="lnk17"><path codeLine="110" d="M493.77,164.47 C493.77,196.74 493.77,219.23 493.77,219.23 C493.77,219.23 477.82,219.23 441.74,219.23" fill="none" id="device-metric" style="stroke:#181818;stroke-width:1;"/><line style="stroke:#181818;stroke-width:1;" x1="489.77" x2="497.77" y1="160.47" y2="160.47"/><line style="stroke:#181818;stroke-width:1;" x1="489.77" x2="497.77" y1="163.47" y2="163.47"/><line style="stroke:#181818;stroke-width:1;" x1="493.77" x2="493.77" y1="164.47" y2="156.47"/><line style="stroke:#181818;stroke-width:1;" x1="431.74" x2="423.74" y1="219.23" y2="225.23"/><line style="stroke:#181818;stroke-width:1;" x1="431.74" x2="423.74" y1="219.23" y2="213.23"/><line style="stroke:#181818;stroke-width:1;" x1="431.74" x2="423.74" y1="219.23" y2="219.23"/><ellipse cx="437.74" cy="219.23" fill="none" rx="4" ry="4" style="stroke:#181818;stroke-width:1;"/><text fill="#000000" font-family="sans-serif" font-size="13" lengthAdjust="spacing" textLength="26" x="463.14" y="215.7251">&#20135;&#29983;</text></g><!--link device to alarm--><g class="link" data-entity-1="ent0004" data-entity-2="ent0008" data-link-type="crowfoot" data-source-line="111" id="lnk18"><path codeLine="111" d="M529.25,164.59 C529.25,186.87 529.25,185.11 529.25,206.79" fill="none" id="device-alarm" style="stroke:#181818;stroke-width:1;"/><line style="stroke:#181818;stroke-width:1;" x1="525.25" x2="533.25" y1="160.59" y2="160.59"/><line style="stroke:#181818;stroke-width:1;" x1="525.25" x2="533.25" y1="163.59" y2="163.59"/><line style="stroke:#181818;stroke-width:1;" x1="529.25" x2="529.25" y1="164.59" y2="156.59"/><line style="stroke:#181818;stroke-width:1;" x1="529.25" x2="535.25" y1="216.79" y2="224.79"/><line style="stroke:#181818;stroke-width:1;" x1="529.25" x2="523.25" y1="216.79" y2="224.79"/><line style="stroke:#181818;stroke-width:1;" x1="529.25" x2="529.25" y1="216.79" y2="224.79"/><ellipse cx="529.25" cy="210.79" fill="none" rx="4" ry="4" style="stroke:#181818;stroke-width:1;"/><text fill="#000000" font-family="sans-serif" font-size="13" lengthAdjust="spacing" textLength="26" x="502.25" y="187.1851">&#20135;&#29983;</text></g><!--link alarm to ticket--><g class="link" data-entity-1="ent0008" data-entity-2="ent0009" data-link-type="association" data-source-line="112" id="lnk19"><path codeLine="112" d="M490.23,365.09 C490.23,386.98 490.23,388.34 490.23,410.23" fill="none" id="alarm-ticket" style="stroke:#181818;stroke-width:1;"/><line style="stroke:#181818;stroke-width:1;" x1="486.23" x2="494.23" y1="361.09" y2="361.09"/><line style="stroke:#181818;stroke-width:1;" x1="486.23" x2="494.23" y1="364.09" y2="364.09"/><line style="stroke:#181818;stroke-width:1;" x1="490.23" x2="490.23" y1="365.09" y2="357.09"/><line style="stroke:#181818;stroke-width:1;" x1="490.23" x2="490.23" y1="414.23" y2="425.23"/><ellipse cx="490.23" cy="414.23" fill="none" rx="4" ry="4" style="stroke:#181818;stroke-width:1;"/><line style="stroke:#181818;stroke-width:1;" x1="494.23" x2="486.23" y1="421.23" y2="421.23"/><text fill="#000000" font-family="sans-serif" font-size="13" lengthAdjust="spacing" textLength="26" x="463.23" y="387.6551">&#36716;&#20026;</text></g><!--link ticket to ticket_log--><g class="link" data-entity-1="ent0009" data-entity-2="ent0010" data-link-type="crowfoot" data-source-line="113" id="lnk20"><path codeLine="113" d="M456.25,565.63 C456.25,585.05 456.25,580.11 456.25,598.92" fill="none" id="ticket-ticket_log" style="stroke:#181818;stroke-width:1;"/><line style="stroke:#181818;stroke-width:1;" x1="452.25" x2="460.25" y1="561.63" y2="561.63"/><line style="stroke:#181818;stroke-width:1;" x1="452.25" x2="460.25" y1="564.63" y2="564.63"/><line style="stroke:#181818;stroke-width:1;" x1="456.25" x2="456.25" y1="565.63" y2="557.63"/><line style="stroke:#181818;stroke-width:1;" x1="456.25" x2="462.25" y1="608.92" y2="616.92"/><line style="stroke:#181818;stroke-width:1;" x1="456.25" x2="450.25" y1="608.92" y2="616.92"/><line style="stroke:#181818;stroke-width:1;" x1="456.25" x2="456.25" y1="608.92" y2="616.92"/><ellipse cx="456.25" cy="602.92" fill="none" rx="4" ry="4" style="stroke:#181818;stroke-width:1;"/><text fill="#000000" font-family="sans-serif" font-size="13" lengthAdjust="spacing" textLength="26" x="429.25" y="583.7651">&#21253;&#21547;</text></g><!--link user to ticket--><g class="link" data-entity-1="ent0002" data-entity-2="ent0009" data-link-type="crowfoot" data-source-line="114" id="lnk21"><path codeLine="114" d="M206.58,356.37 C206.58,394.75 206.58,430.23 206.58,430.23 C206.58,430.23 298.03,430.23 372,430.23" fill="none" id="user-ticket" style="stroke:#181818;stroke-width:1;"/><line style="stroke:#181818;stroke-width:1;" x1="202.58" x2="210.58" y1="352.37" y2="352.37"/><line style="stroke:#181818;stroke-width:1;" x1="202.58" x2="210.58" y1="355.37" y2="355.37"/><line style="stroke:#181818;stroke-width:1;" x1="206.58" x2="206.58" y1="356.37" y2="348.37"/><line style="stroke:#181818;stroke-width:1;" x1="382" x2="390" y1="430.23" y2="424.23"/><line style="stroke:#181818;stroke-width:1;" x1="382" x2="390" y1="430.23" y2="436.23"/><line style="stroke:#181818;stroke-width:1;" x1="382" x2="390" y1="430.23" y2="430.23"/><ellipse cx="376" cy="430.23" fill="none" rx="4" ry="4" style="stroke:#181818;stroke-width:1;"/><text fill="#000000" font-family="sans-serif" font-size="13" lengthAdjust="spacing" textLength="26" x="230.36" y="426.7251">&#22788;&#29702;</text></g><!--link doc to chunk--><g class="link" data-entity-1="ent0011" data-entity-2="ent0012" data-link-type="crowfoot" data-source-line="115" id="lnk22"><path codeLine="115" d="M903.25,138.16 C903.25,169.07 903.25,183.26 903.25,215.71" fill="none" id="doc-chunk" style="stroke:#181818;stroke-width:1;"/><line style="stroke:#181818;stroke-width:1;" x1="899.25" x2="907.25" y1="134.16" y2="134.16"/><line style="stroke:#181818;stroke-width:1;" x1="899.25" x2="907.25" y1="137.16" y2="137.16"/><line style="stroke:#181818;stroke-width:1;" x1="903.25" x2="903.25" y1="138.16" y2="130.16"/><line style="stroke:#181818;stroke-width:1;" x1="903.25" x2="909.25" y1="225.71" y2="233.71"/><line style="stroke:#181818;stroke-width:1;" x1="903.25" x2="897.25" y1="225.71" y2="233.71"/><line style="stroke:#181818;stroke-width:1;" x1="903.25" x2="903.25" y1="225.71" y2="233.71"/><ellipse cx="903.25" cy="219.71" fill="none" rx="4" ry="4" style="stroke:#181818;stroke-width:1;"/><text fill="#000000" font-family="sans-serif" font-size="13" lengthAdjust="spacing" textLength="26" x="876.25" y="178.4351">&#20999;&#29255;</text></g><!--link user to qa--><g class="link" data-entity-1="ent0002" data-entity-2="ent0013" data-link-type="crowfoot" data-source-line="116" id="lnk23"><path codeLine="116" d="M192.65,356.34 C192.65,383.18 192.65,389.06 192.65,415.9" fill="none" id="user-qa" style="stroke:#181818;stroke-width:1;"/><line style="stroke:#181818;stroke-width:1;" x1="188.65" x2="196.65" y1="352.34" y2="352.34"/><line style="stroke:#181818;stroke-width:1;" x1="188.65" x2="196.65" y1="355.34" y2="355.34"/><line style="stroke:#181818;stroke-width:1;" x1="192.65" x2="192.65" y1="356.34" y2="348.34"/><line style="stroke:#181818;stroke-width:1;" x1="192.65" x2="198.65" y1="425.9" y2="433.9"/><line style="stroke:#181818;stroke-width:1;" x1="192.65" x2="186.65" y1="425.9" y2="433.9"/><line style="stroke:#181818;stroke-width:1;" x1="192.65" x2="192.65" y1="425.9" y2="433.9"/><ellipse cx="192.65" cy="419.9" fill="none" rx="4" ry="4" style="stroke:#181818;stroke-width:1;"/><text fill="#000000" font-family="sans-serif" font-size="13" lengthAdjust="spacing" textLength="26" x="165.65" y="387.6151">&#25552;&#38382;</text></g><?plantuml-src bLNBQXin5DtFLuWi2_w1-HcXIhUs68qqbZHsJ9nTqZZGKbC2fQjk2YwqPD5DIo1_4yVENqGlDpFZHvtDS7MEf7DqTNLdm1aWoZKLa9c2oufeKYB19TX91KXfEr1P1j9oEq4dPc9mRK2V86AG3z1PXj0Rn1dAqLlUvzAwSQ_dFfwLf0H7Z8Yc0w8Tg848l8KQIsnj6j1vMr4h0K7H1_iLFOkfOXr9ZtOa6_jpQZ634QTH8ORxDIA_hPBmhQCbFEIoYVCA4yOq67Dq9aebkLKQMwBxO8FR6FxNRPk9YxQjWcILSbDQ85L2W4jH2QuEsF5UmMfEiQut5rSVkhZagCsaBRPiLbgLG-4W2wVXE0ENnO4I38-8gFrS1fINH3Jzf4J4FOEZ6BuoTRIgNVcJVbF5EosLdkmW63V53ZZb51YsF1oE4Gi-R3ecWkWIQw1Ais0u0A_q6pTn6ufs3YCkO0JYw2iTArrWPoOzVijfSQZqeaIR2AknL6qlnl2-XAxruwnWeVeDEtwutr9ZMSTN1PhufzN97hLSoTqM2gd60bWVC5EqBXqSsuSwK5BlkDZH8Lp3DO0F7VT5YmvgMGIX41seXcIgMxz-5UQImQc38pPofRWv-Wvnml6GDEjmI0xt_8xai0QJqfWUB95cx7uSQUoamd_aNFLwwYns-1ojRduyplwi5v_Nrx-pr9Edqp0ZzRmSFLr-NDtVPccSsD1eShHUN2ndNpihqvFFqSFTOdNphSF6z_MFZCF0JJV5xlQz__NmzovBuusZbzhBqVB3vNB-CvwfnNlk-yLg_ZxpHPAeU8sEcLsjhgzQgroUS_JuQVxqvVOP?></g></svg>