<svg xmlns="http://www.w3.org/2000/svg" xmlns:xlink="http://www.w3.org/1999/xlink" contentStyleType="text/css" data-diagram-type="STATE" height="645px" preserveAspectRatio="none" style="width:469px;height:645px;background:#FFFFFF;" version="1.1" viewBox="0 0 469 645" width="469px" zoomAndPan="magnify"><?plantuml 1.2026.3?><defs/><g><g class="entity" data-qualified-name="..." id="ent0002"><rect fill="#F1F1F1" height="52.7031" rx="12.5" ry="12.5" style="stroke:#181818;stroke-width:0.5;" width="113.6973" x="187.67" y="104"/><line style="stroke:#181818;stroke-width:0.5;" x1="187.67" x2="301.3673" y1="131.6094" y2="131.6094"/><text fill="#000000" font-family="sans-serif" font-size="14" lengthAdjust="spacing" textLength="42" x="223.5186" y="123.5332">&#24453;&#22788;&#29702;</text><text fill="#000000" font-family="sans-serif" font-size="12" lengthAdjust="spacing" textLength="93.6973" x="192.67" y="149.0664">status=PENDING</text></g><g class="entity" data-qualified-name="..." id="ent0003"><rect fill="#F1F1F1" height="52.7031" rx="12.5" ry="12.5" style="stroke:#181818;stroke-width:0.5;" width="121.0332" x="184" y="234.7"/><line style="stroke:#181818;stroke-width:0.5;" x1="184" x2="305.0332" y1="262.3094" y2="262.3094"/><text fill="#000000" font-family="sans-serif" font-size="14" lengthAdjust="spacing" textLength="42" x="223.5166" y="254.2332">&#22788;&#29702;&#20013;</text><text fill="#000000" font-family="sans-serif" font-size="12" lengthAdjust="spacing" textLength="101.0332" x="189" y="279.7664">status=HANDLING</text></g><g class="entity" data-qualified-name="...." id="ent0004"><rect fill="#F1F1F1" height="52.7031" rx="12.5" ry="12.5" style="stroke:#181818;stroke-width:0.5;" width="125.0293" x="173" y="365.4"/><line style="stroke:#181818;stroke-width:0.5;" x1="173" x2="298.0293" y1="393.0094" y2="393.0094"/><text fill="#000000" font-family="sans-serif" font-size="14" lengthAdjust="spacing" textLength="56" x="207.5146" y="384.9332">&#24050;&#36716;&#24037;&#21333;</text><text fill="#000000" font-family="sans-serif" font-size="12" lengthAdjust="spacing" textLength="105.0293" x="178" y="410.4664">status=TO_TICKET</text></g><g class="entity" data-qualified-name="..." id="ent0005"><rect fill="#F1F1F1" height="52.7031" rx="12.5" ry="12.5" style="stroke:#181818;stroke-width:0.5;" width="115.0273" x="7" y="365.4"/><line style="stroke:#181818;stroke-width:0.5;" x1="7" x2="122.0273" y1="393.0094" y2="393.0094"/><text fill="#000000" font-family="sans-serif" font-size="14" lengthAdjust="spacing" textLength="42" x="43.5137" y="384.9332">&#24050;&#24573;&#30053;</text><text fill="#000000" font-family="sans-serif" font-size="12" lengthAdjust="spacing" textLength="95.0273" x="12" y="410.4664">status=IGNORED</text></g><g class="entity" data-qualified-name="..." id="ent0006"><rect fill="#F1F1F1" height="52.7031" rx="12.5" ry="12.5" style="stroke:#181818;stroke-width:0.5;" width="108.3711" x="255.33" y="496.11"/><line style="stroke:#181818;stroke-width:0.5;" x1="255.33" x2="363.7011" y1="523.7194" y2="523.7194"/><text fill="#000000" font-family="sans-serif" font-size="14" lengthAdjust="spacing" textLength="42" x="288.5155" y="515.6432">&#24050;&#20851;&#38381;</text><text fill="#000000" font-family="sans-serif" font-size="12" lengthAdjust="spacing" textLength="88.3711" x="260.33" y="541.1764">status=CLOSED</text></g><g class="start_entity" data-qualified-name=".start." data-source-line="1" id="ent0002"><ellipse cx="244.51" cy="16" fill="#222222" rx="10" ry="10" style="stroke:#222222;stroke-width:1;"/></g><g class="end_entity" data-qualified-name=".end." data-source-line="14" id="ent0012"><ellipse cx="180.51" cy="620.81" fill="none" rx="11" ry="11" style="stroke:#222222;stroke-width:1;"/><ellipse cx="180.51" cy="620.81" fill="#222222" rx="6" ry="6" style="stroke:#222222;stroke-width:1;"/></g><!--link *start* to ???--><g class="link" data-entity-1="ent0002" data-entity-2="ent0002" data-link-type="dependency" data-source-line="1" id="lnk3"><path d="M244.51,26.19 C244.51,42.96 244.51,73.07 244.51,97.78" fill="none" id="*start*-to-&#24453;&#22788;&#29702;" style="stroke:#181818;stroke-width:1;"/><polygon fill="#181818" points="244.51,103.78,248.51,94.78,244.51,98.78,240.51,94.78,244.51,103.78" style="stroke:#181818;stroke-width:1;"/><text fill="#000000" font-family="sans-serif" font-size="13" lengthAdjust="spacing" textLength="107.6118" x="245.51" y="70.4951">&#35268;&#21017;&#35302;&#21457;/&#20154;&#24037;&#24405;&#20837;</text></g><!--link ??? to ???--><g class="link" data-entity-1="ent0002" data-entity-2="ent0003" data-link-type="dependency" data-source-line="3" id="lnk4"><path d="M244.51,157.08 C244.51,179.53 244.51,205.93 244.51,228.36" fill="none" id="&#24453;&#22788;&#29702;-to-&#22788;&#29702;&#20013;" style="stroke:#181818;stroke-width:1;"/><polygon fill="#181818" points="244.51,234.36,248.51,225.36,244.51,229.36,240.51,225.36,244.51,234.36" style="stroke:#181818;stroke-width:1;"/><text fill="#000000" font-family="sans-serif" font-size="13" lengthAdjust="spacing" textLength="52" x="245.51" y="201.1951">&#30830;&#35748;&#21578;&#35686;</text></g><!--link ??? to ???--><g class="link" data-entity-1="ent0002" data-entity-2="ent0005" data-link-type="dependency" data-source-line="4" id="lnk5"><path d="M194.42,157.1 C163.46,175.2 124.92,201.98 99.51,234.7 C75.34,265.83 75.54,278.82 67.51,317.4 C64.27,333 63.4631,344.86 63.5031,359.04" fill="none" id="&#24453;&#22788;&#29702;-to-&#24050;&#24573;&#30053;" style="stroke:#181818;stroke-width:1;"/><polygon fill="#181818" points="63.52,365.04,67.4946,356.0288,63.5059,360.04,59.4946,356.0513,63.52,365.04" style="stroke:#181818;stroke-width:1;"/><text fill="#000000" font-family="sans-serif" font-size="13" lengthAdjust="spacing" textLength="65" x="100.51" y="266.5451">&#21028;&#26029;&#20026;&#35823;&#25253;</text></g><!--link ??? to ???--><g class="link" data-entity-1="ent0002" data-entity-2="ent0006" data-link-type="dependency" data-source-line="5" id="lnk6"><path d="M277.3,157.15 C287.33,165.92 297.96,176.17 306.51,186.7 C364.33,257.84 385.82,276.85 409.51,365.4 C415.57,388.03 417.88,396.23 409.51,418.11 C397.34,449.94 374.4044,473.4608 351.2644,491.9808" fill="none" id="&#24453;&#22788;&#29702;-to-&#24050;&#20851;&#38381;" style="stroke:#181818;stroke-width:1;"/><polygon fill="#181818" points="346.58,495.73,356.1061,493.2292,350.4837,492.6057,351.1072,486.9833,346.58,495.73" style="stroke:#181818;stroke-width:1;"/><text fill="#000000" font-family="sans-serif" font-size="13" lengthAdjust="spacing" textLength="52" x="401.25" y="331.8951">&#30452;&#25509;&#22788;&#29702;</text></g><!--link ??? to ????--><g class="link" data-entity-1="ent0003" data-entity-2="ent0004" data-link-type="dependency" data-source-line="7" id="lnk7"><path d="M250.52,287.58 C253.04,301.71 254.89,319.57 252.51,335.4 C251.04,345.25 250.0051,350.0407 247.0351,359.2307" fill="none" id="&#22788;&#29702;&#20013;-to-&#24050;&#36716;&#24037;&#21333;" style="stroke:#181818;stroke-width:1;"/><polygon fill="#181818" points="245.19,364.94,251.7638,357.6062,246.7276,360.1823,244.1515,355.146,245.19,364.94" style="stroke:#181818;stroke-width:1;"/><text fill="#000000" font-family="sans-serif" font-size="13" lengthAdjust="spacing" textLength="52" x="254.61" y="331.8951">&#21019;&#24314;&#24037;&#21333;</text></g><!--link ???? to ???--><g class="link" data-entity-1="ent0004" data-entity-2="ent0003" data-link-type="dependency" data-source-line="11" id="lnk10"><path d="M205.48,365.04 C193.38,351.45 183.7,334.15 190.51,317.4 C195.02,306.34 198.6824,300.5177 207.0724,292.1077" fill="none" id="&#24050;&#36716;&#24037;&#21333;-to-&#22788;&#29702;&#20013;" style="stroke:#181818;stroke-width:1;"/><polygon fill="#181818" points="211.31,287.86,202.1218,291.4065,207.7787,291.3997,207.7854,297.0566,211.31,287.86" style="stroke:#181818;stroke-width:1;"/><text fill="#000000" font-family="sans-serif" font-size="13" lengthAdjust="spacing" textLength="52" x="191.51" y="331.8951">&#24037;&#21333;&#36864;&#22238;</text></g><!--link ??? to ???--><g class="link" data-entity-1="ent0003" data-entity-2="ent0006" data-link-type="dependency" data-source-line="8" id="lnk8"><path d="M287.7,287.62 C298.3,295.86 308.59,305.88 315.51,317.4 C349.98,374.72 354.49,401.17 338.51,466.11 C336,476.33 334.126,481.4952 329.166,490.4952" fill="none" id="&#22788;&#29702;&#20013;-to-&#24050;&#20851;&#38381;" style="stroke:#181818;stroke-width:1;"/><polygon fill="#181818" points="326.27,495.75,334.1172,489.7984,328.6833,491.371,327.1108,485.9371,326.27,495.75" style="stroke:#181818;stroke-width:1;"/><text fill="#000000" font-family="sans-serif" font-size="13" lengthAdjust="spacing" textLength="52" x="348.36" y="397.2551">&#22788;&#29702;&#23436;&#25104;</text></g><!--link ??? to ???--><g class="link" data-entity-1="ent0003" data-entity-2="ent0005" data-link-type="dependency" data-source-line="9" id="lnk9"><path d="M183.74,270.11 C151.24,277.39 112.81,291.21 87.51,317.4 C75.18,330.17 70.4685,343.5554 67.8085,359.1554" fill="none" id="&#22788;&#29702;&#20013;-to-&#24050;&#24573;&#30053;" style="stroke:#181818;stroke-width:1;"/><polygon fill="#181818" points="66.8,365.07,72.2559,356.8704,67.6404,360.1411,64.3697,355.5257,66.8,365.07" style="stroke:#181818;stroke-width:1;"/><text fill="#000000" font-family="sans-serif" font-size="13" lengthAdjust="spacing" textLength="91" x="88.51" y="331.8951">&#30830;&#35748;&#20026;&#26080;&#25928;&#21578;&#35686;</text></g><!--link ???? to ???--><g class="link" data-entity-1="ent0004" data-entity-2="ent0006" data-link-type="dependency" data-source-line="12" id="lnk11"><path d="M250.31,418.49 C263.22,440.94 278.8497,468.1283 291.7497,490.5683" fill="none" id="&#24050;&#36716;&#24037;&#21333;-to-&#24050;&#20851;&#38381;" style="stroke:#181818;stroke-width:1;"/><polygon fill="#181818" points="294.74,495.77,293.7224,485.9739,292.2481,491.4352,286.7867,489.9609,294.74,495.77" style="stroke:#181818;stroke-width:1;"/><text fill="#000000" font-family="sans-serif" font-size="13" lengthAdjust="spacing" textLength="52" x="277.94" y="462.6051">&#24037;&#21333;&#20851;&#38381;</text></g><!--link ??? to *end*--><g class="link" data-entity-1="ent0005" data-entity-2="ent0012" data-link-type="dependency" data-source-line="14" id="lnk13"><path d="M77.59,418.36 C103.31,468.69 156.6498,573.0972 173.1398,605.3672" fill="none" id="&#24050;&#24573;&#30053;-to-*end*" style="stroke:#181818;stroke-width:1;"/><polygon fill="#181818" points="175.87,610.71,175.3366,600.8756,173.5948,606.2576,168.2128,604.5159,175.87,610.71" style="stroke:#181818;stroke-width:1;"/></g><!--link ??? to *end*--><g class="link" data-entity-1="ent0006" data-entity-2="ent0012" data-link-type="dependency" data-source-line="15" id="lnk14"><path d="M274.94,549.28 C245.84,571.02 211.0857,596.9676 193.8957,609.8176" fill="none" id="&#24050;&#20851;&#38381;-to-*end*" style="stroke:#181818;stroke-width:1;"/><polygon fill="#181818" points="189.09,613.41,198.6935,611.2252,193.0947,610.4163,193.9036,604.8176,189.09,613.41" style="stroke:#181818;stroke-width:1;"/></g><?plantuml-src YzQALT3LjLDukg_rwPAMvnFQ5AmKNYnlUTenyyNoPK_x9-e_sRNhwVQbJ_TEVTgwb8iBeGoi2SnyicCjKDFpXUjUh5loT6BNYxNBq9Ljt_Hq_zxdKvS2bJtjMF9isjedEtQzMB_-MTTIB2fRDx-S3ZPmzfPdVKiXaa2BuLP1rRtOkmRahjwfO4DdFzsz2yB5L0at4IBpT5tFiuu9M9J1d0Zn2T29pwOlU3Qr0-ebBXGxqNqF4NxPqF1qzZmiAf4T0HQ6SC66Gkq5gOlMYkL2g8M9S1MN99QaeiGGIAIqs3R0rS_5qyyTfW39FL057ev-BZv8Ab233Qeen3y-nDFPspK4eGeU5b0bdkv-_a6kBaWAODw1Ad3syGzsTG40?></g></svg>