<svg xmlns="http://www.w3.org/2000/svg" xmlns:xlink="http://www.w3.org/1999/xlink" contentStyleType="text/css" data-diagram-type="STATE" height="645px" preserveAspectRatio="none" style="width:581px;height:645px;background:#FFFFFF;" version="1.1" viewBox="0 0 581 645" width="581px" zoomAndPan="magnify"><?plantuml 1.2026.3?><defs/><g><g class="entity" data-qualified-name="..." id="ent0002"><rect fill="#F1F1F1" height="52.7031" rx="12.5" ry="12.5" style="stroke:#181818;stroke-width:0.5;" width="113.6973" x="369.61" y="104"/><line style="stroke:#181818;stroke-width:0.5;" x1="369.61" x2="483.3073" y1="131.6094" y2="131.6094"/><text fill="#000000" font-family="sans-serif" font-size="14" lengthAdjust="spacing" textLength="42" x="405.4586" y="123.5332">&#24453;&#20998;&#27966;</text><text fill="#000000" font-family="sans-serif" font-size="12" lengthAdjust="spacing" textLength="93.6973" x="374.61" y="149.0664">status=PENDING</text></g><g class="entity" data-qualified-name="..." id="ent0003"><rect fill="#F1F1F1" height="52.7031" rx="12.5" ry="12.5" style="stroke:#181818;stroke-width:0.5;" width="139.0391" x="227.94" y="234.7"/><line style="stroke:#181818;stroke-width:0.5;" x1="227.94" x2="366.9791" y1="262.3094" y2="262.3094"/><text fill="#000000" font-family="sans-serif" font-size="14" lengthAdjust="spacing" textLength="42" x="276.4595" y="254.2332">&#22788;&#29702;&#20013;</text><text fill="#000000" font-family="sans-serif" font-size="12" lengthAdjust="spacing" textLength="119.0391" x="232.94" y="279.7664">status=PROCESSING</text></g><g class="entity" data-qualified-name="..." id="ent0004"><rect fill="#F1F1F1" height="52.7031" rx="12.5" ry="12.5" style="stroke:#181818;stroke-width:0.5;" width="133.707" x="38.61" y="365.4"/><line style="stroke:#181818;stroke-width:0.5;" x1="38.61" x2="172.317" y1="393.0094" y2="393.0094"/><text fill="#000000" font-family="sans-serif" font-size="14" lengthAdjust="spacing" textLength="42" x="84.4635" y="384.9332">&#24050;&#25346;&#36215;</text><text fill="#000000" font-family="sans-serif" font-size="12" lengthAdjust="spacing" textLength="113.707" x="43.61" y="410.4664">status=SUSPENDED</text></g><g class="entity" data-qualified-name="..." id="ent0005"><rect fill="#F1F1F1" height="52.7031" rx="12.5" ry="12.5" style="stroke:#181818;stroke-width:0.5;" width="136.3496" x="264.29" y="365.4"/><line style="stroke:#181818;stroke-width:0.5;" x1="264.29" x2="400.6396" y1="393.0094" y2="393.0094"/><text fill="#000000" font-family="sans-serif" font-size="14" lengthAdjust="spacing" textLength="42" x="311.4648" y="384.9332">&#24453;&#30830;&#35748;</text><text fill="#000000" font-family="sans-serif" font-size="12" lengthAdjust="spacing" textLength="116.3496" x="269.29" y="410.4664">status=CONFIRMING</text></g><g class="entity" data-qualified-name="..." id="ent0006"><rect fill="#F1F1F1" height="52.7031" rx="12.5" ry="12.5" style="stroke:#181818;stroke-width:0.5;" width="108.3711" x="324.28" y="496.11"/><line style="stroke:#181818;stroke-width:0.5;" x1="324.28" x2="432.6511" y1="523.7194" y2="523.7194"/><text fill="#000000" font-family="sans-serif" font-size="14" lengthAdjust="spacing" textLength="42" x="357.4655" y="515.6432">&#24050;&#20851;&#38381;</text><text fill="#000000" font-family="sans-serif" font-size="12" lengthAdjust="spacing" textLength="88.3711" x="329.28" y="541.1764">status=CLOSED</text></g><g class="entity" data-qualified-name="..." id="ent0007"><rect fill="#F1F1F1" height="52.7031" rx="12.5" ry="12.5" style="stroke:#181818;stroke-width:0.5;" width="131.0469" x="435.94" y="365.4"/><line style="stroke:#181818;stroke-width:0.5;" x1="435.94" x2="566.9869" y1="393.0094" y2="393.0094"/><text fill="#000000" font-family="sans-serif" font-size="14" lengthAdjust="spacing" textLength="42" x="480.4634" y="384.9332">&#24050;&#21462;&#28040;</text><text fill="#000000" font-family="sans-serif" font-size="12" lengthAdjust="spacing" textLength="111.0469" x="440.94" y="410.4664">status=CANCELLED</text></g><g class="start_entity" data-qualified-name=".start." data-source-line="1" id="ent0002"><ellipse cx="426.46" cy="16" fill="#222222" rx="10" ry="10" style="stroke:#222222;stroke-width:1;"/></g><g class="end_entity" data-qualified-name=".end." data-source-line="13" id="ent0012"><ellipse cx="435.46" cy="620.81" fill="none" rx="11" ry="11" style="stroke:#222222;stroke-width:1;"/><ellipse cx="435.46" cy="620.81" fill="#222222" rx="6" ry="6" style="stroke:#222222;stroke-width:1;"/></g><!--link *start* to ???--><g class="link" data-entity-1="ent0002" data-entity-2="ent0002" data-link-type="dependency" data-source-line="1" id="lnk3"><path d="M426.46,26.19 C426.46,42.96 426.46,73.07 426.46,97.78" fill="none" id="*start*-to-&#24453;&#20998;&#27966;" style="stroke:#181818;stroke-width:1;"/><polygon fill="#181818" points="426.46,103.78,430.46,94.78,426.46,98.78,422.46,94.78,426.46,103.78" style="stroke:#181818;stroke-width:1;"/><text fill="#000000" font-family="sans-serif" font-size="13" lengthAdjust="spacing" textLength="120.6118" x="427.46" y="70.4951">&#21578;&#35686;&#36716;&#24037;&#21333;/&#20154;&#24037;&#21019;&#24314;</text></g><!--link ??? to ???--><g class="link" data-entity-1="ent0002" data-entity-2="ent0003" data-link-type="dependency" data-source-line="3" id="lnk4"><path d="M400.67,157.08 C378.17,179.53 349.9483,207.693 327.4583,230.123" fill="none" id="&#24453;&#20998;&#27966;-to-&#22788;&#29702;&#20013;" style="stroke:#181818;stroke-width:1;"/><polygon fill="#181818" points="323.21,234.36,332.4071,230.8367,326.7503,230.8292,326.7578,225.1723,323.21,234.36" style="stroke:#181818;stroke-width:1;"/><text fill="#000000" font-family="sans-serif" font-size="13" lengthAdjust="spacing" textLength="65" x="370.69" y="201.1951">&#25351;&#27966;&#22788;&#29702;&#20154;</text></g><!--link ??? to ???--><g class="link" data-entity-1="ent0003" data-entity-2="ent0005" data-link-type="dependency" data-source-line="4" id="lnk5"><path d="M253.99,287.77 C237.3,301.09 224.39,318.15 234.46,335.4 C241.55,347.55 247.3599,354.0102 259.2999,361.6702" fill="none" id="&#22788;&#29702;&#20013;-to-&#24453;&#30830;&#35748;" style="stroke:#181818;stroke-width:1;"/><polygon fill="#181818" points="264.35,364.91,258.9348,356.6835,260.1416,362.2101,254.615,363.417,264.35,364.91" style="stroke:#181818;stroke-width:1;"/><text fill="#000000" font-family="sans-serif" font-size="13" lengthAdjust="spacing" textLength="78" x="235.46" y="331.8951">&#25552;&#20132;&#22788;&#29702;&#32467;&#26524;</text></g><!--link ??? to ???--><g class="link" data-entity-1="ent0005" data-entity-2="ent0003" data-link-type="dependency" data-source-line="6" id="lnk7"><path d="M328.68,365.04 C326.31,350.85 322.87,333 318.46,317.4 C315.66,307.51 314.0314,302.4894 310.4214,293.2394" fill="none" id="&#24453;&#30830;&#35748;-to-&#22788;&#29702;&#20013;" style="stroke:#181818;stroke-width:1;"/><polygon fill="#181818" points="308.24,287.65,307.7858,297.4884,310.0578,292.3078,315.2384,294.5799,308.24,287.65" style="stroke:#181818;stroke-width:1;"/><text fill="#000000" font-family="sans-serif" font-size="13" lengthAdjust="spacing" textLength="78" x="323.94" y="331.8951">&#36864;&#22238;&#34917;&#20805;&#22788;&#29702;</text></g><!--link ??? to ???--><g class="link" data-entity-1="ent0005" data-entity-2="ent0006" data-link-type="dependency" data-source-line="5" id="lnk6"><path d="M341.66,418.49 C349.68,440.94 359.2407,467.68 367.2607,490.12" fill="none" id="&#24453;&#30830;&#35748;-to-&#24050;&#20851;&#38381;" style="stroke:#181818;stroke-width:1;"/><polygon fill="#181818" points="369.28,495.77,370.0177,485.9488,367.5973,491.0617,362.4844,488.6412,369.28,495.77" style="stroke:#181818;stroke-width:1;"/><text fill="#000000" font-family="sans-serif" font-size="13" lengthAdjust="spacing" textLength="52" x="359.22" y="462.6051">&#30830;&#35748;&#35299;&#20915;</text></g><!--link ??? to ???--><g class="link" data-entity-1="ent0003" data-entity-2="ent0004" data-link-type="dependency" data-source-line="8" id="lnk8"><path d="M227.73,266.15 C154.42,272.08 46.19,286.02 20.46,317.4 C6,335.04 17.3406,348.8342 39.5406,361.9142" fill="none" id="&#22788;&#29702;&#20013;-to-&#24050;&#25346;&#36215;" style="stroke:#181818;stroke-width:1;"/><polygon fill="#181818" points="44.71,364.96,38.9863,356.945,40.4021,362.4218,34.9253,363.8376,44.71,364.96" style="stroke:#181818;stroke-width:1;"/><text fill="#000000" font-family="sans-serif" font-size="13" lengthAdjust="spacing" textLength="78" x="21.46" y="331.8951">&#31561;&#24453;&#22806;&#37096;&#26465;&#20214;</text></g><!--link ??? to ???--><g class="link" data-entity-1="ent0004" data-entity-2="ent0003" data-link-type="dependency" data-source-line="9" id="lnk9"><path d="M122.91,365.03 C134.41,349.61 150.6,330.52 168.46,317.4 C186.24,304.35 202.0349,295.9257 222.1849,287.4957" fill="none" id="&#24050;&#25346;&#36215;-to-&#22788;&#29702;&#20013;" style="stroke:#181818;stroke-width:1;"/><polygon fill="#181818" points="227.72,285.18,217.8735,284.9634,223.1074,287.1097,220.9611,292.3436,227.72,285.18" style="stroke:#181818;stroke-width:1;"/><text fill="#000000" font-family="sans-serif" font-size="13" lengthAdjust="spacing" textLength="52" x="169.46" y="331.8951">&#24674;&#22797;&#22788;&#29702;</text></g><!--link ??? to ???--><g class="link" data-entity-1="ent0002" data-entity-2="ent0007" data-link-type="dependency" data-source-line="10" id="lnk10"><path d="M438.92,157.11 C455.32,192.37 483.56,258.05 496.46,317.4 C499.85,333 500.9425,344.8526 501.3625,359.0426" fill="none" id="&#24453;&#20998;&#27966;-to-&#24050;&#21462;&#28040;" style="stroke:#181818;stroke-width:1;"/><polygon fill="#181818" points="501.54,365.04,505.272,355.9256,501.3921,360.0422,497.2755,356.1623,501.54,365.04" style="stroke:#181818;stroke-width:1;"/><text fill="#000000" font-family="sans-serif" font-size="13" lengthAdjust="spacing" textLength="52" x="489.28" y="266.5451">&#26080;&#38656;&#22788;&#29702;</text></g><!--link ??? to ???--><g class="link" data-entity-1="ent0003" data-entity-2="ent0007" data-link-type="dependency" data-source-line="11" id="lnk11"><path d="M356.3,287.81 C374.15,296.43 393.51,306.61 410.46,317.4 C432.71,331.57 451.285,346.353 468.655,361.323" fill="none" id="&#22788;&#29702;&#20013;-to-&#24050;&#21462;&#28040;" style="stroke:#181818;stroke-width:1;"/><polygon fill="#181818" points="473.2,365.24,468.9939,356.3345,469.4125,361.9758,463.7712,362.3945,473.2,365.24" style="stroke:#181818;stroke-width:1;"/><text fill="#000000" font-family="sans-serif" font-size="13" lengthAdjust="spacing" textLength="52" x="435.16" y="331.8951">&#24037;&#21333;&#25764;&#38144;</text></g><!--link ??? to *end*--><g class="link" data-entity-1="ent0006" data-entity-2="ent0012" data-link-type="dependency" data-source-line="13" id="lnk13"><path d="M393.74,549.28 C405.87,569.79 419.0655,592.0857 427.2455,605.9157" fill="none" id="&#24050;&#20851;&#38381;-to-*end*" style="stroke:#181818;stroke-width:1;"/><polygon fill="#181818" points="430.3,611.08,429.1611,601.2972,427.7546,606.7764,422.2754,605.3699,430.3,611.08" style="stroke:#181818;stroke-width:1;"/></g><!--link ??? to *end*--><g class="link" data-entity-1="ent0007" data-entity-2="ent0012" data-link-type="dependency" data-source-line="14" id="lnk14"><path d="M494.02,418.36 C479.52,468.23 449.7443,570.6583 440.0443,604.0383" fill="none" id="&#24050;&#21462;&#28040;-to-*end*" style="stroke:#181818;stroke-width:1;"/><polygon fill="#181818" points="438.37,609.8,444.7226,602.2737,439.7652,604.9986,437.0403,600.0413,438.37,609.8" style="stroke:#181818;stroke-width:1;"/></g><?plantuml-src PP7DJi9058NtynHTan3t9fgOjXgIsXeQLuI52vy0tDUVLZGGy0yM8B4wY0lB0fIQDl8qdUdqBUpGJgVKtUJSRywzvzvQgIwKoxi2MfcePU6lbR0jeBjRuhoJtq_aJb3dQIlmFFfg3P7l0S39zJzu5VQiuCU9_-7sTIodYkS1NaixXFQCp20bkxt0Wqazz1_mU0HuUGsxSsGkeW6rJMGoVKFMeeZbkaU6WOPZOa-GQIOwA4xWpd7xWdoxrDIveK5WFxhymCzsu2y1B_yBTlwAO2SrBUIF1-tsyR95iS5BD38OLcoTOSbMyJsC7Wq0U5BArKfrm5ccW4Rpf7cwSIEgd3LsZcHLggW73CZDp82g9igwdcDoIqWP_LYdFhB4-sINIX5HK_ShrSCDc-n0Z54qdNla0hFwdYhAYY9BVm00?></g></svg>